<svg width="43" height="43" viewBox="0 0 43 43" fill="none" xmlns="http://www.w3.org/2000/svg">
<path d="M35.2175 0H7.78246L1.50043 9.8297V14.7621C1.50043 17.0233 2.74793 18.9976 4.59005 20.0362V43H38.597V19.9276C40.3362 18.8634 41.4995 16.9461 41.4995 14.7621V9.8297L35.2175 0ZM9.31828 2.80432H33.6814L37.537 8.83734H5.46273L9.31828 2.80432ZM24.7691 40.1957H17.2393V27.3249H24.7691V40.1957ZM27.5734 40.1957V24.5206H14.435V40.1957H7.39437V20.8096C7.44686 20.811 7.4991 20.8137 7.55201 20.8137C9.41856 20.8137 11.0904 19.9643 12.2013 18.6316C13.3122 19.9643 14.984 20.8137 16.8506 20.8137C18.7171 20.8137 20.389 19.9643 21.4999 18.6316C22.6109 19.9643 24.2827 20.8137 26.1492 20.8137C28.0156 20.8137 29.6876 19.9643 30.7985 18.6316C31.9095 19.9643 33.5813 20.8137 35.4478 20.8137C35.5635 20.8137 35.6783 20.8096 35.7924 20.8032V40.1956H27.5734V40.1957ZM38.6952 14.7621C38.6951 16.5526 37.2384 18.0093 35.448 18.0093C33.6576 18.0093 32.2008 16.5526 32.2008 14.7621H29.3965C29.3965 16.5526 27.9398 18.0093 26.1493 18.0093C24.3589 18.0093 22.9021 16.5526 22.9021 14.7621H20.0978C20.0978 16.5526 18.6411 18.0093 16.8506 18.0093C15.0601 18.0093 13.6034 16.5526 13.6034 14.7621H10.7991C10.7991 16.5526 9.34239 18.0093 7.55192 18.0093C5.76146 18.0093 4.30475 16.5526 4.30475 14.7621V11.6417H38.6951V14.7621H38.6952Z" fill="black"/>
</svg>
