<svg width="57" height="57" viewBox="0 0 57 57" fill="none" xmlns="http://www.w3.org/2000/svg">
<path d="M4.11469 8.87061H13.6622L19.3355 33.7101H44.2551L50.0264 14.5617L14.8467 14.0629" stroke="black" stroke-width="3"/>
<path d="M46.072 39.4993H19.2998C18.9139 39.5078 18.5302 39.438 18.1719 39.2942C17.8137 39.1505 17.4882 38.9356 17.2153 38.6626C16.9423 38.3896 16.7274 38.0642 16.5836 37.7059C16.4398 37.3477 16.3701 36.964 16.3786 36.578C16.3786 33.7102 19.3355 33.7102 19.3355 33.7102" stroke="black" stroke-width="3"/>
<path d="M22.2211 49.1091C23.9574 49.1091 25.365 47.7015 25.365 45.9652C25.365 44.2289 23.9574 42.8213 22.2211 42.8213C20.4848 42.8213 19.0772 44.2289 19.0772 45.9652C19.0772 47.7015 20.4848 49.1091 22.2211 49.1091Z" stroke="black" stroke-width="3"/>
<path d="M41.0044 49.1091C42.7407 49.1091 44.1483 47.7015 44.1483 45.9652C44.1483 44.2289 42.7407 42.8213 41.0044 42.8213C39.2681 42.8213 37.8605 44.2289 37.8605 45.9652C37.8605 47.7015 39.2681 49.1091 41.0044 49.1091Z" stroke="black" stroke-width="3"/>
</svg>
