<svg width="80" height="80" viewBox="0 0 80 80" fill="none" xmlns="http://www.w3.org/2000/svg">
<path d="M27.1 52.7751H46.4625C47.0194 52.7751 47.5536 52.5538 47.9474 52.16C48.3412 51.7662 48.5625 51.232 48.5625 50.6751L55.875 23.9001C55.875 23.6222 55.8199 23.3471 55.7128 23.0906C55.6057 22.8342 55.4488 22.6016 55.2511 22.4062C55.0535 22.2109 54.819 22.0567 54.5613 21.9527C54.3036 21.8486 54.0279 21.7968 53.75 21.8001H22.0125C21.4544 21.8001 20.9189 22.0209 20.5231 22.4144C20.1273 22.8079 19.9033 23.342 19.9 23.9001L13.65 50.6751C13.65 51.232 13.8712 51.7662 14.2651 52.16C14.6589 52.5538 15.193 52.7751 15.75 52.7751H18.475" stroke="black" stroke-width="3"/>
<path d="M52.075 52.775H47.7375L53.9875 31.1625H64.2625C64.4171 31.1621 64.5698 31.1955 64.7102 31.2603C64.8505 31.325 64.975 31.4196 65.075 31.5375L69.55 39.4125C69.7104 39.596 69.7991 39.8313 69.8 40.075L65.6375 52.775H61.1375" stroke="black" stroke-width="3"/>
<path d="M22.8875 58.8375C25.4487 58.8375 27.525 56.7332 27.525 54.1375C27.525 51.5418 25.4487 49.4375 22.8875 49.4375C20.3263 49.4375 18.25 51.5418 18.25 54.1375C18.25 56.7332 20.3263 58.8375 22.8875 58.8375Z" stroke="black" stroke-width="3"/>
<path d="M56.6875 58.8375C59.2487 58.8375 61.325 56.7332 61.325 54.1375C61.325 51.5418 59.2487 49.4375 56.6875 49.4375C54.1263 49.4375 52.05 51.5418 52.05 54.1375C52.05 56.7332 54.1263 58.8375 56.6875 58.8375Z" stroke="black" stroke-width="3"/>
<path d="M29.0625 27.95H8.58749" stroke="black" stroke-width="3" stroke-linecap="round"/>
<path d="M25.025 34.5H10.5625" stroke="black" stroke-width="3" stroke-linecap="round"/>
<path d="M26.4875 41.875H4.01251" stroke="black" stroke-width="3" stroke-linecap="round"/>
</svg>
