<svg width="64" height="64" viewBox="0 0 64 64" fill="none" xmlns="http://www.w3.org/2000/svg">
<path d="M45.89 25.8L53.24 22C53.2553 21.9943 53.2685 21.9841 53.2778 21.9707C53.2872 21.9573 53.2922 21.9414 53.2922 21.925C53.2922 21.9087 53.2872 21.8928 53.2778 21.8794C53.2685 21.8659 53.2553 21.8557 53.24 21.85L32.38 10.53H32.3L10.74 22C10.7247 22.0057 10.7115 22.0159 10.7022 22.0294C10.6928 22.0428 10.6878 22.0587 10.6878 22.075C10.6878 22.0914 10.6928 22.1073 10.7022 22.1207C10.7115 22.1341 10.7247 22.1443 10.74 22.15L31.25 33.33H31.33L40.07 28.8" stroke="black" stroke-width="3" stroke-linecap="round"/>
<path d="M46.07 25.7099L53.26 21.9999C53.2732 21.9953 53.2873 21.9937 53.3012 21.9954C53.3151 21.9972 53.3284 22.0021 53.3401 22.0099C53.3517 22.0176 53.3614 22.028 53.3683 22.0402C53.3753 22.0523 53.3793 22.066 53.38 22.0799V42.0799C53.3789 42.0964 53.3738 42.1123 53.365 42.1262C53.3563 42.1402 53.3443 42.1518 53.33 42.1599L31.9 53.4699C31.8863 53.4767 31.8712 53.4799 31.8559 53.4792C31.8407 53.4785 31.8258 53.474 31.8128 53.466C31.7998 53.458 31.7891 53.4468 31.7816 53.4335C31.7741 53.4202 31.7701 53.4052 31.77 53.3899L31.29 33.3899C31.2838 33.3775 31.2806 33.3638 31.2806 33.3499C31.2806 33.3361 31.2838 33.3224 31.29 33.3099L40.29 28.6799" stroke="black" stroke-width="3" stroke-linecap="round"/>
<path d="M31.29 33.36L10.75 22C10.7371 21.9935 10.7227 21.9902 10.7082 21.9904C10.6937 21.9906 10.6795 21.9942 10.6667 22.0011C10.654 22.008 10.6431 22.0178 10.6349 22.0298C10.6268 22.0418 10.6217 22.0556 10.62 22.07V42.23C10.6211 42.2464 10.6263 42.2623 10.635 42.2763C10.6437 42.2903 10.6557 42.3018 10.67 42.31L31.67 53.46C31.6829 53.4666 31.6973 53.4699 31.7118 53.4697C31.7263 53.4695 31.7405 53.4658 31.7533 53.4589C31.766 53.4521 31.7769 53.4422 31.7851 53.4302C31.7932 53.4182 31.7983 53.4044 31.8 53.39L31.29 33.36Z" stroke="black" stroke-width="3" stroke-linecap="round"/>
<path d="M19.24 17.47L40.33 28.68V36.6L43.22 35.11L46.07 33.65V25.71L24.97 14.42" stroke="black" stroke-width="3" stroke-linecap="round"/>
</svg>
