<svg width="56" height="56" viewBox="0 0 56 56" fill="none" xmlns="http://www.w3.org/2000/svg">
<path d="M36.4 18.3051C34.8645 17.0527 33.0505 16.1878 31.1108 15.7832C29.1711 15.3785 27.1626 15.446 25.2545 15.9798C23.3463 16.5137 21.5944 17.4984 20.1464 18.8509C18.6984 20.2034 17.5966 21.8842 16.934 23.7515C16.2713 25.6188 16.0672 27.6181 16.3387 29.5808C16.6103 31.5436 17.3496 33.4123 18.4944 35.0296C19.6392 36.6468 21.1559 37.9653 22.9168 38.8738C24.6776 39.7823 26.6311 40.2543 28.6125 40.2501C34.0112 40.2501 38.1237 36.8288 39.8037 31.9988H28V23.9838H48.65" stroke="black" stroke-width="3"/>
<path d="M48.65 23.9837C48.65 25.9262 48.65 26.6087 48.65 28C48.6518 32.731 47.0297 37.3193 44.0549 40.9979C41.08 44.6766 36.9327 47.2228 32.306 48.2109C27.6794 49.199 22.8537 48.5692 18.6357 46.4267C14.4176 44.2842 11.0627 40.7588 9.13167 36.4399C7.20066 32.1209 6.81055 27.27 8.02654 22.6979C9.24254 18.1259 11.991 14.1097 15.8124 11.3206C19.6339 8.5316 24.2969 7.1387 29.022 7.37474C33.7471 7.61078 38.248 9.46146 41.7725 12.6175L36.3475 18.2612" stroke="black" stroke-width="3" stroke-linecap="square"/>
</svg>
