<svg width="64" height="64" viewBox="0 0 64 64" fill="none" xmlns="http://www.w3.org/2000/svg">
<path d="M34.82 52.73H14.69V22.18C14.6913 22.0018 14.7402 21.8272 14.8316 21.6742C14.923 21.5212 15.0537 21.3955 15.21 21.31L33.34 11.4C33.4925 11.3165 33.6641 11.2743 33.8379 11.2774C34.0117 11.2805 34.1817 11.3288 34.3311 11.4177C34.4805 11.5065 34.6042 11.6328 34.6899 11.784C34.7756 11.9352 34.8205 12.1061 34.82 12.28V52.73Z" stroke="black" stroke-width="3" stroke-linecap="round"/>
<path d="M48.87 52.73H34.92V21.59L48.4 29.3C48.5441 29.39 48.6629 29.5153 48.7451 29.6641C48.8273 29.8128 48.8703 29.98 48.87 30.15V52.73Z" stroke="black" stroke-width="3" stroke-linecap="round"/>
<path d="M28.1 24.86H21.06" stroke="black" stroke-width="3" stroke-linecap="round"/>
<path d="M43.66 32.41H40.14" stroke="black" stroke-width="3" stroke-linecap="round"/>
<path d="M43.66 36.9H40.14" stroke="black" stroke-width="3" stroke-linecap="round"/>
<path d="M43.66 41.71H40.14" stroke="black" stroke-width="3" stroke-linecap="round"/>
<path d="M43.66 46.1899H40.14" stroke="black" stroke-width="3" stroke-linecap="round"/>
<path d="M28.1 30.4399H21.06" stroke="black" stroke-width="3" stroke-linecap="round"/>
<path d="M28.1 35.9399H21.06" stroke="black" stroke-width="3" stroke-linecap="round"/>
<path d="M28.1 41.4399H21.06" stroke="black" stroke-width="3" stroke-linecap="round"/>
<path d="M28.1 46.9399H21.06" stroke="black" stroke-width="3" stroke-linecap="round"/>
<path d="M9.45999 52.73H54.54" stroke="black" stroke-width="3" stroke-linecap="round"/>
</svg>
