<svg width="57" height="57" viewBox="0 0 57 57" fill="none" xmlns="http://www.w3.org/2000/svg">
<path d="M20.5467 18.0173C28.0331 18.0173 34.102 15.9279 34.102 13.3505C34.102 10.773 28.0331 8.68359 20.5467 8.68359C13.0603 8.68359 6.99139 10.773 6.99139 13.3505C6.99139 15.9279 13.0603 18.0173 20.5467 18.0173Z" stroke="black" stroke-width="3" stroke-linecap="round"/>
<path d="M34.1109 19.4156C34.1109 21.9896 28.0369 24.0825 20.5467 24.0825C13.0565 24.0825 6.99139 21.9896 6.99139 19.4156" stroke="black" stroke-width="3" stroke-linecap="round"/>
<path d="M24.3853 29.7736C24.029 29.7736 20.9119 29.7736 20.5467 29.7736C13.0565 29.7736 6.99139 27.6806 6.99139 25.1067" stroke="black" stroke-width="3" stroke-linecap="round"/>
<path d="M22.1855 35.625C21.6511 35.625 21.0989 35.625 20.5467 35.625C13.0565 35.625 6.99139 33.5409 6.99139 30.9581" stroke="black" stroke-width="3" stroke-linecap="round"/>
<path d="M22.8891 41.4408C22.1103 41.5103 21.3282 41.5341 20.5467 41.5121C13.0566 41.5121 6.99139 39.4191 6.99139 36.8452" stroke="black" stroke-width="3" stroke-linecap="round"/>
<path d="M6.99139 36.8897V13.3683" stroke="black" stroke-width="3" stroke-linecap="round"/>
<path d="M34.111 26.7277V13.3505" stroke="black" stroke-width="3" stroke-linecap="round"/>
<path d="M36.4533 36.5691C43.9397 36.5691 50.0086 34.4797 50.0086 31.9022C50.0086 29.3248 43.9397 27.2354 36.4533 27.2354C28.9669 27.2354 22.8979 29.3248 22.8979 31.9022C22.8979 34.4797 28.9669 36.5691 36.4533 36.5691Z" stroke="black" stroke-width="3" stroke-linecap="round"/>
<path d="M50.0086 37.9673C50.0086 40.5501 43.9434 42.6342 36.4533 42.6342C28.9631 42.6342 22.889 40.5501 22.889 37.9673" stroke="black" stroke-width="3" stroke-linecap="round"/>
<path d="M50.0086 43.6406C50.0086 46.2234 43.9434 48.3164 36.4533 48.3164C28.9631 48.3164 22.889 46.2323 22.889 43.6406" stroke="black" stroke-width="3" stroke-linecap="round"/>
<path d="M22.889 43.5694V31.2343" stroke="black" stroke-width="3" stroke-linecap="round"/>
<path d="M50.0086 43.8276V31.7418" stroke="black" stroke-width="3" stroke-linecap="round"/>
</svg>
