<svg width="128" height="119" viewBox="0 0 128 119" fill="none" xmlns="http://www.w3.org/2000/svg">
<path opacity="0.6" d="M8.14336 70.626C-19.9784 129.451 30.5919 118.114 69.2185 118.114C107.845 118.114 130.049 104.488 127.864 75.7359C124.865 37.0776 118.662 0 80.0763 0C41.4904 0 22.9371 39.7484 8.14336 70.626Z" fill="#BFE2E2"/>
<path d="M108.415 105.115C108.417 105.705 108.303 106.29 108.079 106.837C107.856 107.383 107.528 107.88 107.113 108.298C106.698 108.717 106.206 109.05 105.663 109.278C105.12 109.505 104.538 109.623 103.95 109.625L53.9497 109.775C53.3616 109.777 52.7788 109.662 52.2347 109.438C51.6906 109.214 51.1959 108.884 50.7787 108.468C50.3616 108.051 50.0302 107.557 49.8034 107.012C49.5767 106.467 49.4591 105.882 49.4573 105.292L49.1859 11.7188C49.1841 11.1283 49.2982 10.5432 49.5216 9.99698C49.745 9.45073 50.0734 8.954 50.4881 8.53518C50.9027 8.11635 51.3955 7.78362 51.9382 7.55599C52.4809 7.32835 53.063 7.21027 53.6511 7.20849L103.665 7.05859C104.85 7.05859 105.988 7.53048 106.827 8.37084C107.667 9.21119 108.14 10.3515 108.144 11.5417L108.415 105.115Z" fill="#59589E"/>
<path d="M103.543 95.1126L53.909 95.2489L53.6783 13.5854L103.298 13.4355L103.543 95.1126Z" fill="#8AC4C5"/>
<path d="M78.6105 106.477C80.9267 106.477 82.8044 104.592 82.8044 102.267C82.8044 99.9413 80.9267 98.0562 78.6105 98.0562C76.2944 98.0562 74.4167 99.9413 74.4167 102.267C74.4167 104.592 76.2944 106.477 78.6105 106.477Z" fill="#444484"/>
<path d="M38.8438 70.2719C38.8438 70.2719 43.0648 83.2307 48.5208 87.2096C53.9769 91.1886 61.4281 101.408 63.1653 107.145L64.9026 112.868H68.3771C68.3771 112.868 64.984 78.4887 51.8189 70.2583L38.8438 70.2719Z" fill="#3F3F3F"/>
<path d="M38.8438 70.2715C38.8438 70.2715 37.0251 89.5802 35.0436 91.5697C33.062 93.5591 20.7249 98.3829 20.7249 98.3829V101.435C20.7249 101.435 42.4405 109.175 51.8189 90.0844L38.8438 70.2715Z" fill="#181818"/>
<path d="M69.6121 112.282C69.6121 112.282 69.6121 114.095 72.7473 115.375C75.8825 116.656 75.1496 118.373 72.4759 117.76C69.8021 117.147 62.8803 117.242 64.0068 115.266C64.3431 114.74 64.5548 114.143 64.6254 113.522C64.6959 112.901 64.6236 112.271 64.414 111.683L69.6121 112.282Z" fill="#513CDC"/>
<path d="M21.7971 102.703C21.7971 102.703 20.0462 103.166 19.5848 106.518C19.1233 109.87 17.2775 109.584 17.2232 106.832C17.1689 104.079 15.3774 97.2932 17.5625 97.9745C18.1521 98.1729 18.7792 98.2331 19.3956 98.1504C20.012 98.0677 20.6014 97.8444 21.1184 97.4976L21.7971 102.703Z" fill="#513CDC"/>
<path d="M62.921 44.2997C65.0892 44.5795 67.2915 44.4108 69.3922 43.8038C71.493 43.1969 73.4477 42.1645 75.1361 40.7704C80.5785 36.0557 85.5053 25.4543 85.5053 25.4543L83.6051 24.187C83.6051 24.187 76.819 34.9247 71.7158 36.4508C68.174 37.5121 64.5375 38.224 60.858 38.5766L62.921 44.2997Z" fill="#F99C73"/>
<path d="M66.4091 44.722L65.1468 37.4863C65.1468 37.4863 54.5469 39.1896 56.0806 42.8143C57.6142 46.4389 63.5996 45.049 66.4091 44.722Z" fill="white"/>
<path d="M48.7651 37.895C48.7651 37.895 39.5632 38.3856 39.1424 49.0551C38.7217 59.7246 37.2151 71.348 37.2151 71.348C37.2151 71.348 49.3216 74.7274 55.212 73.1467C55.212 73.1603 75.1496 37.0774 48.7651 37.895Z" fill="#513CDC"/>
<path d="M56.2163 42.2012L54.0854 46.766L57.6007 50.1454L59.7044 46.2619L56.2163 42.2012Z" fill="#181818"/>
<path d="M57.2342 49.7913C57.2342 49.7913 56.8135 70.3672 48.9823 72.7655L46.9193 78.2161L53.2033 76.4038C53.2033 76.4038 64.5768 68.8547 58.5507 48.4014L57.2342 49.7913Z" fill="#181818"/>
<path d="M50.9638 35.4287L48.8601 40.5523C48.8601 40.5523 49.8916 43.7545 53.9769 41.2745L53.5426 35.565L50.9638 35.4287Z" fill="#F99C73"/>
<path d="M52.0496 26.8849C51.2624 27.7433 49.688 29.3921 49.7423 30.9728C49.7966 32.5535 49.7423 35.2379 51.0317 36.4234C51.2693 36.6185 51.544 36.7631 51.8389 36.8484C52.1339 36.9338 52.443 36.958 52.7476 36.9198C53.0522 36.8816 53.3459 36.7816 53.6109 36.626C53.8758 36.4704 54.1066 36.2624 54.289 36.0146C55.0627 35.1834 57.5057 29.8009 55.6463 27.4981C54.0719 25.7811 52.6468 26.2308 52.0496 26.8849Z" fill="#F99C73"/>
<path d="M59.8401 28.1797C59.8401 28.1797 54.6284 29.5423 53.054 28.4658C51.4796 27.3893 51.0996 29.1471 51.0317 29.3243C50.9638 29.5014 50.3259 32.0496 49.6745 31.8315C49.023 31.6135 49.4438 28.3568 51.0317 26.6944C52.6197 25.0319 59.8265 25.2908 59.8401 28.1797Z" fill="#171B23"/>
<path d="M80.7278 11.9912C83.8223 11.9912 83.7001 21.3253 86.1567 23.1513C88.6133 24.9772 97.7474 21.9113 98.3718 24.9364C98.9961 27.9614 90.1877 30.5777 89.5769 33.6301C88.9662 36.6824 94.3272 44.2996 91.6671 45.8939C89.0069 47.4882 83.768 39.7075 80.6871 40.1026C77.6062 40.4978 72.0551 47.9379 69.7071 45.8939C67.3591 43.8499 73.1274 36.4371 71.7973 33.6301C70.4672 30.823 61.7538 27.7979 62.9753 24.9364C64.1968 22.0748 72.9781 25.277 75.1903 23.1513C77.4026 21.0256 77.6333 11.9912 80.7278 11.9912Z" fill="url(#paint0_linear)"/>
<path opacity="0.6" d="M80.7278 46.0986C83.8223 46.0986 83.7001 55.4328 86.1567 57.2587C88.6133 59.0847 97.7474 56.0187 98.3718 59.0438C98.9961 62.0689 90.1877 64.6851 89.5769 67.7375C88.9662 70.7898 94.3272 78.407 91.6671 80.0013C89.0069 81.5956 83.768 73.8149 80.6871 74.21C77.6062 74.6052 72.0551 82.0453 69.7071 80.0013C67.3591 77.9573 73.1274 70.5445 71.7973 67.7375C70.4672 64.9304 61.7131 61.9053 62.921 59.0438C64.1289 56.1822 72.9238 59.3844 75.1361 57.2587C77.3483 55.133 77.6333 46.0986 80.7278 46.0986Z" fill="#82ADAB"/>
<path d="M48.3851 51.1128C48.3851 51.1128 60.0165 65.407 64.5225 59.7929C69.0285 54.1788 71.7973 42.7734 71.7973 42.7734L69.6935 41.8877C69.6935 41.8877 65.8662 52.7889 60.5594 52.0803C58.2521 51.7669 52.2532 47.897 52.2532 47.897L48.3851 51.1128Z" fill="#F99C73"/>
<path d="M48.0865 52.5709L53.1625 47.2838C53.1625 47.2838 45.5485 39.6803 43.5262 43.0596C41.504 46.439 46.1457 50.4179 48.0865 52.5709Z" fill="white"/>
<path d="M69.68 41.8878C69.68 41.8878 70.0464 36.3555 71.7837 37.4864C73.5209 38.6174 71.7837 42.7735 71.7837 42.7735L69.68 41.8878Z" fill="#F99C73"/>
<path d="M17.5761 77.8753C20.5348 78.1887 24.9594 77.8753 25.1358 76.1447C25.3123 74.4141 21.3356 72.6563 18.3497 72.3429C15.3638 72.0295 14.6445 73.0515 14.468 74.7412C14.2916 76.4309 14.6173 77.5755 17.5761 77.8753Z" fill="#F2343D"/>
<path d="M20.2801 43.3458C22.2422 44.8658 25.5194 46.5838 26.4035 45.4332C27.2877 44.2826 25.2367 41.2912 23.2554 39.7593C21.274 38.2274 20.3153 38.6371 19.4491 39.7588C18.5829 40.8804 18.312 41.8355 20.2801 43.3458Z" fill="#F2343D"/>
<path d="M15.581 60.1747C18.499 61.6736 23.1814 63.0635 24.0365 61.401C24.8915 59.7386 21.4985 56.3047 18.6076 54.8058C15.7167 53.3069 14.5359 54.07 13.6809 55.7324C12.8258 57.3949 12.6629 58.6894 15.581 60.1747Z" fill="#F2343D"/>
<defs>
<linearGradient id="paint0_linear" x1="80.6309" y1="11.9912" x2="80.6309" y2="46.2486" gradientUnits="userSpaceOnUse">
<stop stop-color="#FE3C45"/>
<stop offset="1" stop-color="#EA3039"/>
</linearGradient>
</defs>
</svg>
