<svg width="135" height="117" viewBox="0 0 135 117" fill="none" xmlns="http://www.w3.org/2000/svg">
<path opacity="0.6" d="M110.087 72.6297C135.91 126.611 89.4888 116.238 54.0025 116.238C18.5162 116.238 -1.88279 103.739 0.137157 77.3167C2.84289 41.858 8.57856 7.84912 44.0648 7.84912C79.5511 7.84912 96.5212 44.2952 110.087 72.6297Z" fill="#BFE2E2"/>
<path d="M34.7382 45.8325C34.7382 45.8325 53.5786 48.2573 52.9426 40.833C52.3067 33.4088 46.3466 22.96 46.3466 22.96L44.1397 23.7474C44.1397 23.7474 49.0025 34.6212 44.5262 37.8584C42.581 39.2707 35.3491 40.6456 35.3491 40.6456L34.7382 45.8325Z" fill="#EA8A63"/>
<path d="M135 14.2985C135 18.0907 133.497 21.7275 130.822 24.409C128.147 27.0905 124.519 28.5969 120.736 28.5969H33.0673C29.2842 28.5969 25.656 27.0905 22.9809 24.409C20.3058 21.7275 18.803 18.0907 18.803 14.2985C18.803 10.5063 20.3058 6.86941 22.9809 4.18793C25.656 1.50644 29.2842 0 33.0673 0L120.736 0C124.519 0 128.147 1.50644 130.822 4.18793C133.497 6.86941 135 10.5063 135 14.2985Z" fill="#59589E"/>
<path d="M44.6883 5.77441C46.2344 5.77441 46.1347 10.4239 47.3815 11.3363C48.6284 12.2487 53.1546 10.7239 53.4913 12.2237C53.8279 13.7236 49.4015 14.9984 49.1022 16.5483C48.803 18.0981 51.4713 21.8602 50.1496 22.6476C48.8279 23.435 46.2095 19.5729 44.6883 19.7604C43.1671 19.9479 40.3865 23.66 39.2269 22.6476C38.0673 21.6352 40.9227 17.9481 40.2743 16.5483C39.6259 15.1484 35.2868 13.6486 35.8479 12.2237C36.409 10.7989 40.8354 12.3862 41.9576 11.3363C43.0798 10.2864 43.1421 5.77441 44.6883 5.77441Z" fill="url(#paint0_linear)"/>
<path d="M66.2469 5.77441C67.793 5.77441 67.7307 10.4239 68.9776 11.3238C70.2244 12.2237 74.7506 10.7114 75.0873 12.2112C75.4239 13.7111 70.9601 14.9984 70.6733 16.5483C70.3865 18.0981 73.0424 21.8602 71.7207 22.6476C70.399 23.435 67.7805 19.5729 66.2594 19.7604C64.7382 19.9479 61.9576 23.66 60.798 22.6476C59.6384 21.6352 62.4938 17.9481 61.8454 16.5483C61.197 15.1484 56.8579 13.6486 57.419 12.2237C57.98 10.7989 62.4065 12.3862 63.5287 11.3363C64.6509 10.2864 64.7007 5.77441 66.2469 5.77441Z" fill="url(#paint1_linear)"/>
<path d="M88.0798 5.77441C89.6259 5.77441 89.5636 10.4239 90.8105 11.3238C92.0574 12.2237 96.5835 10.7114 96.9202 12.2112C97.2569 13.7111 92.793 14.9984 92.5062 16.5483C92.2195 18.0981 94.8753 21.8602 93.5536 22.6476C92.2319 23.435 89.6135 19.5729 88.0923 19.7604C86.5711 19.9479 83.7905 23.66 82.6185 22.6476C81.4464 21.6352 84.3267 17.9481 83.6658 16.5483C83.005 15.1484 78.6783 13.6486 79.2394 12.2237C79.8005 10.7989 84.2269 12.3862 85.3491 11.3363C86.4713 10.2864 86.5461 5.77441 88.0798 5.77441Z" fill="#3D3D7F"/>
<path d="M109.813 5.77441C111.359 5.77441 111.297 10.4239 112.544 11.3238C113.791 12.2237 118.317 10.7114 118.653 12.2112C118.99 13.7111 114.526 14.9984 114.227 16.5483C113.928 18.0981 116.596 21.8602 115.274 22.6476C113.953 23.435 111.334 19.5729 109.813 19.7604C108.292 19.9479 105.511 23.66 104.339 22.6476C103.167 21.6352 106.047 17.9481 105.387 16.5483C104.726 15.1484 100.399 13.6486 100.96 12.2237C101.521 10.7989 105.948 12.3862 107.07 11.3363C108.192 10.2864 108.267 5.77441 109.813 5.77441Z" fill="#3D3D7F"/>
<path d="M35.7232 45.8827V38.3835C35.7232 38.3835 24.6509 38.1335 25.5237 42.1331C26.3965 46.1326 32.818 45.6952 35.7232 45.8827Z" fill="white"/>
<path d="M31.9701 105.938C31.9701 105.938 30.8603 109.188 35.8229 109.276C40.7855 109.363 45.5486 107.426 42.4813 106.263C39.0457 105.37 35.4541 105.259 31.9701 105.938Z" fill="#513CDC"/>
<path d="M47.5669 106.898C47.5669 106.898 46.4572 110.148 51.4198 110.236C56.3824 110.323 61.1455 108.386 58.0781 107.223C54.6426 106.33 51.0509 106.219 47.5669 106.898Z" fill="#513CDC"/>
<path d="M32.606 69.2924C32.606 69.2924 28.3915 83.9783 28.7531 88.4528C29.2519 94.5772 32.2569 107.726 32.2569 107.726L34.7506 106.688C34.7506 106.688 34.4888 92.4274 36.4339 88.2778C38.3791 84.1283 43.1297 69.1924 43.1297 69.1924L32.606 69.2924Z" fill="#181818"/>
<path d="M47.7806 66.543C47.7806 66.543 50.6359 85.7534 50.8479 90.2904C51.1471 96.4273 50.1995 109.363 50.1995 109.363L47.6185 108.651C47.6185 108.651 44.8878 95.3524 42.7431 89.4655C41.1471 85.1535 34.4763 72.4923 34.4763 72.4923L47.7806 66.543Z" fill="#181818"/>
<path d="M31.0349 37.6459C31.0349 37.6459 25.3491 40.9081 27.9177 51.6069C30.4863 62.3058 31.7207 71.7423 31.7207 71.7423C31.7207 71.7423 42.1072 75.7543 47.4813 67.9177C47.4813 67.9177 56.995 29.4093 31.0349 37.6459Z" fill="#513CDC"/>
<path d="M46.4214 46.4323C46.4214 46.4323 65.2743 48.8071 64.6135 41.3703C63.9526 33.9336 57.9676 23.5098 57.9676 23.5098L55.7606 24.3597C55.7606 24.3597 60.6484 35.2085 56.1845 38.4707C54.2394 39.883 47.02 41.2454 47.02 41.2454L46.4214 46.4323Z" fill="#F99C73"/>
<path d="M49.788 47.6822V40.183C49.788 40.183 38.7157 39.958 39.601 43.9326C40.4863 47.9072 46.8828 47.4947 49.788 47.6822Z" fill="white"/>
<path d="M32.6434 33.5341L31.9202 39.1585C31.9202 39.1585 33.8404 42.0457 37.1945 38.4336L35.1746 32.9092L32.6434 33.5341Z" fill="#F99C73"/>
<path d="M31.3092 24.6975C30.7606 25.7723 29.6758 27.8471 30.1746 29.372C30.6733 30.8968 31.3466 33.5965 32.9676 34.3714C33.2507 34.4925 33.5549 34.5563 33.8627 34.559C34.1705 34.5616 34.4758 34.5032 34.761 34.387C35.0462 34.2708 35.3055 34.0992 35.5242 33.882C35.7428 33.6648 35.9164 33.4063 36.0349 33.1215C36.5711 32.0842 37.4938 26.0598 34.9501 24.3725C33.0175 23.0351 31.7207 23.885 31.3092 24.6975Z" fill="#F99C73"/>
<path d="M35.7855 23.66C35.7855 23.66 40.985 20.9228 39.202 20.7728C37.419 20.6228 29.6633 20.6853 30.0499 23.66C30.4364 26.6347 28.6783 32.9215 31.9327 34.2214C35.187 35.5213 36.5212 27.8846 35.7855 23.66Z" fill="#312E3F"/>
<path d="M75.7232 83.6661C73.005 83.9536 68.9402 83.6661 68.7781 82.0788C68.616 80.4915 72.2693 78.8791 75.0125 78.5917C77.7556 78.3042 78.4165 79.2416 78.5786 80.7914C78.7407 82.3413 78.4539 83.3787 75.7232 83.6661Z" fill="#F2343D"/>
<path d="M74.9274 98.6823C72.2839 97.9875 68.5849 96.2778 68.996 94.7361C69.4072 93.1944 73.3948 92.9818 76.0617 93.6855C78.7286 94.3891 79.0143 95.4999 78.6164 97.0065C78.2186 98.5132 77.5827 99.3815 74.9274 98.6823Z" fill="#F2343D"/>
<path d="M77.5561 67.4929C74.8753 68.8677 70.5736 70.1426 69.8005 68.6177C69.0274 67.0929 72.1197 63.9432 74.788 62.5684C77.4564 61.1935 78.5287 61.8935 79.3267 63.4183C80.1247 64.9431 80.2494 66.0555 77.5561 67.4929Z" fill="#F2343D"/>
<defs>
<linearGradient id="paint0_linear" x1="44.6537" y1="5.77441" x2="44.6537" y2="22.8222" gradientUnits="userSpaceOnUse">
<stop stop-color="#FE3C45"/>
<stop offset="1" stop-color="#EA3039"/>
</linearGradient>
<linearGradient id="paint1_linear" x1="66.2372" y1="5.77441" x2="66.2372" y2="22.8222" gradientUnits="userSpaceOnUse">
<stop stop-color="#FE3C45"/>
<stop offset="1" stop-color="#EA3039"/>
</linearGradient>
</defs>
</svg>
