<svg width="167" height="119" viewBox="0 0 167 119" fill="none" xmlns="http://www.w3.org/2000/svg">
<path opacity="0.6" d="M163.484 50.2487C184.606 80.5201 105.744 118.999 56.158 118.999C6.57183 118.999 13.049 98.0058 15.8616 73.1385C19.6479 39.806 27.6666 7.81445 77.2527 7.81445C126.839 7.81445 144.837 23.5123 163.484 50.2487Z" fill="#8AC4C5"/>
<path d="M28.816 29.418H144.445C145.058 29.418 145.646 29.662 146.08 30.0963C146.514 30.5307 146.757 31.1198 146.757 31.734V101.148C146.757 101.759 146.515 102.345 146.084 102.777C145.653 103.208 145.068 103.451 144.458 103.451H28.816C28.2027 103.451 27.6146 103.207 27.1809 102.773C26.7473 102.338 26.5037 101.749 26.5037 101.135V31.734C26.5037 31.1198 26.7473 30.5307 27.1809 30.0963C27.6146 29.662 28.2027 29.418 28.816 29.418Z" fill="#4E49A3"/>
<path d="M139.807 36.9214H33.4406V96.5297H139.807V36.9214Z" fill="#EAF0FE"/>
<path d="M20.7026 106.85H155.114C155.767 106.85 156.393 106.591 156.854 106.128C157.316 105.666 157.575 105.039 157.575 104.385V100.038H18.2551V104.385C18.2533 104.708 18.3153 105.029 18.4375 105.328C18.5597 105.627 18.7397 105.898 18.9671 106.128C19.1946 106.357 19.465 106.538 19.7628 106.662C20.0607 106.787 20.38 106.85 20.7026 106.85Z" fill="#5F82D6"/>
<path d="M133.208 42.7588H39.7419V96.5295H133.208V42.7588Z" fill="#DAE2F2"/>
<path d="M129.151 44.3438H41.9326V49.0842H129.151V44.3438Z" fill="#EAF0FE"/>
<path d="M76.3062 51.4678H43.1766V94.2541H76.3062V51.4678Z" fill="#EAF0FE"/>
<path d="M71.9385 79.2065H45.9892V91.6402H71.9385V79.2065Z" fill="#DAE2F2"/>
<path d="M71.9385 54.7051H45.9892V56.4658H71.9385V54.7051Z" fill="#DAE2F2"/>
<path d="M71.9385 58.6597H45.9892V60.4204H71.9385V58.6597Z" fill="#DAE2F2"/>
<path d="M71.9385 63.4004H45.9892V65.1476H71.9385V63.4004Z" fill="#DAE2F2"/>
<path d="M71.9385 67.3555H45.9892V69.1162H71.9385V67.3555Z" fill="#DAE2F2"/>
<path d="M129.138 51.4678H85.6906V53.5671H129.138V51.4678Z" fill="#EAF0FE"/>
<path d="M129.138 55.4092H85.6906V57.5221H129.138V55.4092Z" fill="#EAF0FE"/>
<path d="M129.138 60.1499H85.6906V62.2628H129.138V60.1499Z" fill="#EAF0FE"/>
<path d="M129.138 65.1611H85.6906V93.0082H129.138V65.1611Z" fill="#EAF0FE"/>
<path d="M126.325 68.2358H89.4498V80.7643H126.325V68.2358Z" fill="#DAE2F2"/>
<path d="M90.5316 45.5356H43.1766V47.7705H90.5316V45.5356Z" fill="#DAE2F2"/>
<path d="M127.42 45.5356H108.665V47.7705H127.42V45.5356Z" fill="#DAE2F2"/>
<path d="M14.3336 44.0322C16.8217 44.0322 16.7271 51.5087 18.7419 52.9715C20.7567 54.4342 28.0317 51.9827 28.5861 54.4071C29.1405 56.8316 21.9331 58.9174 21.4598 61.3554C20.9866 63.7933 25.2731 69.8883 23.1366 71.175C21.0001 72.4617 16.8082 66.2313 14.3336 66.5428C11.859 66.8543 7.41021 72.8138 5.53061 71.175C3.65102 69.5361 8.23507 63.6173 7.20737 61.3554C6.17968 59.0935 -0.905986 56.6961 0.0811393 54.4071C1.06826 52.1182 8.11337 54.678 9.92535 52.9715C11.7373 51.2649 11.8455 44.0322 14.3336 44.0322Z" fill="url(#paint0_linear)"/>
<path d="M49.6267 44.0322C52.1148 44.0322 52.0202 51.5087 54.035 52.9715C56.0498 54.4342 63.3248 51.9827 63.8792 54.4071C64.4336 56.8316 57.2262 58.9038 56.7935 61.3554C56.3608 63.8069 60.6068 69.8883 58.4703 71.175C56.3338 72.4617 52.1283 66.2313 49.6673 66.5428C47.2062 66.8543 42.7439 72.8138 40.8643 71.175C38.9847 69.5361 43.5687 63.6173 42.5411 61.3554C41.5134 59.0935 34.4277 56.6961 35.4148 54.4071C36.4019 52.1182 43.447 54.678 45.259 52.9715C47.071 51.2649 47.1521 44.0322 49.6267 44.0322Z" fill="url(#paint1_linear)"/>
<path d="M83.9868 44.0322C86.4749 44.0322 86.3803 51.5087 88.3951 52.9715C90.4099 54.4342 97.6849 51.9827 98.2393 54.4071C98.7937 56.8316 91.5863 58.9174 91.113 61.3554C90.6398 63.7933 94.9263 69.8882 92.7898 71.175C90.6533 72.4617 86.4479 66.2313 83.9868 66.5428C81.5258 66.8543 77.0769 72.8003 75.1838 71.1614C73.2907 69.5226 77.8883 63.6037 76.8606 61.3418C75.8329 59.0799 68.7472 56.6826 69.7343 54.3936C70.7215 52.1046 77.7666 54.6645 79.5785 52.9579C81.3905 51.2513 81.5122 44.0322 83.9868 44.0322Z" fill="url(#paint2_linear)"/>
<path d="M72.7498 11.5527C75.4543 14.2615 78.6185 18.9749 77.077 20.4919C75.5354 22.0088 70.5592 19.4761 67.8818 16.7672C65.2044 14.0583 65.6236 12.4872 67.1651 10.9703C68.7067 9.45329 70.0724 8.8438 72.7498 11.5527Z" fill="#F2343D"/>
<path d="M90.3423 3.75144C91.0454 7.50321 91.059 13.2324 88.99 13.5846C86.9211 13.9367 84.1626 9.08789 83.4595 5.33612C82.7563 1.58436 83.9868 0.527905 86.1639 0.135121C88.341 -0.257663 89.6391 -0.000321952 90.3423 3.75144Z" fill="#F2343D"/>
<path d="M111.167 17.9728C108.651 20.8442 104.189 24.3657 102.566 22.93C100.944 21.4943 103.121 16.3475 105.636 13.449C108.151 10.5505 109.693 10.8891 111.369 12.3248C113.046 13.7605 113.695 15.1014 111.167 17.9728Z" fill="#F2343D"/>
<path d="M141.348 91.1526C141.348 91.1526 125.514 71.7843 115.94 74.0056C109.99 75.36 106.474 96.3265 106.474 96.3265H111.342L118.103 84.2992L128.462 96.3265L141.348 91.1526Z" fill="#1A1A1A"/>
<path d="M137.008 72.421C137.008 72.421 136.791 90.0285 130.098 88.4303C123.404 86.8321 114.669 80.1006 114.669 80.1006L115.71 78.1908C115.71 78.1908 124.986 83.9742 128.462 80.3579C129.99 78.7597 132.18 72.3262 132.18 72.3262L137.008 72.421Z" fill="#F99C73"/>
<path d="M136.386 77.8114L130.341 74.3711C130.341 74.3711 135.25 65.4048 137.995 67.9376C140.74 70.4704 137.576 75.4005 136.386 77.8114Z" fill="white"/>
<path d="M152.896 92.5069C152.896 92.5069 153.924 100.728 144.431 100.214C144.431 100.214 122.877 98.8592 115.697 99.0623C109.706 99.2519 91.8297 101.487 91.8297 101.487V97.0171L119.794 91.1525C119.794 91.1525 143.647 89.3917 152.896 92.5069Z" fill="#2C2C2C"/>
<path d="M91.8162 97.017C91.8162 97.017 90.2747 96.8274 89.5039 94.0237C88.7331 91.2201 87.1916 91.6806 87.4485 94.0237C87.7054 96.3669 86.9347 102.286 88.7331 101.514C89.2138 101.281 89.7408 101.16 90.2747 101.16C90.8086 101.16 91.3355 101.281 91.8162 101.514V97.017Z" fill="#513CDC"/>
<path d="M142.741 62.8043C142.741 62.8043 134.1 64.1587 134.79 74.3169C135.48 84.4751 131.653 88.9177 135.439 92.1277C138.292 94.5521 148.082 96.2858 153.478 94.1999C153.478 94.1999 167.608 59.3234 142.741 62.8043Z" fill="#513CDC"/>
<path d="M148.001 59.2827L149.232 64.3618C149.232 64.3618 147.758 67.1926 144.323 64.2399L145.675 58.9712L148.001 59.2827Z" fill="#F99C73"/>
<path d="M148.339 51.048C148.948 51.969 150.151 53.7568 149.854 55.2196C149.556 56.6824 149.205 59.2152 147.812 60.0956C147.564 60.2345 147.292 60.3229 147.01 60.3559C146.728 60.3888 146.443 60.3656 146.17 60.2876C145.897 60.2095 145.643 60.0782 145.421 59.9011C145.199 59.724 145.014 59.5047 144.878 59.2558C144.283 58.3619 142.822 52.9306 144.986 51.1293C146.608 49.6936 147.88 50.3572 148.339 51.048Z" fill="#F99C73"/>
<path d="M140.821 51.0481C140.821 51.0481 145.5 53.1475 147.095 52.4025C148.691 51.6576 148.826 53.3506 148.867 53.5267C148.907 53.7028 149.097 56.1543 149.692 56.073C150.286 55.9918 150.462 52.8631 149.191 51.0481C147.92 49.2332 141.294 48.3393 140.821 51.0481Z" fill="#171B23"/>
<path d="M155.506 74.1952C155.506 74.1952 155.303 91.8028 148.596 90.2046C141.889 88.6063 133.154 81.8748 133.154 81.8748L134.195 79.9109C134.195 79.9109 143.471 85.7485 147.001 82.0645C148.529 80.4662 150.719 74.0327 150.719 74.0327L155.506 74.1952Z" fill="#F99C73"/>
<path d="M156.02 78.5562L149.746 75.5765C149.746 75.5765 153.978 66.2715 156.899 68.5876C159.82 70.9037 157.034 76.0776 156.02 78.5562Z" fill="white"/>
<path d="M128.52 91.1692L128.488 92.7129L144.562 93.0502L144.594 91.5064L128.52 91.1692Z" fill="#CACACA"/>
<path d="M103.229 76.8633L125.608 77.3373L129.895 92.7507L107.543 92.2767L103.229 76.8633Z" fill="#CACACA"/>
<path d="M117.654 85.9762C117.677 84.8918 116.817 83.9943 115.735 83.9716C114.652 83.9489 113.756 84.8095 113.733 85.8939C113.711 86.9783 114.57 87.8758 115.653 87.8986C116.735 87.9213 117.631 87.0606 117.654 85.9762Z" fill="white"/>
<defs>
<linearGradient id="paint0_linear" x1="14.3018" y1="44.0322" x2="14.3018" y2="71.4596" gradientUnits="userSpaceOnUse">
<stop stop-color="#FE3C45"/>
<stop offset="1" stop-color="#EA3039"/>
</linearGradient>
<linearGradient id="paint1_linear" x1="49.6152" y1="44.0322" x2="49.6152" y2="71.4596" gradientUnits="userSpaceOnUse">
<stop stop-color="#FE3C45"/>
<stop offset="1" stop-color="#EA3039"/>
</linearGradient>
<linearGradient id="paint2_linear" x1="83.955" y1="44.0322" x2="83.955" y2="71.4466" gradientUnits="userSpaceOnUse">
<stop stop-color="#FE3C45"/>
<stop offset="1" stop-color="#EA3039"/>
</linearGradient>
</defs>
</svg>
