<svg width="749" height="575" viewBox="0 0 749 575" fill="none" xmlns="http://www.w3.org/2000/svg">
<path d="M746.557 570.112H2.51866C1.89013 570.109 1.28325 570.341 0.817224 570.763C0.351196 571.185 0.059703 571.766 -1.546e-06 572.392C-0.0224322 572.726 0.0240078 573.061 0.136437 573.377C0.248866 573.692 0.424885 573.981 0.653574 574.225C0.882263 574.47 1.15874 574.665 1.46586 574.798C1.77297 574.931 2.10417 575 2.4389 575H746.557C747.205 575 747.826 574.742 748.284 574.284C748.743 573.826 749 573.204 749 572.556C749 571.908 748.743 571.286 748.284 570.828C747.826 570.369 747.205 570.112 746.557 570.112Z" fill="#181818"/>
<path d="M276.348 101.267C269.033 104.334 260.972 105.163 253.186 103.648C245.4 102.133 238.238 98.3428 232.606 92.7558C226.974 87.1688 223.124 80.0366 221.545 72.2611C219.965 64.4856 220.726 56.4161 223.732 49.0733C226.737 41.7306 231.852 35.4443 238.43 31.0096C245.007 26.5749 252.751 24.1911 260.683 24.1595C268.615 24.1279 276.378 26.4501 282.991 30.8323C289.603 35.2145 294.768 41.4599 297.832 48.7785C301.926 58.5902 301.964 69.6256 297.936 79.4649C293.909 89.3043 286.145 97.1446 276.348 101.267Z" fill="#6B6B6B"/>
<path d="M275.945 100.296C268.824 103.279 260.979 104.082 253.401 102.605C245.824 101.128 238.854 97.4371 233.374 91.9986C227.893 86.56 224.148 79.6181 222.61 72.0505C221.073 64.4828 221.814 56.6292 224.738 49.4824C227.662 42.3356 232.639 36.2165 239.039 31.8987C245.44 27.5808 252.976 25.258 260.696 25.224C268.416 25.19 275.972 27.4462 282.411 31.7075C288.849 35.9688 293.879 42.0438 296.866 49.1645C300.857 58.7216 300.896 69.4719 296.974 79.0574C293.052 88.643 285.489 96.2811 275.945 100.296Z" fill="#6B6B6B"/>
<path d="M273.244 93.858C289.489 87.0469 297.139 68.3516 290.33 52.1009C283.521 35.8503 264.831 28.198 248.586 35.0091C232.34 41.8203 224.69 60.5156 231.499 76.7662C238.308 93.0169 256.998 100.669 273.244 93.858Z" fill="white"/>
<path d="M272.54 92.1753C267.027 94.4844 260.953 95.1065 255.087 93.9629C249.22 92.8193 243.824 89.9615 239.581 85.7507C235.338 81.5398 232.438 76.1651 231.248 70.3059C230.059 64.4467 230.632 58.3663 232.897 52.8332C235.161 47.3001 239.015 42.5629 243.971 39.2205C248.927 35.8781 254.762 34.0805 260.739 34.055C266.716 34.0295 272.566 35.7772 277.55 39.0773C282.534 42.3773 286.428 47.0815 288.74 52.595C291.829 59.9934 291.859 68.3157 288.822 75.736C285.785 83.1562 279.93 89.0684 272.54 92.1753Z" fill="white"/>
<path d="M236.099 72.9144L231.108 75.0139C230.913 75.0966 230.736 75.217 230.587 75.3683C230.438 75.5195 230.32 75.6986 230.24 75.8953C230.161 76.092 230.121 76.3025 230.122 76.5147C230.124 76.727 230.167 76.9369 230.25 77.1323C230.333 77.3278 230.453 77.5051 230.604 77.654C230.755 77.803 230.934 77.9207 231.131 78.0004C231.328 78.0802 231.538 78.1204 231.75 78.1188C231.962 78.1172 232.172 78.0738 232.368 77.991L237.359 75.8915C237.554 75.8088 237.731 75.6884 237.88 75.5372C238.029 75.3859 238.147 75.2069 238.227 75.0102C238.306 74.8134 238.347 74.6029 238.345 74.3907C238.343 74.1784 238.3 73.9686 238.217 73.7731C238.135 73.5776 238.014 73.4003 237.863 73.2514C237.712 73.1025 237.533 72.9847 237.336 72.905C237.139 72.8253 236.929 72.7851 236.717 72.7867C236.505 72.7883 236.295 72.8317 236.099 72.9144Z" fill="#6B6B6B"/>
<path d="M270.336 86.935C269.945 87.101 269.635 87.4144 269.474 87.8073C269.312 88.2002 269.311 88.6411 269.472 89.0345L271.571 94.0272C271.738 94.422 272.055 94.7343 272.452 94.8953C272.849 95.0563 273.294 95.053 273.688 94.8859C274.083 94.7189 274.395 94.4018 274.556 94.0045C274.717 93.6073 274.714 93.1623 274.547 92.7675L272.448 87.7748C272.277 87.385 271.96 87.0783 271.565 86.921C271.169 86.7638 270.728 86.7688 270.336 86.935Z" fill="#6B6B6B"/>
<path d="M289.352 50.5882L284.361 52.6877C284.166 52.7705 283.989 52.8909 283.84 53.0421C283.691 53.1933 283.573 53.3724 283.493 53.5691C283.414 53.7658 283.374 53.9763 283.375 54.1886C283.377 54.4008 283.42 54.6107 283.503 54.8062C283.585 55.0017 283.706 55.1789 283.857 55.3279C284.008 55.4768 284.187 55.5945 284.384 55.6743C284.581 55.754 284.791 55.7942 285.003 55.7926C285.215 55.791 285.425 55.7476 285.621 55.6649L290.612 53.5654C290.807 53.4826 290.984 53.3622 291.133 53.211C291.282 53.0598 291.4 52.8807 291.48 52.684C291.559 52.4873 291.599 52.2768 291.598 52.0645C291.596 51.8523 291.553 51.6424 291.47 51.4469C291.387 51.2514 291.267 51.0742 291.116 50.9252C290.965 50.7763 290.786 50.6586 290.589 50.5788C290.392 50.4991 290.182 50.4589 289.97 50.4605C289.758 50.4621 289.548 50.5055 289.352 50.5882Z" fill="#6B6B6B"/>
<path d="M248.025 33.6659C247.634 33.832 247.324 34.1453 247.162 34.5383C247.001 34.9312 247 35.3721 247.161 35.7655L249.259 40.7581C249.342 40.9536 249.463 41.1309 249.614 41.2798C249.765 41.4288 249.944 41.5465 250.141 41.6262C250.337 41.706 250.548 41.7462 250.76 41.7446C250.972 41.743 251.182 41.6996 251.377 41.6168C251.573 41.5341 251.75 41.4137 251.899 41.2625C252.048 41.1113 252.165 40.9322 252.245 40.7355C252.325 40.5388 252.365 40.3283 252.363 40.116C252.362 39.9038 252.318 39.6939 252.236 39.4984L250.137 34.5057C249.966 34.116 249.649 33.8092 249.254 33.652C248.858 33.4948 248.417 33.4998 248.025 33.6659Z" fill="#6B6B6B"/>
<path d="M259.242 20.0944L259.687 13.7622C259.701 13.5123 259.814 13.2781 260 13.1112C260.187 12.9443 260.432 12.8583 260.682 12.872L267.956 13.3759C268.206 13.3942 268.437 13.5105 268.601 13.6994C268.765 13.8883 268.847 14.1343 268.829 14.3837L268.384 20.7243C268.376 20.8481 268.343 20.969 268.288 21.0801C268.233 21.1912 268.156 21.2903 268.063 21.3718C267.969 21.4533 267.86 21.5156 267.743 21.5551C267.625 21.5945 267.501 21.6104 267.377 21.6019L260.115 21.0896C259.868 21.0713 259.638 20.9567 259.475 20.7706C259.312 20.5845 259.228 20.3417 259.242 20.0944Z" fill="#6B6B6B"/>
<path d="M230.907 32.1335L226.079 28.01C225.889 27.8476 225.642 27.7674 225.392 27.7871C225.143 27.8068 224.911 27.9247 224.749 28.115L220.022 33.6494C219.86 33.8399 219.779 34.0871 219.799 34.3366C219.819 34.5862 219.937 34.8178 220.127 34.9805L224.954 39.1039C225.145 39.2664 225.392 39.3466 225.641 39.3269C225.891 39.3072 226.122 39.1893 226.285 38.999L231.012 33.4604C231.173 33.2701 231.252 33.0239 231.233 32.7753C231.213 32.5268 231.096 32.2961 230.907 32.1335Z" fill="#6B6B6B"/>
<path d="M238.689 21.7531C238.465 21.8466 238.213 21.8474 237.988 21.7554C237.763 21.6633 237.583 21.4858 237.489 21.2618L235.722 17.0627C235.628 16.8383 235.627 16.5859 235.719 16.3609C235.811 16.1358 235.989 15.9564 236.213 15.8618L244.814 12.2548C245.038 12.1613 245.291 12.1605 245.516 12.2525C245.741 12.3446 245.92 12.5221 246.015 12.7461L247.782 16.9452C247.875 17.1696 247.876 17.422 247.784 17.6471C247.692 17.8721 247.515 18.0515 247.291 18.1461L238.689 21.7531Z" fill="#6B6B6B"/>
<path d="M240.952 23.2732C238.576 23.4516 236.214 22.7781 234.289 21.3734C232.364 19.9687 231.001 17.9245 230.446 15.6067C229.89 13.289 230.177 10.849 231.255 8.72356C232.334 6.59812 234.133 4.92602 236.331 4.00659C238.53 3.08716 240.984 2.98043 243.253 3.7055C245.523 4.43057 247.461 5.94011 248.72 7.96388C249.979 9.98764 250.476 12.3935 250.124 14.7508C249.771 17.1081 248.591 19.2629 246.795 20.8294L247.752 23.1137C250.148 21.2797 251.794 18.6361 252.384 15.6766C252.973 12.7171 252.465 9.64415 250.955 7.03186C249.445 4.41957 247.036 2.44659 244.177 1.48147C241.319 0.516362 238.207 0.625136 235.423 1.78748C232.639 2.94982 230.374 5.08622 229.049 7.79759C227.725 10.509 227.433 13.6098 228.227 16.521C229.022 19.4321 230.849 21.9543 233.366 23.6166C235.884 25.2788 238.921 25.9672 241.909 25.5533L240.952 23.2732Z" fill="#6B6B6B"/>
<path d="M245.036 26.5357C246.041 26.1158 247.051 25.7379 248.067 25.402L245.519 19.3218L240.767 21.3121L243.286 27.3168C243.86 27.0452 244.443 26.7849 245.036 26.5357Z" fill="#6B6B6B"/>
<path d="M261.989 66.9386C263.488 66.3102 264.193 64.5854 263.565 63.0861C262.937 61.5868 261.213 60.8807 259.714 61.5091C258.215 62.1375 257.509 63.8624 258.137 65.3617C258.766 66.861 260.49 67.567 261.989 66.9386Z" fill="#6B6B6B"/>
<path d="M263.977 40.1704L261.878 64.3486C261.836 64.6277 261.69 64.8804 261.468 65.0551C261.246 65.2299 260.966 65.3134 260.685 65.2888C260.404 65.2641 260.143 65.1332 259.955 64.9226C259.767 64.712 259.667 64.4376 259.674 64.1554C259.683 64.063 259.498 65.1254 263.977 40.1704Z" fill="#6B6B6B"/>
<path d="M282.09 76.1899L260.409 65.2975C260.271 65.237 260.147 65.1492 260.044 65.0392C259.942 64.9292 259.862 64.7995 259.811 64.6579C259.76 64.5163 259.739 64.3658 259.748 64.2156C259.757 64.0653 259.796 63.9185 259.864 63.7841C259.932 63.6497 260.026 63.5304 260.141 63.4336C260.256 63.3368 260.39 63.2645 260.534 63.221C260.678 63.1776 260.83 63.1639 260.979 63.1809C261.128 63.1979 261.273 63.2451 261.404 63.3198C261.521 63.345 260.585 62.7991 282.09 76.1899Z" fill="#6B6B6B"/>
<path d="M261.315 65.3437C261.927 65.0873 262.215 64.3836 261.959 63.7719C261.702 63.1602 260.999 62.8722 260.387 63.1285C259.776 63.3849 259.488 64.0887 259.744 64.7004C260 65.3121 260.704 65.6001 261.315 65.3437Z" fill="#6B6B6B"/>
<path d="M559.143 237.946C558.998 237.781 558.81 237.661 558.6 237.598C558.391 237.535 558.167 237.532 557.956 237.589C555.857 238.16 551.999 237.308 550.101 236.644L548.036 226.411C549.526 225.063 552.734 222.787 554.908 222.493C555.125 222.464 555.33 222.375 555.499 222.235C555.668 222.096 555.795 221.912 555.865 221.704L558.48 213.927C558.55 213.719 558.561 213.496 558.51 213.282C558.46 213.068 558.351 212.873 558.195 212.718C556.637 211.168 555.462 207.419 555.088 205.441L562.921 198.529C564.836 199.147 568.408 200.784 569.751 202.523C569.887 202.693 570.068 202.823 570.273 202.897C570.479 202.971 570.7 202.987 570.914 202.943L578.957 201.317C579.17 201.274 579.367 201.173 579.527 201.025C579.686 200.877 579.801 200.687 579.86 200.478C580.422 198.357 583.083 195.439 584.603 194.146L594.497 197.471C594.917 199.436 595.286 203.35 594.455 205.382C594.372 205.585 594.347 205.808 594.384 206.025C594.42 206.241 594.516 206.443 594.661 206.608L600.089 212.764C600.234 212.928 600.422 213.048 600.632 213.111C600.842 213.174 601.065 213.178 601.277 213.121C603.375 212.546 607.233 213.402 609.131 214.066L611.196 224.299C609.706 225.647 606.499 227.923 604.324 228.217C604.107 228.246 603.902 228.335 603.733 228.475C603.564 228.614 603.437 228.798 603.367 229.006L600.752 236.783C600.682 236.991 600.672 237.214 600.723 237.428C600.773 237.642 600.882 237.837 601.037 237.992C602.595 239.542 603.77 243.291 604.148 245.269L596.323 252.176C594.409 251.559 590.837 249.922 589.493 248.183C589.358 248.012 589.177 247.882 588.972 247.808C588.766 247.734 588.544 247.718 588.331 247.763L580.275 249.363C580.061 249.406 579.863 249.506 579.703 249.655C579.543 249.803 579.427 249.993 579.368 250.203C578.806 252.323 576.144 255.242 574.625 256.535L564.735 253.209C564.315 251.244 563.946 247.331 564.777 245.298C564.86 245.095 564.885 244.873 564.849 244.656C564.812 244.439 564.716 244.237 564.571 244.072L559.143 237.946ZM581.644 235.426C583.635 235.023 585.463 234.039 586.896 232.596C588.328 231.154 589.301 229.32 589.691 227.325C590.081 225.33 589.871 223.264 589.088 221.388C588.304 219.512 586.982 217.911 585.289 216.787C583.596 215.663 581.607 215.066 579.575 215.072C577.543 215.078 575.558 215.687 573.872 216.821C572.185 217.956 570.873 219.565 570.101 221.445C569.328 223.325 569.131 225.393 569.533 227.385C569.8 228.709 570.324 229.968 571.077 231.089C571.83 232.21 572.797 233.172 573.921 233.919C575.046 234.667 576.307 235.185 577.632 235.446C578.957 235.706 580.32 235.702 581.644 235.435V235.426ZM582.949 241.889C586.22 241.228 589.221 239.612 591.574 237.245C593.926 234.878 595.524 231.866 596.166 228.591C596.807 225.315 596.463 221.923 595.178 218.843C593.892 215.763 591.722 213.134 588.942 211.288C586.162 209.441 582.897 208.461 579.561 208.471C576.224 208.48 572.965 209.48 570.196 211.342C567.427 213.204 565.272 215.846 564.004 218.934C562.736 222.021 562.412 225.415 563.073 228.687C563.51 230.86 564.371 232.926 565.606 234.767C566.842 236.608 568.428 238.187 570.274 239.414C572.12 240.641 574.189 241.492 576.364 241.919C578.539 242.346 580.777 242.34 582.949 241.901V241.889Z" fill="#6B6B6B"/>
<path d="M625.582 274.583C625.626 274.414 625.717 274.261 625.844 274.142C625.971 274.022 626.129 273.941 626.299 273.907L632.667 272.622C632.838 272.587 633.015 272.601 633.178 272.662C633.342 272.723 633.485 272.828 633.591 272.966C634.653 274.343 637.482 275.637 638.998 276.128L645.194 270.669C644.896 269.107 643.964 266.134 642.734 264.908C642.61 264.785 642.524 264.631 642.484 264.462C642.444 264.292 642.452 264.115 642.507 263.951L644.577 257.791C644.632 257.626 644.733 257.48 644.867 257.369C645.001 257.259 645.164 257.188 645.336 257.165C647.057 256.934 649.597 255.128 650.793 254.062L649.156 245.958C647.654 245.433 644.614 244.757 642.939 245.21C642.772 245.255 642.595 245.253 642.429 245.203C642.263 245.154 642.114 245.059 641.999 244.929L637.701 240.054C637.586 239.923 637.509 239.764 637.48 239.592C637.451 239.421 637.471 239.245 637.537 239.084C638.196 237.476 637.906 234.377 637.57 232.819L629.737 230.186C628.533 231.223 626.425 233.52 625.959 235.2C625.915 235.368 625.824 235.521 625.697 235.64C625.57 235.76 625.412 235.841 625.242 235.876L618.874 237.161C618.703 237.195 618.526 237.181 618.363 237.121C618.199 237.06 618.056 236.954 617.95 236.816C616.888 235.439 614.059 234.146 612.543 233.654L606.347 239.113C606.645 240.675 607.577 243.648 608.807 244.874C608.931 244.997 609.017 245.151 609.057 245.321C609.097 245.49 609.089 245.667 609.034 245.832L606.965 251.992C606.909 252.157 606.808 252.303 606.674 252.413C606.54 252.524 606.377 252.594 606.205 252.617C604.484 252.848 601.944 254.654 600.748 255.72L602.385 263.825C603.888 264.35 606.927 265.026 608.602 264.572C608.769 264.527 608.946 264.529 609.112 264.579C609.278 264.629 609.427 264.724 609.542 264.853L613.84 269.724C613.955 269.855 614.032 270.015 614.061 270.186C614.09 270.357 614.07 270.533 614.004 270.694C613.345 272.303 613.639 275.401 613.971 276.959L621.804 279.592C623.034 278.555 625.137 276.262 625.582 274.583ZM627.777 264.811C625.814 265.208 623.778 265.013 621.926 264.252C620.073 263.49 618.489 262.197 617.371 260.535C616.254 258.872 615.655 256.916 615.649 254.913C615.643 252.91 616.231 250.95 617.339 249.281C618.446 247.613 620.024 246.31 621.872 245.538C623.719 244.766 625.754 244.559 627.72 244.944C629.685 245.329 631.492 246.288 632.912 247.701C634.332 249.113 635.302 250.914 635.698 252.878C635.962 254.182 635.966 255.525 635.71 256.83C635.454 258.135 634.944 259.378 634.209 260.486C633.473 261.594 632.527 262.546 631.423 263.289C630.319 264.031 629.081 264.548 627.777 264.811Z" fill="#6B6B6B"/>
<path d="M519.103 39.2942C534.382 51.9765 527.036 78.3664 507.527 80.7814C503.968 81.2746 500.714 83.0578 498.383 85.7923L490.094 95.25C489.044 96.4977 487.544 97.2795 485.92 97.4246C484.296 97.5697 482.68 97.0664 481.425 96.0245L475.637 91.216C474.365 90.1144 473.531 88.5918 473.289 86.9264C473.046 85.261 473.411 83.564 474.316 82.1457C481.129 71.372 484.373 67.9132 483.583 60.8807C481.22 40.3306 503.823 26.6078 519.103 39.2942Z" fill="#6B6B6B"/>
<path d="M497.395 55.5399C496.881 54.6873 496.43 53.7983 496.045 52.8801C493.863 47.4754 497.561 44.233 500.27 44.9894C502 45.4586 503.241 47.4054 503.03 49.6757C502.841 51.7153 501.623 53.5225 500.42 55.4656C502.215 58.235 504.484 60.6659 507.124 62.6462C511.244 58.039 515.373 58.596 516.454 61.2815C516.779 62.1804 516.822 63.1568 516.578 64.081C516.335 65.0051 515.816 65.8331 515.09 66.4549C514.204 67.2152 511.745 68.6443 507.529 66.1461C500.844 74.7937 492.439 87.1295 492.412 87.1687L490.39 85.6381C490.414 85.6002 498.774 73.3483 505.432 64.7134C502.909 62.802 500.699 60.5087 498.882 57.9161C491.764 69.4079 485.254 78.7662 485.032 79.1023L483.017 77.5652C483.507 76.8435 489.831 67.8236 497.395 55.5399ZM499.418 47.5143C498.576 47.4615 496.83 48.9085 498.968 52.9866C500.614 50.3141 501.033 49.236 499.417 47.5103L499.418 47.5143ZM509.285 64.0765C510.927 64.986 513.169 65.5787 514.002 63.7891C515.068 61.4883 512.335 60.8576 509.285 64.0765Z" fill="white"/>
<path d="M498.599 85.5674C498.531 85.6455 498.451 85.714 498.383 85.7921L490.094 95.2498C489.044 96.4975 487.544 97.2792 485.92 97.4243C484.296 97.5694 482.68 97.0661 481.425 96.0243L475.637 91.2157C474.365 90.1142 473.531 88.5915 473.289 86.9261C473.046 85.2607 473.411 83.5638 474.316 82.1454C477.347 77.3508 479.669 74.0087 481.246 71.1553L498.599 85.5674Z" fill="#181818"/>
<path d="M71.7483 431.299C71.7483 431.299 71.3999 429.599 71.3285 429.024C71.2446 428.352 71.148 426.311 71.148 426.311C71.148 426.311 71.148 419.198 71.6727 419.24C72.1975 419.282 72.8775 420.499 73.0328 420.94C73.1881 421.381 73.4106 421.877 73.5617 422.318C73.6033 422.429 73.6665 422.532 73.7476 422.619C73.8288 422.706 73.9264 422.777 74.0347 422.826C74.1431 422.876 74.2602 422.903 74.3793 422.908C74.4983 422.912 74.6171 422.893 74.7287 422.851C75.287 422.696 75.0519 420.814 74.8421 420.18C74.1872 418.203 71.3663 413.269 71.0893 412.731C70.7618 412.097 73.0286 399.76 73.4694 395.473C74.4013 388.473 75.7068 381.327 75.8117 380.583L88.2791 353.037L79.9591 344.539C79.9591 344.539 65.6867 374.919 65.162 376.519C64.9059 377.283 64.0034 393.672 64.0118 393.672C64.0748 401.772 64.1545 408.906 64.1293 410.275C64.1293 410.275 62.954 414.356 62.0556 416.909C61.1573 419.462 61.3504 422.179 61.2161 422.935C60.8066 424.882 60.7328 426.884 60.9978 428.856C61.3714 431.64 62.3033 428.814 62.3033 428.814C62.3033 428.814 62.5426 423.519 62.9582 423.607C63.2772 423.674 62.9582 426.546 63.3779 429.645C63.4745 430.439 63.5752 431.22 63.6718 431.938C63.9278 433.823 65.1662 434.193 65.2166 432.173C65.2482 431.258 65.2131 430.341 65.1116 429.431C64.9815 428.52 65.1578 427.638 65.1662 426.853C65.1662 425.299 65.1662 424.161 65.2417 424.199C65.3173 424.237 65.5482 423.934 65.6615 424.774C65.8168 425.782 65.6615 428.003 66.0225 429.469C66.2198 430.309 66.5221 432.059 66.5221 432.059C66.5221 432.059 67.328 434.856 67.5002 434.848C68.4237 434.81 68.4237 432.635 68.0081 431.547C68.0108 430.648 67.918 429.752 67.731 428.872C67.731 428.872 67.8192 424.967 68.3775 424.967C68.835 424.967 70.4386 434.335 71.3621 434.23C72.1051 434.121 71.7483 431.299 71.7483 431.299Z" fill="#F7A491"/>
<path d="M83.2166 368.994C83.2166 368.994 78.045 368.099 75.2996 367.079C71.6434 365.719 69.2339 364.526 69.2339 364.526C69.2339 364.526 73.2511 347.335 78.2591 336.896C80.3286 332.58 82.4233 330.501 85.3449 330.001C85.3449 330.001 91.503 334.045 91.2596 343.791C91.205 346.08 83.2166 368.994 83.2166 368.994Z" fill="#372994"/>
<path d="M99.1178 426.769L105.834 488.453C105.834 488.453 102.56 501.495 102.955 505.203C103.349 508.911 110.238 557.523 110.238 557.523L109.948 560.253V568.307H135.525C131.029 566.11 126.682 563.62 122.512 560.853C121.949 560.488 120.657 559.321 120.342 556.994C118.314 542.012 122.327 492.031 122.327 492.031L125.45 426.983L99.1178 426.769Z" fill="#F7A491"/>
<path d="M78.5613 439.744C77.1173 440.122 74.8925 493.156 73.6961 495.508C66.1149 510.41 64.3099 555.718 64.3099 555.718L62.127 562.172L59.7679 570.083C59.7679 570.083 67.3239 572.157 71.3118 569.898L70.892 562.1L70.4722 554.962L89.6057 498.514L100.075 440.937L78.5613 439.744Z" fill="#F7A491"/>
<path d="M116.614 337.006C113.529 332.66 100.793 320.079 99.378 320.105C95.2558 320.18 81.718 320.184 79.0734 321.57V324.535C79.1337 337.784 80.8442 350.974 84.1653 363.8C86.4867 372.74 88.6863 382.276 88.4177 385.711L88.4806 385.774C96.3305 393.563 108.68 392.971 115.858 384.421C115.877 378.351 116.234 372.287 116.929 366.256C118.646 352.66 124.279 347.797 116.614 337.006Z" fill="#513CDC"/>
<path d="M95.2307 306.621C95.2307 306.621 95.5875 315.439 94.8109 318.799C94.0343 322.158 93.0101 322.401 99.6299 323.418C102.228 323.837 104.734 324.417 104.734 324.417C104.734 324.417 104.054 319.496 103.954 317.421C103.786 313.999 104.718 303.438 104.718 303.438L95.2307 306.621Z" fill="#F7A491"/>
<path d="M100.268 311.018C101.446 311.701 102.735 312.171 104.075 312.408C104.302 308.234 104.722 303.447 104.722 303.447L95.6672 306.47C96.7579 308.377 98.3488 309.949 100.268 311.018Z" fill="#F47458"/>
<path d="M97.3295 281.868C94.7758 282.939 92.6906 284.891 91.4527 287.369C89.3538 291.534 88.5856 303.245 96.8132 307.822C100.885 310.09 105.582 310.518 107.795 308.523C110.007 306.529 109.776 301.969 109.549 298.211C109.113 290.77 107.463 279.5 97.3295 281.868Z" fill="#F7A491"/>
<path d="M91.2679 296.569C91.7339 298.526 91.1126 300.411 89.8743 300.768C88.6359 301.125 87.2591 299.857 86.7931 297.904C86.3272 295.952 86.9484 294.062 88.1868 293.705C89.4251 293.348 90.802 294.612 91.2679 296.569Z" fill="#F7A491"/>
<path d="M70.85 562.066C67.3574 563.666 63.6214 562.679 62.106 562.167L59.6797 570.108C59.6797 570.108 67.3071 572.367 71.2782 570.108L70.85 562.066Z" fill="#513CDC"/>
<path d="M109.658 570.301H136.247C137.229 570.209 137.469 569.381 137.129 568.873C136.428 567.824 133.325 567.051 129.837 565.38C123.721 566.043 110.888 561.697 109.923 560.236C109.369 563.158 109.113 570.171 109.658 570.301Z" fill="#513CDC"/>
<path d="M163.062 357.098C163.579 356.38 165.3 352.899 165.3 352.899C165.3 352.899 167.088 346.899 166.714 346.978C166.492 347.025 165.757 347.873 164.884 349.691C164.351 350.799 163.768 352.744 163.205 353.705C162.235 355.385 161.152 356.095 161.421 355.444C161.618 354.969 162.261 354.579 162.865 353.571C164.288 351.114 165.543 347.096 164.998 347.18C164.515 347.251 163.142 350.018 161.639 352.173C160.976 353.113 159.091 354.272 157.908 355.032C157.929 354.584 158.009 354.141 158.147 353.714C158.298 353.243 160.409 350.443 159.582 350.09C158.756 349.737 153.731 355.805 153.731 355.805L151.665 359.324L151.481 359.458C151.481 359.458 126.403 369.292 125.564 369.028C123.591 368.402 116.853 348.872 116.853 348.872L102.824 351.392C102.623 351.282 117.571 380.474 120.363 381.906C122.81 383.166 148.878 369.578 153.773 366.672C160.514 364.077 163.151 360.986 164.242 359.408C164.83 358.568 167.088 354.864 167.088 354.864C167.088 354.864 167.571 349.746 167.206 349.704C165.967 349.552 165.627 354.373 165.627 354.373C165.627 354.373 163.948 356.649 163.663 356.947C162.937 357.669 163.062 357.098 163.062 357.098Z" fill="#F8A492"/>
<path d="M93.7614 331.816C91.8472 339.932 102.06 358.034 102.06 358.034C102.06 358.034 116.61 350.967 119.166 347.919C119.166 347.919 109.129 331.354 108.508 330.283C107.165 327.944 102.451 323.115 99.2731 323.984C97.254 324.555 93.7614 331.816 93.7614 331.816Z" fill="#372994"/>
<path d="M96.0744 311.799C97.1616 304.35 109.507 289.174 104.743 282.825C100.885 277.694 94.156 279.231 89.8701 280.705C70.4302 287.394 71.5468 311.841 65.4097 315.666C54.2856 322.599 47.439 326.915 46.6372 342.54C45.6843 361.062 61.4092 370.518 80.3202 365.988C90.4872 363.552 93.1821 360.222 97.2582 350.619C99.0968 346.29 102.803 332.786 101.788 326.185C100.877 320.277 95.1971 317.808 96.0744 311.799Z" fill="#184655"/>
<path d="M101.678 302.141C102.666 302.141 103.467 300.353 103.467 298.148C103.467 295.942 102.666 294.154 101.678 294.154C100.691 294.154 99.8902 295.942 99.8902 298.148C99.8902 300.353 100.691 302.141 101.678 302.141Z" fill="#F7A491"/>
<path d="M127.839 466.874L128.75 430.279C128.913 419.963 126.871 409.731 122.76 400.269L115.859 384.421C113.138 385.387 110.324 386.068 107.463 386.454C101.07 387.193 94.7815 386.454 88.4261 385.706C88.4106 385.924 88.3811 386.14 88.3379 386.353C87.1835 391.74 80.7567 403.758 78.0492 420.176C74.9764 438.816 73.8262 466.698 74.2124 468.885C103.601 470.233 110.607 471.283 127.839 466.874Z" fill="#323030"/>
<path d="M493.83 283.699L515.961 305.836C515.961 305.836 558.102 322.322 562.808 332.446C567.514 342.57 558.568 342.103 548.683 340.688C538.797 339.273 510.781 321.847 510.781 321.847L485.12 292.193L493.83 283.699Z" fill="#372994"/>
<path d="M558.602 328.007L553.145 326.063L542.55 331.009C542.55 331.009 537.093 334.717 534.427 343.905C531.761 353.092 534.427 408.016 538.843 416.847C543.259 425.677 558.602 328.007 558.602 328.007Z" fill="#372994"/>
<path d="M593.351 548.285C593.351 548.285 597.242 550.805 597.549 551.947C597.855 553.089 600.722 565.581 599.648 567.03C598.573 568.478 594.669 567.777 596.189 568.831C597.335 569.629 604.735 570.234 609.462 568.961C610.843 568.588 610.214 556.923 610.415 555.142C610.709 552.56 612.514 546.702 611.414 545.174C610.885 544.431 607.85 543.12 605.117 542.054C602.246 540.933 599.056 537.767 599.056 537.767L593.351 548.285Z" fill="#F7A491"/>
<path d="M604.899 541.953C604.899 541.953 602.603 564.095 599.912 565.732C599.199 566.152 595.416 566.492 595.068 568.298C595.068 568.344 594.98 570.154 596.126 570.196L610.47 570.15C610.47 570.15 610.621 559.262 610.528 555C610.528 555 612.51 544.111 611.863 543.297C611.217 542.482 604.899 541.953 604.899 541.953Z" fill="#372994"/>
<path d="M649.501 548.285C649.501 548.285 653.392 550.805 653.698 551.947C654.005 553.089 656.872 565.581 655.797 567.03C654.723 568.478 650.819 567.777 652.338 568.831C653.484 569.629 660.885 570.234 665.612 568.961C666.993 568.588 666.363 556.923 666.564 555.142C666.858 552.56 668.663 546.702 667.563 545.174C667.035 544.431 664 543.12 661.267 542.054C658.396 540.933 655.205 537.767 655.205 537.767L649.501 548.285Z" fill="#F7A491"/>
<path d="M579.033 404.379C579.033 404.379 592.151 430.435 594.841 437.43L614.831 488.167L658.908 540.047C658.908 540.047 655.68 548.382 650.802 550.616C650.802 550.616 597.645 507.68 593.292 500.92C586.626 490.611 556.281 427.457 556.281 427.457L550.639 415.31L579.033 404.379Z" fill="#323030"/>
<path d="M547.327 404.102L547.537 426.324C547.537 426.324 538.045 498.9 539.884 503.213C544.371 513.731 593.679 549.369 593.679 549.369L600.395 537.83L564.966 498.266L578.399 459.765C582.156 450.821 590.152 433.538 589.938 423.838C589.766 415.524 573.294 396.254 573.294 396.254L547.327 404.102Z" fill="#484848"/>
<path d="M567.459 436.939C580.523 433.97 591.097 429.351 592.18 425.707C592.671 424.056 585.384 407.479 580.006 385.345C578.256 378.119 578.571 371.329 575.771 346.017C575.175 340.646 572.954 329.393 564.643 326.491C561.704 325.475 560.092 325.601 560.092 325.601C560.025 325.601 549.518 325.685 544.712 328.352C543.528 329.964 539.103 338.774 537.928 362.784C537.416 373.281 535.321 406.941 535.749 412.412C535.814 413.224 535.895 414.009 535.993 414.768C537.89 429.322 553.17 440.189 567.459 436.939Z" fill="#372994"/>
<path d="M544.367 344.778H544.405C549.728 344.191 563.127 326.634 563.127 326.634L563.098 326.584L554.832 313.491C554.832 313.491 542.659 315.708 545.039 319.416C547.419 323.124 548.754 332.013 548.754 332.013C548.712 332.114 548.662 332.236 548.586 332.383C547.751 334.209 545.022 339.593 544.367 344.778Z" fill="#F7A491"/>
<path d="M545.039 319.416C542.659 315.713 554.832 313.491 554.832 313.491L555.521 314.583C555.556 315.425 555.441 316.267 555.181 317.069C553.756 320.792 550.986 323.844 547.419 325.622C546.815 323.33 546.017 320.936 545.039 319.416Z" fill="#FE875E"/>
<path d="M547.956 292.785C548.221 292.538 557.452 307.726 555.235 313.982C553.019 320.239 545.559 325.227 541.127 322.993C536.228 320.524 528.819 303.102 533.285 295.699C537.752 288.297 547.956 292.785 547.956 292.785Z" fill="#F7A491"/>
<path d="M534.586 285.97C540.023 284.803 549.728 286.39 555.193 290.253C561.91 294.982 562.136 303.376 559.106 308.864C556.075 314.352 557.901 318.391 557.901 318.391C557.901 318.391 548.456 317.799 546.542 311.366C545.74 308.666 546.739 306.84 544.921 305.32C543.524 304.148 542.348 300.739 540.963 297.997C540.963 297.997 534.872 294.755 532.567 297.425C531.761 298.332 527.614 287.469 534.586 285.97Z" fill="#F7CC7F"/>
<path d="M547.555 309.251C548.709 308.77 548.975 306.772 548.149 304.787C547.323 302.802 545.718 301.583 544.564 302.063C543.411 302.544 543.145 304.542 543.971 306.527C544.797 308.511 546.402 309.731 547.555 309.251Z" fill="#F7A491"/>
<path d="M661.103 541.979C661.103 541.979 658.744 564.095 656.066 565.728C655.352 566.148 651.57 566.488 651.222 568.294C651.222 568.34 651.104 570.209 652.279 570.179L666.606 570.171C666.606 570.171 666.77 559.283 666.682 555.021C666.682 555.021 668.663 544.133 668.017 543.318C667.37 542.503 661.103 541.979 661.103 541.979Z" fill="#372994"/>
<path d="M344.217 439.773C332.816 415.94 329.685 380.374 342.118 352.16C363.027 304.539 420.617 285.105 416.369 231.139C415.302 217.547 409.253 206.612 400.35 199.579C376.914 181.065 339.205 190.866 312.289 203.778C295.098 212.053 279.134 223.771 264.397 238.933L256.904 143.614C289.226 120.683 328.303 108.691 367.305 105.625C447.26 99.3266 509.005 129.337 515.289 209.342C521.019 282.305 471.729 314.629 438.663 351.102C420.31 371.35 416.163 386.945 417.582 405.009C418.316 414.348 421.817 425.883 427.446 433.231L344.217 439.773ZM401.626 570.121C323.896 576.23 314.896 471.787 393.407 465.614C470.738 459.538 479.033 564.036 401.613 570.121H401.626Z" fill="url(#paint0_linear)"/>
<path d="M481.98 288.519C481.837 287.86 482.37 288.381 481.38 283.229C481.047 281.806 480.397 280.477 479.478 279.34C478.961 278.751 478.368 278.233 477.715 277.799C476.825 277.27 476.128 278.135 476.309 278.639C476.489 279.143 477.405 280.818 477.568 281.31C477.732 281.801 477.828 282.989 477.421 283.409C477.014 283.829 470.579 276.426 470.18 275.779C469.752 274.823 469.383 273.842 469.076 272.84C469.076 272.84 468.514 271.093 467.817 271.538C467.368 271.828 466.877 273.268 468.165 276.107C469.294 278.584 470.852 280.562 470.684 280.726C470.222 281.108 467.426 277.757 467.426 277.757C467.426 277.757 466.453 275.893 465.789 275.238C465.369 273.978 464.614 272.458 463.821 273.058C463.674 273.172 464.203 275.813 464.203 275.813C464.203 275.813 465.176 277.56 465.592 278.421C466.327 279.937 467.993 281.78 468.568 282.767C469.043 283.607 468.568 283.397 468.543 283.493C468.518 283.59 467.792 282.653 466.696 281.301C466.142 280.621 465.382 279.974 464.853 279.088C464.303 278.225 463.693 277.401 463.027 276.623C461.579 274.893 460.807 276.069 461.911 277.883C462.33 278.576 462.792 279.332 463.266 280.092C465.101 283.031 467.363 285.362 467.145 285.639C466.86 286 462.968 281.541 462.968 281.541C462.968 281.541 460.227 279.714 461.856 282.401C462.989 284.29 464.343 286.037 465.89 287.604C466.536 288.167 468.258 290.816 470.785 292.425C473.312 294.033 477.413 296.464 477.413 296.464C477.883 297.031 479.092 298.883 480.746 301.503L486.875 294.125C484.742 291.816 482.081 288.977 481.98 288.519Z" fill="#F8A492"/>
<path d="M477.144 298.912L485.62 291.492L514.723 320.222C514.723 320.222 559.777 324.173 559.895 324.207L561.7 324.77C578.042 330.417 571.317 343.758 568.169 345.82C560.823 350.644 520.104 347.76 507.045 339.643C496.299 332.996 477.144 298.912 477.144 298.912Z" fill="#513CDC"/>
<path d="M173.851 340.117C174.052 340.952 174.362 341.757 174.774 342.511C177.436 347.684 183.615 355.066 183.615 355.066L188.392 343.573C188.392 343.573 187.611 339.962 186.263 334.806C181.646 336.091 177.251 336.834 173.851 340.117Z" fill="#F8A492"/>
<path d="M201.245 330.149C201.245 330.149 174.594 342.401 173.733 342.162C173.179 342.011 162.819 323.468 162.689 306.05C162.638 297.996 170.472 288.309 179.211 290.224C183.611 291.19 183.543 292.496 190.054 302.594C196.565 312.693 201.245 330.149 201.245 330.149Z" fill="#372994"/>
<path d="M223.997 549.822C223.997 549.822 223.363 560.996 223.363 561.021C223.133 562.44 222.217 565.947 222.217 567.236C222.217 572.081 243.769 563.121 238.937 560.975C238.517 560.782 236.209 559.295 236.066 557.662C235.843 555.121 235.281 549.982 235.281 549.982L223.997 549.822Z" fill="#F7A491"/>
<path d="M238.878 560.933C238.878 560.933 233.82 562.415 231.226 562.785C228.632 563.154 225.219 560.034 223.384 560.878C221.365 561.806 221.445 570.154 221.445 570.154C221.445 570.154 248.579 572.531 256.207 570.07C259.233 569.092 249.226 564.376 238.878 560.933Z" fill="#513CDC"/>
<path d="M179.912 549.822C179.912 549.822 179.278 560.996 179.274 561.021C179.043 562.44 178.128 565.947 178.128 567.236C178.128 572.081 199.68 563.121 194.848 560.975C194.428 560.782 191.439 558.212 191.297 556.566C191.074 554.025 191.192 549.982 191.192 549.982L179.912 549.822Z" fill="#F7A491"/>
<path d="M194.777 560.933C194.777 560.933 189.718 562.415 187.124 562.785C184.53 563.154 181.117 560.034 179.283 560.878C177.264 561.806 177.184 570.154 177.184 570.154C177.184 570.154 204.44 572.926 212.105 570.07C215.102 568.957 205.137 564.376 194.777 560.933Z" fill="#513CDC"/>
<path d="M186.499 346.311L205.481 317.925C205.561 317.678 205.733 317.17 205.997 316.393C206.954 313.575 208.936 307.713 210.674 301.885V301.822C211.219 299.785 212.353 296.229 213.49 292.79C214.75 288.964 216.269 284.224 216.324 283.413C216.278 283.275 216.185 283.027 216.068 282.695C215.371 280.764 214.431 276.174 214.099 274.175C213.885 272.916 213.679 269.813 215.09 269.813C217.314 269.813 216.257 272.899 217.281 274.826C217.934 272.717 218.45 270.569 218.826 268.393L219.199 262.359C219.271 261.906 218.817 258.58 220.379 258.58H220.454C221.856 258.689 221.827 262.229 222.411 268.217C222.595 267.528 222.78 266.697 222.918 265.933C223.004 264.87 223.163 263.815 223.393 262.775C223.112 261.095 223.275 258.475 224.938 258.723C225.777 258.849 225.702 262.502 225.702 262.502C225.702 263.006 225.643 266.89 225.668 267.654C225.84 266.353 226.508 260.797 227.813 260.797C228.896 260.797 228.984 262.292 228.959 263.476C228.959 264.177 228.266 270.195 228.229 270.896C228.737 269.985 229.341 264.677 229.849 264.677C231.948 264.677 231.196 272.235 230.42 274.184C230.319 274.53 230.24 274.882 230.181 275.238C229.916 276.581 229.475 278.832 228.371 280.848C227.045 283.271 225.219 287.117 224.938 287.709C224.732 288.91 224.098 293.235 223.3 298.673C222.96 300.999 222.583 303.552 222.192 306.193C222.121 306.764 221.726 308.582 220.223 315.41C218.171 324.749 217.957 325.152 217.864 325.324C216.974 327.004 196.506 356.678 195.616 357.942L195.104 358.686L186.499 346.311Z" fill="#F7A491"/>
<path d="M221.802 280.105C221.802 280.105 220.261 275.905 217.52 275.905C218 275.744 218.513 275.707 219.01 275.798C219.508 275.889 219.975 276.105 220.366 276.426C221.676 277.522 221.802 280.105 221.802 280.105Z" fill="#F47458"/>
<path d="M181.91 271.979L179.467 288.477C179.467 288.477 188.778 296.455 194.206 294.776C198.76 293.365 195.637 287.008 195.637 287.008C195.637 287.008 193.211 278.19 193.958 273.571C194.705 268.952 181.91 271.979 181.91 271.979Z" fill="#F7A491"/>
<path d="M183.665 276.964C185.999 278.139 190.612 279.748 194.201 280.134C193.857 277.824 193.66 275.385 193.954 273.579C194.298 271.45 191.758 270.946 188.917 271.018C185.21 271.358 181.902 271.975 181.902 271.975L181.432 275.145C182.056 275.886 182.814 276.502 183.665 276.964Z" fill="#FE875E"/>
<path d="M170.161 252.949C169.775 252.949 173.842 271.378 180.131 274.549C186.419 277.719 195.801 276.065 197.56 271.101C199.507 265.613 192.405 246.81 183.56 244.42C174.715 242.031 170.161 252.949 170.161 252.949Z" fill="#F7A491"/>
<path d="M177.44 236.014C173.818 238.294 170.988 241.636 169.334 245.584C166.975 246.781 164.12 249.363 162.752 256.325C161.073 264.887 167.055 271.484 173.402 273.47C179.749 275.456 180.823 279.94 180.823 279.94L181.453 275.116C181.453 275.116 180.042 270.917 177.918 268.817C175.794 266.718 178.926 263.648 179.199 261.15C179.409 259.227 178.082 255.489 178.359 252.332C178.359 252.332 181.885 246.625 185.365 245.214C191.301 242.791 183.888 232.046 177.44 236.014Z" fill="#13375B"/>
<path d="M179.372 269.053C180.609 268.574 180.944 266.461 180.122 264.333C179.299 262.204 177.629 260.867 176.392 261.345C175.155 261.824 174.82 263.937 175.642 266.065C176.465 268.194 178.135 269.531 179.372 269.053Z" fill="#F7A491"/>
<path d="M203.546 346.781L240.159 340.411C240.159 340.411 235.995 329.216 234.504 329.216C233.014 329.216 206.82 341.423 206.82 341.423L204.721 345.891L203.546 346.781Z" fill="#F8A492"/>
<path d="M184.79 373.562C184.79 373.562 181.138 392.412 182.624 406.706C184.11 420.999 184.228 471.791 184.228 471.791L178.548 553.026L192.023 553.341C192.023 553.341 208.004 472.144 207.706 474.226C207.408 476.309 213.062 417.056 213.062 417.056L194.017 371.778L184.79 373.562Z" fill="#323030"/>
<path d="M188.362 372.672C188.362 372.672 185.982 389.645 188.958 397.09C191.935 404.535 214.489 477.573 214.787 483.532C215.085 489.49 222.587 555.31 222.587 555.31L238.257 554.84L241.649 481.654L234.546 389.674L227.654 366.42L188.362 372.672Z" fill="#484848"/>
<path d="M179.467 288.473C179.467 288.473 183.333 291.181 186.935 290.866C190.537 290.551 195.637 287.003 195.637 287.003L194.928 284.442C194.928 284.442 185.604 282.993 185.369 283.148C185.134 283.304 179.467 288.473 179.467 288.473Z" fill="#F7A491"/>
<path d="M220.652 328.645C220.652 328.645 234.504 342.599 240.751 340.214C246.997 337.829 249.587 329.691 234.336 317.774C220.689 307.117 220.652 328.645 220.652 328.645Z" fill="#F8A492"/>
<path d="M230.038 345.874C227.981 333.924 213.07 296.745 211.878 289.892C211.299 286.562 203.256 286.487 195.595 286.924C187.502 287.381 179.467 288.477 179.467 288.477C179.467 288.477 172.306 289.737 169.153 292.886C166.001 296.036 165.165 304.757 169.695 321.31C173.271 334.373 177.704 341.549 179.9 351.064C180.345 354.255 180.739 357.405 181.23 361.083C182.036 375.314 181.23 394.113 181.23 394.113C181.23 394.113 220.228 402.75 234.811 389.645C234.798 389.645 232.137 358.119 230.038 345.874Z" fill="#513CDC"/>
<path d="M239.978 320.18C239.978 320.18 224.677 333.663 223.783 333.663C223.208 333.663 201.955 316.968 197.039 303.249C194.327 295.666 200.015 287.184 206.518 287.209C211.022 287.209 213.024 288.469 221.957 296.506C230.89 304.543 239.978 320.18 239.978 320.18Z" fill="#372994"/>
<path d="M147.518 176.841H78.6746C67.0202 176.841 57.5724 186.292 57.5724 197.95V213.516C57.5724 225.174 67.0202 234.625 78.6746 234.625H147.518C159.173 234.625 168.62 225.174 168.62 213.516V197.95C168.62 186.292 159.173 176.841 147.518 176.841Z" fill="#6B6B6B"/>
<path d="M155.439 212.81L182.792 225.072L164.481 199.432L155.439 212.81Z" fill="#6B6B6B"/>
<path d="M89.7568 208.124C92.402 208.124 94.5464 206.218 94.5464 203.866C94.5464 201.515 92.402 199.608 89.7568 199.608C87.1115 199.608 84.9671 201.515 84.9671 203.866C84.9671 206.218 87.1115 208.124 89.7568 208.124Z" fill="white"/>
<path d="M112.047 208.124C114.692 208.124 116.837 206.218 116.837 203.866C116.837 201.515 114.692 199.608 112.047 199.608C109.402 199.608 107.257 201.515 107.257 203.866C107.257 206.218 109.402 208.124 112.047 208.124Z" fill="white"/>
<path d="M134.333 208.124C136.978 208.124 139.123 206.218 139.123 203.866C139.123 201.515 136.978 199.608 134.333 199.608C131.688 199.608 129.543 201.515 129.543 203.866C129.543 206.218 131.688 208.124 134.333 208.124Z" fill="white"/>
<path d="M482.117 17.8588L486.337 23.9935C487.436 25.593 488.735 28.3433 490.773 28.8144C491.04 28.8749 491.321 28.8275 491.554 28.6826C491.788 28.5377 491.954 28.3068 492.019 28.0399C492.293 25.8906 490.319 23.8577 489.161 22.1931L484.908 16.0815C483.696 14.3413 480.903 16.0973 482.118 17.8628L482.117 17.8588Z" fill="#6B6B6B"/>
<path d="M505.311 8.03969C505.5 21.6805 505.343 21.3156 506.009 22.5078C506.528 23.4377 507.974 23.3133 508.439 22.4103C509.021 21.2644 508.888 21.5866 508.567 7.94279C508.518 5.84447 505.285 5.94323 505.311 8.03969Z" fill="#6B6B6B"/>
<path d="M527.868 31.5837L533.388 26.4844C535.026 24.9699 537.292 23.4727 538.055 21.3268C538.397 20.3825 537.291 19.6156 536.465 19.8434C534.311 20.4361 532.536 22.7749 530.956 24.2497L525.462 29.3721C523.923 30.8079 526.33 33.0063 527.868 31.5837Z" fill="#6B6B6B"/>
<path d="M532.356 71.3509C535.45 73.5267 538.573 75.7683 541.881 77.6104C543.661 78.6002 544.992 75.9323 543.339 74.8552C540.147 72.7621 536.928 70.7918 533.8 68.6219C532.164 67.4867 530.753 70.2232 532.356 71.3509Z" fill="#6B6B6B"/>
<path d="M536.012 54.2467C538.289 54.5082 540.544 54.7014 542.836 54.8703C544.917 55.025 547.514 55.6273 549.442 54.7438C550.463 54.2628 550.161 52.7961 549.344 52.3269C548.339 51.731 547.954 51.92 543.017 51.5767C540.775 51.4275 538.565 51.2247 536.332 51.0904C534.542 50.9823 534.21 54.0414 536.017 54.2627L536.012 54.2467Z" fill="#6B6B6B"/>
<defs>
<linearGradient id="paint0_linear" x1="313.258" y1="104.494" x2="442.329" y2="582.054" gradientUnits="userSpaceOnUse">
<stop stop-color="#FD3B44"/>
<stop offset="1" stop-color="#EA3039"/>
</linearGradient>
</defs>
</svg>
