<svg width="847" height="559" viewBox="0 0 847 559" fill="none" xmlns="http://www.w3.org/2000/svg">
<path d="M847 544.5C847 545.308 657.381 546 423.519 546C189.656 546 0 545.365 0 544.5C0 543.635 189.582 543 423.519 543C657.455 543 847 543.692 847 544.5Z" fill="#263238"/>
<path d="M711.844 63.4041H179.709C177.527 63.4041 175.367 63.8337 173.352 64.6685C171.337 65.5033 169.506 66.7269 167.964 68.2693C166.422 69.8117 165.199 71.6427 164.365 73.6577C163.532 75.6726 163.103 77.8321 163.105 80.0125V455.701C163.105 460.106 164.856 464.33 167.972 467.445C171.088 470.56 175.314 472.309 179.721 472.309H383.939C383.939 472.309 396.93 522.543 356.658 543.319H547.626C547.626 543.319 502.157 517.658 513.849 472.309H711.807C716.212 472.306 720.435 470.555 723.548 467.44C726.662 464.326 728.411 460.104 728.411 455.701V80.0125C728.411 75.6163 726.667 71.3993 723.562 68.286C720.456 65.1727 716.242 63.4171 711.844 63.4041Z" fill="#263238"/>
<path d="M452.829 432.835C460.067 443.173 448.733 454.501 438.39 447.267C438.045 447.023 437.743 446.722 437.499 446.376C430.286 436.038 441.595 424.722 451.938 431.944C452.284 432.187 452.586 432.488 452.829 432.835Z" fill="#455A64"/>
<path d="M721.185 70.3171H172.26V403.575H721.185V70.3171Z" fill="#FAFAFA"/>
<path d="M656.96 326.926H640.839V349.112H656.96V326.926Z" fill="#252525"/>
<path d="M622.924 313.855H606.803V349.1H622.924V313.855Z" fill="#858585"/>
<path d="M586.203 303.244H570.082V348.519H586.203V303.244Z" fill="#858585"/>
<path d="M245.678 317.923H229.557V348.519H245.678V317.923Z" fill="#FB3A43"/>
<path d="M280.667 330.438H264.546V348.519H280.667V330.438Z" fill="#858585"/>
<path d="M313.182 307.61H297.061V349.1H313.182V307.61Z" fill="#FB3A43"/>
<path d="M347.218 326.926H331.097V348.531H347.218V326.926Z" fill="#858585"/>
<path d="M380.673 307.61H364.552V348.519H380.673V307.61Z" fill="#FB3A43"/>
<path d="M413.819 255.298H397.697V348.531H413.819V255.298Z" fill="#858585"/>
<path d="M448.375 217.036H432.253V348.519H448.375V217.036Z" fill="#FB3A43"/>
<path d="M482.782 270.979H466.661V348.519H482.782V270.979Z" fill="#252525"/>
<path d="M550.212 258.205H534.09V348.519H550.212V258.205Z" fill="#252525"/>
<path d="M517.115 230.726H500.994V348.519H517.115V230.726Z" fill="#4E4E4E"/>
<path d="M217.432 374.588V378.421H217.036V374.922H216.121V374.563L217.432 374.588Z" fill="#E0E0E0"/>
<path d="M238.279 378.1V378.421H235.57V378.137L237.178 376.566C237.611 376.133 237.698 375.874 237.698 375.614C237.698 375.354 237.389 374.897 236.795 374.897C236.598 374.885 236.402 374.918 236.22 374.993C236.037 375.068 235.875 375.183 235.743 375.33L235.459 375.082C235.632 374.894 235.845 374.746 236.083 374.65C236.32 374.554 236.576 374.511 236.832 374.526C237.611 374.526 238.069 374.921 238.069 375.565C238.065 375.805 238.006 376.041 237.896 376.256C237.787 376.47 237.63 376.657 237.438 376.801L236.127 378.038L238.279 378.1Z" fill="#E0E0E0"/>
<path d="M258.063 377.345C258.063 377.988 257.593 378.483 256.665 378.483C256.157 378.5 255.662 378.323 255.279 377.988L255.477 377.679C255.643 377.832 255.838 377.95 256.051 378.027C256.263 378.103 256.489 378.136 256.714 378.125C257.358 378.125 257.704 377.828 257.704 377.345C257.704 376.863 257.382 376.579 256.665 376.579H256.393V376.282L257.457 374.946H255.477V374.588H257.952V374.872L256.863 376.245C257.655 376.282 258.063 376.727 258.063 377.345Z" fill="#E0E0E0"/>
<path d="M278.217 377.432H277.512V378.421H277.141V377.407H275.161V377.185L277.03 374.625H277.426L275.632 377.098H277.141V376.208H277.487V377.098H278.193L278.217 377.432Z" fill="#E0E0E0"/>
<path d="M297.828 377.308C297.828 377.964 297.37 378.471 296.43 378.471C295.921 378.489 295.426 378.312 295.044 377.976L295.242 377.667C295.407 377.821 295.602 377.94 295.815 378.016C296.027 378.093 296.253 378.125 296.479 378.112C297.135 378.112 297.481 377.791 297.481 377.321C297.481 376.851 297.172 376.517 296.244 376.517H295.427L295.625 374.588H297.741V374.946H295.972L295.836 376.183H296.331C297.395 376.171 297.828 376.628 297.828 377.308Z" fill="#E0E0E0"/>
<path d="M317.846 377.296C317.847 377.466 317.812 377.634 317.744 377.79C317.677 377.946 317.578 378.086 317.454 378.203C317.329 378.319 317.183 378.408 317.022 378.465C316.862 378.521 316.692 378.545 316.522 378.533C315.495 378.533 314.939 377.828 314.939 376.603C314.939 375.379 315.656 374.612 316.708 374.612C317.026 374.599 317.343 374.671 317.623 374.823L317.463 375.144C317.235 375.01 316.972 374.945 316.708 374.959C315.879 374.959 315.335 375.49 315.335 376.542C315.335 376.628 315.335 376.74 315.335 376.851C315.449 376.627 315.628 376.443 315.849 376.324C316.07 376.205 316.322 376.156 316.572 376.183C316.73 376.168 316.889 376.185 317.04 376.233C317.191 376.282 317.33 376.36 317.449 376.465C317.569 376.569 317.665 376.696 317.734 376.839C317.802 376.982 317.84 377.138 317.846 377.296ZM317.45 377.296C317.45 376.789 317.079 376.467 316.485 376.467C316.364 376.454 316.242 376.465 316.125 376.501C316.009 376.536 315.901 376.595 315.808 376.674C315.715 376.753 315.64 376.85 315.586 376.959C315.532 377.068 315.501 377.187 315.495 377.308C315.495 377.729 315.854 378.137 316.51 378.137C316.628 378.153 316.749 378.143 316.863 378.109C316.978 378.074 317.083 378.016 317.174 377.938C317.264 377.859 317.336 377.763 317.386 377.654C317.436 377.546 317.462 377.428 317.463 377.308L317.45 377.296Z" fill="#E0E0E0"/>
<path d="M337.58 374.588V374.872L335.972 378.421H335.539L337.122 374.922H335.143V375.639H334.747V374.563L337.58 374.588Z" fill="#E0E0E0"/>
<path d="M357.561 377.37C357.561 378.05 356.98 378.483 356.064 378.483C355.149 378.483 354.58 378.063 354.58 377.37C354.577 377.151 354.648 376.937 354.783 376.764C354.918 376.591 355.108 376.469 355.322 376.418C355.142 376.361 354.985 376.247 354.875 376.093C354.766 375.939 354.71 375.753 354.716 375.565C354.716 374.934 355.248 374.551 356.064 374.551C356.881 374.551 357.425 374.946 357.425 375.565C357.428 375.755 357.37 375.94 357.258 376.094C357.147 376.248 356.988 376.362 356.807 376.418C357.023 376.466 357.216 376.587 357.353 376.76C357.49 376.934 357.564 377.149 357.561 377.37ZM357.153 377.37C357.153 376.9 356.745 376.603 356.064 376.603C355.384 376.603 354.976 376.9 354.976 377.37C354.976 377.84 355.384 378.149 356.064 378.149C356.745 378.149 357.141 377.852 357.141 377.37H357.153ZM356.064 376.282C356.671 376.282 357.017 376.01 357.017 375.589C357.017 375.169 356.634 374.884 356.064 374.884C355.495 374.884 355.112 375.144 355.112 375.577C355.112 376.01 355.446 376.282 356.04 376.282H356.064Z" fill="#E0E0E0"/>
<path d="M377.357 376.492C377.357 377.803 376.64 378.483 375.588 378.483C375.269 378.497 374.953 378.424 374.672 378.273L374.833 377.951C375.061 378.086 375.324 378.15 375.588 378.137C376.417 378.137 376.949 377.605 376.949 376.554C376.949 376.467 376.949 376.356 376.949 376.245C376.835 376.468 376.655 376.652 376.434 376.771C376.213 376.891 375.961 376.94 375.712 376.913C375.548 376.932 375.382 376.916 375.225 376.866C375.068 376.817 374.923 376.734 374.8 376.624C374.677 376.514 374.579 376.38 374.512 376.229C374.445 376.078 374.411 375.915 374.413 375.75C374.412 375.581 374.447 375.414 374.513 375.259C374.58 375.104 374.678 374.964 374.801 374.848C374.924 374.733 375.069 374.643 375.228 374.585C375.387 374.528 375.555 374.503 375.724 374.513C376.739 374.563 377.357 375.268 377.357 376.492ZM376.813 375.725C376.813 375.305 376.454 374.897 375.798 374.897C375.68 374.883 375.56 374.894 375.446 374.93C375.332 374.966 375.227 375.026 375.138 375.105C375.049 375.185 374.978 375.282 374.93 375.391C374.882 375.5 374.857 375.618 374.858 375.738C374.858 376.245 375.229 376.566 375.823 376.566C376.057 376.576 376.286 376.494 376.46 376.336C376.634 376.179 376.738 375.959 376.751 375.725H376.813Z" fill="#E0E0E0"/>
<path d="M395.322 374.588V378.421H394.926V374.922H394.01V374.563L395.322 374.588Z" fill="#E0E0E0"/>
<path d="M396.237 376.517C396.237 375.28 396.881 374.551 397.772 374.551C398.662 374.551 399.318 375.28 399.318 376.517C399.318 377.754 398.662 378.483 397.772 378.483C396.881 378.483 396.237 377.754 396.237 376.517ZM398.91 376.517C398.91 375.49 398.452 374.922 397.772 374.922C397.091 374.922 396.633 375.49 396.633 376.517C396.633 377.543 397.091 378.112 397.772 378.112C398.452 378.112 398.91 377.556 398.91 376.517Z" fill="#E0E0E0"/>
<path d="M414.61 374.588V378.421H414.214V374.922H413.237V374.563L414.61 374.588Z" fill="#E0E0E0"/>
<path d="M416.59 374.588V378.421H416.194V374.922H415.279V374.563L416.59 374.588Z" fill="#E0E0E0"/>
<path d="M434.468 374.588V378.421H434.072V374.922H433.157V374.563L434.468 374.588Z" fill="#E0E0E0"/>
<path d="M437.982 378.1V378.421H435.272V378.137L436.881 376.566C437.314 376.133 437.4 375.874 437.4 375.614C437.4 375.354 437.091 374.897 436.497 374.897C436.301 374.885 436.104 374.918 435.922 374.993C435.74 375.068 435.577 375.183 435.446 375.33L435.161 375.082C435.334 374.894 435.548 374.746 435.785 374.65C436.023 374.554 436.278 374.511 436.534 374.526C437.314 374.526 437.771 374.921 437.771 375.565C437.767 375.805 437.708 376.041 437.599 376.256C437.49 376.47 437.333 376.657 437.141 376.801L435.829 378.038L437.982 378.1Z" fill="#E0E0E0"/>
<path d="M454.066 374.588V378.421H453.707V374.922H452.878V374.563L454.066 374.588Z" fill="#E0E0E0"/>
<path d="M457.258 377.345C457.261 377.504 457.229 377.662 457.167 377.807C457.104 377.953 457.011 378.084 456.895 378.192C456.778 378.299 456.639 378.381 456.489 378.431C456.338 378.481 456.179 378.499 456.021 378.483C455.792 378.486 455.565 378.444 455.353 378.36C455.14 378.275 454.947 378.149 454.784 377.989L454.957 377.679C455.098 377.824 455.267 377.939 455.455 378.015C455.642 378.092 455.843 378.129 456.046 378.125C456.627 378.125 456.949 377.828 456.949 377.345C456.949 376.863 456.652 376.579 455.996 376.579H455.749V376.282L456.726 374.946H454.932V374.588H457.196V374.872L456.206 376.245C456.349 376.245 456.49 376.273 456.621 376.329C456.751 376.385 456.87 376.467 456.968 376.57C457.066 376.673 457.143 376.795 457.193 376.928C457.242 377.061 457.265 377.203 457.258 377.345Z" fill="#E0E0E0"/>
<path d="M474.171 374.588V378.421H473.775V374.922H472.86V374.563L474.171 374.588Z" fill="#E0E0E0"/>
<path d="M478.378 377.432H477.573V378.421H477.178V377.407H475V377.185L477.041 374.625H477.573L475.606 377.098H477.277V376.208H477.573V377.098H478.341L478.378 377.432Z" fill="#E0E0E0"/>
<path d="M493.905 374.588V378.421H493.509V374.922H492.594V374.563L493.905 374.588Z" fill="#E0E0E0"/>
<path d="M497.443 377.308C497.443 377.964 496.986 378.471 496.045 378.471C495.537 378.489 495.041 378.312 494.66 377.976L494.858 377.667C495.023 377.821 495.218 377.94 495.431 378.016C495.643 378.093 495.869 378.125 496.095 378.112C496.751 378.112 497.097 377.791 497.097 377.321C497.097 376.851 496.788 376.517 495.86 376.517H494.895L495.093 374.588H497.208V374.946H495.439L495.303 376.183H495.798C497.01 376.171 497.443 376.628 497.443 377.308Z" fill="#E0E0E0"/>
<path d="M513.812 374.588V378.421H513.453V374.922H512.538V374.563L513.812 374.588Z" fill="#E0E0E0"/>
<path d="M517.635 377.296C517.635 377.465 517.601 377.632 517.534 377.787C517.468 377.942 517.37 378.082 517.247 378.198C517.124 378.314 516.979 378.403 516.82 378.461C516.661 378.518 516.492 378.543 516.324 378.533C515.297 378.533 514.74 377.828 514.74 376.603C514.74 375.379 515.458 374.612 516.509 374.612C516.828 374.599 517.144 374.671 517.425 374.823L517.264 375.144C517.036 375.01 516.774 374.945 516.509 374.959C515.68 374.959 515.136 375.49 515.136 376.542C515.136 376.628 515.136 376.74 515.136 376.851C515.25 376.627 515.429 376.443 515.65 376.324C515.871 376.205 516.123 376.156 516.373 376.183C516.53 376.17 516.688 376.188 516.837 376.237C516.987 376.286 517.124 376.365 517.242 376.47C517.36 376.574 517.456 376.7 517.524 376.843C517.591 376.985 517.629 377.139 517.635 377.296ZM517.239 377.296C517.239 376.789 516.868 376.467 516.274 376.467C516.153 376.454 516.031 376.465 515.914 376.501C515.798 376.536 515.69 376.595 515.597 376.674C515.504 376.753 515.429 376.85 515.375 376.959C515.321 377.068 515.29 377.187 515.284 377.308C515.284 377.729 515.643 378.137 516.299 378.137C516.417 378.153 516.538 378.143 516.652 378.109C516.767 378.074 516.872 378.016 516.963 377.938C517.053 377.859 517.125 377.763 517.175 377.654C517.225 377.546 517.251 377.428 517.252 377.308L517.239 377.296Z" fill="#E0E0E0"/>
<path d="M533.534 374.588V378.421H533.138V374.922H532.222V374.563L533.534 374.588Z" fill="#E0E0E0"/>
<path d="M537.183 374.588V374.872L535.563 378.421H535.13L536.713 374.922H534.734V375.639H534.338V374.563L537.183 374.588Z" fill="#E0E0E0"/>
<path d="M553.466 374.588V378.421H553.045V374.922H552.129V374.563L553.466 374.588Z" fill="#E0E0E0"/>
<path d="M557.363 377.37C557.363 378.05 556.781 378.483 555.866 378.483C554.95 378.483 554.381 378.063 554.381 377.37C554.378 377.151 554.45 376.937 554.585 376.764C554.72 376.591 554.91 376.469 555.123 376.418C554.943 376.361 554.786 376.247 554.677 376.093C554.567 375.939 554.511 375.753 554.517 375.565C554.517 374.934 555.049 374.551 555.866 374.551C556.682 374.551 557.227 374.946 557.227 375.565C557.23 375.755 557.171 375.94 557.06 376.094C556.948 376.248 556.79 376.362 556.608 376.418C556.823 376.468 557.014 376.59 557.151 376.763C557.289 376.935 557.363 377.15 557.363 377.37ZM556.954 377.37C556.954 376.9 556.546 376.603 555.866 376.603C555.185 376.603 554.777 376.9 554.777 377.37C554.777 377.84 555.185 378.149 555.866 378.149C556.546 378.149 556.954 377.852 556.954 377.37ZM555.866 376.282C556.472 376.282 556.831 376.01 556.831 375.589C556.831 375.169 556.447 374.884 555.866 374.884C555.284 374.884 554.913 375.144 554.913 375.577C554.913 376.01 555.259 376.282 555.853 376.282H555.866Z" fill="#E0E0E0"/>
<path d="M572.074 374.588V378.421H571.678V374.922H570.762V374.563L572.074 374.588Z" fill="#E0E0E0"/>
<path d="M575.785 376.492C575.785 377.803 575.068 378.483 574.016 378.483C573.698 378.497 573.381 378.424 573.1 378.273L573.261 377.951C573.489 378.086 573.752 378.15 574.016 378.137C574.845 378.137 575.377 377.605 575.377 376.554C575.377 376.467 575.377 376.356 575.377 376.245C575.263 376.469 575.084 376.652 574.863 376.772C574.642 376.891 574.389 376.94 574.14 376.913C573.976 376.932 573.81 376.916 573.653 376.867C573.496 376.817 573.351 376.734 573.228 376.624C573.105 376.514 573.007 376.38 572.94 376.229C572.873 376.078 572.84 375.915 572.841 375.75C572.84 375.58 572.875 375.412 572.942 375.256C573.01 375.1 573.109 374.96 573.233 374.844C573.357 374.728 573.504 374.638 573.664 374.582C573.825 374.525 573.995 374.502 574.165 374.514C575.229 374.563 575.785 375.268 575.785 376.492ZM575.241 375.725C575.241 375.305 574.882 374.897 574.226 374.897C574.108 374.883 573.988 374.894 573.874 374.93C573.76 374.966 573.655 375.026 573.566 375.105C573.477 375.185 573.406 375.282 573.358 375.391C573.31 375.5 573.285 375.619 573.286 375.738C573.286 376.245 573.657 376.566 574.251 376.566C574.372 376.58 574.495 376.569 574.611 376.533C574.727 376.498 574.835 376.439 574.928 376.36C575.021 376.281 575.096 376.184 575.15 376.075C575.204 375.966 575.235 375.847 575.241 375.725Z" fill="#E0E0E0"/>
<path d="M592.253 378.1V378.421H589.543V378.137L591.152 376.566C591.585 376.133 591.671 375.874 591.671 375.614C591.671 375.354 591.362 374.897 590.768 374.897C590.572 374.885 590.375 374.918 590.193 374.993C590.011 375.068 589.848 375.183 589.717 375.33L589.432 375.082C589.605 374.894 589.819 374.746 590.056 374.65C590.294 374.554 590.549 374.511 590.805 374.526C591.585 374.526 592.043 374.921 592.043 375.565C592.038 375.805 591.979 376.041 591.87 376.256C591.761 376.47 591.604 376.657 591.412 376.801L590.1 378.038L592.253 378.1Z" fill="#E0E0E0"/>
<path d="M592.723 376.517C592.723 375.28 593.366 374.551 594.257 374.551C595.148 374.551 595.804 375.28 595.804 376.517C595.804 377.754 595.111 378.421 594.27 378.421C593.428 378.421 592.723 377.754 592.723 376.517ZM595.395 376.517C595.395 375.49 594.938 374.922 594.257 374.922C593.577 374.922 593.119 375.49 593.119 376.517C593.119 377.543 593.589 378.112 594.257 378.112C594.925 378.112 595.395 377.556 595.395 376.517Z" fill="#E0E0E0"/>
<path d="M610.861 378.1V378.421H608.151V378.137L609.76 376.566C610.193 376.133 610.279 375.874 610.279 375.614C610.279 375.354 609.97 374.897 609.376 374.897C609.18 374.885 608.983 374.918 608.801 374.993C608.619 375.068 608.456 375.183 608.325 375.33L608.04 375.082C608.214 374.894 608.427 374.746 608.664 374.65C608.902 374.554 609.158 374.511 609.413 374.526C610.193 374.526 610.651 374.921 610.651 375.565C610.646 375.805 610.587 376.041 610.478 376.256C610.369 376.47 610.212 376.657 610.02 376.801L608.708 378.038L610.861 378.1Z" fill="#E0E0E0"/>
<path d="M612.432 374.588V378.421H612.036V374.922H611.121V374.563L612.432 374.588Z" fill="#E0E0E0"/>
<path d="M629.469 378.1V378.421H626.759V378.137L628.368 376.566C628.801 376.133 628.887 375.874 628.887 375.614C628.887 375.354 628.578 374.897 627.984 374.897C627.788 374.885 627.591 374.918 627.409 374.993C627.227 375.068 627.064 375.183 626.933 375.33L626.648 375.082C626.822 374.894 627.035 374.746 627.272 374.65C627.51 374.554 627.766 374.511 628.021 374.526C628.801 374.526 629.259 374.921 629.259 375.565C629.254 375.805 629.195 376.041 629.086 376.256C628.977 376.47 628.82 376.657 628.628 376.801L627.316 378.038L629.469 378.1Z" fill="#E0E0E0"/>
<path d="M632.599 378.1V378.421H629.89V378.137L631.498 376.566C631.931 376.133 632.018 375.874 632.018 375.614C632.018 375.354 631.708 374.897 631.115 374.897C630.918 374.885 630.721 374.918 630.539 374.993C630.357 375.068 630.194 375.183 630.063 375.33L629.778 375.082C629.952 374.894 630.165 374.746 630.402 374.65C630.64 374.554 630.896 374.511 631.152 374.526C631.931 374.526 632.389 374.921 632.389 375.565C632.385 375.805 632.326 376.041 632.216 376.256C632.107 376.47 631.95 376.657 631.758 376.801L630.446 378.038L632.599 378.1Z" fill="#E0E0E0"/>
<path d="M648.077 378.1V378.421H645.367V378.137L646.976 376.566C647.409 376.133 647.496 375.874 647.496 375.614C647.496 375.354 647.186 374.897 646.592 374.897C646.396 374.885 646.199 374.918 646.017 374.993C645.835 375.068 645.672 375.183 645.541 375.33L645.256 375.082C645.43 374.894 645.643 374.746 645.88 374.65C646.118 374.554 646.374 374.511 646.629 374.526C647.409 374.526 647.867 374.921 647.867 375.565C647.862 375.805 647.803 376.041 647.694 376.256C647.585 376.47 647.428 376.657 647.236 376.801L645.924 378.038L648.077 378.1Z" fill="#E0E0E0"/>
<path d="M651.121 377.345C651.121 377.988 650.651 378.483 649.723 378.483C649.215 378.5 648.719 378.323 648.337 377.988L648.535 377.679C648.701 377.832 648.896 377.95 649.108 378.027C649.321 378.103 649.547 378.136 649.772 378.125C650.415 378.125 650.762 377.828 650.762 377.345C650.762 376.863 650.44 376.579 649.723 376.579H649.45V376.282L650.514 374.946H648.535V374.588H651.009V374.872L649.92 376.245C650.712 376.282 651.121 376.727 651.121 377.345Z" fill="#E0E0E0"/>
<path d="M362.028 138.136H258.36C255.189 138.136 252.619 140.705 252.619 143.874V170.896C252.619 174.065 255.189 176.634 258.36 176.634H362.028C365.198 176.634 367.769 174.065 367.769 170.896V143.874C367.769 140.705 365.198 138.136 362.028 138.136Z" fill="#858585"/>
<g opacity="0.4">
<path opacity="0.4" d="M295.588 173.827C295.766 173.827 295.91 166.286 295.91 156.983C295.91 147.681 295.766 140.14 295.588 140.14C295.411 140.14 295.267 147.681 295.267 156.983C295.267 166.286 295.411 173.827 295.588 173.827Z" fill="#F2F2F2"/>
</g>
<path d="M500.71 138H392.44C390.54 138 389 139.539 389 141.438V173.06C389 174.958 390.54 176.498 392.44 176.498H500.71C502.61 176.498 504.15 174.958 504.15 173.06V141.438C504.15 139.539 502.61 138 500.71 138Z" fill="url(#paint0_linear)"/>
<path d="M635.482 138.136H529.339C526.852 138.136 524.836 140.152 524.836 142.638V172.132C524.836 174.618 526.852 176.634 529.339 176.634H635.482C637.969 176.634 639.986 174.618 639.986 172.132V142.638C639.986 140.152 637.969 138.136 635.482 138.136Z" fill="#252525"/>
<g opacity="0.4">
<path opacity="0.4" d="M567.805 173.827C567.983 173.827 568.127 166.286 568.127 156.983C568.127 147.681 567.983 140.14 567.805 140.14C567.627 140.14 567.483 147.681 567.483 156.983C567.483 166.286 567.627 173.827 567.805 173.827Z" fill="#F2F2F2"/>
</g>
<path d="M202.474 88.3725C204.305 88.3725 205.79 86.8886 205.79 85.0582C205.79 83.2277 204.305 81.7439 202.474 81.7439C200.643 81.7439 199.158 83.2277 199.158 85.0582C199.158 86.8886 200.643 88.3725 202.474 88.3725Z" fill="#263238"/>
<path d="M214.017 88.3725C215.848 88.3725 217.333 86.8886 217.333 85.0582C217.333 83.2277 215.848 81.7439 214.017 81.7439C212.186 81.7439 210.701 83.2277 210.701 85.0582C210.701 86.8886 212.186 88.3725 214.017 88.3725Z" fill="#263238"/>
<path d="M225.561 88.3725C227.392 88.3725 228.876 86.8886 228.876 85.0582C228.876 83.2277 227.392 81.7439 225.561 81.7439C223.729 81.7439 222.245 83.2277 222.245 85.0582C222.245 86.8886 223.729 88.3725 225.561 88.3725Z" fill="#263238"/>
<path d="M642.262 2.46098L642.2 2.44861L642.905 0L642.955 0.0123667L642.262 2.46098Z" fill="#263238"/>
<path d="M691.516 472.408C691.516 472.581 582.182 472.73 447.348 472.73C312.514 472.73 203.154 472.594 203.154 472.408C203.154 472.223 312.464 472.087 447.348 472.087C582.231 472.087 691.516 472.235 691.516 472.408Z" fill="#455A64"/>
<path d="M836.917 171.353H609.661V276.359H836.917V171.353Z" fill="#FAFAFA"/>
<path d="M836.929 276.359C836.929 276.359 836.929 275.716 836.929 274.479V269.025C836.929 264.227 836.929 257.178 836.929 248.101C836.929 229.959 836.855 203.741 836.805 171.353L837.04 171.588L609.797 171.675L610.119 171.353C610.119 208.292 610.119 243.81 610.119 276.359L609.809 276.05L772.976 276.198L820.102 276.285H832.698H835.951H837.065H835.989H832.772H820.239L773.224 276.371L609.908 276.52H609.599V276.21C609.599 243.661 609.599 208.193 609.599 171.205V170.883H609.933L837.176 170.97H837.411V171.205C837.411 203.655 837.312 229.922 837.288 248.101C837.288 257.153 837.288 264.178 837.288 268.976V274.392C836.941 275.778 836.929 276.359 836.929 276.359Z" fill="#263238"/>
<path d="M625.658 243.884V247.198H625.312V244.181H624.532V243.871L625.658 243.884Z" fill="#263238"/>
<path d="M626.45 245.541C626.45 244.49 627.007 243.859 627.774 243.859C628.541 243.859 629.098 244.49 629.098 245.541C629.098 246.592 628.541 247.223 627.774 247.223C627.007 247.223 626.45 246.605 626.45 245.541ZM628.751 245.541C628.751 244.651 628.355 244.168 627.774 244.168C627.192 244.168 626.796 244.651 626.796 245.541C626.796 246.431 627.192 246.914 627.774 246.914C628.355 246.914 628.751 246.431 628.751 245.541Z" fill="#263238"/>
<path d="M626.995 226.311V226.62H624.669V226.311L626.042 224.963C626.413 224.592 626.487 224.369 626.487 224.146C626.487 223.924 626.215 223.528 625.708 223.528C625.539 223.518 625.37 223.546 625.214 223.611C625.057 223.675 624.918 223.773 624.805 223.899L624.557 223.689C624.706 223.529 624.889 223.404 625.092 223.322C625.295 223.241 625.514 223.206 625.733 223.219C626.401 223.219 626.834 223.565 626.834 224.109C626.826 224.312 626.773 224.511 626.679 224.69C626.585 224.87 626.452 225.027 626.289 225.148L625.163 226.261L626.995 226.311Z" fill="#263238"/>
<path d="M627.415 224.926C627.415 223.874 627.972 223.244 628.739 223.244C629.506 223.244 630.063 223.874 630.063 224.926C630.063 225.977 629.506 226.607 628.739 226.607C627.972 226.607 627.415 225.989 627.415 224.926ZM629.716 224.926C629.716 224.035 629.321 223.553 628.739 223.553C628.158 223.553 627.762 224.035 627.762 224.926C627.762 225.816 628.158 226.298 628.739 226.298C629.321 226.298 629.754 225.816 629.754 224.926H629.716Z" fill="#263238"/>
<path d="M626.933 205.015C626.933 205.572 626.524 205.992 625.695 205.992C625.244 206.02 624.799 205.869 624.458 205.572L624.619 205.3C624.898 205.557 625.267 205.695 625.646 205.683C626.19 205.683 626.5 205.423 626.5 205.015C626.5 204.607 626.215 204.36 625.609 204.36H625.374V204.051L626.289 202.9H624.594V202.591H626.722V202.839L625.782 204.075C626.574 204.112 626.933 204.496 626.933 205.015Z" fill="#263238"/>
<path d="M627.415 204.31C627.415 203.259 627.972 202.628 628.739 202.628C629.506 202.628 630.063 203.259 630.063 204.31C630.063 205.361 629.506 205.992 628.739 205.992C627.972 205.992 627.415 205.374 627.415 204.31ZM629.716 204.31C629.716 203.42 629.321 202.938 628.739 202.938C628.158 202.938 627.762 203.42 627.762 204.31C627.762 205.201 628.158 205.683 628.739 205.683C629.321 205.683 629.754 205.201 629.754 204.31H629.716Z" fill="#263238"/>
<path d="M640.295 256.424C640.295 255.372 640.852 254.742 641.619 254.742C642.386 254.742 642.942 255.372 642.942 256.424C642.942 257.475 642.386 258.105 641.619 258.105C640.852 258.105 640.295 257.475 640.295 256.424ZM642.596 256.424C642.596 255.533 642.2 255.051 641.619 255.051C641.037 255.051 640.641 255.533 640.641 256.424C640.641 257.314 641.037 257.796 641.619 257.796C642.2 257.796 642.596 257.302 642.596 256.424Z" fill="#263238"/>
<path d="M664.854 254.754V258.068H664.508V255.051H663.728V254.754H664.854Z" fill="#263238"/>
<path d="M690.725 257.772V258.081H688.399V257.833L689.772 256.485C690.143 256.114 690.217 255.892 690.217 255.669C690.217 255.447 689.945 255.051 689.438 255.051C689.269 255.041 689.1 255.069 688.944 255.133C688.788 255.198 688.648 255.296 688.535 255.422L688.287 255.212C688.436 255.052 688.619 254.926 688.822 254.845C689.026 254.764 689.244 254.729 689.463 254.742C690.131 254.742 690.564 255.088 690.564 255.632C690.556 255.835 690.503 256.033 690.409 256.213C690.315 256.393 690.182 256.549 690.019 256.671L688.893 257.784L690.725 257.772Z" fill="#263238"/>
<path d="M715.185 257.129C715.185 257.685 714.776 258.106 713.948 258.106C713.496 258.134 713.051 257.982 712.71 257.685L712.871 257.413C713.15 257.67 713.519 257.808 713.898 257.796C714.442 257.796 714.752 257.537 714.752 257.129C714.752 256.72 714.467 256.473 713.861 256.473H713.626V256.226L714.541 255.076H712.846V254.754H714.974V255.001L714.034 256.238C714.826 256.226 715.185 256.597 715.185 257.129Z" fill="#263238"/>
<path d="M740.338 257.227H739.67V258.093H739.323V257.227H737.455V256.98L739.212 254.779H739.595L737.9 256.918H739.336V256.152H739.67V256.918H740.338V257.227Z" fill="#263238"/>
<path d="M764.303 257.104C764.303 257.673 763.907 258.105 763.066 258.105C762.614 258.133 762.17 257.982 761.829 257.685L761.989 257.413C762.264 257.668 762.629 257.806 763.004 257.796C763.573 257.796 763.87 257.524 763.87 257.116C763.87 256.708 763.61 256.424 762.757 256.424H762.138L762.311 254.766H764.13V255.076H762.608L762.497 256.127H762.917C763.932 256.127 764.303 256.522 764.303 257.104Z" fill="#263238"/>
<path d="M789.085 257.091C789.082 257.233 789.05 257.373 788.991 257.502C788.932 257.631 788.847 257.747 788.742 257.842C788.636 257.937 788.512 258.009 788.378 258.055C788.243 258.1 788.101 258.117 787.959 258.106C787.081 258.106 786.598 257.5 786.598 256.448C786.598 255.397 787.217 254.729 788.12 254.729C788.396 254.719 788.669 254.783 788.912 254.915L788.776 255.187C788.581 255.072 788.358 255.016 788.132 255.026C787.415 255.026 786.895 255.484 786.895 256.387C786.895 256.461 786.895 256.56 786.895 256.659C786.991 256.476 787.137 256.324 787.318 256.223C787.498 256.122 787.703 256.076 787.91 256.09C788.055 256.064 788.204 256.071 788.346 256.11C788.489 256.149 788.621 256.218 788.733 256.314C788.845 256.41 788.935 256.529 788.996 256.663C789.057 256.798 789.087 256.944 789.085 257.091ZM788.751 257.091C788.751 256.659 788.429 256.374 787.922 256.374C787.817 256.362 787.711 256.372 787.61 256.403C787.51 256.433 787.416 256.485 787.336 256.553C787.256 256.622 787.191 256.706 787.145 256.801C787.099 256.895 787.073 256.999 787.068 257.104C787.068 257.475 787.378 257.809 787.947 257.809C788.046 257.817 788.145 257.805 788.239 257.774C788.333 257.743 788.42 257.693 788.494 257.627C788.568 257.561 788.628 257.48 788.67 257.39C788.712 257.3 788.735 257.203 788.739 257.104L788.751 257.091Z" fill="#263238"/>
<path d="M813.458 254.754V255.001L812.073 258.081H811.702L813.063 255.063H811.355V255.682H811.021V254.754H813.458Z" fill="#263238"/>
<path d="M813.644 245.702C813.644 245.875 775.29 246.023 727.904 246.023C680.517 246.023 642.151 245.875 642.151 245.702C642.151 245.529 680.505 245.38 727.904 245.38C775.302 245.38 813.644 245.529 813.644 245.702Z" fill="#263238"/>
<path d="M813.644 224.987C813.644 225.16 775.29 225.309 727.904 225.309C680.517 225.309 642.151 225.16 642.151 224.987C642.151 224.814 680.505 224.666 727.904 224.666C775.302 224.666 813.644 224.802 813.644 224.987Z" fill="#263238"/>
<path d="M813.644 204.261C813.644 204.434 775.29 204.582 727.904 204.582C680.517 204.582 642.151 204.434 642.151 204.261C642.151 204.088 680.505 203.939 727.904 203.939C775.302 203.939 813.644 204.051 813.644 204.261Z" fill="#263238"/>
<path d="M641.05 246.505C641.658 246.505 642.151 246.013 642.151 245.405C642.151 244.797 641.658 244.304 641.05 244.304C640.441 244.304 639.948 244.797 639.948 245.405C639.948 246.013 640.441 246.505 641.05 246.505Z" fill="url(#paint1_linear)"/>
<path d="M665.708 246.505C666.316 246.505 666.809 246.013 666.809 245.405C666.809 244.797 666.316 244.304 665.708 244.304C665.099 244.304 664.606 244.797 664.606 245.405C664.606 246.013 665.099 246.505 665.708 246.505Z" fill="url(#paint2_linear)"/>
<path d="M690.353 246.505C690.962 246.505 691.455 246.013 691.455 245.405C691.455 244.797 690.962 244.304 690.353 244.304C689.745 244.304 689.252 244.797 689.252 245.405C689.252 246.013 689.745 246.505 690.353 246.505Z" fill="url(#paint3_linear)"/>
<path d="M715.012 246.505C715.62 246.505 716.113 246.013 716.113 245.405C716.113 244.797 715.62 244.304 715.012 244.304C714.403 244.304 713.91 244.797 713.91 245.405C713.91 246.013 714.403 246.505 715.012 246.505Z" fill="url(#paint4_linear)"/>
<path d="M739.67 246.505C740.278 246.505 740.771 246.013 740.771 245.405C740.771 244.797 740.278 244.304 739.67 244.304C739.062 244.304 738.569 244.797 738.569 245.405C738.569 246.013 739.062 246.505 739.67 246.505Z" fill="url(#paint5_linear)"/>
<path d="M788.986 246.505C789.594 246.505 790.087 246.013 790.087 245.405C790.087 244.797 789.594 244.304 788.986 244.304C788.378 244.304 787.885 244.797 787.885 245.405C787.885 246.013 788.378 246.505 788.986 246.505Z" fill="url(#paint6_linear)"/>
<path d="M764.328 246.505C764.936 246.505 765.429 246.013 765.429 245.405C765.429 244.797 764.936 244.304 764.328 244.304C763.72 244.304 763.227 244.797 763.227 245.405C763.227 246.013 763.72 246.505 764.328 246.505Z" fill="url(#paint7_linear)"/>
<path d="M813.644 246.505C814.252 246.505 814.745 246.013 814.745 245.405C814.745 244.797 814.252 244.304 813.644 244.304C813.036 244.304 812.543 244.797 812.543 245.405C812.543 246.013 813.036 246.505 813.644 246.505Z" fill="url(#paint8_linear)"/>
<path d="M652.655 246.419C653.051 246.419 653.372 246.098 653.372 245.702C653.372 245.305 653.051 244.984 652.655 244.984C652.258 244.984 651.937 245.305 651.937 245.702C651.937 246.098 652.258 246.419 652.655 246.419Z" fill="#E0E0E0"/>
<path d="M677.412 246.419C677.808 246.419 678.129 246.098 678.129 245.702C678.129 245.305 677.808 244.984 677.412 244.984C677.016 244.984 676.694 245.305 676.694 245.702C676.694 246.098 677.016 246.419 677.412 246.419Z" fill="#E0E0E0"/>
<path d="M702.157 246.419C702.553 246.419 702.874 246.098 702.874 245.702C702.874 245.305 702.553 244.984 702.157 244.984C701.76 244.984 701.439 245.305 701.439 245.702C701.439 246.098 701.76 246.419 702.157 246.419Z" fill="#E0E0E0"/>
<path d="M726.901 246.419C727.298 246.419 727.619 246.098 727.619 245.702C727.619 245.305 727.298 244.984 726.901 244.984C726.505 244.984 726.184 245.305 726.184 245.702C726.184 246.098 726.505 246.419 726.901 246.419Z" fill="#E0E0E0"/>
<path d="M751.659 246.419C752.055 246.419 752.376 246.098 752.376 245.702C752.376 245.305 752.055 244.984 751.659 244.984C751.262 244.984 750.941 245.305 750.941 245.702C750.941 246.098 751.262 246.419 751.659 246.419Z" fill="#E0E0E0"/>
<path d="M776.403 246.419C776.8 246.419 777.121 246.098 777.121 245.702C777.121 245.305 776.8 244.984 776.403 244.984C776.007 244.984 775.686 245.305 775.686 245.702C775.686 246.098 776.007 246.419 776.403 246.419Z" fill="#E0E0E0"/>
<path d="M801.148 246.419C801.544 246.419 801.866 246.098 801.866 245.702C801.866 245.305 801.544 244.984 801.148 244.984C800.752 244.984 800.43 245.305 800.43 245.702C800.43 246.098 800.752 246.419 801.148 246.419Z" fill="#E0E0E0"/>
<path d="M665.708 239.246C667.197 239.246 668.405 238.039 668.405 236.55C668.405 235.061 667.197 233.854 665.708 233.854C664.218 233.854 663.01 235.061 663.01 236.55C663.01 238.039 664.218 239.246 665.708 239.246Z" fill="url(#paint9_linear)"/>
<path d="M687.211 226.558C688.7 226.558 689.908 225.351 689.908 223.862C689.908 222.373 688.7 221.166 687.211 221.166C685.721 221.166 684.514 222.373 684.514 223.862C684.514 225.351 685.721 226.558 687.211 226.558Z" fill="url(#paint10_linear)"/>
<path d="M713.91 227.683C715.4 227.683 716.608 226.476 716.608 224.987C716.608 223.499 715.4 222.292 713.91 222.292C712.421 222.292 711.213 223.499 711.213 224.987C711.213 226.476 712.421 227.683 713.91 227.683Z" fill="#E8505B"/>
<path d="M739.979 204.619C741.469 204.619 742.676 203.412 742.676 201.923C742.676 200.435 741.469 199.228 739.979 199.228C738.489 199.228 737.282 200.435 737.282 201.923C737.282 203.412 738.489 204.619 739.979 204.619Z" fill="url(#paint11_linear)"/>
<path d="M764.328 219.286C765.817 219.286 767.025 218.079 767.025 216.59C767.025 215.102 765.817 213.895 764.328 213.895C762.838 213.895 761.631 215.102 761.631 216.59C761.631 218.079 762.838 219.286 764.328 219.286Z" fill="url(#paint12_linear)"/>
<path d="M788.986 223.194C790.476 223.194 791.683 221.987 791.683 220.498C791.683 219.009 790.476 217.802 788.986 217.802C787.496 217.802 786.289 219.009 786.289 220.498C786.289 221.987 787.496 223.194 788.986 223.194Z" fill="url(#paint13_linear)"/>
<path d="M814.745 236.55C814.535 236.567 814.324 236.567 814.114 236.55C813.495 236.511 812.879 236.429 812.271 236.303C809.908 235.858 807.7 234.81 805.862 233.261C804.553 232.115 803.481 230.725 802.707 229.167C801.782 227.357 800.675 225.646 799.403 224.06C798.008 222.207 796.058 220.846 793.836 220.177C792.608 219.893 791.328 219.94 790.124 220.313C788.863 220.724 787.698 221.384 786.697 222.254C784.594 224.01 783.047 226.508 781.006 228.772C779.985 229.982 778.72 230.964 777.294 231.653C775.764 232.329 774.051 232.468 772.432 232.049C771.607 231.778 770.849 231.335 770.209 230.748C769.569 230.162 769.062 229.446 768.72 228.648C768.007 227.063 767.472 225.404 767.124 223.701C766.784 222.011 766.291 220.355 765.652 218.755C765.344 217.972 764.794 217.308 764.08 216.862C763.308 216.499 762.458 216.333 761.606 216.38C759.781 216.578 757.97 216.896 756.187 217.332C755.246 217.526 754.289 217.634 753.329 217.654C752.329 217.692 751.333 217.497 750.421 217.085C749.497 216.652 748.7 215.987 748.108 215.156C747.548 214.333 747.076 213.454 746.697 212.534C745.918 210.716 745.398 208.824 744.693 206.957C744.355 206.043 743.92 205.168 743.394 204.347C742.874 203.554 742.128 202.934 741.253 202.566C741.031 202.505 740.808 202.418 740.585 202.369L739.868 202.307C739.41 202.278 738.953 202.372 738.544 202.579C737.712 203.079 737.029 203.792 736.564 204.644C735.575 206.432 734.806 208.334 734.275 210.308C733.681 212.299 733.187 214.327 732.716 216.38C731.925 219.781 731.219 223.169 730.353 226.484C729.931 228.158 729.423 229.809 728.831 231.43C728.289 233.073 727.417 234.587 726.27 235.882C725.619 236.551 724.73 236.938 723.796 236.958C722.919 236.931 722.065 236.67 721.321 236.204C719.917 235.286 718.724 234.08 717.82 232.667C716.095 229.972 714.675 227.094 713.589 224.085C712.641 221.209 711.05 218.587 708.937 216.417C707.867 215.482 706.588 214.818 705.208 214.482C703.827 214.146 702.386 214.148 701.006 214.488C699.691 214.848 698.44 215.407 697.294 216.145C696.136 216.849 695.036 217.643 694.003 218.52C692.012 220.196 690.174 222.046 688.51 224.047C686.004 226.541 683.279 228.805 680.369 230.812C677.78 232.644 674.98 234.16 672.03 235.326C669.447 236.395 666.654 236.86 663.864 236.686C661.537 236.418 659.252 235.866 657.059 235.041C654.017 233.923 651.064 232.575 648.225 231.01C647.248 230.478 646.518 230.045 646.023 229.773C645.528 229.501 645.293 229.303 645.293 229.303L646.06 229.711L648.3 230.948C651.157 232.453 654.117 233.755 657.158 234.844C659.33 235.637 661.59 236.164 663.889 236.414C666.608 236.536 669.319 236.041 671.82 234.967C674.732 233.795 677.494 232.28 680.047 230.453C682.922 228.45 685.614 226.194 688.089 223.714C689.769 221.676 691.629 219.793 693.644 218.087C694.695 217.174 695.816 216.347 696.997 215.613C698.207 214.837 699.53 214.253 700.919 213.882C702.388 213.517 703.923 213.512 705.395 213.868C706.866 214.223 708.229 214.928 709.37 215.923C711.593 218.112 713.286 220.782 714.319 223.726C715.395 226.692 716.797 229.529 718.501 232.185C719.353 233.522 720.479 234.664 721.804 235.536C722.457 235.95 723.209 236.18 723.981 236.204C724.733 236.168 725.441 235.845 725.961 235.301C727.035 234.07 727.851 232.636 728.361 231.084C728.942 229.499 729.441 227.885 729.858 226.249C730.724 222.959 731.43 219.571 732.222 216.157C732.704 214.105 733.199 212.052 733.793 210.048C734.341 208.022 735.134 206.07 736.156 204.236C736.681 203.282 737.455 202.487 738.395 201.936C738.851 201.701 739.355 201.578 739.868 201.577L740.672 201.651C740.932 201.651 741.191 201.812 741.451 201.886C742.461 202.293 743.323 202.996 743.926 203.902C744.482 204.764 744.943 205.685 745.299 206.648C746.017 208.527 746.536 210.432 747.291 212.2C748.046 213.969 748.998 215.712 750.693 216.442C752.427 217.066 754.311 217.14 756.088 216.652C757.904 216.212 759.747 215.893 761.606 215.7C762.57 215.646 763.532 215.837 764.402 216.256C765.226 216.763 765.863 217.522 766.221 218.421C766.877 220.073 767.378 221.783 767.718 223.528C768.056 225.183 768.575 226.796 769.264 228.339C769.57 229.07 770.029 229.727 770.609 230.266C771.189 230.806 771.878 231.215 772.63 231.467C774.129 231.852 775.714 231.726 777.133 231.109C778.492 230.451 779.697 229.516 780.672 228.363C782.688 226.162 784.247 223.652 786.437 221.834C787.487 220.933 788.707 220.252 790.025 219.83C791.296 219.449 792.645 219.411 793.935 219.719C796.237 220.422 798.253 221.843 799.688 223.775C800.96 225.39 802.063 227.13 802.979 228.969C803.721 230.502 804.755 231.876 806.023 233.013C807.819 234.559 809.976 235.627 812.295 236.117C812.895 236.256 813.502 236.359 814.114 236.427C814.523 236.525 814.745 236.525 814.745 236.55Z" fill="url(#paint14_linear)"/>
<path d="M647.285 190.385C659.093 190.385 668.665 190.241 668.665 190.064C668.665 189.886 659.093 189.742 647.285 189.742C635.478 189.742 625.906 189.886 625.906 190.064C625.906 190.241 635.478 190.385 647.285 190.385Z" fill="#263238"/>
<path d="M164.058 510.25L165.295 532.189C165.295 532.189 187.775 536.418 188.406 540.45L146.204 546.312L142.79 512.217L164.058 510.25Z" fill="#513CDC"/>
<path d="M152.056 531.595C151.66 531.758 151.337 532.061 151.15 532.447C150.963 532.832 150.925 533.273 151.042 533.685C151.19 534.087 151.488 534.416 151.872 534.605C152.257 534.794 152.699 534.827 153.108 534.699C153.529 534.525 153.871 534.202 154.068 533.791C154.264 533.379 154.301 532.91 154.172 532.473C153.976 532.068 153.631 531.755 153.208 531.601C152.785 531.446 152.319 531.462 151.908 531.645" fill="#EBEBEB"/>
<path d="M146.266 546.299L145.92 542.899L185.981 538.125C185.981 538.125 188.456 539.201 188.555 540.524L146.266 546.299Z" fill="#EBEBEB"/>
<path d="M166.025 531.905C166.025 532.115 165.01 532.3 164.058 533.067C163.105 533.834 162.635 534.749 162.437 534.687C162.239 534.625 162.437 533.45 163.612 532.498C164.788 531.546 166.05 531.769 166.025 531.905Z" fill="#263238"/>
<path d="M170.652 533.314C170.714 533.512 169.848 533.945 169.229 534.897C168.611 535.85 168.499 536.789 168.289 536.802C168.079 536.814 167.844 535.652 168.635 534.489C169.427 533.327 170.627 533.117 170.652 533.314Z" fill="#263238"/>
<path d="M173.696 538.409C173.51 538.471 173.127 537.469 173.547 536.282C173.968 535.095 174.896 534.551 175.007 534.712C175.119 534.872 174.574 535.54 174.24 536.517C173.906 537.494 173.894 538.372 173.696 538.409Z" fill="#263238"/>
<path d="M165.171 526.933C165.097 527.131 164.119 526.933 162.956 527.131C161.793 527.329 160.915 527.774 160.791 527.613C160.668 527.453 161.472 526.624 162.845 526.377C164.218 526.129 165.258 526.822 165.171 526.933Z" fill="#263238"/>
<path d="M164.837 522.518C164.158 522.771 163.422 522.836 162.709 522.704C161.93 522.641 161.161 522.483 160.42 522.234C159.996 522.084 159.583 521.907 159.183 521.702C158.931 521.595 158.697 521.449 158.49 521.269C158.341 521.136 158.241 520.956 158.205 520.759C158.169 520.562 158.2 520.359 158.292 520.181C158.383 520.027 158.508 519.896 158.659 519.799C158.809 519.703 158.98 519.643 159.158 519.625C159.425 519.586 159.696 519.586 159.962 519.625C160.425 519.694 160.881 519.806 161.323 519.958C162.07 520.214 162.771 520.586 163.402 521.059C164.478 521.875 164.887 522.617 164.812 522.667C164.738 522.716 164.181 522.135 163.105 521.43C162.478 521.048 161.804 520.749 161.101 520.54C160.696 520.42 160.282 520.333 159.863 520.28C159.406 520.206 159.022 520.28 158.923 520.453C158.824 520.626 158.923 520.564 158.997 520.688C159.15 520.819 159.321 520.927 159.505 521.01C159.906 521.211 160.319 521.389 160.742 521.541C161.431 521.805 162.144 522.004 162.87 522.135C163.534 522.218 164.191 522.346 164.837 522.518Z" fill="#263238"/>
<path d="M164.552 522.84C164.092 522.271 163.827 521.568 163.798 520.836C163.614 519.579 163.781 518.295 164.28 517.126C164.362 516.831 164.518 516.561 164.735 516.345C164.952 516.128 165.222 515.971 165.518 515.89C165.706 515.877 165.895 515.918 166.061 516.008C166.227 516.097 166.365 516.232 166.458 516.397C166.592 516.633 166.692 516.887 166.755 517.151C166.873 517.62 166.919 518.103 166.891 518.586C166.847 519.395 166.605 520.18 166.186 520.874C165.456 522.11 164.614 522.382 164.59 522.308C164.565 522.234 165.196 521.739 165.728 520.626C166.036 519.981 166.201 519.276 166.21 518.561C166.216 518.143 166.162 517.727 166.05 517.324C165.938 516.879 165.74 516.533 165.567 516.595C165.394 516.656 165.035 516.99 164.887 517.361C164.709 517.76 164.568 518.174 164.466 518.598C164.293 519.306 164.223 520.035 164.256 520.762C164.404 522.036 164.701 522.79 164.552 522.84Z" fill="#263238"/>
<path d="M68.5924 507.418L63.6435 534.551L53.6218 554.894C53.4503 555.241 53.3521 555.62 53.3333 556.006C53.3144 556.393 53.3754 556.779 53.5123 557.141C53.6493 557.503 53.8593 557.833 54.1293 558.11C54.3993 558.387 54.7235 558.606 55.0818 558.753C55.4973 558.924 55.9478 558.993 56.3956 558.955C56.8434 558.916 57.2754 558.77 57.6552 558.53C62.6042 555.414 80.6802 543.876 80.9277 541.872C81.2122 539.547 87.9923 513.589 87.9923 513.589L68.5924 507.418Z" fill="#513CDC"/>
<path d="M55.0818 558.765L81.2988 540.067L81.0638 541.217C80.8592 542.196 80.316 543.072 79.5296 543.69C77.4015 545.36 71.4257 549.873 57.7418 558.53C57.3492 558.78 56.9008 558.929 56.4367 558.963C55.9726 558.998 55.5071 558.917 55.0818 558.728V558.765Z" fill="#EBEBEB"/>
<path d="M77.5376 532.152C77.1562 532.328 76.8531 532.639 76.6865 533.025C76.5198 533.41 76.5013 533.844 76.6345 534.242C76.7968 534.629 77.1013 534.94 77.4855 535.11C77.8697 535.28 78.3045 535.297 78.7006 535.157C79.1071 534.97 79.4296 534.639 79.6056 534.227C79.7816 533.816 79.7986 533.354 79.6533 532.931C79.443 532.544 79.0913 532.254 78.6717 532.12C78.252 531.986 77.797 532.02 77.4016 532.214" fill="#EBEBEB"/>
<path d="M63.6682 548.216C63.1888 547.241 62.5298 546.364 61.7257 545.632C60.8144 545.035 59.7986 544.615 58.7316 544.395C58.7316 544.321 59.1028 544.185 59.7585 544.222C60.6087 544.303 61.4184 544.623 62.0931 545.147C62.7678 545.67 63.2798 546.374 63.5692 547.178C63.7796 547.845 63.7424 548.216 63.6682 548.216Z" fill="#263238"/>
<path d="M61.0081 551.444C60.8597 551.531 60.1668 550.479 58.8554 549.799C58.0156 549.456 57.1563 549.163 56.2819 548.921C56.7512 548.746 57.2558 548.686 57.7531 548.746C58.2504 548.807 58.726 548.985 59.1399 549.267C60.6246 550.047 61.1566 551.407 61.0081 551.444Z" fill="#263238"/>
<path d="M68.1965 544.321C67.215 543.32 66.1605 542.394 65.0415 541.551C63.8126 540.871 62.5347 540.284 61.2185 539.795C62.7032 539.701 64.1725 540.14 65.3632 541.031C66.6701 541.755 67.675 542.921 68.1965 544.321Z" fill="#263238"/>
<path d="M70.374 536.196C70.2627 536.344 68.9017 535.417 66.9716 534.959C65.0415 534.502 63.4084 534.65 63.3836 534.465C64.5715 534 65.8844 533.965 67.0953 534.366C68.3701 534.57 69.5315 535.218 70.374 536.196Z" fill="#263238"/>
<path d="M72.0196 528.269C70.9244 527.628 69.7462 527.141 68.5182 526.822C67.2788 526.712 66.0303 526.77 64.8065 526.995C64.8065 526.933 65.1405 526.649 65.8334 526.414C66.7515 526.132 67.7225 526.069 68.6695 526.228C69.6166 526.386 70.5136 526.763 71.2896 527.329C71.7597 527.823 72.069 528.207 72.0196 528.269Z" fill="#263238"/>
<path d="M68.877 525.375C68.8584 525.024 68.9176 524.674 69.0502 524.349C69.3373 523.443 69.7997 522.603 70.4111 521.875C70.8125 521.292 71.3953 520.857 72.069 520.639C72.3024 520.582 72.5478 520.6 72.77 520.691C72.9922 520.782 73.1799 520.941 73.3063 521.146C73.5243 521.546 73.586 522.013 73.4795 522.456C73.2243 523.349 72.666 524.125 71.9006 524.651C71.1352 525.177 70.2104 525.42 69.2853 525.338C68.3719 525.244 67.507 524.881 66.8 524.296C66.093 523.71 65.5758 522.928 65.3137 522.048C65.2497 521.827 65.2343 521.594 65.2684 521.365C65.3026 521.137 65.3856 520.919 65.5117 520.725C65.6569 520.547 65.8538 520.418 66.0753 520.356C66.2968 520.294 66.5322 520.302 66.7489 520.379C67.3792 520.646 67.9292 521.072 68.345 521.616C68.9577 522.35 69.4353 523.188 69.7554 524.089C69.9006 524.407 69.9765 524.753 69.9781 525.103C69.4839 523.94 68.821 522.857 68.0109 521.888C67.6361 521.416 67.152 521.042 66.6005 520.799C66.4805 520.751 66.3479 520.742 66.2228 520.776C66.0978 520.809 65.9871 520.883 65.9076 520.985C65.8354 521.118 65.7915 521.265 65.7787 521.416C65.766 521.567 65.7846 521.719 65.8334 521.863C66.0709 522.623 66.5231 523.298 67.1355 523.807C67.7479 524.316 68.4945 524.637 69.2853 524.732C70.0742 524.79 70.8592 524.576 71.5097 524.126C72.1601 523.676 72.637 523.017 72.8609 522.259C72.9412 521.953 72.9105 521.629 72.7743 521.343C72.7078 521.234 72.6091 521.148 72.4917 521.097C72.3742 521.046 72.2438 521.033 72.1185 521.059C71.5514 521.243 71.0547 521.597 70.6957 522.073C69.8989 523.058 69.2831 524.176 68.877 525.375Z" fill="#263238"/>
<path d="M70.2998 324.156C70.0152 324.156 61.0081 529.604 61.0081 529.604H88.4872L101.849 418.304L108.765 333.246L123.031 412.875L140.29 526.216L167.943 520.28L149.223 317.825L110.015 296.133L70.2998 324.156Z" fill="#263238"/>
<path d="M93.6465 178.526L119.628 176.448C119.789 173.418 119.628 161.682 119.628 161.682C119.628 161.682 130.442 160.001 130.566 149.204C130.689 138.408 128.821 113.601 128.821 113.601C122.677 110.96 115.939 110.006 109.303 110.839C102.667 111.671 96.3734 114.26 91.073 118.337L89.477 119.574L93.6465 178.526Z" fill="#FFD8C5"/>
<path d="M119.591 161.534C114.6 161.627 109.694 160.232 105.499 157.527C105.499 157.527 108.827 165.306 119.616 164.329L119.591 161.534Z" fill="#E6C0AC"/>
<path d="M90.7637 130.753C90.5781 130.679 83.3403 128.552 83.5754 135.947C83.8104 143.343 91.1843 141.574 91.1843 141.364C91.1843 141.154 90.7637 130.753 90.7637 130.753Z" fill="#FFD8C5"/>
<path d="M88.8336 138.631C88.8336 138.631 88.7099 138.73 88.4872 138.829C88.3345 138.893 88.1704 138.927 88.0047 138.927C87.8389 138.927 87.6748 138.893 87.5221 138.829C87.0405 138.541 86.6437 138.13 86.3721 137.639C86.1005 137.149 85.9637 136.595 85.9756 136.034C85.935 135.401 86.0365 134.767 86.2725 134.179C86.3351 133.946 86.4535 133.732 86.6173 133.556C86.7811 133.379 86.9855 133.245 87.2128 133.165C87.3596 133.122 87.5165 133.132 87.6566 133.193C87.7966 133.254 87.911 133.362 87.9799 133.499C88.0913 133.696 88.0418 133.845 88.0789 133.857C88.116 133.87 88.2397 133.734 88.1655 133.424C88.1187 133.241 88.0094 133.079 87.8562 132.967C87.6471 132.822 87.3896 132.764 87.1386 132.806C86.8308 132.879 86.5476 133.032 86.3175 133.249C86.0873 133.466 85.9182 133.74 85.8271 134.043C85.531 134.693 85.3993 135.407 85.4436 136.12C85.428 136.779 85.6076 137.427 85.9598 137.984C86.3121 138.541 86.8212 138.981 87.4232 139.249C87.6241 139.301 87.8343 139.307 88.0378 139.267C88.2414 139.226 88.4331 139.14 88.5985 139.014C88.8336 138.816 88.8584 138.643 88.8336 138.631Z" fill="#E4C0AD"/>
<path d="M134.042 106.774C134.118 106.105 134.023 105.426 133.766 104.804C133.508 104.181 133.097 103.633 132.57 103.213C132.023 102.802 131.345 102.604 130.663 102.654C129.981 102.704 129.34 102.999 128.858 103.485C128.96 103.033 128.966 102.566 128.876 102.112C128.786 101.658 128.601 101.229 128.334 100.851C128.067 100.473 127.723 100.156 127.325 99.9192C126.928 99.6827 126.485 99.5323 126.025 99.4779C124.268 99.3666 122.759 100.715 121.076 101.16C119.375 101.517 117.603 101.313 116.028 100.578C114.432 99.9354 112.935 99.045 111.314 98.4514C107.894 97.2095 104.122 97.3662 100.816 98.8874C97.5106 100.409 94.9388 103.171 93.6588 106.576C92.451 106.288 91.1844 106.37 90.0237 106.811C88.8631 107.252 87.8621 108.032 87.151 109.05C85.7714 111.137 85.22 113.664 85.6044 116.136C85.8354 117.793 86.2504 119.419 86.8417 120.984C86.8417 121.12 86.8417 121.256 86.8417 121.404C86.953 127.34 87.6211 134.315 90.1575 134.364C94.5744 134.426 93.5227 126.116 93.5227 126.116C98.9418 124.026 96.9251 115.901 98.2861 114.664C99.6471 113.428 102.468 110.546 113.826 116.346C118.051 118.238 122.766 118.748 127.299 117.805H127.584H127.646H127.745C128.772 117.546 129.753 117.129 130.652 116.569C131.737 115.925 132.581 114.943 133.052 113.774C133.287 113.211 133.353 112.593 133.243 111.994C133.133 111.395 132.852 110.841 132.434 110.398C133.312 109.372 133.871 108.113 134.042 106.774Z" fill="#263238"/>
<path d="M193.009 264.141C193.11 264.234 193.201 264.338 193.281 264.45C193.751 265.068 194.518 266.651 193.714 269.396C192.684 272.449 191.495 275.446 190.151 278.375C190.151 278.375 191.005 282.085 190.151 282.938C189.297 283.791 175.193 282.938 175.193 282.938C175.193 282.938 172.718 281.59 174.624 280.465H184.521" fill="#FFBE9D"/>
<path d="M66.3283 183.646C66.3283 183.646 54.1415 187.517 48.4502 211.557C44.2807 229.217 32.4527 264.351 35.4468 269.953C39.1585 276.903 82.2515 288.008 82.2515 288.008L85.9632 271.548L64.3363 256.956L75.9045 217.902C75.9045 217.902 77.216 185.501 66.3283 183.646Z" fill="#513CDC"/>
<path d="M69.743 228.512C69.743 230.342 75.224 267.01 75.224 267.01L64.3363 326.58L106.6 328.819L111.302 303.121L117.129 328.819L155.15 319.568L145.4 278.919L149.112 226.657L145.029 183.238L129.415 177.908L121.348 168.472L108.295 176.597L92.1741 166.951L87.0767 173.901L66.3283 183.646C64.2621 187.43 69.743 228.512 69.743 228.512Z" fill="#513CDC"/>
<path d="M92.1741 166.951L91.6421 178.501L113.912 237.602L122.895 179.478L119.975 168.348L108.32 176.547L92.1741 166.951Z" fill="#F2F2F2"/>
<path d="M145.004 183.25C145.004 183.25 155.644 191.833 159.257 202.023C162.87 212.213 168.821 225.618 168.821 225.618H149.025L145.004 183.25Z" fill="#513CDC"/>
<path d="M113.368 239.914C113.169 239.719 112.991 239.503 112.836 239.271L111.351 237.317L106.192 230.243L89.3532 206.747L86.6066 202.814L86.4705 202.629L86.5942 202.443L91.0111 196.062L91.0854 196.482L81.2864 189.211L81.1256 189.099L81.1998 188.926L85.3693 177.957L86.6066 174.952C86.7322 174.592 86.8895 174.245 87.0767 173.913C87.0018 174.285 86.8941 174.649 86.755 175.001L85.6786 178.081L81.6576 189.087L81.571 188.79L91.4689 196.025L91.704 196.198L91.5308 196.445L87.1386 202.814V202.443L89.9224 206.351L106.6 230.021L111.549 237.218L112.885 239.197C113.072 239.418 113.233 239.659 113.368 239.914Z" fill="#263238"/>
<path d="M111.438 301.488C111.41 301.275 111.41 301.059 111.438 300.845V299.002L111.624 292.238L112.378 269.978L113.059 247.718L113.232 240.965L113.306 239.123C113.303 238.906 113.328 238.69 113.38 238.48C113.408 238.693 113.408 238.909 113.38 239.123V240.965C113.38 242.561 113.38 244.873 113.38 247.73C113.38 253.443 113.17 261.333 112.885 269.99C112.601 278.647 112.242 286.574 111.945 292.25L111.549 299.002L111.401 300.833C111.442 301.049 111.455 301.269 111.438 301.488Z" fill="#263238"/>
<path d="M114.284 238.133C114.326 237.899 114.396 237.67 114.494 237.453L115.224 235.573L118.032 228.685L127.534 206.066L129.811 200.724V201.046L124.639 194.862L124.466 194.652L124.652 194.466L132.149 186.713V186.947L129.749 179.985L129.13 178.081C129.045 177.862 128.987 177.633 128.957 177.4C129.081 177.598 129.181 177.81 129.254 178.031L129.984 179.886L132.57 186.787V186.91L132.471 187.009L125.048 194.862V194.466L130.256 200.65L130.38 200.798L130.306 200.971L128.042 206.314L118.366 228.871L115.36 235.672L114.519 237.515C114.464 237.729 114.385 237.937 114.284 238.133Z" fill="#263238"/>
<g opacity="0.3">
<path opacity="0.3" d="M81.4473 189L87.9923 196.322L83.464 204.434L111.438 237.626L86.8664 202.653L91.271 196.272L81.4473 189Z" fill="black"/>
</g>
<g opacity="0.3">
<path opacity="0.3" d="M114.939 236.575L130.528 206.017L130.12 200.848L114.939 236.575Z" fill="black"/>
</g>
<path d="M40.2721 273.737C40.2721 273.737 41.2866 274.281 43.2414 275.06C45.1963 275.839 48.0543 277.014 51.7165 278.251C59.0162 280.724 69.409 284.1 81.5339 287.749L81.1504 287.959L85.8024 270.645L85.9385 271.004L85.2456 270.559L64.1879 257.228L64.0023 257.104V256.894L71.5494 230.985L73.7517 223.565L74.3579 221.611C74.4157 221.382 74.4944 221.159 74.593 220.944C74.5648 221.178 74.5151 221.41 74.4445 221.636L73.9249 223.615L71.8835 231.035L64.559 257.005L64.4353 256.671L85.4683 269.965L86.1612 270.41L86.3591 270.534L86.2973 270.769L81.6205 288.082L81.5339 288.392L81.237 288.305C69.1121 284.595 58.744 281.219 51.4691 278.585C47.8316 277.274 44.9736 276.112 43.0435 275.258C42.0768 274.834 41.1494 274.325 40.2721 273.737Z" fill="#263238"/>
<path d="M65.92 189.681C65.92 189.681 66.254 189.841 66.7737 190.225C67.5088 190.776 68.1996 191.384 68.8399 192.043C73.1524 196.426 75.7058 202.239 76.0158 208.379C76.0674 209.299 76.0467 210.221 75.954 211.137C75.9524 211.478 75.8938 211.817 75.7808 212.139C75.6694 212.139 75.7808 210.704 75.5581 208.429C75.0122 202.447 72.5373 196.805 68.5058 192.352C66.9716 190.658 65.8457 189.767 65.92 189.681Z" fill="#263238"/>
<path d="M147.579 219.494C147.756 219.482 147.442 212.728 146.877 204.407C146.313 196.087 145.711 189.352 145.534 189.364C145.357 189.376 145.671 196.131 146.235 204.451C146.8 212.771 147.401 219.506 147.579 219.494Z" fill="#263238"/>
<path d="M122.783 179.762C122.594 180.034 122.374 180.283 122.128 180.504C121.682 180.962 121.002 181.63 120.136 182.471C117.744 184.804 115.147 186.919 112.378 188.79L111.97 189.062V188.568C111.997 186.335 111.659 184.112 110.968 181.988C110.553 180.839 110.018 179.736 109.372 178.699C109.042 178.163 108.683 177.639 108.295 177.128L108.147 176.943L108.073 176.844L108.469 176.93C108.363 177.018 108.267 177.118 108.184 177.227C107.998 177.475 107.837 177.74 107.701 178.019C106.947 179.825 106.428 181.72 106.155 183.658C105.808 185.538 105.512 187.368 105.264 189.075L105.19 189.582L104.794 189.26L95.2672 181.716L92.6072 179.54C92.2786 179.295 91.976 179.018 91.704 178.711C92.0686 178.902 92.4126 179.13 92.7309 179.391L95.4899 181.444L105.066 188.778L104.596 188.976C104.831 187.244 105.116 185.426 105.45 183.534C105.724 181.535 106.261 179.581 107.046 177.722C107.215 177.411 107.414 177.117 107.64 176.844C107.755 176.692 107.888 176.555 108.036 176.436H108.11L108.518 176.522L108.592 176.621L108.741 176.819C109.137 177.347 109.504 177.887 109.842 178.439C110.515 179.494 111.075 180.618 111.512 181.791C112.209 183.976 112.535 186.262 112.477 188.555L112.044 188.333C114.812 186.506 117.435 184.468 119.888 182.236L121.979 180.393C122.222 180.152 122.492 179.941 122.783 179.762Z" fill="#263238"/>
<path d="M113.343 237.079C113.52 237.064 112.528 223.601 111.129 207.008C109.729 190.416 108.451 176.977 108.274 176.992C108.096 177.007 109.088 190.47 110.487 207.062C111.887 223.655 113.166 237.094 113.343 237.079Z" fill="#263238"/>
<g opacity="0.3">
<path opacity="0.3" d="M74.2342 223.837C74.2342 223.837 73.1454 252.936 73.1578 253.01L70.5844 235.821L74.2342 223.837Z" fill="black"/>
</g>
<path d="M95.7126 268.086L106.848 280.452H184.583L210.33 230.887C210.618 230.338 210.759 229.724 210.739 229.105C210.72 228.486 210.541 227.883 210.22 227.353C209.899 226.823 209.447 226.385 208.907 226.081C208.367 225.777 207.758 225.618 207.138 225.618H131.048C130.335 225.618 129.638 225.83 129.046 226.226C128.453 226.623 127.992 227.186 127.72 227.844L112.069 265.612L97.0241 265.229C96.6912 265.225 96.3641 265.317 96.0827 265.495C95.8012 265.673 95.5775 265.928 95.4386 266.231C95.2998 266.533 95.2517 266.87 95.3004 267.199C95.349 267.528 95.4922 267.836 95.7126 268.086Z" fill="#455A64"/>
<path d="M95.7745 265.736C96.0789 265.964 96.3606 266.221 96.6158 266.503L98.88 268.766L106.873 277.014H106.402C108.667 272.068 111.351 266.033 114.209 259.552C118.082 250.723 121.46 242.66 123.885 236.822L126.767 229.909L127.571 228.042C127.653 227.82 127.761 227.608 127.893 227.411C127.855 227.645 127.788 227.874 127.695 228.092L127.002 230.008C126.384 231.666 125.468 234.052 124.318 236.996C121.992 242.882 118.688 250.97 114.803 259.812C111.97 266.292 109.223 272.278 106.897 277.249L106.724 277.608L106.452 277.323L98.6201 268.939L96.5045 266.601C96.2341 266.337 95.9897 266.047 95.7745 265.736Z" fill="#263238"/>
<path d="M86.1117 271.536L93.1516 270.88C93.1516 270.88 105.808 266.663 107.924 267.034C108.077 267.71 108.002 268.417 107.711 269.045C107.42 269.674 106.93 270.188 106.316 270.509C104.076 271.87 100.736 273.49 100.736 273.49L105.784 279.265C106.102 279.646 106.499 279.955 106.947 280.168C107.396 280.382 107.885 280.495 108.382 280.502H124.961C124.788 281.086 124.485 281.623 124.076 282.075C123.667 282.527 123.162 282.881 122.598 283.111C120.866 283.606 108.79 287.204 108.79 287.204L82.5732 284.434L86.1117 271.536Z" fill="#FFBE9D"/>
<defs>
<linearGradient id="paint0_linear" x1="402" y1="134" x2="490" y2="182" gradientUnits="userSpaceOnUse">
<stop stop-color="#FE3C45"/>
<stop offset="1" stop-color="#E93039"/>
</linearGradient>
<linearGradient id="paint1_linear" x1="641.05" y1="244.304" x2="641.05" y2="246.505" gradientUnits="userSpaceOnUse">
<stop stop-color="#FE3C45"/>
<stop offset="1" stop-color="#EA3039"/>
</linearGradient>
<linearGradient id="paint2_linear" x1="665.708" y1="244.304" x2="665.708" y2="246.505" gradientUnits="userSpaceOnUse">
<stop stop-color="#FE3C45"/>
<stop offset="1" stop-color="#EA3039"/>
</linearGradient>
<linearGradient id="paint3_linear" x1="690.353" y1="244.304" x2="690.353" y2="246.505" gradientUnits="userSpaceOnUse">
<stop stop-color="#FE3C45"/>
<stop offset="1" stop-color="#EA3039"/>
</linearGradient>
<linearGradient id="paint4_linear" x1="715.012" y1="244.304" x2="715.012" y2="246.505" gradientUnits="userSpaceOnUse">
<stop stop-color="#FE3C45"/>
<stop offset="1" stop-color="#EA3039"/>
</linearGradient>
<linearGradient id="paint5_linear" x1="739.67" y1="244.304" x2="739.67" y2="246.505" gradientUnits="userSpaceOnUse">
<stop stop-color="#FE3C45"/>
<stop offset="1" stop-color="#EA3039"/>
</linearGradient>
<linearGradient id="paint6_linear" x1="788.986" y1="244.304" x2="788.986" y2="246.505" gradientUnits="userSpaceOnUse">
<stop stop-color="#FE3C45"/>
<stop offset="1" stop-color="#EA3039"/>
</linearGradient>
<linearGradient id="paint7_linear" x1="764.328" y1="244.304" x2="764.328" y2="246.505" gradientUnits="userSpaceOnUse">
<stop stop-color="#FE3C45"/>
<stop offset="1" stop-color="#EA3039"/>
</linearGradient>
<linearGradient id="paint8_linear" x1="813.644" y1="244.304" x2="813.644" y2="246.505" gradientUnits="userSpaceOnUse">
<stop stop-color="#FE3C45"/>
<stop offset="1" stop-color="#EA3039"/>
</linearGradient>
<linearGradient id="paint9_linear" x1="665.708" y1="233.854" x2="665.708" y2="239.246" gradientUnits="userSpaceOnUse">
<stop stop-color="#FE3C45"/>
<stop offset="1" stop-color="#EA3039"/>
</linearGradient>
<linearGradient id="paint10_linear" x1="687.211" y1="221.166" x2="687.211" y2="226.558" gradientUnits="userSpaceOnUse">
<stop stop-color="#FE3C45"/>
<stop offset="1" stop-color="#EA3039"/>
</linearGradient>
<linearGradient id="paint11_linear" x1="739.979" y1="199.228" x2="739.979" y2="204.619" gradientUnits="userSpaceOnUse">
<stop stop-color="#FE3C45"/>
<stop offset="1" stop-color="#EA3039"/>
</linearGradient>
<linearGradient id="paint12_linear" x1="764.328" y1="213.895" x2="764.328" y2="219.286" gradientUnits="userSpaceOnUse">
<stop stop-color="#FE3C45"/>
<stop offset="1" stop-color="#EA3039"/>
</linearGradient>
<linearGradient id="paint13_linear" x1="788.986" y1="217.802" x2="788.986" y2="223.194" gradientUnits="userSpaceOnUse">
<stop stop-color="#FE3C45"/>
<stop offset="1" stop-color="#EA3039"/>
</linearGradient>
<linearGradient id="paint14_linear" x1="730.019" y1="201.577" x2="730.019" y2="236.958" gradientUnits="userSpaceOnUse">
<stop stop-color="#FE3C45"/>
<stop offset="1" stop-color="#EA3039"/>
</linearGradient>
</defs>
</svg>
