<svg width="364" height="508" viewBox="0 0 364 508" fill="none" xmlns="http://www.w3.org/2000/svg">
<g clip-path="url(#clip0)">
<path d="M270.237 454.202L112.337 478.982C104.538 480.185 96.5793 478.255 90.1978 473.613C83.8163 468.97 79.5301 461.992 78.2744 454.202L19.1442 77.8109C17.941 70.012 19.8714 62.0538 24.5142 55.6727C29.157 49.2917 36.1352 45.0058 43.9263 43.7501L201.813 18.9696C209.613 17.7665 217.571 19.6968 223.953 24.3393C230.334 28.9817 234.621 35.9595 235.876 43.7501L295.019 420.141C296.222 427.94 294.292 435.898 289.649 442.279C285.006 448.66 278.028 452.946 270.237 454.202Z" fill="white"/>
<path d="M205.543 14.8682L39.1929 40.9992C23.3076 43.4897 12.3167 57.788 14.6834 72.8545L75.5855 460.273C77.9522 475.339 92.7967 485.574 108.682 483.071L275.007 456.952C290.893 454.474 301.884 440.163 299.517 425.097L238.64 37.6662C236.273 22.5997 221.428 12.3901 205.543 14.8682ZM292.28 426.224C294.065 437.549 285.825 448.242 273.892 450.125L107.579 476.256C95.6466 478.127 84.5319 470.47 82.7971 459.145L21.8826 71.727C20.0983 60.4023 28.3384 49.6972 40.271 47.8262L78.5841 41.8046C80.1975 41.5077 81.8627 41.8628 83.2146 42.7919C84.5665 43.7209 85.4948 45.1482 85.7957 46.7607V47.1448C86.2685 49.7024 87.7374 51.9677 89.8796 53.443C92.0218 54.9183 94.6621 55.4828 97.2203 55.0126L158.606 45.3978C161.183 45.0583 163.52 43.7106 165.104 41.6502C166.688 39.5898 167.39 36.9851 167.056 34.4076C167.056 34.2837 167.056 34.1474 166.97 34.0235C166.759 32.3954 167.203 30.7502 168.204 29.4493C169.205 28.1483 170.682 27.2979 172.31 27.085L206.621 21.6952C218.554 19.8243 229.668 27.4815 231.403 38.8061L292.28 426.224Z" fill="#513CDC"/>
<path d="M110.466 93.3483L74.7181 123.754C73.9698 124.386 73.3538 125.16 72.9055 126.031C72.4573 126.902 72.1856 127.853 72.1062 128.83C72.0267 129.806 72.1411 130.789 72.4426 131.721C72.7441 132.653 73.2269 133.516 73.8632 134.261L91.2107 154.692C91.8429 155.441 92.6169 156.057 93.488 156.505C94.3591 156.953 95.3103 157.225 96.2867 157.304C97.2632 157.384 98.2457 157.269 99.1779 156.968C100.11 156.666 100.973 156.184 101.718 155.547L114.246 144.904L124.852 148.683C125.117 148.776 125.402 148.798 125.678 148.746C125.954 148.695 126.212 148.573 126.426 148.391C126.64 148.21 126.803 147.975 126.899 147.711C126.994 147.447 127.019 147.163 126.971 146.887L124.939 135.81L137.541 125.142C138.289 124.509 138.905 123.736 139.353 122.864C139.802 121.993 140.073 121.042 140.153 120.066C140.232 119.09 140.118 118.107 139.816 117.175C139.515 116.243 139.032 115.38 138.396 114.635L120.974 94.166C120.339 93.4204 119.563 92.8076 118.691 92.3627C117.818 91.9178 116.867 91.6497 115.89 91.5737C114.914 91.4977 113.932 91.6154 113.001 91.9199C112.07 92.2244 111.209 92.7098 110.466 93.3483Z" fill="url(#paint0_linear)"/>
<path d="M104.504 337.54L105.481 337.219C106.908 336.751 108.463 336.869 109.803 337.547C111.143 338.225 112.159 339.408 112.627 340.835L144.947 439.364L133.173 443.225L100.853 344.696C100.62 343.987 100.53 343.238 100.588 342.494C100.645 341.749 100.85 341.024 101.189 340.358C101.529 339.693 101.996 339.102 102.565 338.618C103.134 338.134 103.793 337.768 104.504 337.54Z" fill="url(#paint1_linear)"/>
<path d="M129.54 349.017L130.517 348.697C131.944 348.229 133.499 348.347 134.839 349.025C136.179 349.703 137.195 350.885 137.663 352.312L164.152 433.064L152.378 436.925L125.889 356.174C125.656 355.464 125.566 354.716 125.624 353.971C125.681 353.227 125.886 352.501 126.225 351.836C126.565 351.171 127.032 350.579 127.601 350.095C128.17 349.612 128.829 349.245 129.54 349.017Z" fill="#513CDC"/>
<path d="M157.671 370.067L158.648 369.746C160.075 369.278 161.63 369.396 162.97 370.074C164.31 370.752 165.326 371.935 165.794 373.362L183.311 426.764L171.538 430.626L154.02 377.223C153.787 376.514 153.697 375.765 153.755 375.021C153.812 374.276 154.017 373.55 154.356 372.885C154.695 372.22 155.163 371.629 155.732 371.145C156.301 370.661 156.96 370.295 157.671 370.067Z" fill="#F0333C"/>
<path d="M183.041 382.494L184.018 382.174C185.445 381.706 186.999 381.824 188.339 382.502C189.679 383.18 190.695 384.362 191.163 385.789L202.537 420.461L190.763 424.323L179.389 389.651C178.921 388.224 179.039 386.669 179.717 385.329C180.396 383.989 181.578 382.974 183.005 382.506L183.041 382.494Z" fill="#513CDC"/>
<path d="M358.102 91.192L192.062 88.144C191.267 88.1193 190.476 88.2524 189.733 88.5355C188.991 88.8187 188.311 89.2463 187.735 89.7937C187.159 90.341 186.697 90.9972 186.376 91.7243C186.055 92.4514 185.882 93.2348 185.866 94.0294L184.838 149.785C184.811 151.377 185.417 152.914 186.523 154.06C187.629 155.205 189.144 155.865 190.736 155.894L196.931 156.005C197.499 156.015 198.06 156.137 198.581 156.363C199.102 156.589 199.573 156.916 199.968 157.324C200.362 157.733 200.673 158.215 200.881 158.743C201.089 159.272 201.191 159.836 201.181 160.404L201.02 169.176C201.023 169.515 201.124 169.846 201.313 170.128C201.501 170.41 201.768 170.631 202.081 170.763C202.393 170.895 202.737 170.932 203.071 170.87C203.404 170.808 203.712 170.65 203.957 170.415L211.974 162.684C214.051 160.672 216.505 159.089 219.195 158.026C221.884 156.963 224.757 156.441 227.649 156.489L356.863 158.979C357.652 158.994 358.436 158.853 359.171 158.565C359.906 158.276 360.577 157.846 361.145 157.298C361.714 156.75 362.169 156.096 362.484 155.373C362.8 154.649 362.969 153.87 362.984 153.081L364.012 97.3252C364.029 96.534 363.889 95.7473 363.6 95.0103C363.312 94.2733 362.881 93.6006 362.331 93.0307C361.782 92.4608 361.126 92.005 360.4 91.6895C359.674 91.374 358.893 91.2049 358.102 91.192Z" fill="#E3E3E3"/>
<path opacity="0.72" d="M289.644 101.413L205.25 99.8664C204.36 99.8501 203.626 100.558 203.61 101.447L203.595 102.24C203.579 103.13 204.287 103.864 205.176 103.88L289.57 105.427C290.46 105.443 291.194 104.735 291.21 103.846L291.225 103.053C291.241 102.164 290.533 101.429 289.644 101.413Z" fill="#181818"/>
<path opacity="0.72" d="M301.01 110.125L204.954 108.204C204.065 108.186 203.329 108.893 203.311 109.782L203.295 110.575C203.277 111.465 203.984 112.2 204.874 112.218L300.929 114.139C301.819 114.157 302.555 113.45 302.572 112.561L302.588 111.768C302.606 110.878 301.899 110.142 301.01 110.125Z" fill="#181818"/>
<path opacity="0.72" d="M283.059 117.249L204.946 115.817C204.057 115.801 203.323 116.509 203.306 117.398L203.292 118.191C203.276 119.08 203.983 119.815 204.873 119.831L282.985 121.262C283.875 121.279 284.609 120.571 284.626 119.681L284.64 118.889C284.656 117.999 283.949 117.265 283.059 117.249Z" fill="#181818"/>
<path opacity="0.72" d="M289.193 125.327L204.799 123.78C203.91 123.764 203.176 124.472 203.159 125.361L203.145 126.154C203.128 127.043 203.836 127.777 204.726 127.794L289.12 129.34C290.009 129.357 290.743 128.649 290.76 127.759L290.774 126.967C290.79 126.077 290.083 125.343 289.193 125.327Z" fill="#181818"/>
<path opacity="0.72" d="M300.691 133.515L204.651 131.755C203.762 131.739 203.028 132.447 203.011 133.336L202.997 134.129C202.98 135.018 203.688 135.753 204.578 135.769L300.617 137.529C301.507 137.545 302.241 136.837 302.257 135.948L302.272 135.155C302.288 134.266 301.58 133.531 300.691 133.515Z" fill="#181818"/>
<path opacity="0.72" d="M282.633 141.162L204.521 139.731C203.631 139.714 202.897 140.422 202.881 141.312L202.866 142.104C202.85 142.994 203.558 143.728 204.447 143.744L282.56 145.176C283.449 145.192 284.183 144.484 284.2 143.595L284.214 142.802C284.231 141.913 283.523 141.179 282.633 141.162Z" fill="#181818"/>
<path d="M336.64 123.535C337.903 122.639 338.927 121.446 339.621 120.061C340.315 118.676 340.657 117.141 340.617 115.593C340.476 114.129 339.952 112.729 339.097 111.532C338.242 110.336 337.087 109.386 335.748 108.778C334.4 108.198 332.936 107.936 331.47 108.013C330.004 108.091 328.576 108.505 327.297 109.224C325.925 109.978 324.766 111.066 323.928 112.387C323.089 113.709 322.599 115.221 322.502 116.782C322.468 118.084 322.757 119.374 323.343 120.537C323.929 121.7 324.793 122.701 325.86 123.448C323.289 124.484 321.08 126.251 319.505 128.531C317.93 130.81 317.059 133.502 317 136.272V139.209L345.289 139.803V136.867C345.348 134.034 344.555 131.249 343.013 128.872C341.471 126.495 339.251 124.636 336.64 123.535Z" fill="#181818"/>
<path d="M131.791 268.521L137.913 274.506C138.517 275.098 138.91 275.873 139.028 276.711C139.147 277.549 138.986 278.403 138.569 279.14C138.12 279.96 137.985 280.916 138.19 281.829C138.396 282.741 138.927 283.547 139.684 284.096L146.338 290.626C146.775 290.938 147.139 291.34 147.405 291.806C147.672 292.272 147.834 292.79 147.881 293.324C147.928 293.859 147.859 294.397 147.678 294.902C147.497 295.407 147.21 295.867 146.834 296.251L142.559 300.625C141.888 301.313 140.976 301.714 140.014 301.744C139.053 301.774 138.118 301.431 137.405 300.786L115.51 276.897L131.791 268.521Z" fill="#181818"/>
<path d="M141.345 257.717C162.918 248.709 191.268 251.596 191.268 251.596L149.25 188.901C144.405 207.487 132.089 222.355 123.44 231.028L141.345 257.717Z" fill="url(#paint2_linear)"/>
<path d="M132.064 262.673C134.974 260.698 138.085 259.037 141.345 257.717L123.44 231.003C120.541 233.936 117.458 236.68 114.208 239.218L132.064 262.673Z" fill="#181818"/>
<path d="M199.974 250.959C207.971 245.356 203.755 225.544 190.555 206.709C177.356 187.874 160.173 177.147 152.175 182.751C144.178 188.355 148.395 208.166 161.594 227.002C174.793 245.837 191.976 256.563 199.974 250.959Z" fill="url(#paint3_linear)"/>
<path d="M195.693 244.851C202.262 240.248 198.803 223.983 187.968 208.522C177.133 193.06 163.024 184.257 156.456 188.86C149.888 193.462 153.346 209.727 164.181 225.188C175.017 240.65 189.125 249.453 195.693 244.851Z" fill="#181818"/>
<path d="M180.996 227.374C183.536 221.463 186.882 208.788 168.865 208.912C168.576 208.912 168.292 208.989 168.042 209.135C167.792 209.281 167.585 209.491 167.443 209.743C167.301 209.995 167.228 210.28 167.232 210.57C167.236 210.859 167.316 211.142 167.465 211.39L177.762 227.584C177.937 227.868 178.186 228.098 178.482 228.251C178.778 228.404 179.11 228.474 179.443 228.452C179.775 228.43 180.095 228.318 180.369 228.128C180.643 227.938 180.86 227.677 180.996 227.374Z" fill="white"/>
<path d="M137.481 267.484L124.064 276.194C120.246 278.672 115.6 279.532 111.148 278.585C106.696 277.638 102.803 274.961 100.325 271.144L96.2765 264.908C95.0493 263.018 94.2066 260.905 93.7962 258.689C93.3859 256.473 93.4161 254.198 93.8851 251.994C94.354 249.789 95.2526 247.699 96.5294 245.842C97.8062 243.985 99.4363 242.398 101.327 241.171L114.744 232.461C115.69 231.847 116.84 231.634 117.943 231.869C119.045 232.104 120.01 232.766 120.623 233.712L138.732 261.605C139.346 262.551 139.559 263.701 139.324 264.804C139.09 265.906 138.427 266.87 137.481 267.484Z" fill="url(#paint4_linear)"/>
<path d="M105.77 271.346L98.8931 260.753C98.5917 260.292 98.1199 259.969 97.5811 259.855C97.0423 259.742 96.4804 259.846 96.0184 260.146C95.0927 260.745 94.2942 261.52 93.6686 262.428C93.0429 263.336 92.6024 264.358 92.3722 265.437C92.1421 266.515 92.1268 267.628 92.3272 268.712C92.5276 269.796 92.9397 270.831 93.5402 271.755C94.1393 272.681 94.915 273.479 95.8229 274.105C96.7309 274.731 97.7533 275.171 98.8316 275.401C99.91 275.631 101.023 275.647 102.107 275.446C103.192 275.246 104.226 274.834 105.151 274.233C105.381 274.085 105.581 273.893 105.737 273.667C105.893 273.441 106.003 273.187 106.061 272.919C106.118 272.65 106.122 272.373 106.073 272.104C106.023 271.834 105.92 271.576 105.77 271.346Z" fill="#181818"/>
<path d="M200.587 329.469C200.666 328.904 200.902 328.373 201.268 327.935C201.634 327.497 202.114 327.17 202.656 326.991C202.087 326.6 201.667 326.028 201.465 325.368C201.262 324.708 201.289 323.999 201.54 323.356C201.791 322.713 202.252 322.174 202.848 321.826C203.445 321.478 204.141 321.342 204.824 321.44L205.32 321.514L212.68 322.753C212.68 322.753 212.048 315.963 213.126 312.519C214.204 309.074 219.186 308.195 218.702 312.135C218.219 316.075 218.529 317.463 221.081 321.341C222.243 323.05 223.203 324.888 223.944 326.817C224.128 327.329 224.184 327.878 224.105 328.416L221.986 343.284C221.925 343.671 221.714 344.018 221.398 344.25C221.083 344.482 220.688 344.58 220.301 344.523L202.408 341.983L201.912 341.909C201.515 341.878 201.128 341.765 200.776 341.577C200.425 341.389 200.116 341.131 199.869 340.817C199.622 340.504 199.443 340.143 199.343 339.758C199.242 339.372 199.223 338.969 199.286 338.576C199.595 337.225 201.342 336.94 201.342 336.94C200.803 336.806 200.33 336.481 200.012 336.026C199.693 335.57 199.549 335.015 199.608 334.462C199.868 332.616 201.082 332.331 201.9 332.393C201.432 332.075 201.062 331.633 200.83 331.117C200.598 330.6 200.514 330.03 200.587 329.469Z" fill="#D5C8CF"/>
<path d="M226.215 329.515L223.819 346.394C223.668 347.451 224.404 348.43 225.461 348.58L231.914 349.496C232.971 349.646 233.949 348.911 234.099 347.854L236.496 330.974C236.646 329.917 235.911 328.939 234.854 328.789L228.401 327.873C227.344 327.723 226.365 328.458 226.215 329.515Z" fill="#D5C8CF"/>
</g>
<defs>
<linearGradient id="paint0_linear" x1="106.129" y1="91.5513" x2="106.129" y2="157.329" gradientUnits="userSpaceOnUse">
<stop stop-color="#FE3C45"/>
<stop offset="1" stop-color="#EB3039"/>
</linearGradient>
<linearGradient id="paint1_linear" x1="104.975" y1="337.385" x2="139.056" y2="441.296" gradientUnits="userSpaceOnUse">
<stop stop-color="#FE3C45"/>
<stop offset="1" stop-color="#EB3039"/>
</linearGradient>
<linearGradient id="paint2_linear" x1="157.354" y1="188.901" x2="157.354" y2="257.717" gradientUnits="userSpaceOnUse">
<stop stop-color="#513CDC"/>
<stop offset="1" stop-color="#4631D0"/>
</linearGradient>
<linearGradient id="paint3_linear" x1="152.175" y1="182.751" x2="199.97" y2="250.962" gradientUnits="userSpaceOnUse">
<stop stop-color="#513CDC"/>
<stop offset="1" stop-color="#4631D0"/>
</linearGradient>
<linearGradient id="paint4_linear" x1="125.357" y1="275.354" x2="102.623" y2="240.329" gradientUnits="userSpaceOnUse">
<stop stop-color="#513CDC"/>
<stop offset="1" stop-color="#4935CD"/>
</linearGradient>
<clipPath id="clip0">
<rect width="364" height="508" fill="white"/>
</clipPath>
</defs>
</svg>
