<svg width="782" height="551" viewBox="0 0 782 551" fill="none" xmlns="http://www.w3.org/2000/svg">
<g clip-path="url(#clip0)">
<path d="M61.3409 172.846L58.6089 171.83L55.7203 171.055C55.7198 171.055 55.7194 171.055 55.719 171.055C55.555 171.011 55.3984 170.968 55.2452 170.925C54.9168 170.833 54.6044 170.746 54.2699 170.679L52.7575 170.438C52.3541 170.382 51.9703 170.317 51.5943 170.253C50.9564 170.145 50.3406 170.041 49.6882 169.993L49.6808 169.992L49.6808 169.992C47.5706 169.806 45.4498 169.772 43.3348 169.891L43.3324 169.891C41.1369 170.004 38.9524 170.274 36.7957 170.7L33.4992 171.568L33.4983 171.568L32.6901 171.779L31.9067 172.077L31.9055 172.078L30.2788 172.692C30.2782 172.692 30.2776 172.692 30.277 172.692C25.8239 174.411 21.6805 176.842 18.009 179.89C10.2097 186.582 4.89747 195.706 2.93041 205.786L2.33232 209.752L2.11578 213.785C2.04728 216.494 2.23426 219.203 2.67426 221.877L2.67444 221.878C3.54473 227.242 5.37038 232.406 8.06371 237.126H8.434L8.24951 237.448C8.25694 237.461 8.26438 237.474 8.27182 237.486C8.27236 237.487 8.27289 237.488 8.27343 237.489L8.36479 237.641L10.1257 240.436L10.1265 240.437L47.4021 299.97L82.3764 238.485H82.257L82.7226 237.724L82.831 237.546L82.6326 237.19H83.0394C85.935 232.149 87.8475 226.604 88.6742 220.849L88.6743 220.848C88.9569 218.896 89.0493 217.361 89.1131 216.3L89.1184 216.212V215.022V214.926L89.1542 214.836C89.1864 214.756 89.2067 214.694 89.2193 214.65C89.1825 214.65 89.1825 214.65 89.1825 214.65V214.65V214.65V214.65V214.65V214.65V214.65V214.65V214.65V214.649V214.649V214.649V214.649V214.649V214.649V214.649V214.649V214.648V214.648V214.648V214.648V214.648V214.648V214.647V214.647V214.647V214.647V214.647V214.646V214.646V214.646V214.646V214.646V214.645V214.645V214.645V214.644V214.644L89.1824 214.644L89.1817 214.611C89.1809 214.581 89.1791 214.533 89.1753 214.467C89.1678 214.335 89.1526 214.133 89.1216 213.86L89.1189 213.837L89.1185 213.814L89.0673 211.31C88.9928 209.988 88.8326 208.672 88.5879 207.37L88.5862 207.362L88.5849 207.353C88.3122 205.551 87.9224 203.77 87.4179 202.019L61.3409 172.846ZM61.3409 172.846C61.5375 172.924 61.72 172.992 61.8958 173.058C62.1556 173.154 62.401 173.246 62.6561 173.358L63.9287 173.993L66.4827 175.269C72.2391 178.58 77.197 183.114 81.0061 188.55L61.3409 172.846ZM90.2337 214.623L90.1825 214.621V214.62V214.62V214.619V214.619V214.618V214.617V214.617V214.616V214.615V214.615V214.614V214.613V214.613V214.612V214.611V214.61V214.61V214.609V214.608V214.607V214.607V214.606V214.605V214.604V214.604V214.603V214.602V214.601V214.601V214.6V214.599V214.598V214.597V214.596V214.596V214.595V214.594V214.593V214.592V214.591V214.59V214.59V214.589V214.588V214.587V214.586V214.585V214.584V214.583V214.582V214.581V214.58V214.579V214.579V214.578V214.577V214.576V214.575V214.574V214.573V214.572V214.571V214.57V214.569V214.568V214.566V214.565V214.564V214.563V214.562V214.561V214.56V214.559V214.558V214.557V214.556V214.555V214.554V214.552V214.551V214.55V214.549V214.548V214.547V214.546V214.544V214.543V214.542V214.541V214.54V214.538V214.537V214.536V214.535V214.534V214.532V214.531V214.53V214.529V214.527V214.526V214.525V214.524V214.522V214.521V214.52V214.518V214.517V214.516V214.515V214.513V214.512V214.511V214.509V214.508V214.506V214.505V214.504V214.502V214.501V214.5V214.498V214.497V214.495V214.494V214.493V214.491V214.49V214.488V214.487V214.485V214.484V214.482V214.481V214.479V214.478V214.476V214.475V214.473V214.472V214.47V214.469V214.467V214.466V214.464V214.463V214.461V214.46V214.458V214.456V214.455V214.453V214.452V214.45V214.448V214.447V214.445V214.444V214.442V214.44V214.439V214.437V214.435V214.434V214.432V214.43V214.429V214.427V214.425V214.423V214.422V214.42V214.418V214.417V214.415V214.413V214.411V214.41V214.408V214.406V214.404V214.402V214.401V214.399V214.397V214.395V214.393V214.392V214.39V214.388V214.386V214.384V214.382V214.381V214.379V214.377V214.375V214.373V214.371V214.369V214.367V214.365V214.364V214.362V214.36V214.358V214.356V214.354V214.352V214.35V214.348V214.346V214.344V214.342V214.34V214.338V214.336V214.334V214.332V214.33V214.328V214.326V214.324V214.322V214.32V214.318V214.315V214.313V214.311V214.309V214.307V214.305V214.303V214.301V214.299V214.297V214.294V214.292V214.29V214.288V214.286V214.284V214.281V214.279V214.277V214.275V214.273V214.27V214.268V214.266V214.264V214.261V214.259V214.257V214.255V214.252V214.25V214.248V214.246V214.243V214.241V214.239V214.236V214.234V214.232V214.229V214.227V214.225V214.222V214.22V214.218V214.215V214.213V214.211V214.208V214.206V214.203V214.201V214.199V214.196V214.194V214.191V214.189V214.186V214.184V214.182V214.179V214.177V214.174V214.172V214.169V214.167V214.164V214.162V214.159V214.157V214.154V214.152V214.149V214.147V214.144V214.141V214.139V214.136V214.134V214.131V214.129V214.126V214.123V214.121V214.118V214.115V214.113V214.11V214.108V214.105V214.102V214.1V214.097V214.094V214.092V214.089V214.086V214.083V214.081V214.078V214.075V214.073V214.07V214.067V214.064V214.062V214.059V214.056V214.053V214.051V214.048V214.045V214.042V214.039V214.037V214.034V214.031V214.028V214.025V214.022V214.02V214.017V214.014V214.011V214.008V214.005V214.002V213.999V213.996V213.994V213.991V213.988V213.985V213.982V213.979V213.976V213.973V213.97V213.967V213.964V213.961V213.958V213.955V213.952V213.949V213.946V213.943V213.94V213.937V213.934V213.931V213.928V213.925V213.922V213.919V213.916V213.913V213.91V213.906V213.903V213.9V213.897V213.894V213.891V213.888V213.885V213.881V213.878V213.875V213.872V213.869V213.866V213.862V213.859V213.856V213.853V213.85V213.846V213.843V213.84V213.837V213.833V213.83V213.827V213.824V213.82V213.817V213.814V213.811V213.807V213.804V213.795L90.1822 213.786L90.0924 211.286L90.0923 211.286C90.042 209.912 89.8986 208.542 89.6631 207.188C89.4049 205.334 89.0234 203.499 88.5212 201.695L88.5209 201.694C87.1284 196.742 84.9375 192.05 82.0345 187.803L82.0327 187.8C78.1333 182.171 73.0383 177.472 67.1112 174.036L67.0978 174.029L67.0839 174.022L64.5203 172.741L64.5167 172.74L63.2367 172.087L63.2296 172.084L63.2224 172.08C62.8955 171.927 62.544 171.796 62.2126 171.673C62.081 171.624 61.9526 171.576 61.8302 171.528L61.8276 171.527L59.0422 170.463L59.0187 170.454L58.9943 170.448L56.0549 169.653L56.0549 169.653L56.0484 169.651C55.8999 169.613 55.7441 169.57 55.5834 169.526C55.2424 169.432 54.8799 169.332 54.5205 169.26L54.5107 169.258L54.5007 169.257L52.9604 169.013L52.9604 169.013L52.9564 169.013C52.6488 168.967 52.331 168.913 52.0064 168.858C51.29 168.737 50.5403 168.61 49.7939 168.548C47.603 168.349 45.4006 168.31 43.2041 168.431C40.9307 168.54 38.6681 168.813 36.434 169.247L36.4187 169.25L36.4036 169.254L33.0548 170.126L33.0534 170.126L32.2076 170.344L32.1818 170.35L32.1568 170.36L31.3365 170.667L31.3353 170.667L29.6807 171.282L29.6807 171.282L29.6747 171.284C25.0869 173.056 20.8176 175.561 17.0336 178.7L17.0335 178.7L17.0284 178.704C8.92716 185.611 3.39999 195.05 1.34375 205.489L1.34165 205.5L1.34001 205.51L0.72389 209.562L0.720206 209.586L0.718908 209.611L0.5007 213.726L0.500313 213.734L0.500139 213.741C0.43328 216.558 0.633139 219.375 1.09705 222.155C1.94288 227.4 3.67185 232.462 6.20751 237.126H6.10665L6.59878 237.895L6.89217 238.354L6.894 238.356L6.9009 238.367L6.72169 238.69H7.09496L7.31905 239.074L7.33204 239.052L8.76583 241.327L8.7662 241.328L46.5445 301.477L46.3492 301.821H46.7601L46.7983 301.881L46.7994 301.883L47.0433 302.268L47.4841 302.963L47.8979 302.251L48.1289 301.854L48.1321 301.848L48.1478 301.821H48.5611L48.3437 301.473L83.8926 238.485H84.4006L84.1359 238.052L84.2022 237.933L84.6155 237.19H84.595C87.3322 232.175 89.1215 226.696 89.8698 221.027C90.1743 218.906 90.2961 216.764 90.2337 214.623ZM89.2931 214.65L89.2341 214.652C89.2362 214.725 89.2381 214.798 89.2398 214.87C89.241 214.921 89.242 214.971 89.243 215.022C89.2505 215.416 89.2515 215.811 89.2462 216.205L89.2931 214.65Z" fill="#E0E0E0" stroke="black"/>
<path d="M73.6736 214.158L74.0588 214.158C74.0732 214.321 74.0744 214.485 74.0625 214.648L73.6736 214.158ZM73.6736 214.158L74.0986 214.15C74.1051 214.021 74.1035 213.893 74.0938 213.765C74.0948 213.75 74.096 213.735 74.0974 213.72L74.1008 213.68L74.098 213.641L74.0736 213.292M73.6736 214.158L74.0736 213.292M74.0736 213.292V212.33V211.342V211.324L74.0723 211.307C74.0594 211.126 74.0247 210.937 73.9949 210.775C73.9894 210.745 73.9841 210.716 73.9791 210.688C73.9445 210.495 73.9196 210.327 73.9196 210.163V210.136L73.9167 210.109C73.8078 209.1 73.6237 208.101 73.3658 207.119C72.7302 204.399 71.6768 201.793 70.2431 199.395M74.0736 213.292L70.2431 199.395M70.2431 199.395C68.1787 195.875 65.3867 192.835 62.0535 190.477C58.7197 188.119 54.921 186.498 50.9107 185.722V185.722L50.9096 185.722C45.8408 184.753 40.6049 185.159 35.746 186.896C34.4531 187.352 33.193 187.897 31.9746 188.525L31.9745 188.525L31.9659 188.53C30.7315 189.198 29.5455 189.951 28.4167 190.784C27.2525 191.634 26.1466 192.56 25.1062 193.557L25.1006 193.563L25.0951 193.569C24.0743 194.61 23.125 195.719 22.2535 196.888C20.45 199.293 19.0468 201.973 18.0981 204.824C16.0965 210.749 16.0964 217.166 18.0977 223.09C19.0319 225.947 20.4215 228.635 22.213 231.05C23.075 232.227 24.0155 233.345 25.028 234.395L25.0352 234.403L25.0428 234.41C26.0715 235.392 27.1641 236.305 28.3133 237.143C29.4373 237.981 30.6185 238.738 31.8485 239.41L31.8485 239.41L31.8559 239.414C33.0693 240.051 34.3249 240.604 35.6139 241.07C40.4568 242.848 45.6881 243.298 50.7641 242.374L50.7663 242.374C54.7863 241.623 58.5997 240.025 61.9517 237.685C65.3034 235.345 68.1166 232.317 70.2033 228.805C71.6354 226.427 72.6932 223.844 73.3395 221.145C73.6017 220.164 73.7902 219.165 73.9034 218.157M70.2431 199.395L74.0625 214.649C74.0619 214.656 74.0614 214.664 74.0608 214.671V215.932V216.919C74.0608 217.142 74.0292 217.365 73.9965 217.566C73.9868 217.625 73.9771 217.683 73.9676 217.738C73.9434 217.881 73.9207 218.015 73.9034 218.157M73.9034 218.157C73.9033 218.158 73.9032 218.158 73.9031 218.159L73.6978 218.134C73.698 218.133 73.6981 218.133 73.6982 218.132M73.9034 218.157C73.9035 218.156 73.9035 218.155 73.9036 218.155L73.6982 218.132M73.6982 218.132C73.7275 217.94 73.7594 217.757 73.7911 217.574L73.7951 217.552C73.8286 217.359 73.862 217.165 73.8889 216.977L73.8916 216.959L73.8928 216.939L73.8941 216.919L73.9565 215.972L73.6982 218.132ZM72.9592 215.899L72.8963 216.854C72.8723 217.02 72.8425 217.193 72.8098 217.38L72.8054 217.406C72.7731 217.591 72.7386 217.79 72.707 217.998L72.707 217.998L72.7059 218.006C72.5775 218.957 72.3808 219.898 72.1173 220.821L72.1171 220.821L72.1137 220.834C71.4574 223.4 70.417 225.851 69.0276 228.106L69.0276 228.106L69.0247 228.111C65.7533 233.556 60.6893 237.696 54.6989 239.823C48.7088 241.95 42.1649 241.931 36.1869 239.771C34.9682 239.328 33.7812 238.803 32.634 238.198C31.4721 237.555 30.3565 236.832 29.2955 236.034L29.2942 236.033C28.2073 235.22 27.1752 234.337 26.2049 233.388C25.244 232.391 24.351 231.331 23.5321 230.214L23.5311 230.213C21.839 227.921 20.5288 225.372 19.6511 222.663L19.6512 222.663L19.6494 222.658C17.7725 217.075 17.7725 211.033 19.6494 205.45L19.6506 205.447C20.539 202.738 21.8604 200.191 23.5634 197.903C24.4378 196.808 25.3857 195.773 26.4004 194.806L26.4004 194.806L26.4026 194.804C27.3794 193.862 28.4174 192.985 29.5098 192.18L29.5109 192.179C30.5769 191.389 31.6968 190.674 32.8625 190.039C34.0143 189.438 35.2058 188.917 36.4287 188.479L36.4293 188.478C42.4051 186.327 48.9442 186.321 54.9244 188.46C60.9046 190.599 65.9531 194.75 69.2036 200.2L69.206 200.204C70.5834 202.466 71.611 204.922 72.2543 207.489L72.256 207.496L72.2579 207.503C72.5172 208.426 72.7097 209.367 72.8339 210.317L72.8338 210.317L72.8354 210.327C72.8596 210.487 72.8922 210.65 72.9208 210.793C72.9322 210.85 72.943 210.904 72.9525 210.953C72.9882 211.141 73.0094 211.289 73.0094 211.419V212.394V212.411L73.0106 212.429L73.0736 213.327V213.612V213.649L73.0792 213.687C73.0841 213.719 73.0883 213.751 73.0916 213.784C73.0869 213.908 73.0898 214.033 73.1003 214.158H73.0627C73.0483 214.321 73.0471 214.486 73.0592 214.65L72.9597 215.892L72.9596 215.892L72.9592 215.899Z" fill="#E0E0E0" stroke="black"/>
<path d="M44.9498 227.189L28.6226 215.817L32.6017 210.124L43.5507 217.753L57.7214 199.765L63.1766 204.06L44.9498 227.189Z" fill="url(#paint0_linear)"/>
<path fill-rule="evenodd" clip-rule="evenodd" d="M501.981 16.4622C506.753 17.0621 511.424 18.2953 515.87 20.129L526.138 11.5774L543.672 24.9113L538.152 37.0144C541.108 40.8064 543.542 44.976 545.392 49.4123L558.651 50.579L561.616 72.3748L549.089 77.0802C548.49 81.8472 547.255 86.5127 545.418 90.9526L553.979 101.209L540.63 118.723L528.551 113.12C524.755 116.072 520.58 118.504 516.139 120.351L514.971 133.595L493.15 136.557L488.491 124.095C483.718 123.497 479.047 122.264 474.602 120.428L464.334 128.98L446.787 115.646L452.319 103.543C449.382 99.7597 446.96 95.6035 445.119 91.1833L431.859 90.0166L428.894 68.2208L441.268 63.5027C441.867 58.7357 443.101 54.0701 444.939 49.6303L436.377 39.3734L449.778 21.9496L461.895 27.4755C465.691 24.5236 469.866 22.0917 474.307 20.2444L475.475 7.00024L497.296 4.03857L501.956 16.5006L501.981 16.4622ZM495.435 46.5404C490.555 46.6976 485.844 48.3599 481.948 51.2991C478.052 54.2382 475.162 58.31 473.676 62.9553C472.19 67.6006 472.179 72.5916 473.647 77.2428C475.114 81.8941 477.987 85.9775 481.872 88.9323C485.756 91.8872 490.46 93.5685 495.339 93.7454C500.219 93.9223 505.033 92.5861 509.121 89.9204C513.21 87.2546 516.372 83.39 518.173 78.8573C519.974 74.3246 520.326 69.346 519.181 64.6053C517.904 59.3273 514.845 54.6498 510.521 51.3597C506.196 48.0696 500.868 46.3677 495.435 46.5404Z" fill="#D3D3D3"/>
<path fill-rule="evenodd" clip-rule="evenodd" d="M303.103 86.1961C306.191 86.5896 309.212 87.3915 312.088 88.5808L318.712 83.0292L330.097 91.6835L326.516 99.5428C328.434 102.006 330.014 104.713 331.214 107.594L339.827 108.351L341.752 122.454L333.653 125.48C333.26 128.564 332.457 131.582 331.265 134.455L336.823 141.07L328.159 152.442L320.29 148.865C317.825 150.781 315.114 152.36 312.23 153.558L311.472 162.161L297.353 164.084L294.324 155.994C291.236 155.602 288.214 154.8 285.339 153.609L278.715 159.161L267.33 150.507L270.924 142.647C269.007 140.184 267.427 137.476 266.226 134.596L257.613 133.839L255.688 119.736L263.787 116.71C264.18 113.626 264.983 110.608 266.175 107.735L260.617 101.12L269.268 89.7475L277.137 93.3246C279.586 91.4081 282.279 89.8257 285.146 88.6192L285.955 80.0291L300.074 78.106L303.103 86.1961ZM298.791 105.723C295.607 105.813 292.53 106.887 289.983 108.797C287.436 110.707 285.544 113.359 284.568 116.387C283.592 119.415 283.58 122.671 284.533 125.706C285.486 128.741 287.358 131.407 289.89 133.336C292.423 135.265 295.492 136.362 298.675 136.477C301.857 136.591 304.997 135.718 307.663 133.976C310.328 132.235 312.387 129.71 313.556 126.752C314.726 123.793 314.949 120.544 314.193 117.454C313.358 114.033 311.372 111.002 308.569 108.867C305.766 106.732 302.314 105.622 298.791 105.723Z" fill="#D3D3D3"/>
<path d="M495.139 330.362L475 250.359L556.944 249L495.139 330.362Z" fill="#D3D3D3"/>
<path d="M532.206 264.525L504.057 301.58L654.085 415.285L682.234 378.23L532.206 264.525Z" fill="#D3D3D3"/>
</g>
<g clip-path="url(#clip1)">
<path d="M643.292 422.926L653.536 446.179C653.536 446.179 633.325 464.412 634.841 468.939L680.593 450.68L666.117 413.797L643.292 422.926Z" fill="#513CDC"/>
<path d="M680.593 450.63L678.989 446.963L635.726 465.841C635.726 465.841 634.046 467.535 634.841 468.888L680.593 450.63Z" fill="#263238"/>
<path d="M723.793 455.865L736.614 477.79C736.614 477.79 718.741 498.185 720.686 502.497L764.063 479.13L745.482 444.143L723.793 455.865Z" fill="#513CDC"/>
<path d="M764.063 479.13L762.055 475.678L721.267 499.373C721.267 499.373 719.789 501.257 720.737 502.496L764.063 479.13Z" fill="#263238"/>
<path d="M667.886 148.229L639.768 150.467L638.833 134.712C638.833 134.712 627.464 134.548 625.797 123.459C624.13 112.37 622.437 86.6008 622.437 86.6008C628.363 82.988 635.146 81.0256 642.083 80.9167C649.021 80.8077 655.862 82.5562 661.898 85.9813L663.717 87.0181L667.886 148.229Z" fill="#FFBE9D"/>
<path d="M638.795 134.51C643.933 133.888 648.771 131.749 652.69 128.365C652.69 128.365 650.227 137.089 639.022 137.646L638.795 134.51Z" fill="#EB996E"/>
<path d="M663.957 98.7141C664.134 98.6003 671.258 95.3887 672.092 103.013C672.926 110.638 665.094 109.892 665.056 109.677C665.018 109.462 663.957 98.7141 663.957 98.7141Z" fill="#FFBE9D"/>
<path d="M667.065 106.528C667.065 106.528 667.204 106.604 667.444 106.68C667.775 106.781 668.133 106.749 668.441 106.591C668.911 106.234 669.276 105.756 669.498 105.209C669.72 104.662 669.791 104.065 669.705 103.481C669.652 102.826 669.453 102.191 669.124 101.622C669.026 101.392 668.874 101.188 668.68 101.029C668.487 100.871 668.257 100.762 668.012 100.712C667.854 100.689 667.693 100.721 667.557 100.804C667.421 100.888 667.318 101.016 667.267 101.167C667.191 101.395 667.267 101.534 667.267 101.559C667.267 101.584 666.951 101.445 666.951 101.154C666.975 100.962 667.064 100.783 667.204 100.649C667.394 100.467 667.648 100.367 667.911 100.37C668.231 100.399 668.538 100.51 668.804 100.691C669.069 100.873 669.284 101.119 669.427 101.407C669.824 102.031 670.062 102.743 670.122 103.481C670.233 104.156 670.143 104.848 669.862 105.471C669.581 106.095 669.122 106.621 668.543 106.983C668.34 107.069 668.121 107.106 667.902 107.093C667.683 107.08 667.47 107.017 667.279 106.908C667.103 106.718 667.039 106.541 667.065 106.528Z" fill="#EB996E"/>
<path d="M616.058 80.3039C615.882 79.6253 615.881 78.913 616.056 78.2339C616.23 77.5548 616.574 76.9314 617.056 76.4221C617.555 75.9365 618.21 75.6444 618.904 75.5981C619.599 75.5517 620.287 75.7542 620.845 76.1693C620.676 75.7198 620.602 75.2396 620.63 74.7599C620.658 74.2802 620.786 73.8117 621.006 73.3848C621.227 72.9579 621.534 72.5822 621.909 72.2821C622.284 71.9819 622.718 71.7641 623.182 71.6426C624.976 71.2759 626.706 72.4265 628.525 72.6541C630.308 72.7657 632.08 72.3003 633.578 71.3265C635.132 70.4287 636.534 69.3034 638.113 68.4562C641.445 66.6788 645.343 66.29 648.96 67.3745C652.577 68.459 655.62 70.929 657.427 74.2473C658.632 73.7508 659.962 73.6398 661.233 73.9296C662.504 74.2193 663.654 74.8957 664.526 75.8658C666.241 77.8158 667.169 80.3359 667.128 82.9339C667.13 84.6694 666.94 86.3996 666.559 88.0928C666.559 88.2319 666.559 88.371 666.635 88.5227C667.38 94.6426 667.696 101.913 665.094 102.318C660.572 103.026 660.446 94.3138 660.446 94.3138C654.572 92.9482 655.481 84.2995 653.902 83.2248C652.324 82.15 649.014 79.6591 638.189 87.2456C634.124 89.7976 629.359 91.0012 624.572 90.6849H624.205H624.104C623.01 90.569 621.94 90.2832 620.934 89.8377C619.752 89.3664 618.752 88.529 618.079 87.448C617.757 86.9026 617.6 86.2755 617.627 85.6426C617.654 85.0097 617.864 84.3983 618.231 83.8823C617.168 82.9315 616.412 81.686 616.058 80.3039Z" fill="#263238"/>
<path d="M638.795 144.322L640.058 188.412L667.456 129.364L666.774 123.889L638.795 144.322Z" fill="#EBEBEB"/>
<path d="M656.985 276.139C655.987 276.467 598.879 334.239 600.142 344.62C601.405 355.001 642.041 431.866 642.041 431.866L671.018 417.565L643.835 350.196L644.189 346.011L677.41 318.763L675.642 274.938L656.985 276.139Z" fill="#263238"/>
<path d="M669.288 287.531C669.945 288.543 679.835 379.291 682.475 383.994C685.115 388.698 724.817 466.182 724.817 466.182L754.286 454.297L718.311 369.137L722.417 288.543L720.193 265.783L675.705 274.912L669.288 287.531Z" fill="#263238"/>
<path d="M681.957 382.389C681.866 382.092 681.803 381.787 681.768 381.478L681.338 378.861L679.886 369.213L675.3 337.324L670.905 305.41L669.642 295.725L669.326 293.082C669.277 292.777 669.255 292.468 669.263 292.159C669.353 292.456 669.417 292.761 669.452 293.069L669.882 295.687L671.347 305.347L675.932 337.236L680.328 369.15L681.591 378.835L681.907 381.478C681.951 381.779 681.968 382.084 681.957 382.389Z" fill="#455A64"/>
<path d="M715.856 373.713C716.97 369.79 717.738 366.572 717.57 366.524C717.402 366.476 716.363 369.618 715.249 373.54C714.135 377.463 713.367 380.682 713.535 380.73C713.703 380.777 714.742 377.636 715.856 373.713Z" fill="#455A64"/>
<path d="M722.025 387.08C721.368 386.429 720.826 385.673 720.421 384.842C718.218 380.926 717.261 376.431 717.68 371.957C717.711 371.03 717.899 370.115 718.235 369.251C717.536 375.448 718.866 381.705 722.025 387.08Z" fill="#455A64"/>
<path d="M634.387 340.384C637.921 341.785 640.82 344.435 642.534 347.832C642.37 347.933 640.968 345.872 638.745 343.836C636.521 341.8 634.298 340.561 634.387 340.384Z" fill="#455A64"/>
<path d="M638.858 337.704C641.095 339.51 642.65 342.025 643.267 344.835C642.489 343.67 641.776 342.463 641.132 341.219C640.31 340.09 639.551 338.917 638.858 337.704Z" fill="#455A64"/>
<path d="M642.799 205.305L650.1 241.506L656.037 292.083C656.037 292.083 680.517 288.656 690.938 285.356C703.04 281.563 729.364 278.263 729.364 278.263L724.93 282.663C734.353 280.02 740.341 271.03 740.341 271.03C724.109 255.958 710.252 224.954 710.252 224.954L697.911 163.604C697.911 163.604 696.042 154.943 694.905 151.099C693.768 147.255 675.035 134.839 672.433 133.271L670.804 132.499L670.286 127.581L668.353 126.43L648.003 144.853C644.06 148.439 641.55 153.337 640.942 158.635C640.09 166.296 639.794 174.008 640.058 181.711C640.424 188.906 642.799 205.305 642.799 205.305Z" fill="#513CDC"/>
<path d="M656.732 142.552C656.732 142.552 646.008 148.305 644.1 153.186C642.193 158.066 647.763 211.577 647.763 211.577L609.275 212.298L609.148 235.26C609.148 235.26 670.286 240.09 672.66 236.79C675.882 232.313 679.608 190.499 679.608 190.499L680.997 160.405C680.997 160.405 677.524 137.469 656.732 142.552Z" fill="#513CDC"/>
<g opacity="0.3">
<path opacity="0.3" d="M650.1 241.506C655.077 243.073 660.33 243.565 665.511 242.947C670.93 242.442 676.45 239.47 678.496 234.425C680.063 230.556 679.406 226.206 679.646 222.034C679.848 218.417 680.745 214.877 681.288 211.286C681.831 207.695 680.025 201.171 678.761 197.693C678.761 197.693 677.385 222.539 673.507 232.971C673.066 234.424 672.247 235.734 671.132 236.764C669.755 237.877 667.86 238.029 666.079 238.155C661.166 238.674 649.317 237.814 649.317 237.814" fill="black"/>
</g>
<path d="M680.997 163.655C681.012 163.836 681.012 164.018 680.997 164.199V165.792L680.707 171.937L680.202 181.66C679.974 185.454 679.848 189.778 679.381 194.532C678.913 199.287 678.471 204.496 677.877 210.085C677.284 215.674 676.614 221.642 675.54 227.875C675.285 229.468 674.931 231.043 674.479 232.592C673.955 234.209 672.993 235.648 671.7 236.752C670.373 237.899 668.666 238.508 666.913 238.459C665.22 238.459 663.515 238.459 661.797 238.459C654.926 238.294 647.827 237.94 640.551 237.536C629.624 236.929 619.077 236.271 609.262 235.563H608.984V235.285L609.123 212.361V212.095H609.388L646.538 211.299L656.934 211.122H659.675C660.294 211.122 660.61 211.122 660.61 211.122C660.61 211.122 660.294 211.122 659.675 211.185L656.947 211.299L646.563 211.627L609.426 212.652L609.692 212.386L609.616 235.31L609.338 235.007C619.178 235.677 629.7 236.347 640.627 236.954C647.89 237.346 654.989 237.7 661.848 237.877C663.566 237.877 665.258 237.94 666.9 237.877C668.519 237.932 670.098 237.371 671.322 236.309C672.532 235.277 673.433 233.929 673.924 232.415C674.368 230.895 674.718 229.349 674.972 227.787C676.046 221.578 676.728 215.61 677.372 210.085C678.016 204.559 678.509 199.299 678.951 194.545C679.393 189.791 679.595 185.479 679.86 181.686L680.479 171.975L680.896 165.843L681.023 164.249C680.997 164.052 680.989 163.853 680.997 163.655Z" fill="#263238"/>
<path d="M617.125 223.784C617.157 217.639 617.042 212.657 616.868 212.656C616.693 212.655 616.526 217.636 616.494 223.781C616.461 229.926 616.577 234.908 616.751 234.909C616.926 234.91 617.093 229.929 617.125 223.784Z" fill="#263238"/>
<path d="M612.635 216.141C612.559 216.141 612.951 215.674 613.671 215.914C613.886 215.991 614.074 216.129 614.213 216.31C614.352 216.492 614.436 216.71 614.454 216.938C614.477 217.22 614.415 217.502 614.275 217.748C614.136 217.994 613.925 218.192 613.671 218.316C613.412 218.425 613.126 218.455 612.85 218.403C612.574 218.352 612.319 218.22 612.117 218.025C611.944 217.87 611.816 217.67 611.75 217.447C611.683 217.224 611.679 216.986 611.738 216.761C611.915 216.04 612.42 215.876 612.433 215.952C612.445 216.028 612.193 216.293 612.18 216.812C612.174 216.948 612.199 217.084 612.254 217.209C612.308 217.334 612.391 217.445 612.496 217.532C612.62 217.632 612.768 217.697 612.926 217.722C613.083 217.746 613.244 217.729 613.393 217.671C613.53 217.598 613.645 217.489 613.725 217.355C613.805 217.221 613.847 217.069 613.847 216.913C613.847 216.781 613.811 216.653 613.745 216.539C613.678 216.426 613.583 216.332 613.469 216.268C613.102 216.066 612.723 216.217 612.635 216.141Z" fill="#263238"/>
<path d="M698.088 168.852C698.088 168.852 718.109 195.063 720.547 202.195C722.985 209.326 721.103 219.593 717.023 224.487C712.943 229.38 709.659 227.395 709.659 227.395L698.088 168.852Z" fill="#513CDC"/>
<path d="M703.93 226.423C706.728 225.943 708.973 225.413 708.943 225.241C708.914 225.069 706.621 225.319 703.823 225.8C701.025 226.281 698.78 226.81 698.809 226.982C698.839 227.155 701.131 226.904 703.93 226.423Z" fill="#263238"/>
<path d="M712.791 244.629C713.022 245.067 713.205 245.529 713.334 246.007C713.638 246.905 714.092 248.207 714.686 249.801C716.24 253.949 718.037 258.002 720.067 261.939C722.107 265.872 724.35 269.695 726.787 273.395C727.722 274.811 728.492 275.924 729.036 276.746C729.343 277.137 729.605 277.561 729.819 278.01C729.455 277.68 729.129 277.311 728.846 276.91C728.24 276.164 727.419 275.064 726.433 273.66C723.872 270.028 721.559 266.226 719.511 262.281C717.46 258.321 715.707 254.212 714.269 249.99C713.726 248.372 713.334 247.044 713.094 246.109C712.938 245.628 712.836 245.132 712.791 244.629Z" fill="#263238"/>
<g opacity="0.3">
<path opacity="0.3" d="M714.155 247.727C717.326 253.391 720.585 259.107 725.423 263.482C727.243 264.871 728.892 266.471 730.337 268.248C731.6 270.132 732.206 272.775 730.968 274.697C730.781 275.055 730.491 275.349 730.135 275.541C729.779 275.732 729.374 275.813 728.972 275.772C728.444 275.569 728 275.195 727.709 274.71C721.671 266.916 717.162 258.048 714.421 248.574" fill="black"/>
</g>
<g opacity="0.3">
<path opacity="0.3" d="M711.503 227.306C714.244 225.334 715.204 221.579 714.8 218.228C714.178 214.901 713.058 211.686 711.477 208.694C707.313 199.488 704.048 189.902 701.726 180.067L699.793 172.797L709.696 224.638L711.503 227.306Z" fill="black"/>
</g>
<path d="M661.898 140.225C663.084 138.885 664.349 137.619 665.688 136.432C666.873 135.092 668.139 133.825 669.477 132.639C667.608 135.75 665.006 138.355 661.898 140.225Z" fill="#263238"/>
<path d="M659.915 144.663C659.915 144.765 658.766 145.131 656.985 146.004C652.342 148.314 648.603 152.11 646.361 156.789C645.502 158.572 645.161 159.761 645.098 159.735C645.089 159.438 645.136 159.142 645.237 158.863C645.427 158.089 645.68 157.332 645.995 156.6C648.079 151.686 651.961 147.755 656.846 145.612C657.572 145.289 658.324 145.027 659.094 144.828C659.599 144.676 659.903 144.626 659.915 144.663Z" fill="#263238"/>
<path d="M713.688 232.516C713.561 232.362 713.454 232.192 713.372 232.01L712.576 230.505L709.696 224.866C708.433 219.125 706.677 210.742 704.745 201.436L700.172 178.853L698.909 172L698.53 170.066C698.45 170.05 698.379 170.005 698.33 169.939C698.281 169.874 698.258 169.793 698.266 169.711C698.274 169.63 698.312 169.555 698.372 169.5C698.433 169.445 698.512 169.414 698.593 169.414C698.675 169.414 698.753 169.445 698.814 169.5C698.874 169.555 698.912 169.63 698.92 169.711C698.928 169.793 698.905 169.874 698.857 169.939C698.808 170.005 698.736 170.05 698.656 170.066L699.098 171.912L700.614 178.727L705.364 201.272C707.284 210.591 708.989 218.974 710.113 224.752L712.816 230.48L713.511 232.035C713.589 232.188 713.648 232.349 713.688 232.516Z" fill="#263238"/>
<path d="M647.157 211.564C647.006 210.942 646.909 210.307 646.867 209.668L646.298 204.471C645.843 200.083 645.275 194.001 644.669 187.287C644.062 180.573 643.57 174.491 643.229 170.091L642.862 164.869C642.807 164.23 642.807 163.586 642.862 162.947C643.013 163.57 643.111 164.204 643.153 164.844L643.721 170.04C644.176 174.428 644.744 180.51 645.351 187.224C645.957 193.938 646.45 200.007 646.791 204.42L647.157 209.642C647.212 210.282 647.212 210.925 647.157 211.564Z" fill="#263238"/>
<path d="M609.818 214.953C609.818 214.953 601.519 208.631 599.498 208.264C597.944 207.973 588.685 208.125 584.428 208.264C583.634 208.26 582.869 208.568 582.298 209.121C581.727 209.674 581.395 210.428 581.371 211.223C581.362 211.324 581.362 211.425 581.371 211.526C581.479 212.031 581.725 212.496 582.082 212.869C582.439 213.242 582.893 213.508 583.393 213.638C582.745 213.845 582.18 214.251 581.776 214.798C581.373 215.345 581.152 216.005 581.144 216.685C581.144 219.088 584.024 219.606 584.024 219.606C583.877 219.719 583.738 219.841 583.607 219.973C583.248 220.337 582.992 220.792 582.867 221.289C582.742 221.786 582.753 222.307 582.897 222.799C583.041 223.29 583.314 223.734 583.688 224.084C584.062 224.435 584.522 224.678 585.022 224.79L586.285 225.094C585.801 225.292 585.381 225.62 585.071 226.041C584.762 226.463 584.574 226.962 584.529 227.483C584.529 230.657 591.692 231.277 591.692 231.277C591.692 231.277 609.287 234.058 609.666 233.932C610.045 233.806 609.818 214.953 609.818 214.953Z" fill="#FFBE9D"/>
<path d="M586.108 204.509C586.184 205.558 586.437 207.771 588.205 208.783L598.007 208.403C598.007 208.403 590.706 205.874 589.67 204.61C589.258 204.102 588.787 203.644 588.268 203.244C588.051 203.099 587.798 203.017 587.537 203.009C587.276 203.001 587.018 203.066 586.792 203.198C586.567 203.33 586.383 203.523 586.262 203.755C586.141 203.987 586.088 204.248 586.108 204.509Z" fill="#FFBE9D"/>
<path d="M593.346 208.302C591.881 208.64 590.373 208.747 588.875 208.618C587.377 208.698 585.875 208.592 584.403 208.302C585.872 207.962 587.385 207.856 588.887 207.986C590.381 207.907 591.879 208.013 593.346 208.302Z" fill="#EB996E"/>
<path d="M591.161 213.79C588.62 214.408 585.958 214.312 583.468 213.512C586.036 213.468 588.604 213.561 591.161 213.79Z" fill="#EB996E"/>
<path d="M596.125 213.082C596.277 213.17 596.125 213.701 595.532 214.068C594.938 214.434 594.42 214.384 594.395 214.207C594.369 214.03 594.761 213.815 595.191 213.537C595.62 213.259 595.986 212.98 596.125 213.082Z" fill="#EB996E"/>
<path d="M592.175 219.991C592.181 219.816 590.297 219.613 587.969 219.536C585.64 219.46 583.747 219.539 583.742 219.714C583.736 219.888 585.619 220.092 587.948 220.168C590.277 220.245 592.169 220.165 592.175 219.991Z" fill="#EB996E"/>
<path d="M597.831 217.381C597.906 217.381 598.058 217.558 598.108 217.937C598.156 218.452 598.004 218.966 597.685 219.373C597.365 219.78 596.902 220.049 596.391 220.124C595.999 220.124 595.772 220.124 595.784 219.985C595.797 219.846 596.631 219.707 597.186 218.986C597.742 218.266 597.654 217.419 597.831 217.381Z" fill="#EB996E"/>
<path d="M593.72 226.102C593.742 225.929 592.07 225.579 589.986 225.321C587.902 225.063 586.195 224.995 586.173 225.168C586.152 225.341 587.824 225.691 589.908 225.949C591.992 226.207 593.699 226.275 593.72 226.102Z" fill="#EB996E"/>
<path d="M599.169 222.995C599.245 222.995 599.372 223.197 599.359 223.576C599.322 224.063 599.137 224.526 598.828 224.904C598.108 225.776 597.3 226.093 597.212 225.966C597.123 225.84 597.73 225.245 598.323 224.512C598.917 223.779 599.005 223.02 599.169 222.995Z" fill="#EB996E"/>
<path d="M721.596 283.232C723.332 283.062 725.004 282.49 726.48 281.559C727.956 280.628 729.194 279.365 730.097 277.871C730.299 277.529 730.476 277.074 730.21 276.771C730.108 276.683 729.99 276.618 729.861 276.579C729.733 276.54 729.598 276.528 729.465 276.543C726.718 276.517 723.989 276.984 721.406 277.921C721.254 277.956 721.112 278.022 720.988 278.116C720.864 278.21 720.761 278.329 720.686 278.465C720.617 278.683 720.617 278.917 720.686 279.135L721.722 283.118" fill="#E8505B"/>
<g opacity="0.4">
<path opacity="0.4" d="M721.596 283.232C723.332 283.062 725.004 282.49 726.48 281.559C727.956 280.628 729.194 279.365 730.097 277.871C730.299 277.529 730.476 277.074 730.21 276.771C730.108 276.683 729.99 276.618 729.861 276.579C729.733 276.54 729.598 276.528 729.465 276.543C726.718 276.517 723.989 276.984 721.406 277.921C721.254 277.956 721.112 278.022 720.988 278.116C720.864 278.21 720.761 278.329 720.686 278.465C720.617 278.683 720.617 278.917 720.686 279.135L721.722 283.118" fill="black"/>
</g>
<path d="M638.795 144.322C638.795 144.322 634.753 157.889 635.865 157.118C636.976 156.347 639.389 154.21 639.389 154.21L638.795 144.322Z" fill="#EBEBEB"/>
<path d="M639.035 150.581L636.824 155.866C636.612 156.415 636.468 156.989 636.395 157.573C636.218 159.052 636.003 161.771 636.888 161.948C637.329 161.972 637.77 161.897 638.179 161.729C638.587 161.56 638.953 161.302 639.25 160.974L639.035 150.581Z" fill="#263238"/>
<path d="M707.498 151.416C707.498 151.416 685.898 142.982 673.949 150.429C661.999 157.877 659.814 169.762 652.69 169.762C638.795 169.762 639.25 159.95 639.25 159.95L636.294 160.848C636.294 162.859 633.073 177.286 647.662 179.056C662.252 180.826 668.454 160.873 681.616 160.848C689.876 160.976 697.93 163.444 704.846 167.967L714.307 161.973L707.498 151.416Z" fill="#263238"/>
<path d="M652.083 178.816C655.813 176.599 658.734 173.244 660.42 169.244C663.78 161.493 670.98 152.655 676.993 150.429C683.006 148.204 696.913 146.636 706.526 152.958L712.677 161.278L704.682 166.462C700.192 164.106 695.472 162.216 690.597 160.823C680.669 158.041 674.631 161.177 668.858 166.652C668.505 166.993 668.164 167.335 667.886 167.651C665.096 170.631 662.034 173.345 658.74 175.756C655.923 177.741 653.372 178.828 652.083 178.816Z" fill="#455A64"/>
<path d="M204.936 61.11C192.127 63.0825 182.742 52.259 179.748 42.7252C176.982 33.8742 175.668 24.6691 171.79 16.248C166.346 4.48885 151.971 -0.948191 139.074 0.139217C126.177 1.22663 113.167 7.72579 101.76 13.8203L104.906 84.6283C104.906 84.6283 129.765 58.1638 141.702 57.6581C161.685 56.8994 160.548 89.6481 179.9 94.4909C179.9 94.4909 207.033 101.85 225.374 78.1418C237.02 63.0951 238.005 44.8115 238.005 44.8115C238.005 44.8115 229.138 57.3799 204.936 61.11Z" fill="url(#paint1_linear)"/>
<path d="M101.23 2.06128C101.407 2.06128 104.893 77.2695 109.011 170.041C113.129 262.812 116.35 338.045 116.211 338.045C116.072 338.045 112.548 262.85 108.43 170.053C104.312 77.2568 101.053 2.07392 101.23 2.06128Z" fill="#263238"/>
<g opacity="0.2">
<path opacity="0.2" d="M169.643 37.8318C171.811 45.3102 174.981 52.4603 179.066 59.0868C182.755 64.8653 188.35 69.7333 195.058 71.1368C196.287 71.3043 197.491 71.6184 198.645 72.0725C199.232 72.2991 199.747 72.6812 200.134 73.1778C200.521 73.6744 200.766 74.267 200.843 74.8922C200.843 76.7509 198.974 77.9648 197.319 78.7866C195.004 80.0615 192.527 81.0144 189.955 81.619C187.365 82.0994 185.331 82.3776 183.55 80.4304C181.829 78.7351 180.276 76.876 178.915 74.8795C173.053 64.8906 170.123 50.5772 169.643 39.3491" fill="black"/>
</g>
<path d="M186.948 83.3132C186.741 83.2291 186.546 83.1186 186.367 82.9845C186.001 82.7443 185.483 82.3776 184.839 81.8592C183.044 80.365 181.455 78.6387 180.115 76.7256C178.143 73.8782 176.554 70.7832 175.39 67.5205C173.972 63.5385 172.803 59.4718 171.891 55.3441C170.164 47.8634 169.074 40.2495 168.632 32.5844C168.468 29.6509 168.443 27.2611 168.443 25.6174V23.7207C168.415 23.5024 168.415 23.2815 168.443 23.0632C168.492 23.2788 168.513 23.4998 168.506 23.7207L168.582 25.6047C168.658 27.2485 168.746 29.613 168.973 32.5464C169.548 40.1667 170.697 47.7326 172.409 55.1797C173.319 59.2808 174.466 63.3254 175.845 67.2929C176.97 70.5239 178.498 73.5998 180.392 76.4474C181.685 78.3598 183.203 80.1089 184.915 81.6568C186.254 82.7569 186.948 83.2753 186.948 83.3132Z" fill="#263238"/>
<path d="M24 353.003L193.226 380.732V353.003H24Z" fill="#E0E0E0"/>
<path d="M221.167 415.656L390.394 443.384V415.656H221.167Z" fill="#E0E0E0"/>
<path d="M416.971 475.577L586.197 503.306V475.577H416.971Z" fill="#E0E0E0"/>
<path d="M612.521 523.258L781.747 551V523.258H612.521Z" fill="#E0E0E0"/>
<path d="M193.226 332.229H24V353.003H193.226V332.229Z" fill="#181818"/>
<g opacity="0.3">
<path opacity="0.3" d="M193.239 332.229H140.426V353.003H193.239V332.229Z" fill="black"/>
</g>
<path d="M390.394 394.881H221.167V415.655H390.394V394.881Z" fill="#181818"/>
<g opacity="0.3">
<path opacity="0.3" d="M390.394 394.881H337.581V415.655H390.394V394.881Z" fill="black"/>
</g>
<path d="M586.197 454.802H416.971V475.577H586.197V454.802Z" fill="#181818"/>
<g opacity="0.3">
<path opacity="0.3" d="M586.209 454.802H533.396V475.577H586.209V454.802Z" fill="black"/>
</g>
<path d="M782 502.496H612.774V523.271H782V502.496Z" fill="#181818"/>
<g opacity="0.3">
<path opacity="0.3" d="M782.013 502.496H729.2V523.271H782.013V502.496Z" fill="black"/>
</g>
<path d="M682.311 431.499C684.85 431.499 686.909 429.438 686.909 426.896C686.909 424.354 684.85 422.294 682.311 422.294C679.772 422.294 677.713 424.354 677.713 426.896C677.713 429.438 679.772 431.499 682.311 431.499Z" fill="#EBEBEB"/>
</g>
<defs>
<linearGradient id="paint0_linear" x1="45.8996" y1="199.765" x2="45.8996" y2="227.189" gradientUnits="userSpaceOnUse">
<stop stop-color="#FE3C45"/>
<stop offset="1" stop-color="#EA3039"/>
</linearGradient>
<linearGradient id="paint1_linear" x1="169.883" y1="0.00317383" x2="169.883" y2="95.5705" gradientUnits="userSpaceOnUse">
<stop stop-color="#FE3C45"/>
<stop offset="1" stop-color="#EA3039"/>
</linearGradient>
<clipPath id="clip0">
<rect width="683" height="412" fill="white" transform="translate(0 4)"/>
</clipPath>
<clipPath id="clip1">
<rect width="758" height="551" fill="white" transform="translate(24)"/>
</clipPath>
</defs>
</svg>
