<svg width="1920" height="2059" viewBox="0 0 1920 2059" fill="none" xmlns="http://www.w3.org/2000/svg">
<g style="mix-blend-mode:soft-light">
<path d="M535.013 -3.146C535.013 -3.146 535.013 -3.146 335.968 397.186C-5.98101 1078.35 481.167 1581.99 1135.89 1585.83" stroke="#F2F2F2" stroke-miterlimit="10"/>
</g>
<g style="mix-blend-mode:soft-light">
<path d="M676.154 -1.38232C676.154 -1.38232 676.154 -1.38232 626.19 116.706C410.385 535.767 89.0069 1002.02 970.997 1422.88" stroke="#F2F2F2" stroke-miterlimit="10"/>
</g>
<g style="mix-blend-mode:soft-light">
<path d="M717.791 2058.3C708.722 2049.23 -189.499 1750.2 60.7792 1115C311.058 479.791 -3.08716 331.933 -3.08716 331.933" stroke="#F2F2F2" stroke-miterlimit="10"/>
</g>
<g style="mix-blend-mode:soft-light">
<path d="M1896.99 -0.5C1896.99 -0.5 1889.98 6.7307 1848.12 43.6945C1276.6 548.288 1494.28 877 1689.38 1116.5" stroke="#F2F2F2" stroke-miterlimit="10"/>
</g>
<g style="mix-blend-mode:soft-light">
<path d="M1921 317.5C1887.98 346 1603.84 700.5 1920.5 1043" stroke="#F2F2F2" stroke-miterlimit="10"/>
</g>
<g style="mix-blend-mode:soft-light">
<path d="M1469.27 1100.5C1464.22 1088.68 1130.59 889.5 1415.77 347.735C1591.33 129 1628.85 81.5 1667.37 -2.5" stroke="#F2F2F2" stroke-miterlimit="10"/>
</g>
</svg>
