<svg width="683" height="358" viewBox="0 0 683 358" fill="none" xmlns="http://www.w3.org/2000/svg">
<path d="M46.0226 356.84C46.0226 356.84 -32.9781 272.052 32.6624 180.254C90.8971 98.822 158.789 104.38 208.602 137.432C229.818 151.509 290.992 139.166 343.046 56.2925C414.044 -56.7295 660.144 11.8208 615.26 185.695C593.546 269.841 681.348 272.899 636.609 357.013L46.0226 356.84Z" fill="#EBF3FA"/>
<path d="M109.857 241.953L53.9595 293.394L105.414 349.277L161.312 297.836L109.857 241.953Z" fill="#DFEBFD"/>
<path d="M109.858 241.952L53.9603 293.393L64.3228 304.647L120.22 253.206L109.858 241.952Z" fill="#BED7FB"/>
<path d="M273.103 21.8266L311.435 27.2929L285.998 9.96051L284.706 15.518L275.383 17.2051L273.103 21.8266Z" fill="#9EC3F6"/>
<path d="M311.435 27.2929L279.537 10.8521L248.274 9.27957L311.435 27.2929Z" fill="#CDE0FB"/>
<path d="M285.998 9.96051L311.436 27.2929L291.744 0.205048L285.998 9.96051Z" fill="#CDE0FB"/>
<path d="M487.45 97.418L477.809 104.335L468.117 97.4929C469.208 95.9479 470.653 94.6862 472.332 93.8129C474.01 92.9397 475.872 92.4802 477.764 92.4729C479.656 92.4656 481.523 92.9106 483.207 93.7708C484.892 94.631 486.347 95.8815 487.45 97.418Z" fill="#4D34D6"/>
<path d="M477.81 75.628C473.208 75.6282 468.673 76.7367 464.591 78.8596C460.508 80.9825 456.997 84.0574 454.354 87.824L460.475 92.1179C462.424 89.3514 465.007 87.0917 468.008 85.528C471.01 83.9642 474.343 83.1419 477.727 83.1297C481.112 83.1176 484.45 83.916 487.463 85.4582C490.475 87.0004 493.075 89.2414 495.043 91.9939L501.129 87.6228C498.476 83.9137 494.977 80.8906 490.921 78.8045C486.865 76.7184 482.371 75.6295 477.81 75.628Z" fill="#4D34D6"/>
<path d="M477.809 43.598C457.303 43.598 439.168 53.7864 428.188 69.3684L434.309 73.6623C439.201 66.7152 445.687 61.0405 453.223 57.113C460.759 53.1854 469.126 51.1193 477.625 51.0875C486.123 51.0556 494.506 53.059 502.071 56.9299C509.636 60.8008 516.164 66.4268 521.109 73.3371L527.178 68.9659C521.564 61.1135 514.155 54.7149 505.568 50.3025C496.981 45.8902 487.464 43.5916 477.809 43.598Z" fill="#4D34D6"/>
<path d="M477.809 61.1199C470.878 61.118 464.048 62.7767 457.89 65.9573C451.732 69.1378 446.426 73.7475 442.417 79.4L448.535 83.6962C451.846 79.0504 456.216 75.2591 461.283 72.6357C466.35 70.0123 471.969 68.6322 477.675 68.6093C483.381 68.5864 489.01 69.9215 494.098 72.5042C499.186 75.087 503.585 78.8431 506.934 83.4622L513.003 79.1169C508.983 73.5435 503.696 69.0052 497.577 65.8761C491.458 62.747 484.682 61.1168 477.809 61.1199Z" fill="#4D34D6"/>
<path d="M277.817 139.398L268.979 139.194C271.818 142.875 272.457 146.263 270.688 149.132C268.92 152.059 264.689 154.463 258.371 156.288C266.013 135.785 267.601 113.519 262.946 92.1404C258.29 70.7614 247.589 51.17 232.114 35.6982C210.952 14.5446 182.359 2.26425 151.4 2.26425C134.284 2.22563 117.381 6.05909 101.957 13.4775H101.943C97.0272 11.9799 92.25 10.7514 87.6366 9.81778C64.3451 5.09332 47.8156 8.35761 41.1003 19.014C34.7104 29.1485 38.1886 44.403 50.8677 62.1963C47.8717 67.7728 45.3414 73.5872 43.3028 79.5802C19.48 81.0006 6.72824 85.1962 2.09146 92.7825C-3.29198 101.621 4.06227 113.48 27.6253 125.011C30.8718 126.605 34.35 128.17 38.0013 129.733C40.8241 154.537 52.1223 178.562 70.6624 197.097C81.0709 207.504 93.389 215.807 106.942 221.55C148.582 239.1 198.226 230.889 232.114 197.097C242.263 186.971 250.405 175.018 256.11 161.866C267.731 159.461 275.383 155.696 278.426 150.712C280.542 147.279 280.282 143.455 277.817 139.398ZM250.544 158.085C242.806 159.475 233.156 160.287 221.881 160.404C204.387 160.617 184.295 159.234 163.131 156.447C164.913 152.57 166.657 148.592 168.362 144.513C174.594 146.622 180.948 148.349 187.389 149.684C194.355 151.088 200.715 151.79 206.388 151.79C219.69 151.79 229.219 147.95 233.926 140.481C234.701 139.251 235.336 137.939 235.819 136.569H229.031C228.919 136.774 228.797 136.978 228.676 137.177C225.179 142.725 217.368 145.601 206.398 145.589C201.152 145.589 195.179 144.934 188.609 143.603C182.548 142.347 176.568 140.73 170.701 138.759C172.333 134.675 173.918 130.518 175.455 126.289C179.588 114.895 183.127 103.591 185.987 92.7567C209.183 96.1755 233.418 96.2667 256.698 94.5234C258.178 101.718 258.92 109.045 258.914 116.391C258.948 130.71 256.103 144.889 250.546 158.087L250.544 158.085ZM109.28 214.666C105.982 213.47 104.309 208.739 103.485 204.978C102.184 199.037 101.947 190.704 102.804 180.848C103.237 175.869 103.932 170.576 104.871 165.037C118.498 168.674 131.845 173.288 144.809 178.843C141.874 183.904 138.903 188.596 135.935 192.85C130.28 200.956 124.75 207.208 119.94 210.934C116.897 213.302 112.578 215.862 109.28 214.666ZM147.793 173.555C134.224 167.702 120.24 162.86 105.957 159.07C106.456 156.499 107.002 153.885 107.595 151.229C111.535 152.124 115.528 152.99 119.574 153.826C131.413 156.246 143.215 158.302 154.782 159.964C152.495 164.7 150.165 169.23 147.793 173.555ZM122.187 149.539C117.613 148.603 113.109 147.622 108.674 146.595C110.76 137.919 113.311 128.875 116.314 119.648C131.86 129.202 147.678 136.964 162.642 142.491C160.769 146.973 158.844 151.334 156.865 155.574C145.495 153.955 133.859 151.94 122.187 149.539ZM84.2146 32.4315C92.8562 50.1313 109.512 64.7235 127.434 74.3901C123.092 83.8484 118.957 93.9431 115.153 104.426C114.445 106.381 113.754 108.331 113.082 110.276C90.3775 95.4969 71.1399 78.5365 58.5239 62.1214C65.2014 50.7389 73.9088 40.6761 84.2146 32.4315ZM181.334 16.0515C184.632 17.2473 186.306 21.9788 187.13 25.7391C188.431 31.6804 188.667 40.0131 187.811 49.8692C186.874 60.6449 184.714 72.8854 181.491 85.9192C165.696 83.2025 149.911 78.7237 135.381 71.671C141.574 58.7565 148.123 47.2414 154.672 37.8556C160.327 29.7499 165.858 23.4974 170.668 19.7721C173.177 17.8276 176.552 15.7473 179.508 15.7473C180.13 15.7409 180.748 15.8438 181.334 16.0515ZM179.998 91.802C177.21 102.29 173.776 113.213 169.774 124.241C168.232 128.492 166.638 132.672 164.992 136.779C149.963 131.261 134.009 123.371 118.327 113.625C119.137 111.257 119.974 108.881 120.838 106.497C124.546 96.248 128.591 86.3779 132.82 77.1442C147.622 84.314 163.658 88.9449 179.998 91.802ZM227.419 40.3758C240.797 53.7078 250.414 70.3371 255.296 88.5798C230.508 90.391 207.795 89.8224 187.492 86.8857C190.713 73.7091 192.892 61.3282 193.828 50.384C194.879 38.3073 194.751 24.0052 189.849 15.9556C203.957 21.3469 216.761 29.6658 227.419 40.3641V40.3758ZM151.4 8.87007C158.77 8.86345 166.122 9.61306 173.339 11.1071C164.891 14.7833 156.266 25.0161 149.719 34.3971C143.018 43.9911 136.329 55.752 130.009 68.9051C112.953 59.6411 96.8446 45.4372 89.144 28.7062C107.324 15.7761 129.088 8.8416 151.4 8.87007ZM46.3433 22.3251C49.8402 16.7769 57.6509 13.9128 68.6214 13.9128C73.8691 13.9128 79.84 14.568 86.4101 15.8994C88.9068 16.4033 91.4487 16.9969 94.0359 17.6802C78.3748 26.736 64.5791 39.84 54.3085 56.2691C44.6136 41.8922 41.6878 29.6914 46.3433 22.3251ZM55.2962 68.065C68.5816 84.6556 88.1609 101.63 111.036 116.342C107.792 126.2 105.025 135.909 102.792 145.205C83.8331 140.619 61.7821 134.13 44.3725 126.766C42.3715 106.559 46.1609 86.2 55.2985 68.065H55.2962ZM32.8941 121.609C12.3457 111.584 2.95515 101.906 7.14721 95.0406C10.5575 89.4761 22.8949 85.718 41.7908 84.314C37.9826 97.1676 36.6578 110.522 37.4443 123.748C35.8784 123.057 34.371 122.332 32.8941 121.609ZM101.708 149.86C101.122 152.473 100.581 155.047 100.086 157.582C98.7679 157.27 97.4485 156.958 96.1284 156.646C73.8223 151.57 57.0844 150.538 49.3159 150.363C47.394 144.58 45.9788 138.642 45.0864 132.614C60.2911 138.462 77.3987 144.068 101.711 149.86H101.708ZM51.5723 156.501C59.8464 156.833 75.1892 158.087 94.7872 162.545C96.1916 162.857 97.596 163.188 99.0004 163.539C97.9915 169.42 97.2472 175.04 96.7885 180.322C95.9177 190.33 95.8522 201.869 98.6493 210.11C77.3403 198.082 60.7435 179.182 51.5723 156.501ZM118.79 218.885C126.748 214.718 134.739 205.142 140.895 196.32C144.069 191.771 147.243 186.726 150.375 181.3C168.559 189.551 185.885 199.574 202.103 211.224C189.429 217.992 175.529 222.157 161.221 223.472C146.913 224.788 132.486 223.228 118.79 218.885ZM227.419 192.422C221.527 198.336 214.962 203.538 207.858 207.922C190.817 195.458 172.549 184.764 153.336 176.009C155.957 171.205 158.541 166.132 161.06 160.837C178.518 163.151 195.303 164.539 210.625 164.897C214.625 165.011 218.508 165.011 222.276 164.983C232.044 164.868 240.737 164.281 248.187 163.245C242.956 174.069 235.935 183.934 227.419 192.422Z" fill="#ADCBF9"/>
<path d="M224.98 157.21L209.192 344.878C209.192 344.878 207.537 356.252 216.001 356.274C229.919 356.306 285.267 356.274 285.267 356.274C285.267 356.274 274.793 353.905 274.919 348.577C275.069 342.297 293.371 155.438 293.371 155.438L224.98 157.21Z" fill="#D86713"/>
<path d="M289.759 352.864C287.023 352.864 234.155 353.037 220.603 352.864C214.697 352.792 213.661 347.613 213.611 344.265C213.594 343.33 213.654 342.395 213.792 341.471L214.201 336.594L215.247 324.162L216.172 313.178L217.359 299.063L218.358 287.15L229.579 153.812L297.975 152.038C297.975 152.038 290.267 230.236 284.813 287.159C284.205 293.501 283.627 299.582 283.091 305.259C282.916 307.072 282.748 308.842 282.587 310.569C282.082 315.951 281.621 320.9 281.218 325.266C281.005 327.569 280.811 329.712 280.633 331.666C279.931 339.341 279.53 344.244 279.523 345.177C279.519 345.687 279.563 346.195 279.657 346.696C280.778 352.668 288.731 352.864 289.759 352.864Z" fill="#F99746"/>
<path d="M58.882 55.0898L97.3362 209.513L102.6 230.662L120.511 302.589H453.256L387.241 55.0898H58.882Z" fill="#F99746"/>
<path d="M58.8797 55.0898L53.5525 56.8658L113.426 307.962L120.511 302.589L58.8797 55.0898Z" fill="#EE9849"/>
<path d="M113.426 307.962H444.123L453.254 302.589H120.511L113.426 307.962Z" fill="#D86713"/>
<path d="M229.558 356.339H301.158V352.937H229.558V356.339Z" fill="#F1A34F"/>
<path d="M437.136 256.983L383.145 58.3634H58.3484V55.0898H387.241L441.052 256.543L437.136 256.983Z" fill="#F1A34F"/>
<path d="M282.957 307.96L282.587 310.559L215.25 324.159L216.174 313.178L216.614 307.96H282.957Z" fill="#D86713"/>
<path opacity="0.4" d="M289.759 352.864C287.023 352.864 234.155 353.037 220.603 352.864C214.697 352.792 213.661 347.613 213.611 344.265L280.633 331.652C279.931 339.327 279.53 344.23 279.523 345.163C279.519 345.673 279.563 346.181 279.657 346.682C280.778 352.668 288.731 352.864 289.759 352.864Z" fill="#D86713"/>
<path opacity="0.4" d="M266.68 252.485L120.511 302.589L102.6 230.662L266.68 252.485Z" fill="#D86713"/>
<path d="M58.8797 55.0898H387.241L440.518 254.001H106.722L58.8797 55.0898Z" fill="#699DEE"/>
<path d="M295.704 279.145C294.756 274.266 290.03 270.311 285.153 270.311C280.275 270.311 277.087 274.266 278.035 279.145C278.983 284.024 283.708 287.978 288.586 287.978C293.464 287.978 296.654 284.024 295.704 279.145Z" fill="#D86713"/>
<path d="M425.033 245.381H117.587L82.7681 106.717L80.1021 96.0842L77.8224 87.0144L76.0014 79.751L72.4834 65.7461H375.496L375.709 66.516L379.356 79.751L381.359 87.0144L383.862 96.0842L386.794 106.717L425.033 245.381Z" fill="#E9F3FE"/>
<path d="M425.033 245.856H117.587L82.7681 107.19L80.1021 96.5592L77.8224 87.4871L76.0014 80.226L72.4834 66.2188H375.496L375.709 66.991L379.356 80.226L381.359 87.4871L383.862 96.5592L386.794 107.19L425.033 245.856Z" fill="#E9F3FE"/>
<path d="M379.356 79.751H76.0014L72.4834 65.7461H375.379L375.709 66.516L379.356 79.751Z" fill="#AFCDFB"/>
<path d="M80.912 72.7474C80.5469 71.2802 81.4387 70.0892 82.9086 70.0892C84.3785 70.0892 85.8648 71.2802 86.2299 72.7474C86.5951 74.2146 85.7033 75.4056 84.2334 75.4056C82.7635 75.4056 81.2772 74.2169 80.912 72.7474Z" fill="#E9F3FE"/>
<path d="M89.7479 72.7474C89.3827 71.2802 90.2745 70.0892 91.7444 70.0892C93.2143 70.0892 94.7006 71.2802 95.0658 72.7474C95.4309 74.2146 94.5391 75.4056 93.0692 75.4056C91.5993 75.4056 90.1154 74.2169 89.7479 72.7474Z" fill="#E9F3FE"/>
<path d="M99.2672 72.7474C98.9021 71.2802 99.7938 70.0892 101.264 70.0892C102.734 70.0892 104.22 71.2802 104.585 72.7474C104.95 74.2146 104.058 75.4056 102.589 75.4056C101.119 75.4056 99.63 74.2169 99.2672 72.7474Z" fill="#E9F3FE"/>
<path d="M213.359 245.856H182.959C182.666 243.481 182.411 240.97 182.179 238.352C181.772 233.653 181.458 228.601 181.229 223.343C181.173 222.129 181.124 220.907 181.081 219.676C181.023 218.108 180.974 216.522 180.927 214.928C180.852 212.221 180.793 209.483 180.751 206.738C180.698 203.228 180.672 199.69 180.665 196.168C180.665 195.289 180.665 194.41 180.665 193.534C180.665 192.708 180.665 191.896 180.665 191.065C180.691 183.483 180.805 176.047 180.967 169.132C181.318 153.812 181.891 141.057 182.186 134.928C182.308 132.413 182.387 131.013 182.387 131.013C182.455 131.013 182.916 131.109 183.642 131.283C184.173 131.411 184.85 131.589 185.618 131.825C186.32 132.034 187.078 132.293 187.883 132.598C189.352 133.153 190.769 133.837 192.117 134.643L192.181 134.676C194.451 136.08 196.501 137.952 197.435 140.418C198.238 142.524 200.115 153.77 202.386 168.732C202.449 169.158 202.512 169.588 202.58 170.021C203.781 177.961 205.077 186.869 206.381 195.967C207.762 205.608 209.141 215.452 210.409 224.576C211.512 232.396 212.516 239.69 213.359 245.856Z" fill="#2B478B"/>
<path d="M204.846 245.856H169.46C168.781 242.938 168.147 240.123 167.588 237.481C166.034 230.204 165.013 224.239 165.067 221.036C165.062 220.362 165.199 219.695 165.47 219.079C165.74 218.462 166.137 217.909 166.635 217.455C167.376 216.799 168.237 216.291 169.17 215.96C172.154 214.828 176.445 214.64 180.934 214.928C182.46 215.024 184.007 215.162 185.533 215.356C190.998 216.056 196.414 217.091 201.751 218.457C201.751 218.457 202.273 220.563 202.891 224.258C203.359 227.026 203.872 230.686 204.256 235.008C204.49 237.518 204.658 240.254 204.759 243.17C204.78 244.045 204.811 244.941 204.846 245.856Z" fill="#233862"/>
<path d="M188.504 221.078L188.15 223.633L186.437 236.035L186.144 238.153L185.082 245.847H148.207C147.922 240.762 147.657 235.808 147.606 231.488C147.606 231.02 147.606 230.541 147.606 230.084C147.606 223.579 148.177 218.756 150.042 217.54C152.149 216.159 159.171 216.538 166.635 217.453C167.379 217.542 168.128 217.64 168.88 217.741C173.231 218.326 177.587 219.049 181.088 219.671C182.905 219.994 184.492 220.291 185.728 220.528C187.462 220.865 188.504 221.078 188.504 221.078Z" fill="#C65447"/>
<path d="M147.599 137.411C147.599 137.411 167.857 124.307 182.39 131.013C184.705 132.08 187.347 135.059 189.238 137.142C194.491 142.929 204.754 234.842 204.754 234.842C204.754 234.842 175.618 244.707 147.599 231.5V137.411Z" fill="#F2F2F2"/>
<path d="M183.53 130.681C183.53 130.681 204.038 139.084 206.817 145.54C209.595 151.996 218.623 191.638 218.623 196.295C218.623 200.951 202.903 197.334 200.366 189.836C198.259 183.61 191.177 164.48 187.439 152.382L183.53 130.681Z" fill="#2B478B"/>
<path d="M179.281 137.083C174.804 137.961 168.227 137.025 163.412 133.852C165.586 128.662 166.478 124.562 166.794 121.918C166.813 121.777 166.827 121.639 166.841 121.508C166.962 120.602 166.981 119.684 166.897 118.773H178.472C178.472 118.773 181.636 120.219 181.636 121.218C181.636 121.753 181.641 122.265 181.65 122.753C181.674 124.085 181.727 125.245 181.795 126.244C182.015 129.492 182.387 131.02 182.387 131.02C182.387 131.02 183.804 136.197 179.281 137.083Z" fill="#FFB27D"/>
<path d="M181.795 126.237C173.025 127.932 167.934 123.142 166.794 121.911C166.633 121.735 166.56 121.63 166.56 121.63C166.654 121.583 166.75 121.541 166.853 121.501C170.118 120.179 177.526 121.23 181.662 122.746C181.674 124.078 181.725 125.238 181.795 126.237Z" fill="#E2915A"/>
<path d="M163.929 116.863C165.495 125.287 176.379 125.018 181.081 124.487C182.404 124.34 183.237 124.171 183.237 124.171C184.73 123.773 185.561 121.422 185.95 118.345C186.718 112.261 185.749 103.31 184.719 101.029C183.169 97.5865 180.25 93.8659 169.292 96.5499C158.333 99.2338 161.919 106.06 163.929 116.863Z" fill="#FFB27D"/>
<path d="M185.126 96.3206C183.628 94.2473 180.445 91.7131 177.568 90.1547C171.37 86.8038 163.44 90.2599 163.407 90.274C154.457 94.2075 152.118 101.054 156.854 111.72C161.872 122.999 166.651 121.728 166.651 121.728C166.651 121.728 165.638 121.096 165.729 117.582C165.729 117.383 165.743 117.214 165.753 117.072C165.782 116.716 165.73 116.357 165.6 116.024C165.471 115.691 165.268 115.392 165.006 115.148C163.894 114.156 163.351 111.156 164.283 110.321C165.406 109.312 166.984 110.536 167.489 111.479C167.584 111.644 167.712 111.788 167.865 111.901C168.018 112.014 168.192 112.094 168.378 112.136C168.563 112.178 168.755 112.181 168.942 112.145C169.129 112.109 169.306 112.034 169.463 111.926C172.248 110.166 170.439 106.642 173.1 104.489C175.761 102.337 181.163 104.143 185.159 102.428C190.385 100.46 186.257 97.886 185.126 96.3206Z" fill="#233862"/>
<path d="M186.573 245.856H142.454C142.77 236.711 143.175 225.793 143.601 214.734C143.709 211.867 143.835 208.989 143.936 206.134C143.987 204.925 144.032 203.722 144.078 202.519C145.052 177.97 146.021 155.801 146.225 154.605C146.693 151.905 147.126 149.602 147.599 147.606C148.984 141.791 150.707 138.602 154.461 135.86C154.827 135.581 157.832 134.069 160.477 132.75C162.64 131.678 164.561 130.74 164.62 130.714C165.057 130.927 165.54 131.535 166.048 132.438C166.656 133.572 167.188 134.744 167.639 135.948C169.654 141.127 171.834 149.052 173.346 154.968C173.347 154.974 173.347 154.98 173.346 154.987C174.319 158.808 175.019 161.773 175.218 162.638C175.558 164.08 176.002 166.867 176.529 170.644C177.231 175.792 178.092 182.784 178.994 190.716C179.086 191.532 179.178 192.356 179.272 193.187C179.378 194.137 179.486 195.098 179.595 196.07C179.63 196.384 179.663 196.695 179.696 197.006C180.042 200.146 180.398 203.385 180.74 206.682C181.037 209.399 185.159 211.362 185.444 214.135C185.465 214.336 185.486 214.743 185.512 215.305C185.566 216.475 185.629 218.333 185.706 220.481C185.739 221.438 185.772 222.451 185.809 223.486C185.971 228.088 186.17 233.131 186.395 235.558C186.395 235.672 186.416 235.817 186.423 235.995C186.448 236.48 186.47 237.193 186.488 238.087C186.54 240.036 186.558 242.758 186.573 245.856Z" fill="#2B478B"/>
<path d="M156.474 164.508C156.46 164.564 155.772 189.333 174.408 192.34C193.044 195.347 180.662 196.145 180.662 196.145C180.662 196.145 145.597 194.654 145.019 193.73C144.441 192.806 156.474 164.508 156.474 164.508Z" fill="#233862"/>
<path d="M172.22 202.973C172.22 202.973 171.871 203.221 171.199 203.654C171.187 203.66 171.175 203.667 171.164 203.675C168.316 205.489 159.889 210.44 147.596 213.751C146.307 214.101 144.976 214.429 143.601 214.736C143.709 211.872 143.823 208.994 143.933 206.139C142.382 206.026 140.839 205.813 139.315 205.5C139.364 205.124 139.416 204.747 139.463 204.368C141.026 203.727 142.578 203.109 144.076 202.524C145.296 202.056 146.478 201.588 147.587 201.171C152.633 199.255 156.374 197.956 156.374 197.956L171.312 202.688L172.22 202.973Z" fill="#233862"/>
<path d="M176.173 202.559C176.173 202.559 174.254 203.027 171.199 203.654C171.188 203.652 171.177 203.652 171.166 203.654C165.533 204.787 156.058 206.373 147.596 206.286C146.349 206.272 145.122 206.223 143.933 206.132C142.382 206.019 140.839 205.806 139.315 205.493C136.223 204.84 133.632 203.736 131.938 202.009C119.35 189.193 138.807 143.191 142.896 138.714C147.671 133.489 156.388 131.655 161.202 131.025L161.783 130.95C163.475 130.749 164.561 130.716 164.622 130.716C164.622 130.716 164.245 131.928 163.613 133.992C163.379 134.788 163.082 135.712 162.771 136.742C159.814 146.42 154.11 165.442 151.597 176.171C150.674 180.097 150.192 182.91 150.407 183.75C151.388 187.414 161.558 189.298 168.002 190.131C170.689 190.477 172.73 190.644 173.184 190.676C173.216 190.674 173.248 190.674 173.28 190.676L173.652 192.204L174.544 195.869L175.422 199.468L176.173 202.559Z" fill="#2B478B"/>
<path d="M211.28 224.609L168.051 222.788L176.821 168.931L220.05 170.751L211.28 224.609Z" fill="#F99746"/>
<path d="M173.28 190.676C173.28 190.676 181.706 190.089 182.116 192.05C183.099 196.62 174.881 200.373 172.22 200.118C169.559 199.863 171.344 190.372 173.28 190.676Z" fill="#FFB27D"/>
<path d="M217.686 181.688C217.686 181.688 209.635 179.173 208.771 180.986C206.756 185.198 213.883 190.758 216.532 191.123C219.182 191.488 219.641 181.838 217.686 181.688Z" fill="#FFB27D"/>
<path d="M165.507 128.011C165.507 128.011 161.968 129.698 160.191 132.244C160.191 132.244 173.425 155.214 173.364 154.998C173.303 154.783 168.882 130.953 165.507 128.011Z" fill="#233862"/>
<path d="M181.978 128.334C183.148 128.774 185.379 131.063 185.882 132.328L187.455 152.38C187.455 152.38 184.098 137.666 182.387 131.013C182.143 130.14 182.006 129.24 181.978 128.334Z" fill="#233862"/>
<path d="M191.151 169.534C191.151 169.534 191.492 168.039 193.461 168.215C195.429 168.39 206.484 168.931 206.484 168.931C206.484 168.931 208.617 168.896 208.418 170.262L191.151 169.534Z" fill="#C65447"/>
<path d="M178.472 118.766C178.994 119.177 179.599 119.471 180.245 119.627C180.892 119.783 181.564 119.797 182.217 119.669C183.591 119.435 184.358 117.645 184.358 117.645C184.358 117.645 181.725 117.168 178.472 118.766Z" fill="#F2F2F2"/>
<path d="M383.307 135.525L351.376 135.644L341.021 96.0117L372.952 95.8947L383.307 135.525Z" fill="#F2F2F2"/>
<path d="M365.033 101.101L351.645 101.15L351.491 100.565L364.879 100.516L365.033 101.101Z" fill="#ADCBF9"/>
<path d="M367.17 102.732L350.362 102.793L350.208 102.206L367.018 102.145L367.17 102.732Z" fill="#ADCBF9"/>
<path d="M371.793 110.796L349.96 110.878L349.805 110.29L371.639 110.211L371.793 110.796Z" fill="#ADCBF9"/>
<path d="M372.296 112.729L350.463 112.808L350.311 112.223L372.144 112.141L372.296 112.729Z" fill="#ADCBF9"/>
<path d="M372.802 114.661L350.969 114.741L350.814 114.156L372.65 114.074L372.802 114.661Z" fill="#ADCBF9"/>
<path d="M373.308 116.594L351.474 116.674L351.32 116.087L373.153 116.007L373.308 116.594Z" fill="#ADCBF9"/>
<path d="M373.813 118.527L351.977 118.607L351.825 118.019L373.659 117.94L373.813 118.527Z" fill="#ADCBF9"/>
<path d="M375.04 123.228L353.206 123.308L353.054 122.723L374.887 122.641L375.04 123.228Z" fill="#ADCBF9"/>
<path d="M375.545 125.161L353.712 125.241L353.557 124.656L375.393 124.574L375.545 125.161Z" fill="#ADCBF9"/>
<path d="M376.051 127.094L354.215 127.173L354.063 126.586L375.896 126.507L376.051 127.094Z" fill="#ADCBF9"/>
<path d="M376.556 129.024L354.721 129.106L354.569 128.519L376.402 128.439L376.556 129.024Z" fill="#ADCBF9"/>
<path d="M377.06 130.957L355.226 131.039L355.072 130.452L376.907 130.372L377.06 130.957Z" fill="#ADCBF9"/>
<path d="M396.173 184.773L364.242 184.89L353.887 145.259L385.821 145.14L396.173 184.773Z" fill="#F2F2F2"/>
<path d="M377.9 150.349L364.512 150.398L364.357 149.811L377.748 149.761L377.9 150.349Z" fill="#ADCBF9"/>
<path d="M380.037 151.977L363.229 152.038L363.074 151.453L379.885 151.39L380.037 151.977Z" fill="#ADCBF9"/>
<path d="M384.66 160.043L362.826 160.123L362.672 159.538L384.505 159.456L384.66 160.043Z" fill="#ADCBF9"/>
<path d="M385.165 161.976L363.33 162.056L363.177 161.468L385.011 161.389L385.165 161.976Z" fill="#ADCBF9"/>
<path d="M385.668 163.907L363.835 163.989L363.683 163.401L385.516 163.322L385.668 163.907Z" fill="#ADCBF9"/>
<path d="M386.174 165.84L364.341 165.921L364.186 165.334L386.022 165.255L386.174 165.84Z" fill="#ADCBF9"/>
<path d="M386.68 167.772L364.844 167.852L364.692 167.267L386.525 167.185L386.68 167.772Z" fill="#ADCBF9"/>
<path d="M387.908 172.474L366.073 172.555L365.921 171.968L387.754 171.888L387.908 172.474Z" fill="#ADCBF9"/>
<path d="M388.412 174.406L366.578 174.488L366.424 173.901L388.26 173.821L388.412 174.406Z" fill="#ADCBF9"/>
<path d="M388.917 176.339L367.084 176.421L366.929 175.834L388.765 175.752L388.917 176.339Z" fill="#ADCBF9"/>
<path d="M389.423 178.272L367.587 178.352L367.435 177.767L389.268 177.685L389.423 178.272Z" fill="#ADCBF9"/>
<path d="M389.928 180.205L368.093 180.284L367.941 179.699L389.774 179.618L389.928 180.205Z" fill="#ADCBF9"/>
<path d="M409.129 234.35L377.195 234.467L366.84 194.837L398.774 194.718L409.129 234.35Z" fill="#F2F2F2"/>
<path d="M390.853 199.926L377.465 199.976L377.31 199.388L390.701 199.339L390.853 199.926Z" fill="#ADCBF9"/>
<path d="M392.99 201.555L376.182 201.618L376.027 201.031L392.838 200.968L392.99 201.555Z" fill="#ADCBF9"/>
<path d="M397.613 209.621L375.779 209.701L375.625 209.116L397.46 209.034L397.613 209.621Z" fill="#ADCBF9"/>
<path d="M398.118 211.554L376.285 211.633L376.13 211.046L397.964 210.967L398.118 211.554Z" fill="#ADCBF9"/>
<path d="M398.624 213.484L376.788 213.566L376.636 212.979L398.469 212.899L398.624 213.484Z" fill="#ADCBF9"/>
<path d="M399.127 215.417L377.294 215.499L377.139 214.912L398.975 214.832L399.127 215.417Z" fill="#ADCBF9"/>
<path d="M399.633 217.35L377.799 217.432L377.645 216.845L399.478 216.763L399.633 217.35Z" fill="#ADCBF9"/>
<path d="M400.861 222.053L379.026 222.133L378.874 221.546L400.707 221.466L400.861 222.053Z" fill="#ADCBF9"/>
<path d="M401.367 223.984L379.531 224.066L379.379 223.478L401.212 223.399L401.367 223.984Z" fill="#ADCBF9"/>
<path d="M401.87 225.917L380.037 225.999L379.882 225.411L401.718 225.329L401.87 225.917Z" fill="#ADCBF9"/>
<path d="M402.376 227.85L380.542 227.929L380.388 227.344L402.224 227.262L402.376 227.85Z" fill="#ADCBF9"/>
<path d="M402.881 229.782L381.046 229.862L380.894 229.277L402.727 229.195L402.881 229.782Z" fill="#ADCBF9"/>
<path d="M367.142 234.685L255.462 235.097L223.32 112.076L237.867 96.4142L330.926 96.0702L367.142 234.685Z" fill="#F2F2F2"/>
<path d="M300.163 116.861L260.803 117.006L260.351 115.282L299.711 115.136L300.163 116.861Z" fill="#ADCBF9"/>
<path d="M306.445 121.649L257.03 121.834L256.581 120.109L305.996 119.926L306.445 121.649Z" fill="#ADCBF9"/>
<path d="M320.033 145.36L255.848 145.596L255.396 143.874L319.583 143.635L320.033 145.36Z" fill="#ADCBF9"/>
<path d="M321.519 151.041L257.332 151.278L256.88 149.553L321.067 149.317L321.519 151.041Z" fill="#ADCBF9"/>
<path d="M323.003 156.721L258.816 156.959L258.364 155.235L322.551 154.998L323.003 156.721Z" fill="#ADCBF9"/>
<path d="M324.487 162.402L260.3 162.638L259.85 160.916L324.035 160.678L324.487 162.402Z" fill="#ADCBF9"/>
<path d="M325.971 168.084L261.784 168.32L261.334 166.595L325.519 166.359L325.971 168.084Z" fill="#ADCBF9"/>
<path d="M329.582 181.906L265.395 182.142L264.946 180.42L329.133 180.181L329.582 181.906Z" fill="#ADCBF9"/>
<path d="M331.066 187.588L266.879 187.824L266.43 186.099L330.617 185.863L331.066 187.588Z" fill="#ADCBF9"/>
<path d="M332.55 193.267L268.363 193.505L267.914 191.781L332.101 191.544L332.55 193.267Z" fill="#ADCBF9"/>
<path d="M334.034 198.948L269.85 199.185L269.398 197.462L333.585 197.224L334.034 198.948Z" fill="#ADCBF9"/>
<path d="M335.518 204.63L271.334 204.866L270.882 203.142L335.069 202.905L335.518 204.63Z" fill="#ADCBF9"/>
<path d="M223.32 112.076L241.942 112.008L237.867 96.4142L223.32 112.076Z" fill="#ADCBF9"/>
<path d="M401.393 299.063H492.602C496.008 299.063 499.274 300.415 501.682 302.823C504.09 305.23 505.443 308.495 505.443 311.9V318.04C505.443 321.522 504.059 324.861 501.597 327.323C499.134 329.785 495.794 331.168 492.312 331.168H401.393V299.063Z" fill="#FCECDB"/>
<path d="M583.044 312.27V317.1C583.044 318.947 582.68 320.776 581.973 322.482C581.267 324.189 580.23 325.739 578.924 327.045C577.617 328.351 576.066 329.387 574.359 330.094C572.652 330.8 570.822 331.164 568.974 331.163H398.607C398.066 331.163 397.548 330.948 397.165 330.566C396.782 330.184 396.567 329.666 396.566 329.125V328.402C396.567 327.861 396.782 327.343 397.165 326.96C397.548 326.578 398.066 326.364 398.607 326.364H502.463C504.392 324.017 505.445 321.073 505.443 318.036V311.895C505.447 308.973 504.449 306.138 502.615 303.862H398.607C398.066 303.862 397.547 303.647 397.164 303.265C396.781 302.882 396.566 302.363 396.566 301.822V301.101C396.566 300.56 396.781 300.041 397.164 299.658C397.547 299.276 398.066 299.061 398.607 299.061H569.833C571.569 299.059 573.288 299.4 574.891 300.064C576.495 300.727 577.952 301.7 579.179 302.927C580.406 304.154 581.379 305.61 582.043 307.213C582.707 308.817 583.047 310.535 583.046 312.27H583.044Z" fill="#699DEE"/>
<path d="M582.536 308.631H505.022C504.562 306.891 503.742 305.267 502.613 303.864H398.607C398.066 303.864 397.547 303.649 397.164 303.267C396.781 302.884 396.566 302.365 396.566 301.824V301.103C396.566 300.562 396.781 300.043 397.164 299.66C397.547 299.278 398.066 299.063 398.607 299.063H569.833C572.703 299.063 575.494 299.996 577.786 301.723C580.077 303.449 581.745 305.874 582.536 308.631Z" fill="#548EE2"/>
<path d="M401.393 315.115L414.009 315.653L401.393 315.979V315.115Z" fill="#F4D2B8"/>
<path d="M401.393 320.151L431.404 320.691L401.393 321.017V320.151Z" fill="#F4D2B8"/>
<path d="M519.861 356.068H423.076C419.662 356.068 416.388 354.712 413.973 352.298C411.559 349.884 410.203 346.611 410.203 343.198C410.203 339.99 411.477 336.914 413.746 334.646C416.014 332.379 419.091 331.104 422.299 331.104H519.861V356.068Z" fill="#2B478B"/>
<path d="M624.457 356.068H514.307C510.971 356.068 507.773 354.743 505.414 352.385C503.056 350.027 501.731 346.829 501.731 343.495V343.394C501.731 340.133 503.026 337.006 505.333 334.701C507.639 332.395 510.767 331.1 514.028 331.1H624.459V356.068H624.457Z" fill="#FCECDB"/>
<path d="M494.365 356.068H628.272C628.768 356.068 629.245 355.87 629.596 355.519C629.947 355.168 630.144 354.692 630.144 354.196C630.144 353.699 629.947 353.223 629.596 352.872C629.245 352.521 628.768 352.324 628.272 352.324H494.365C493.868 352.324 493.392 352.521 493.041 352.872C492.689 353.223 492.492 353.699 492.492 354.196C492.492 354.692 492.689 355.168 493.041 355.519C493.392 355.87 493.868 356.068 494.365 356.068Z" fill="#2B478B"/>
<path d="M494.365 334.832H628.272C628.768 334.832 629.245 334.635 629.596 334.284C629.947 333.933 630.144 333.456 630.144 332.96C630.144 332.464 629.947 331.987 629.596 331.636C629.245 331.285 628.768 331.088 628.272 331.088H494.365C493.868 331.088 493.392 331.285 493.041 331.636C492.689 331.987 492.492 332.464 492.492 332.96C492.492 333.456 492.689 333.933 493.041 334.284C493.392 334.635 493.868 334.832 494.365 334.832Z" fill="#2B478B"/>
<path d="M624.457 343.584L609.577 344.002L624.457 344.255V343.584Z" fill="#F4D2B8"/>
<path d="M624.457 337.837L589.057 338.256L624.457 338.508V337.837Z" fill="#F4D2B8"/>
<path d="M589.422 338.171C589.422 338.171 590.939 339.245 591.442 341.007C591.535 341.329 591.588 341.66 591.599 341.995C591.683 344.335 591.599 349.64 591.599 349.64L596.077 346.988L600.542 349.64V342.453C600.542 341.094 600.159 339.772 599.447 338.906C599.103 338.487 598.684 338.171 598.209 338.171H589.422Z" fill="#699DEE"/>
<path d="M589.422 338.171C589.422 338.171 590.939 339.245 591.442 341.007L600.418 341.113C600.418 341.113 600.067 338.588 598.213 338.171H589.422Z" fill="#568CDB"/>
<path d="M601.928 299.128H503.041C501.116 299.128 499.209 298.749 497.43 298.012C495.651 297.276 494.034 296.196 492.672 294.835C491.311 293.473 490.231 291.857 489.494 290.078C488.757 288.3 488.377 286.394 488.377 284.468V276.777C488.377 272.975 489.888 269.329 492.577 266.64C495.266 263.952 498.913 262.442 502.716 262.442H601.928V299.128Z" fill="#FCECDB"/>
<path d="M490.704 276.678V284.574C490.718 286.175 491.154 287.745 491.967 289.125C492.781 290.506 493.944 291.647 495.338 292.436C496.731 293.229 498.307 293.645 499.91 293.643H607.298C607.902 293.643 608.482 293.884 608.91 294.311C609.337 294.738 609.577 295.318 609.577 295.923V296.859C609.577 297.463 609.337 298.043 608.91 298.47C608.482 298.898 607.902 299.138 607.298 299.138H421.782C419.718 299.138 417.675 298.732 415.768 297.943C413.862 297.153 412.13 295.996 410.671 294.538C409.212 293.079 408.054 291.347 407.265 289.441C406.475 287.535 406.069 285.492 406.069 283.429V277.2C406.069 273.29 407.623 269.541 410.388 266.776C413.154 264.011 416.904 262.458 420.815 262.458H607.29C607.59 262.458 607.886 262.517 608.163 262.631C608.439 262.745 608.691 262.913 608.902 263.124C609.114 263.336 609.282 263.587 609.397 263.863C609.511 264.14 609.57 264.436 609.57 264.735V265.671C609.57 266.275 609.33 266.855 608.903 267.283C608.475 267.71 607.895 267.95 607.29 267.95H499.582C498.355 267.949 497.142 268.201 496.018 268.691C494.894 269.181 493.883 269.899 493.049 270.798C491.559 272.396 490.722 274.494 490.704 276.678Z" fill="#B5453C"/>
<path d="M601.928 280.787L588.161 281.403L601.928 281.775V280.787Z" fill="#F4D2B8"/>
<path d="M601.928 272.345L569.176 272.96L601.928 273.332V272.345Z" fill="#F4D2B8"/>
<path d="M569.513 272.838C569.513 272.838 571.673 274.008 572.389 275.913C572.524 276.255 572.603 276.616 572.624 276.983C572.743 279.524 572.624 285.273 572.624 285.273L579.004 282.397L585.368 285.273V277.481C585.368 276.007 584.823 274.575 583.807 273.636C583.342 273.157 582.712 272.872 582.045 272.838H569.513Z" fill="#F99746"/>
<path d="M569.513 272.838C569.513 272.838 571.673 274.008 572.389 275.913L585.179 276.028C585.179 276.028 584.678 273.29 582.037 272.838H569.513Z" fill="#ED7D2B"/>
<path d="M504.762 248.842C510.421 258.691 517.542 262.491 517.542 262.491H547.16C547.16 262.491 500.45 241.328 504.762 248.842Z" fill="#233862"/>
<path d="M527.508 325.041C528.28 325.926 528.379 326.913 527.997 327.969C527.999 327.973 527.999 327.978 527.997 327.983C527.295 329.934 524.954 332.113 522.246 334.301C521.9 334.579 521.591 334.834 521.324 335.071C521.254 335.132 521.184 335.195 521.118 335.256L520.959 335.398C518.431 337.738 519.381 338.262 514.84 342.989C509.663 348.371 506.096 348.472 505.082 347.983C504.223 347.564 505.967 344.707 507.891 341.496C507.985 341.342 508.076 341.185 508.172 341.028C508.429 340.602 508.685 340.167 508.94 339.739C511.203 335.873 510.623 334.062 510.084 328.31C509.649 323.63 502.812 302.201 502.812 302.201L512.736 300.493C512.736 300.493 515.725 317.563 519.019 320.191C520.779 321.595 522.749 321.609 524.442 322.648C524.562 322.719 524.679 322.797 524.793 322.882C525.755 323.497 526.733 324.164 527.508 325.041Z" fill="#FFB27D"/>
<path d="M527.508 325.042C528.281 325.926 528.379 326.914 527.997 327.969C527.999 327.973 527.999 327.978 527.997 327.983C527.131 329.932 524.856 332.101 522.237 334.27C521.895 334.554 521.593 334.816 521.324 335.059C521.254 335.12 521.184 335.183 521.118 335.244L520.959 335.387C518.431 337.727 519.381 338.251 514.841 342.978C509.663 348.36 506.096 348.46 505.082 347.971C504.223 347.552 505.967 344.695 507.891 341.485C511.514 340.071 514.699 337.725 517.123 334.685C520.24 330.707 522.321 325.596 524.444 322.636C524.564 322.708 524.681 322.786 524.795 322.87C525.755 323.497 526.733 324.164 527.508 325.042Z" fill="#233862"/>
<path d="M447.489 318.845C446.876 321.908 442.511 321.396 437.633 320.205C432.755 319.014 433.913 320.439 426.971 319.662C420.029 318.885 417.925 316.306 417.714 315.274C417.524 314.359 420.956 314.036 424.635 313.613C425.103 313.561 425.571 313.503 426.028 313.447C430.182 312.925 433.225 310.246 436.998 308.044C440.573 305.959 445.907 297.465 445.907 297.465L455.428 298.218C455.428 298.218 450.431 305.804 448.5 309.104C447.363 311.044 447.424 313.608 447.564 315.59C447.637 316.676 447.707 317.766 447.489 318.845Z" fill="#FFB27D"/>
<path d="M437.633 320.205C432.755 319.014 433.913 320.439 426.971 319.662C420.029 318.885 417.925 316.306 417.714 315.274C417.524 314.359 420.956 314.037 424.635 313.613L424.67 313.683C427.645 315.591 431.081 316.659 434.613 316.772C439.323 316.887 444.313 315.536 447.566 315.59C447.641 316.667 447.711 317.769 447.494 318.845C446.876 321.908 442.51 321.396 437.633 320.205Z" fill="#233862"/>
<path d="M483.977 257.979L492.871 281.925L504.493 313.189C504.493 313.189 507.645 313.494 510.667 312.625C513.448 311.823 516.638 309.719 516.638 309.719C516.638 309.719 513.41 276.15 507.393 256.88C505.85 251.933 504.116 247.931 502.213 245.68C492.888 234.654 483.977 257.979 483.977 257.979Z" fill="#233862"/>
<path d="M493.028 219.952C498.859 218.08 515.498 220.486 532.199 223.755L535.698 217.987L571.783 215.179C571.783 215.179 583.692 241.578 577.167 258.401C576.209 260.874 574.304 262.458 571.06 262.512H570.533C570.533 262.512 549.056 262.5 542.081 262.5C524.135 262.5 504.099 250.166 501.508 249.649C497.267 248.802 495.57 257.282 491.327 266.188C487.083 275.094 451.452 305.629 451.452 305.629C451.452 305.629 445.975 305.683 443.714 304.836C441.282 303.923 440.39 302.73 440.39 302.73C440.39 302.73 479.876 224.192 493.028 219.952Z" fill="#2B478B"/>
<path d="M535.908 168.304C548.758 175.377 574.828 190.042 574.964 189.946C574.964 189.946 584.547 193.557 589.982 189.946C599.042 183.93 603.901 167.742 587.332 153.81C579.07 146.862 573.197 145.17 572.305 134.074C571.821 128.056 563.591 108.189 549.917 110.028C548.775 110.183 541.741 110.51 537.119 112.937C525.336 119.122 516.643 165.566 535.908 168.304Z" fill="#233862"/>
<path d="M546.678 162.283C546.621 162.32 552.997 164.497 557.267 162.608C561.279 160.834 564.319 154.236 564.261 154.231C562.435 154.147 560.431 152.551 558.877 142.082L558.1 142.36L545.03 147.061C545.03 147.061 545.966 151.254 546.589 155.251C547.115 158.597 547.392 161.808 546.678 162.283Z" fill="#FFB27D"/>
<path d="M545.039 147.063C545.039 147.063 545.975 151.257 546.598 155.253C554.104 153.903 557.051 146.425 558.107 142.367L545.039 147.063Z" fill="#ED975D"/>
<path d="M543.094 151.224C543.094 151.224 560.974 148.825 559.31 137.715C557.646 126.605 558.83 118.815 547.342 119.875C535.855 120.935 534.277 125.498 533.921 129.352C533.565 133.206 538.399 151.561 543.094 151.224Z" fill="#FFB27D"/>
<path d="M534.581 123.263C534.581 123.263 546.027 133.124 553.814 133.92C561.601 134.715 564.548 132.216 564.548 132.216C561.441 129.436 558.938 126.047 557.196 122.259C556.8 121.368 556.173 120.6 555.379 120.032C554.586 119.465 553.655 119.12 552.684 119.033C547.125 118.553 536.585 118.333 534.581 123.263Z" fill="#233862"/>
<path d="M541.737 122.379C541.737 122.379 537.907 126.081 536.702 128.825C535.532 131.474 535.19 137.811 536.117 140.329C536.117 140.329 530.151 128.73 533.528 123.095C537.109 117.121 541.737 122.379 541.737 122.379Z" fill="#233862"/>
<path d="M531.62 188.617C532.161 224.803 531.768 217.242 535.728 220.675C536.683 221.501 539.366 221.995 542.895 222.227C553.994 222.964 573.504 221.136 574.246 219.084C576.806 211.989 574.999 209.785 577.134 198.923C577.368 197.767 577.632 196.517 577.955 195.155C579.737 187.695 581.466 185.156 575.147 173.159C569.417 162.302 563.465 153.489 562.929 153.807C547.813 162.779 546.593 155.237 546.593 155.237C546.593 155.237 531.347 170.967 531.62 188.617Z" fill="#F2F2F2"/>
<path d="M492.878 281.922L504.5 313.187C504.5 313.187 507.652 313.491 510.674 312.623C513.455 311.82 516.645 309.717 516.645 309.717C516.645 309.717 513.417 276.147 507.4 256.877L492.878 281.922Z" fill="#2B478B"/>
<path d="M546.598 155.246C546.598 155.246 531.045 157.884 529.217 164.578C527.389 171.273 516.64 210.634 516.64 210.634C516.64 210.634 524.547 212.055 528.201 208.402C531.855 204.749 540.91 174.521 540.91 174.521L546.598 155.246Z" fill="#F2F2F2"/>
<path d="M542.895 222.227C553.994 222.964 573.504 221.136 574.245 219.084C576.806 211.989 574.999 209.785 577.134 198.923L571.781 183.853C571.781 183.853 572.666 200.635 567.715 205.049C562.765 209.462 547.448 213.569 545.042 217.256C543.881 219.028 543.118 220.802 542.895 222.227Z" fill="#EBF3FF"/>
<path d="M555.612 215.169C555.612 215.169 544.662 212.731 542.895 213.704C541.128 214.678 536.809 218.214 536.269 219.444C535.728 220.675 540.201 218.508 541.652 218.12C542.589 217.867 545.077 218.728 546.303 219.138C551.471 220.86 554.638 219.973 554.638 219.973L555.612 215.169Z" fill="#FFB27D"/>
<path d="M562.945 153.812C562.945 153.812 577.649 154.718 582.737 161.815C589.902 171.804 604.114 214.381 595.969 220.06C586.796 226.455 554.219 221.733 554.219 221.733C554.219 221.733 553.135 216.667 554.643 214.217C556.15 211.767 580.661 207.808 581.794 206.677C582.927 205.547 567.654 184.623 567.654 181.23C567.654 177.837 562.945 153.812 562.945 153.812Z" fill="#F2F2F2"/>
<path d="M542.364 216.758C542.364 216.758 540.07 219.716 539.321 220.069C538.942 220.274 538.512 220.366 538.083 220.334L539.63 217.551L542.364 216.758Z" fill="#FFB27D"/>
<path d="M542.895 213.704L536.224 216.943C536.224 216.943 536.508 217.411 537.329 217.369C538.151 217.327 540.222 216.573 540.222 216.573L542.895 213.704Z" fill="#FFB27D"/>
<path d="M539.319 224.595H486.554L470.68 185.133H523.365L539.319 224.595Z" fill="#F99746"/>
<path d="M485.934 223.057H555.612V224.595H486.554L485.934 223.057Z" fill="#ED7D2B"/>
<path d="M499.872 204.864C499.474 203.476 500.277 202.353 501.665 202.353C503.053 202.353 504.5 203.479 504.898 204.864C505.296 206.249 504.493 207.375 503.105 207.375C501.717 207.375 500.27 206.251 499.872 204.864Z" fill="#F2F2F2"/>
<path d="M368.334 88.6921C369.616 88.6921 370.656 87.6529 370.656 86.3709C370.656 85.0889 369.616 84.0496 368.334 84.0496C367.051 84.0496 366.012 85.0889 366.012 86.3709C366.012 87.6529 367.051 88.6921 368.334 88.6921Z" fill="#F99746"/>
<path d="M682.05 355.892H4.75979C4.3345 355.892 3.98973 356.237 3.98973 356.662V356.922C3.98973 357.347 4.3345 357.692 4.75979 357.692H682.05C682.475 357.692 682.82 357.347 682.82 356.922V356.662C682.82 356.237 682.475 355.892 682.05 355.892Z" fill="#2E3552"/>
</svg>
