<svg width="21" height="21" viewBox="0 0 21 21" fill="none" xmlns="http://www.w3.org/2000/svg">
<g clip-path="url(#clip0)">
<path d="M20.9795 6.17406C20.9303 5.05825 20.7498 4.29114 20.4913 3.62643C20.2247 2.92085 19.8145 2.28915 19.277 1.76402C18.7518 1.23071 18.116 0.816306 17.4186 0.553819C16.75 0.295338 15.9869 0.114898 14.8711 0.0657019C13.747 0.0123391 13.3901 0 10.5389 0C7.6878 0 7.33093 0.0123391 6.21095 0.0615355C5.09514 0.110732 4.32803 0.291332 3.66348 0.549653C2.95775 0.816306 2.32605 1.22654 1.80091 1.76402C1.2676 2.28915 0.853362 2.92502 0.590715 3.62242C0.332234 4.29114 0.151794 5.05408 0.102598 6.16989C0.0492349 7.29403 0.0368958 7.65091 0.0368958 10.5021C0.0368958 13.3532 0.0492349 13.7101 0.0984312 14.83C0.147628 15.9459 0.328228 16.713 0.586708 17.3777C0.853362 18.0833 1.2676 18.715 1.80091 19.2401C2.32605 19.7734 2.96191 20.1878 3.65931 20.4503C4.32803 20.7088 5.09098 20.8892 6.20695 20.9384C7.32676 20.9878 7.6838 20.9999 10.5349 20.9999C13.3861 20.9999 13.743 20.9878 14.8629 20.9384C15.9787 20.8892 16.7459 20.7088 17.4104 20.4503C18.8217 19.9046 19.9375 18.7888 20.4832 17.3777C20.7415 16.709 20.9221 15.9459 20.9713 14.83C21.0205 13.7101 21.0328 13.3532 21.0328 10.5021C21.0328 7.65091 21.0287 7.29403 20.9795 6.17406ZM19.0884 14.748C19.0432 15.7736 18.8709 16.3274 18.7273 16.6966C18.3745 17.6115 17.6484 18.3376 16.7335 18.6904C16.3643 18.834 15.8065 19.0063 14.7849 19.0513C13.6773 19.1007 13.3451 19.1128 10.5431 19.1128C7.74117 19.1128 7.4048 19.1007 6.30117 19.0513C5.27558 19.0063 4.72176 18.834 4.35255 18.6904C3.89728 18.5222 3.48288 18.2555 3.14652 17.9068C2.79782 17.5663 2.53116 17.1561 2.3629 16.7008C2.21932 16.3316 2.04705 15.7736 2.00202 14.7522C1.95267 13.6445 1.94049 13.3122 1.94049 10.5102C1.94049 7.70828 1.95267 7.37192 2.00202 6.26844C2.04705 5.24285 2.21932 4.68903 2.3629 4.31982C2.53116 3.86439 2.79782 3.45015 3.15069 3.11363C3.49105 2.76493 3.90129 2.49828 4.35672 2.33017C4.72593 2.18659 5.28391 2.01432 6.30534 1.96913C7.41298 1.91994 7.74533 1.9076 10.5471 1.9076C13.3532 1.9076 13.6854 1.91994 14.7891 1.96913C15.8146 2.01432 16.3685 2.18659 16.7377 2.33017C17.1929 2.49828 17.6073 2.76493 17.9437 3.11363C18.2924 3.45416 18.5591 3.86439 18.7273 4.31982C18.8709 4.68903 19.0432 5.24686 19.0884 6.26844C19.1376 7.37608 19.1499 7.70828 19.1499 10.5102C19.1499 13.3122 19.1376 13.6404 19.0884 14.748Z" fill="white"/>
<path d="M10.539 5.10742C7.56074 5.10742 5.14435 7.52365 5.14435 10.502C5.14435 13.4804 7.56074 15.8966 10.539 15.8966C13.5173 15.8966 15.9336 13.4804 15.9336 10.502C15.9336 7.52365 13.5173 5.10742 10.539 5.10742ZM10.539 14.0014C8.60684 14.0014 7.03961 12.4343 7.03961 10.502C7.03961 8.56975 8.60684 7.00268 10.539 7.00268C12.4712 7.00268 14.0383 8.56975 14.0383 10.502C14.0383 12.4343 12.4712 14.0014 10.539 14.0014Z" fill="white"/>
<path d="M17.4064 4.89416C17.4064 5.58964 16.8425 6.15355 16.1468 6.15355C15.4514 6.15355 14.8875 5.58964 14.8875 4.89416C14.8875 4.19852 15.4514 3.63477 16.1468 3.63477C16.8425 3.63477 17.4064 4.19852 17.4064 4.89416Z" fill="white"/>
</g>
<defs>
<clipPath id="clip0">
<rect width="21" height="21" fill="white"/>
</clipPath>
</defs>
</svg>
