<svg width="21" height="15" viewBox="0 0 21 15" fill="none" xmlns="http://www.w3.org/2000/svg">
<path d="M19.9231 0.79248H1.07695C0.4846 0.79248 0 1.26941 0 1.85233V13.5109C0 14.0938 0.4846 14.5708 1.07695 14.5708H19.9231C20.5154 14.5708 21 14.0939 21 13.5109V1.85233C21 1.26941 20.5154 0.79248 19.9231 0.79248ZM19.5189 1.58733L11.1195 7.78766C10.9685 7.90076 10.7367 7.97152 10.5 7.97047C10.2633 7.97152 10.0315 7.90076 9.88046 7.78766L1.48103 1.58733H19.5189ZM15.0322 8.19677L19.6092 13.7611C19.6138 13.7667 19.6194 13.7709 19.6243 13.776H1.37575C1.38059 13.7707 1.38625 13.7667 1.39084 13.7611L5.96777 8.19677C6.10801 8.02614 6.08143 7.77599 5.90773 7.63765C5.73435 7.49964 5.48018 7.5258 5.33991 7.69647L0.80768 13.2065V2.08416L9.39611 8.4235C9.71894 8.66013 10.1117 8.76428 10.4999 8.76532C10.8876 8.76452 11.2807 8.66037 11.6037 8.4235L20.1922 2.08416V13.2064L15.6601 7.69647C15.5198 7.52584 15.2654 7.4996 15.0922 7.63765C14.9186 7.77567 14.8919 8.02614 15.0322 8.19677Z" fill="white"/>
</svg>
