<svg width="24" height="28" viewBox="0 0 24 28" fill="none" xmlns="http://www.w3.org/2000/svg">
<path d="M15.1664 20.6008C17.425 16.8547 20.2797 11.5883 20.2797 8.88125C20.2797 4.31484 16.5664 0.601562 12 0.601562C7.43362 0.601562 3.72034 4.31484 3.72034 8.88125C3.72034 11.5883 6.57502 16.8547 8.83362 20.6008C6.15393 20.8031 0.0562744 21.5305 0.0562744 23.9422C0.0562744 26.3156 6.2469 27.3984 12.0055 27.3984C17.7586 27.3984 23.9547 26.3156 23.9547 23.9422C23.9492 21.5305 17.8461 20.8031 15.1664 20.6008ZM4.86331 8.88125C4.86331 4.94375 8.06799 1.73906 12 1.73906C15.9375 1.73906 19.1422 4.94375 19.1422 8.88125C19.1422 12.3211 13.6625 20.9508 12 23.4883C10.3375 20.9508 4.86331 12.3211 4.86331 8.88125ZM12 26.2555C5.00549 26.2555 1.19377 24.7242 1.19377 23.9367C1.19377 23.3297 3.7094 22.0227 9.50627 21.6891C10.5946 23.4445 11.4203 24.6859 11.5297 24.8336C11.6774 25.0305 12.1094 25.2656 12.4758 24.8336C12.5906 24.6969 13.411 23.4445 14.4992 21.6891C20.2961 22.0227 22.8117 23.3242 22.8117 23.9367C22.8063 24.7297 18.9946 26.2555 12 26.2555Z" fill="white"/>
<path d="M15.6039 8.88125C15.6039 6.89062 13.9906 5.27734 12 5.27734C10.0094 5.27734 8.39612 6.89062 8.39612 8.88125C8.39612 10.8719 10.0094 12.4852 12 12.4852C13.9906 12.4852 15.6039 10.8719 15.6039 8.88125ZM9.53362 8.88125C9.53362 7.51953 10.6383 6.41484 12 6.41484C13.3617 6.41484 14.4664 7.51953 14.4664 8.88125C14.4664 10.243 13.3617 11.3477 12 11.3477C10.6383 11.3477 9.53362 10.243 9.53362 8.88125Z" fill="white"/>
</svg>
