<svg width="21" height="20" viewBox="0 0 21 20" fill="none" xmlns="http://www.w3.org/2000/svg">
<path d="M14.7323 12.6062L14.7325 12.6063L14.7363 12.5947C15.0274 11.706 16.3533 11.3464 17.1702 12.1138L20.107 14.8725L20.4493 14.5081L20.107 14.8725C20.6149 15.3496 20.6513 16.2067 20.094 16.8161L18.1142 18.6759C17.7101 19.0555 17.1077 19.2671 16.2973 19.2685C15.4855 19.2699 14.5032 19.0587 13.4052 18.6354C11.2108 17.7894 8.64222 16.1304 6.21265 13.8481C3.78395 11.5666 2.04793 9.1578 1.16394 7.10552C0.721552 6.07846 0.50296 5.16483 0.50003 4.41483C0.49713 3.67265 0.703458 3.12225 1.07825 2.74904L3.0661 0.881693C3.59294 0.386792 4.55851 0.354814 5.22614 0.893735L8.1501 3.64045C8.91369 4.35775 8.61439 5.56243 7.61941 5.85003L7.61937 5.84991L7.60885 5.8532C6.47391 6.20854 5.60614 7.42943 6.02052 8.6425C6.32258 9.805 7.23581 11.0335 8.29664 12.0174C9.36712 13.0103 10.6747 13.8346 11.8393 14.1081L11.8393 14.1083L11.8514 14.1108C12.9965 14.3499 14.3199 13.7685 14.7323 12.6062Z" stroke="white"/>
</svg>
