<svg width="127" height="43" viewBox="0 0 127 43" fill="none" xmlns="http://www.w3.org/2000/svg">
<path d="M41.8748 43C38.0366 43 35.2646 42.0499 33.5588 40.1497C31.8529 38.2495 31 35.1863 31 30.96V26.832H39.316V32.0903C39.316 34.187 39.9885 35.2354 41.3335 35.2354C42.088 35.2354 42.6129 35.0225 42.9081 34.5966C43.2034 34.1379 43.351 33.3844 43.351 32.336C43.351 30.96 43.187 29.8297 42.8589 28.9451C42.5309 28.0278 42.1044 27.2743 41.5795 26.6846C41.0875 26.0621 40.1853 25.112 38.8731 23.8343L35.2318 20.1977C32.4106 17.4457 31 14.3989 31 11.0571C31 7.45333 31.8201 4.71772 33.4604 2.85029C35.1334 0.950096 37.5609 0 40.743 0C44.5484 0 47.2876 1.01562 48.9606 3.04686C50.6336 5.04533 51.4702 8.19048 51.4702 12.4823H42.8589L42.8097 9.58286C42.8097 9.02591 42.6457 8.58362 42.3176 8.256C42.0224 7.92838 41.5959 7.76457 41.0383 7.76457C40.3822 7.76457 39.8901 7.94476 39.562 8.30514C39.234 8.66552 39.07 9.15695 39.07 9.77943C39.07 11.1554 39.8573 12.5806 41.4319 14.0549L46.3526 18.7726C47.5008 19.8865 48.4521 20.9512 49.2066 21.9669C49.9611 22.9497 50.568 24.1291 51.0273 25.5051C51.4866 26.8484 51.7162 28.4537 51.7162 30.3211C51.7162 34.4819 50.9453 37.6434 49.4035 39.8057C47.8944 41.9352 45.3849 43 41.8748 43Z" fill="#F2F2F2"/>
<path d="M54.5179 42.6069V0.393144H62.9323V15.48H66.9181V0.393144H75.3325V42.6069H66.9181V23.4411H62.9323V42.6069H54.5179Z" fill="#F2F2F2"/>
<path d="M78.6798 42.6069V0.393144H86.8482V42.6069H78.6798Z" fill="#F2F2F2"/>
<path d="M90.2219 42.6069V0.393144H107.149V8.6H98.7347V15.3326H106.706V23.4411H98.7347V42.6069H90.2219Z" fill="#F2F2F2"/>
<path d="M113.517 42.6069V8.50172H108.498V0.393144H127V8.50172H121.981V42.6069H113.517Z" fill="#F2F2F2"/>
<path d="M13.9325 0.271867C13.811 0.0958093 13.6472 -0.00193123 13.4769 2.89234e-05C13.3059 0.000118021 13.1419 0.100621 13.0212 0.27944L0.182738 19.2946C-0.0653681 19.6705 -0.060179 20.2722 0.194323 20.6386C0.313247 20.8098 0.472357 20.9064 0.638404 20.9084H7.71794V42.0496C7.71794 42.5745 8.00611 43 8.36156 43H18.6591C19.0146 43 19.3027 42.5745 19.3027 42.0496V20.9084H26.3552C26.7107 20.9094 26.9993 20.4846 27 19.9597C27.0003 19.7066 26.9322 19.4638 26.8109 19.2851L13.9325 0.271867Z" fill="#F2F2F2"/>
</svg>
