<svg width="92" height="31" viewBox="0 0 92 31" fill="none" xmlns="http://www.w3.org/2000/svg">
<path d="M30.3921 31C27.634 31 25.642 30.3151 24.4162 28.9451C23.1904 27.5752 22.5775 25.3669 22.5775 22.32V19.344H28.5534V23.1349C28.5534 24.6465 29.0366 25.4023 30.0032 25.4023C30.5453 25.4023 30.9225 25.2488 31.1347 24.9417C31.3468 24.611 31.4529 24.0678 31.4529 23.312C31.4529 22.32 31.3351 21.5051 31.0993 20.8674C30.8636 20.2061 30.5571 19.6629 30.18 19.2377C29.8264 18.789 29.1781 18.104 28.2351 17.1829L25.6185 14.5611C23.5911 12.5771 22.5775 10.3806 22.5775 7.97143C22.5775 5.37333 23.1668 3.40114 24.3455 2.05486C25.5477 0.684953 27.2922 0 29.5788 0C32.3134 0 34.2818 0.73219 35.484 2.19657C36.6863 3.63733 37.2874 5.90476 37.2874 8.99886H31.0993L31.064 6.90857C31.064 6.50705 30.9461 6.18819 30.7104 5.952C30.4982 5.71581 30.1917 5.59771 29.791 5.59771C29.3195 5.59771 28.9659 5.72762 28.7302 5.98743C28.4944 6.24724 28.3766 6.60152 28.3766 7.05029C28.3766 8.04229 28.9423 9.06971 30.0739 10.1326L33.6099 13.5337C34.435 14.3368 35.1186 15.1044 35.6608 15.8366C36.203 16.5451 36.6391 17.3954 36.9691 18.3874C37.2992 19.3558 37.4642 20.5131 37.4642 21.8594C37.4642 24.859 36.9102 27.1383 35.8023 28.6971C34.7179 30.2324 32.9145 31 30.3921 31Z" fill="url(#paint0_linear)"/>
<path d="M39.4775 30.7166V0.283429H45.5242V11.16H48.3883V0.283429H54.435V30.7166H48.3883V16.8994H45.5242V30.7166H39.4775Z" fill="url(#paint1_linear)"/>
<path d="M56.8403 30.7166V0.283429H62.7101V30.7166H56.8403Z" fill="url(#paint2_linear)"/>
<path d="M65.1345 30.7166V0.283429H77.2985V6.2H71.2519V11.0537H76.9803V16.8994H71.2519V30.7166H65.1345Z" fill="url(#paint3_linear)"/>
<path d="M81.8746 30.7166V6.12914H78.2679V0.283429H91.5634V6.12914H87.9566V30.7166H81.8746Z" fill="url(#paint4_linear)"/>
<path d="M10.3204 0.195997C10.2303 0.0690718 10.109 -0.00139228 9.98287 2.08518e-05C9.85621 8.50852e-05 9.73478 0.0725404 9.64534 0.201457L0.135362 13.9101C-0.0484208 14.181 -0.044577 14.6149 0.143943 14.879C0.232035 15.0024 0.349894 15.0721 0.472892 15.0735H5.71699V30.3148C5.71699 30.6932 5.93045 31 6.19375 31H13.8216C14.0849 31 14.2983 30.6932 14.2983 30.3148V15.0735H19.5224C19.7857 15.0742 19.9995 14.7679 20 14.3895C20.0002 14.2071 19.9498 14.0321 19.8599 13.9032L10.3204 0.195997Z" fill="url(#paint5_linear)"/>
<defs>
<linearGradient id="paint0_linear" x1="32.5" y1="-2.5" x2="83" y2="33.5" gradientUnits="userSpaceOnUse">
<stop stop-color="#494949"/>
<stop offset="1" stop-color="#131313"/>
</linearGradient>
<linearGradient id="paint1_linear" x1="32.5" y1="-2.5" x2="83" y2="33.5" gradientUnits="userSpaceOnUse">
<stop stop-color="#494949"/>
<stop offset="1" stop-color="#131313"/>
</linearGradient>
<linearGradient id="paint2_linear" x1="32.5" y1="-2.5" x2="83" y2="33.5" gradientUnits="userSpaceOnUse">
<stop stop-color="#494949"/>
<stop offset="1" stop-color="#131313"/>
</linearGradient>
<linearGradient id="paint3_linear" x1="32.5" y1="-2.5" x2="83" y2="33.5" gradientUnits="userSpaceOnUse">
<stop stop-color="#494949"/>
<stop offset="1" stop-color="#131313"/>
</linearGradient>
<linearGradient id="paint4_linear" x1="32.5" y1="-2.5" x2="83" y2="33.5" gradientUnits="userSpaceOnUse">
<stop stop-color="#494949"/>
<stop offset="1" stop-color="#131313"/>
</linearGradient>
<linearGradient id="paint5_linear" x1="3.48527" y1="3" x2="16.5194" y2="29.957" gradientUnits="userSpaceOnUse">
<stop stop-color="#494949"/>
<stop offset="1" stop-color="#131313"/>
</linearGradient>
</defs>
</svg>
