<svg width="44" height="43" viewBox="0 0 44 43" fill="none" xmlns="http://www.w3.org/2000/svg">
<path d="M33.8415 34.3911L31.1642 28.4428C30.208 26.3184 27.2973 25.7999 25.8745 27.4538C24.8533 28.5839 22.9791 28.6687 21.6902 27.7877C18.8599 25.7481 16.217 20.1595 16.7181 16.7408C16.7985 15.2197 18.3513 14.1379 19.9462 14.2825C22.2296 14.5405 23.8972 12.2974 22.941 10.173L20.2638 4.22464C19.4376 2.67241 17.5558 1.8905 16.0297 2.46535L11.8875 4.02566C7.68407 5.73324 7.73372 14.9075 12.2278 24.8921C16.7218 34.8768 23.6866 41.5705 28.0469 39.928L32.1891 38.3677C33.7765 37.6456 34.5109 35.8782 33.8415 34.3911Z" fill="#513CDC"/>
</svg>
