<svg width="15" height="15" viewBox="0 0 15 15" fill="none" xmlns="http://www.w3.org/2000/svg">
<path d="M14.4669 11.8204L11.9981 9.35162C12.447 8.45386 12.7463 7.40648 12.7463 6.3591C12.7463 2.84289 9.90336 0 6.38715 0C2.87094 0 0.0280457 2.84289 0.0280457 6.3591C0.0280457 9.87531 2.87094 12.7182 6.38715 12.7182C7.43453 12.7182 8.48191 12.419 9.37967 11.9701L11.8485 14.4389C12.5966 15.187 13.7188 15.187 14.4669 14.4389C15.1403 13.6908 15.1403 12.5686 14.4669 11.8204ZM6.38715 11.2219C3.69388 11.2219 1.52431 9.05237 1.52431 6.3591C1.52431 3.66584 3.69388 1.49626 6.38715 1.49626C9.08041 1.49626 11.25 3.66584 11.25 6.3591C11.25 9.05237 9.08041 11.2219 6.38715 11.2219Z" fill="#F2F2F2"/>
</svg>
