<svg width="15" height="15" viewBox="0 0 15 15" fill="none" xmlns="http://www.w3.org/2000/svg">
<path d="M14.467 11.8204L11.9982 9.35162C12.447 8.45386 12.7463 7.40648 12.7463 6.3591C12.7463 2.84289 9.90339 0 6.38718 0C2.87097 0 0.0280762 2.84289 0.0280762 6.3591C0.0280762 9.87531 2.87097 12.7182 6.38718 12.7182C7.43456 12.7182 8.48194 12.419 9.3797 11.9701L11.8485 14.4389C12.5967 15.187 13.7189 15.187 14.467 14.4389C15.1403 13.6908 15.1403 12.5686 14.467 11.8204ZM6.38718 11.2219C3.69391 11.2219 1.52434 9.05237 1.52434 6.3591C1.52434 3.66584 3.69391 1.49626 6.38718 1.49626C9.08045 1.49626 11.25 3.66584 11.25 6.3591C11.25 9.05237 9.08045 11.2219 6.38718 11.2219Z" fill="#482AD0"/>
</svg>
