<svg width="114" height="114" viewBox="0 0 114 114" fill="none" xmlns="http://www.w3.org/2000/svg">
<path d="M80.8618 60.7482L81.2309 61.4738L82.0163 61.2596C83.3325 60.9006 84.7145 60.7057 86.1417 60.7057H97.3008C105.956 60.7057 113 67.7492 113 76.4049V94.2437C113 99.2162 108.953 103.263 103.98 103.263H10.0195C5.04705 103.263 1 99.2162 1 94.2437V76.4049C1 67.7492 8.04355 60.7057 16.6992 60.7057H27.8583C29.2855 60.7057 30.6675 60.9006 31.9838 61.2596L32.7691 61.4738L33.1382 60.7482C35.7355 55.6424 41.0356 52.1396 47.1374 52.1396H66.8626C72.9644 52.1396 78.2645 55.6424 80.8618 60.7482ZM30.4382 98.5837H31.4382V97.5837V67.8393C31.4382 67.4974 31.4534 67.1533 31.4766 66.8013L31.5303 65.9849L30.7407 65.7705C29.822 65.5211 28.856 65.3856 27.8583 65.3856H16.6992C10.6222 65.3856 5.67969 70.3281 5.67969 76.4051V94.2439C5.67969 96.6378 7.62566 98.5837 10.0195 98.5837H30.4382ZM76.8821 98.5837H77.8821V97.5837V67.8391C77.8821 61.762 72.9396 56.8196 66.8626 56.8196H47.1374C41.0604 56.8196 36.1179 61.762 36.1179 67.8391V97.5837V98.5837H37.1179H76.8821ZM82.5618 97.5837V98.5837H83.5618H103.98C106.374 98.5837 108.32 96.6378 108.32 94.2439V76.4049C108.32 70.3279 103.378 65.3854 97.3008 65.3854H86.1417C85.1439 65.3854 84.178 65.5212 83.2595 65.7702L82.4696 65.9844L82.5234 66.8011C82.5466 67.1529 82.5618 67.497 82.5618 67.8391V97.5837Z" fill="white" stroke="#513CDC" stroke-width="2"/>
<path d="M8.43982 43.0062V43.0061C8.43982 35.376 14.6489 29.167 22.279 29.167C29.9091 29.167 36.1181 35.376 36.1181 43.0061C36.1181 50.6362 29.9089 56.8453 22.279 56.8453C14.6488 56.8453 8.43961 50.6362 8.43982 43.0062ZM13.1193 43.0061C13.1193 48.0576 17.2272 52.1656 22.2787 52.1656C27.3302 52.1656 31.4382 48.0576 31.4382 43.0061C31.4382 37.9546 27.3302 33.8467 22.2787 33.8467C17.2272 33.8467 13.1193 37.9546 13.1193 43.0061Z" fill="white" stroke="#513CDC" stroke-width="2"/>
<path d="M38.1752 29.5614C38.1752 19.1822 46.6208 10.7366 57 10.7366C67.3793 10.7366 75.8249 19.1824 75.8249 29.5614C75.8249 39.9407 67.3793 48.3863 57 48.3863C46.6208 48.3863 38.1752 39.9407 38.1752 29.5614ZM42.8549 29.5614C42.8549 37.3621 49.1994 43.7066 57 43.7066C64.8007 43.7066 71.1452 37.3621 71.1452 29.5614C71.1452 21.7608 64.8007 15.4163 57 15.4163C49.1994 15.4163 42.8549 21.761 42.8549 29.5614Z" fill="white" stroke="#513CDC" stroke-width="2"/>
<path d="M91.7211 56.8453C84.0912 56.8453 77.8822 50.6363 77.882 43.0061V43.0061C77.882 35.376 84.0912 29.167 91.7211 29.167C99.3512 29.167 105.56 35.376 105.56 43.0061C105.56 50.6362 99.3512 56.8453 91.7211 56.8453ZM82.5616 43.0061V43.0061C82.5616 48.0577 86.6698 52.1656 91.7211 52.1656C96.7726 52.1656 100.881 48.0576 100.881 43.0061C100.881 37.9546 96.7726 33.8467 91.7211 33.8467C86.6698 33.8467 82.5619 37.9547 82.5616 43.0061Z" fill="white" stroke="#513CDC" stroke-width="2"/>
</svg>
