<svg width="92" height="92" viewBox="0 0 92 92" fill="none" xmlns="http://www.w3.org/2000/svg">
<path d="M69.6715 9.9585C70.3876 9.9585 70.9683 10.5393 70.9683 11.2554C70.9683 11.9714 70.3874 12.5522 69.6713 12.5522C68.9534 12.5522 68.3694 11.9696 68.3694 11.2554C68.3694 10.5374 68.947 9.9585 69.6612 9.9585H69.6715Z" fill="white" stroke="#513CDC"/>
<path d="M79.3695 9.9585C80.0856 9.9585 80.6664 10.5393 80.6664 11.2554C80.6664 11.9714 80.0855 12.5522 79.3693 12.5522C78.6514 12.5522 78.0674 11.9696 78.0674 11.2554C78.0674 10.5375 78.645 9.9585 79.3592 9.9585H79.3695Z" fill="white" stroke="#513CDC"/>
<path d="M59.9737 9.9585C60.6898 9.9585 61.2706 10.5393 61.2706 11.2554C61.2706 11.9714 60.6897 12.5522 59.9735 12.5522C59.2556 12.5522 58.6716 11.9696 58.6716 11.2554C58.6716 10.5374 59.2492 9.9585 59.9635 9.9585H59.9737Z" fill="white" stroke="#513CDC"/>
<path d="M12.6255 12.5522C11.9092 12.5522 11.3286 11.9715 11.3286 11.2554C11.3286 10.5391 11.9092 9.9585 12.6255 9.9585H39.6257C40.3419 9.9585 40.9226 10.5392 40.9226 11.2554C40.9226 11.9715 40.3419 12.5522 39.6257 12.5522H12.6255Z" fill="white" stroke="#513CDC"/>
<path d="M29.9889 0.5H86.2354C89.1378 0.5 91.5 2.8622 91.4996 5.7645V72.2998C91.4996 75.2021 89.1374 77.5643 86.2351 77.5643H63.7727H63.5737L63.4291 77.7011C59.2772 81.6283 53.8062 84.1705 47.7598 84.5872L47.2942 84.6193V85.086V90.2031C47.2942 90.9193 46.7135 91.5 45.9973 91.5C45.2811 91.5 44.7004 90.9193 44.7004 90.2031V85.086V84.6193L44.2348 84.5872C38.1899 84.1705 32.72 81.6282 28.5689 77.7011L28.4243 77.5643H28.2253H5.76473C2.86219 77.5643 0.5 75.2021 0.5 72.2998V5.76455C0.5 2.86222 2.86219 0.5 5.76473 0.5H13.848C14.5642 0.5 15.1449 1.08075 15.1449 1.79688C15.1449 2.513 14.5642 3.09375 13.848 3.09375H5.76473C4.29154 3.09375 3.09375 4.29149 3.09375 5.76455V18.922V19.422H3.59375H88.4062H88.9062V18.922V5.76455C88.9062 4.29151 87.7085 3.09375 86.2354 3.09375H29.9889C29.2727 3.09375 28.6921 2.513 28.6921 1.79688C28.6921 1.08075 29.2727 0.5 29.9889 0.5ZM23.7802 60.5576H23.2385L23.2818 61.0976C24.1718 72.2055 33.0551 81.0911 44.1606 81.9815L44.7006 82.0248V81.4831V75.6127V75.1643L44.2549 75.1156C36.8525 74.3072 30.9554 68.4085 30.1475 61.0034L30.0988 60.5576H29.6504H23.7802ZM61.8524 57.5182L61.901 57.9639H62.3494H68.2196H68.7613L68.718 57.4239C67.8276 46.3184 58.942 37.4351 47.8343 36.5451L47.2944 36.5018V37.0435V42.9137V43.3621L47.7401 43.4107C55.1452 44.2187 61.0439 50.1158 61.8524 57.5182ZM29.6506 57.9639H30.099L30.1476 57.5182C30.9548 50.1248 36.8384 44.2331 44.228 43.4137H44.7008V42.9137V37.0435V36.5018L44.1608 36.5451C33.0554 37.4353 24.1722 46.3187 23.282 57.4239L23.2387 57.9639H23.7804H29.6506ZM47.7401 75.1156L47.2944 75.1643V75.6127V81.4831V82.0247L47.8343 81.9815C58.9423 81.0913 67.8278 72.2057 68.718 61.0976L68.7613 60.5576H68.2196H62.3494H61.901L61.8524 61.0034C61.0442 68.4083 55.1452 74.3073 47.7401 75.1156ZM66.5291 74.1762L65.9504 74.9706H66.9332H86.2354C87.7085 74.9706 88.9062 73.7728 88.9062 72.2998V22.5156V22.0156H88.4062H3.59375H3.09375V22.5156V72.2998C3.09375 73.7729 4.29154 74.9706 5.76473 74.9706H25.0659H26.0486L25.47 74.1762C22.7422 70.4312 21.0132 65.9161 20.6761 61.0233L20.644 60.5576H20.1773H15.0601C14.3439 60.5576 13.7633 59.9769 13.7633 59.2608C13.7633 58.5446 14.3439 57.9639 15.0601 57.9639H20.1775H20.6442L20.6763 57.4983C21.5443 44.904 31.641 34.8074 44.2352 33.9394L44.7008 33.9073V33.4406V28.3234C44.7008 27.6073 45.2816 27.0265 45.9977 27.0265C46.7138 27.0265 47.2945 27.6073 47.2945 28.3234V33.4406V33.9073L47.7602 33.9394C60.357 34.8072 70.4557 44.904 71.3239 57.4983L71.356 57.9639H71.8227H76.94C77.6561 57.9639 78.2369 58.5447 78.2369 59.2608C78.2369 59.9769 77.6561 60.5576 76.94 60.5576H71.8227H71.356L71.3239 61.0233C70.9868 65.9158 69.2575 70.4309 66.5291 74.1762ZM32.6457 59.2608C32.6457 66.6259 38.6346 72.6176 45.9975 72.6176C53.3628 72.6176 59.3543 66.6261 59.3543 59.2608C59.3543 51.8979 53.3628 45.909 45.9975 45.909C38.6348 45.909 32.6457 51.8981 32.6457 59.2608Z" fill="white" stroke="#513CDC"/>
<path d="M51.8675 54.3397L51.8674 54.3396C51.319 53.8799 50.5008 53.9517 50.0406 54.5009L50.0406 54.5009L44.6202 60.9702L44.2973 61.3555L43.9138 61.0307L41.7981 59.2388L41.7981 59.2388C41.2519 58.7761 40.4334 58.8437 39.9703 59.3902C39.5075 59.9369 39.5753 60.7551 40.1218 61.2181L51.8675 54.3397ZM51.8675 54.3397C52.4166 54.7997 52.4887 55.6178 52.0287 56.1668L52.0287 56.1668M51.8675 54.3397L52.0287 56.1668M52.0287 56.1668L45.4576 64.0092M52.0287 56.1668L45.4576 64.0092M45.4576 64.0092C45.1384 64.3452 44.8088 64.4844 44.4538 64.4846L45.4576 64.0092ZM43.6157 64.1773L40.1218 61.2182L44.4536 64.4846C44.1481 64.4846 43.851 64.3764 43.6158 64.1774C43.6158 64.1774 43.6158 64.1773 43.6157 64.1773Z" fill="white" stroke="#513CDC"/>
<path d="M21.9259 3.09375H21.9209C21.2047 3.09375 20.624 2.513 20.624 1.79688C20.624 1.08075 21.2047 0.5 21.9209 0.5C22.638 0.5 23.2203 1.08166 23.2203 1.79688C23.2203 2.51391 22.6413 3.09375 21.9259 3.09375Z" fill="white" stroke="#513CDC"/>
</svg>
