<svg width="94" height="94" viewBox="0 0 94 94" fill="none" xmlns="http://www.w3.org/2000/svg">
<path d="M67.0225 44.0828L66.5243 45.4297H67.9604H80.2305C84.2337 45.4297 87.4922 48.6882 87.4922 52.6914C87.4922 54.549 86.792 56.2449 85.6387 57.5319L85.0407 58.1992L85.6387 58.8666C86.792 60.1536 87.4922 61.8494 87.4922 63.707C87.4922 67.0474 85.2218 69.873 82.1402 70.7141L81.0609 71.0087L81.4743 72.0483C81.8031 72.8754 81.9844 73.7772 81.9844 74.7227C81.9844 78.063 79.714 80.8887 76.6324 81.7298L75.5531 82.0244L75.9665 83.064C76.2953 83.891 76.4766 84.7928 76.4766 85.7383C76.4766 89.7415 73.2181 93 69.2149 93H52.6915C52.5486 93 52.4057 92.9824 52.2661 92.9476C52.266 92.9476 52.2658 92.9475 52.2657 92.9475L32.9447 88.1173L32.1302 87.9137L31.7887 88.6805C30.6551 91.2255 28.1053 93 25.1524 93H13.7696C12.801 93 12.0157 92.2147 12.0157 91.2461V88.4922V87.4922H11.0157H2.75397C1.78534 87.4922 1.00013 86.7069 1.00024 85.7384V85.7383V47.1836C1.00024 46.215 1.78554 45.4297 2.75415 45.4297H2.76138H2.76916H2.77748H2.78634H2.79574H2.80568H2.81615H2.82716H2.8387H2.85076H2.86335H2.87647H2.89011H2.90426H2.91894H2.93413H2.94983H2.96605H2.98278H3.00001H3.01775H3.03599H3.05473H3.07397H3.0937H3.11393H3.13466H3.15587H3.17757H3.19976H3.22243H3.24558H3.26921H3.29332H3.3179H3.34296H3.36848H3.39448H3.42094H3.44787H3.47526H3.50311H3.53141H3.56017H3.58939H3.61906H3.64918H3.67974H3.71075H3.7422H3.7741H3.80643H3.8392H3.8724H3.90604H3.9401H3.9746H4.00951H4.04486H4.08062H4.11681H4.15341H4.19043H4.22786H4.2657H4.30395H4.3426H4.38167H4.42113H4.46099H4.50125H4.54191H4.58296H4.62441H4.66624H4.70846H4.75107H4.79405H4.83742H4.88117H4.9253H4.9698H5.01467H5.05991H5.10552H5.1515H5.19784H5.24454H5.29161H5.33903H5.3868H5.43493H5.48341H5.53224H5.58141H5.63093H5.68079H5.731H5.78154H5.83241H5.88363H5.93517H5.98704H6.03924H6.09177H6.14461H6.19778H6.25127H6.30508H6.3592H6.41363H6.46838H6.52343H6.57879H6.63445H6.69041H6.74668H6.80324H6.86009H6.91724H6.97469H7.03242H7.09043H7.14874H7.20732H7.26619H7.32533H7.38475H7.44445H7.50441H7.56465H7.62515H7.68592H7.74695H7.80825H7.8698H7.93161H7.99368H8.05599H8.11856H8.18138H8.24444H8.30775H8.3713H8.43509H8.49911H8.56338H8.62787H8.6926H8.75756H8.82274H8.88815H8.95378H9.01963H9.0857H9.15199H9.21849H9.28521H9.35213H9.41926H9.4866H9.55414H9.62188H9.68982H9.75796H9.82629H9.89482H9.96354H10.0324H10.1015H10.1708H10.2403H10.3099H10.3797H10.4497H10.5199H10.5902H10.6607H10.7314H10.8022H10.8732H10.9444H11.0157H11.0872H11.1588H11.2306H11.3026H11.3746H11.4469H11.5192H11.5918H11.6644H11.7372H11.8101H11.8832H11.9564H12.0297H12.1031H12.1767H12.2504H12.3242H12.3981H12.4722H12.5464H12.6206H12.695H12.7695H12.8441H12.9188H12.9936H13.0685H13.1435H13.2186H13.2937H13.369H13.4444H13.5198H13.5953H13.6709H13.7466H13.8224H13.8982H13.9742H14.0501H14.1262H14.2023H14.2785H14.3548H14.4311H14.5074H14.5839H14.6603H14.7369H14.8134H14.8901H14.9667H15.0435H15.1202H15.197H15.2738H15.3507H15.4276H15.5045H15.5815H15.6585H15.7355H15.8125H15.8896H15.9666H16.0437H16.1208H16.1979H16.275H16.3522H16.4293H16.5064H16.5836H16.6607H16.7378H16.8149H16.892H16.9691H17.0462H17.1233H17.2004H17.2774H17.3544H17.4314H17.5084H17.5853H17.6622H17.7391H17.816H17.8928H17.9695H18.0463H18.123H18.1996H18.2762H18.3528H18.4293H18.5057H18.5821H18.6584H18.7347H18.8109H18.8871H18.9632H19.0392H19.1151H19.191H19.2668H19.3425H19.4182H19.4937H19.5692H19.6446H19.7199H19.7952H19.8703H19.9453H20.0203H20.0951H20.1698H20.2445H20.319H20.3934H20.4678H20.542H20.6161H20.6901H20.7639H20.8377H20.9113H20.9848H21.0582H21.1314H21.2045H21.2775H21.3504H21.4231H21.4956H21.5681H21.6404H21.7125H21.7845H21.8564H21.9281H21.9996H22.071H22.1422H22.2133H22.2842H22.355H22.4256H22.496H22.5662H22.6363H22.7062H22.7759H22.8454H22.9148H22.984H23.0529H23.1217H23.1904H23.2588H23.327H23.395H23.4629H23.5305H23.5979H23.6651H23.7322H23.799H23.8656H23.9319H23.9981H24.0641H24.1298H24.1953H24.2606H24.3256H24.3905H24.4551H24.5194H24.5836H24.6474H24.7111H24.7745H24.8377H24.9006H24.9633H25.0257H25.0879H25.1498H25.2115H25.2729H25.334H25.3949H25.4555H25.5159H25.576H25.6358H25.6953H25.7546H25.8136H25.8723H25.9307H25.9889H26.0467H26.1043H26.1616H26.2186H26.2753H26.3317H26.3878H26.4435H26.499H26.5542H26.6091H26.6637H26.7179H26.7719H26.8255H26.8788H26.9318H26.9845H27.0368H27.0888H27.1405H27.1919H27.2429H27.2936H27.3439H27.394H27.4436H27.493H27.5419H27.5906H27.6389H27.6868H27.7344H27.7816H27.8284H27.8749H27.9211H27.9669H28.0123H28.0573H28.102H28.1462H28.1902H28.2337H28.2769H28.3196H28.362H28.404H28.4456H28.4869H28.5277H28.5681H28.6082H28.6478H28.687H28.7259H28.7643H28.8023H28.8399H28.8771H28.9139H28.9503H28.9862H29.0218H29.0569H29.0916H29.1258H29.1596H29.193H29.226H29.2585H29.2906H29.3223H29.3535H29.3842H29.4145H29.4444H29.4738H29.5028H29.5313H29.5593H29.5869H29.6141H29.6407H29.6669H29.6927H29.7179H29.7427H29.767H29.7909H29.8142H29.8371H29.8595H29.8814H29.9029H29.9238H29.9443H29.9642H29.9837H30.0026H30.0211H30.039H30.0565H30.0735H30.0899H30.1058H30.1212H30.1361H30.1505H30.1644H30.1777H30.1906H30.2029H30.2146H30.2259H30.2366H30.2467H30.2564H30.2655H30.274H30.2821H30.2895H30.4252L30.5561 45.3935C32.4962 44.857 42.4806 42.0422 47.6083 39.4718L47.6083 39.4718C48.9245 38.8119 50.1134 37.6237 51.1467 36.1982C52.1887 34.7608 53.1201 33.0159 53.8986 31.1527C55.4509 27.4381 56.4454 23.1321 56.4454 19.6445C56.4454 18.6759 57.2307 17.8906 58.1993 17.8906C61.6678 17.8906 64.9551 19.3972 67.2194 22.0243C69.4909 24.6596 70.4992 28.1463 69.9854 31.592C69.4377 35.267 68.507 40.0691 67.0225 44.0828ZM11.0155 83.9844H12.0155V82.9844V49.9375V48.9375H11.0155H5.50769H4.50769V49.9375V82.9844V83.9844H5.50769H11.0155ZM15.5233 88.4922V89.4922H16.5233H25.1522C27.223 89.4922 28.9061 87.8091 28.9061 85.7383V49.9375V48.9375H27.9061H16.5233H15.5233V49.9375V88.4922ZM52.788 89.4623L52.9074 89.4922L61.244 45.9519L62.1384 46.3991C62.1384 46.3991 62.1384 46.3991 62.1384 46.3991C63.5266 43.6229 65.1957 39.9307 66.5161 31.0748C66.8791 28.6409 66.1676 26.1762 64.5627 24.3145C63.6163 23.2166 62.4158 22.3958 61.0857 21.9093L59.9033 21.4768L59.7497 22.7264C59.3041 26.3513 58.1361 30.6137 56.315 34.3419C54.4828 38.093 52.0583 41.1648 49.1802 42.6077C44.659 44.8743 36.8675 47.2402 33.1381 48.311L32.4141 48.5189V49.2722V83.5882V84.369L33.1716 84.5584L52.788 89.4623Z" fill="white" stroke="#513CDC" stroke-width="2"/>
<path d="M59.1992 2.75391C59.1992 1.7853 59.9845 1 60.9531 1C61.9217 1 62.707 1.7853 62.707 2.75391V8.62891C62.707 9.59751 61.9217 10.3828 60.9531 10.3828C59.9845 10.3828 59.1992 9.59751 59.1992 8.62891V2.75391Z" fill="white" stroke="#513CDC" stroke-width="2"/>
<path d="M40.7728 10.7534L40.7729 10.7535L44.6675 14.648C45.3524 15.333 45.3524 16.4434 44.6675 17.1284L44.6674 17.1285C43.9826 17.8134 42.8719 17.8134 42.1872 17.1285L42.1871 17.1284L38.2925 13.2338C37.6076 12.5489 37.6076 11.4384 38.2925 10.7535C38.9775 10.0685 40.0881 10.0686 40.7728 10.7534Z" fill="white" stroke="#513CDC" stroke-width="2"/>
<path d="M30.6599 31.6602H36.1677C37.1363 31.6602 37.9216 32.4455 37.9216 33.4141C37.9216 34.3827 37.1363 35.168 36.1677 35.168H30.6599C29.6913 35.168 28.906 34.3827 28.906 33.4141C28.906 32.4455 29.6913 31.6602 30.6599 31.6602Z" fill="white" stroke="#513CDC" stroke-width="2"/>
<path d="M85.7383 31.6602H91.2461C92.2147 31.6602 93 32.4455 93 33.4141C93 34.3827 92.2147 35.168 91.2461 35.168H85.7383C84.7697 35.168 83.9844 34.3827 83.9844 33.4141C83.9844 32.4455 84.7697 31.6602 85.7383 31.6602Z" fill="white" stroke="#513CDC" stroke-width="2"/>
<path d="M83.6137 10.7534L83.6137 10.7535C84.2987 11.4384 84.2987 12.5489 83.6137 13.2338L84.2423 13.8624L83.6137 13.2338L79.7192 17.1284L79.7191 17.1285C79.0344 17.8134 77.9237 17.8134 77.2389 17.1285L77.2388 17.1284C76.5539 16.4434 76.5539 15.333 77.2388 14.648L81.1334 10.7535L80.4263 10.0464L81.1334 10.7535C81.8184 10.0685 82.929 10.0686 83.6137 10.7534Z" fill="white" stroke="#513CDC" stroke-width="2"/>
</svg>
