<svg width="93" height="93" viewBox="0 0 93 93" fill="none" xmlns="http://www.w3.org/2000/svg">
<mask id="path-1-inside-1" fill="white">
<path d="M90.225 16.1911L76.8097 2.77589C75.0313 1.00114 72.6215 0.00439453 70.109 0.00439453C67.5965 0.00439453 65.1867 1.00114 63.4083 2.77589L42.67 23.5134C40.8955 25.2923 39.899 27.7023 39.899 30.2149C39.899 32.7275 40.8955 35.1375 42.67 36.9163L45.5762 39.8226L39.8233 45.5755L36.9171 42.6693C35.1382 40.8948 32.7282 39.8982 30.2156 39.8982C27.703 39.8982 25.293 40.8948 23.5142 42.6693L2.77589 63.4083C1.00114 65.1867 0.00439453 67.5965 0.00439453 70.109C0.00439453 72.6215 1.00114 75.0313 2.77589 76.8097L16.1911 90.225C17.9696 91.9995 20.3795 92.9962 22.8919 92.9962C25.4043 92.9962 27.8141 91.9995 29.5926 90.225L50.3309 69.4874C52.1054 67.7086 53.1019 65.2985 53.1019 62.786C53.1019 60.2734 52.1054 57.8634 50.3309 56.0845L47.4246 53.1783L53.1775 47.4253L56.0838 50.3316C57.8623 52.1066 60.2725 53.1035 62.7852 53.1035C65.298 53.1035 67.7081 52.1066 69.4867 50.3316L90.225 29.5926C91.9997 27.8142 92.9965 25.4043 92.9965 22.8919C92.9965 20.3794 91.9997 17.9696 90.225 16.1911ZM61.3223 31.6785C60.8234 31.1794 60.231 30.7835 59.579 30.5133C58.927 30.2432 58.2281 30.1042 57.5224 30.1042C56.8166 30.1042 56.1178 30.2432 55.4658 30.5133C54.8138 30.7835 54.2214 31.1794 53.7225 31.6785L53.1761 32.2249L51.1679 30.2167L70.1086 11.2752L81.7256 22.8922L62.7856 41.8315L60.7774 39.8233L61.3238 39.2769C61.8229 38.778 62.2188 38.1856 62.489 37.5336C62.7591 36.8816 62.8981 36.1828 62.8981 35.477C62.8981 34.7713 62.7591 34.0724 62.489 33.4204C62.2188 32.7684 61.8229 32.176 61.3238 31.6771L61.3223 31.6785ZM55.5207 33.4761C56.0585 32.9797 56.7675 32.7107 57.4992 32.7254C58.2309 32.7401 58.9286 33.0373 59.4461 33.5548C59.9636 34.0723 60.2608 34.7699 60.2755 35.5016C60.2901 36.2333 60.0211 36.9423 59.5248 37.4802L37.4787 59.5262C36.9391 60.0407 36.2222 60.3277 35.4767 60.3277C34.7311 60.3277 34.0142 60.0407 33.4746 59.5262C32.9442 58.995 32.6463 58.2749 32.6463 57.5242C32.6463 56.7735 32.9442 56.0534 33.4746 55.5222L55.5207 33.4761ZM31.6785 61.3223C32.1775 61.8214 32.7699 62.2174 33.4219 62.4875C34.0739 62.7576 34.7727 62.8967 35.4785 62.8967C36.1842 62.8967 36.8831 62.7576 37.5351 62.4875C38.1871 62.2174 38.7794 61.8214 39.2784 61.3223L39.8248 60.7759L41.833 62.7841L22.8922 81.7256L11.2752 70.1086L30.2153 51.1693L32.2235 53.1775L31.6771 53.7239C31.178 54.2229 30.782 54.8153 30.5119 55.4673C30.2418 56.1193 30.1027 56.8181 30.1027 57.5238C30.1027 58.2296 30.2418 58.9284 30.5119 59.5804C30.782 60.2324 31.178 60.8248 31.6771 61.3238L31.6785 61.3223ZM48.5348 57.8813C49.8339 59.1829 50.5635 60.9467 50.5635 62.7856C50.5635 64.6245 49.8339 66.3883 48.5348 67.6899L27.7951 88.4267C26.4936 89.726 24.7298 90.4557 22.8908 90.4557C21.0518 90.4557 19.2879 89.726 17.9865 88.4267L4.57777 75.0115C3.2785 73.71 2.54876 71.9462 2.54876 70.1072C2.54876 68.2682 3.2785 66.5043 4.57777 65.2029L25.3117 44.4661C26.6134 43.1673 28.3772 42.4379 30.216 42.4379C32.0548 42.4379 33.8185 43.1673 35.1203 44.4661L38.0265 47.3723L34.0217 51.3764L31.1155 48.4701C30.9975 48.352 30.8574 48.2583 30.7032 48.1943C30.549 48.1304 30.3837 48.0974 30.2167 48.0974C30.0498 48.0974 29.8844 48.1304 29.7302 48.1943C29.576 48.2583 29.4359 48.352 29.318 48.4701L8.57822 69.2099C8.46008 69.3278 8.36635 69.4679 8.3024 69.6221C8.23845 69.7764 8.20553 69.9417 8.20553 70.1086C8.20553 70.2756 8.23845 70.4409 8.3024 70.5951C8.36635 70.7493 8.46008 70.8894 8.57822 71.0074L21.9935 84.4226C22.2363 84.6524 22.5579 84.7804 22.8922 84.7804C23.2265 84.7804 23.5481 84.6524 23.791 84.4226L44.5285 63.6844C44.6467 63.5664 44.7404 63.4263 44.8044 63.2721C44.8683 63.1179 44.9012 62.9525 44.9012 62.7856C44.9012 62.6186 44.8683 62.4533 44.8044 62.2991C44.7404 62.1449 44.6467 62.0048 44.5285 61.8868L41.6223 58.9806L45.6286 54.9751L48.5348 57.8813ZM88.4282 27.7936L67.6892 48.5348C66.3876 49.8339 64.6238 50.5635 62.7849 50.5635C60.9459 50.5635 59.1821 49.8339 57.8806 48.5348L54.9743 45.6286L58.9791 41.6245L61.8854 44.5307C62.0033 44.6489 62.1434 44.7426 62.2977 44.8065C62.4519 44.8705 62.6172 44.9034 62.7841 44.9034C62.9511 44.9034 63.1164 44.8705 63.2706 44.8065C63.4248 44.7426 63.5649 44.6489 63.6829 44.5307L84.4212 23.7932C84.5393 23.6752 84.633 23.5351 84.697 23.3809C84.761 23.2267 84.7939 23.0614 84.7939 22.8944C84.7939 22.7275 84.761 22.5621 84.697 22.4079C84.633 22.2537 84.5393 22.1136 84.4212 21.9957L71.0074 8.57822C70.7645 8.34848 70.4429 8.22047 70.1086 8.22047C69.7743 8.22047 69.4527 8.34848 69.2099 8.57822L48.4723 29.3165C48.3542 29.4345 48.2604 29.5746 48.1965 29.7288C48.1325 29.883 48.0996 30.0483 48.0996 30.2153C48.0996 30.3822 48.1325 30.5475 48.1965 30.7017C48.2604 30.856 48.3542 30.9961 48.4723 31.114L51.3786 34.0203L47.3723 38.0258L44.4661 35.1195C43.167 33.818 42.4373 32.0542 42.4373 30.2153C42.4373 28.3763 43.167 26.6125 44.4661 25.311L65.2058 4.57777C66.5072 3.2785 68.2711 2.54876 70.1101 2.54876C71.9491 2.54876 73.7129 3.2785 75.0144 4.57777L88.4296 17.993C89.7265 19.2946 90.4545 21.0573 90.4539 22.8946C90.4534 24.732 89.7244 26.4943 88.4267 27.7951L88.4282 27.7936Z"/>
</mask>
<path d="M90.225 16.1911L76.8097 2.77589C75.0313 1.00114 72.6215 0.00439453 70.109 0.00439453C67.5965 0.00439453 65.1867 1.00114 63.4083 2.77589L42.67 23.5134C40.8955 25.2923 39.899 27.7023 39.899 30.2149C39.899 32.7275 40.8955 35.1375 42.67 36.9163L45.5762 39.8226L39.8233 45.5755L36.9171 42.6693C35.1382 40.8948 32.7282 39.8982 30.2156 39.8982C27.703 39.8982 25.293 40.8948 23.5142 42.6693L2.77589 63.4083C1.00114 65.1867 0.00439453 67.5965 0.00439453 70.109C0.00439453 72.6215 1.00114 75.0313 2.77589 76.8097L16.1911 90.225C17.9696 91.9995 20.3795 92.9962 22.8919 92.9962C25.4043 92.9962 27.8141 91.9995 29.5926 90.225L50.3309 69.4874C52.1054 67.7086 53.1019 65.2985 53.1019 62.786C53.1019 60.2734 52.1054 57.8634 50.3309 56.0845L47.4246 53.1783L53.1775 47.4253L56.0838 50.3316C57.8623 52.1066 60.2725 53.1035 62.7852 53.1035C65.298 53.1035 67.7081 52.1066 69.4867 50.3316L90.225 29.5926C91.9997 27.8142 92.9965 25.4043 92.9965 22.8919C92.9965 20.3794 91.9997 17.9696 90.225 16.1911ZM61.3223 31.6785C60.8234 31.1794 60.231 30.7835 59.579 30.5133C58.927 30.2432 58.2281 30.1042 57.5224 30.1042C56.8166 30.1042 56.1178 30.2432 55.4658 30.5133C54.8138 30.7835 54.2214 31.1794 53.7225 31.6785L53.1761 32.2249L51.1679 30.2167L70.1086 11.2752L81.7256 22.8922L62.7856 41.8315L60.7774 39.8233L61.3238 39.2769C61.8229 38.778 62.2188 38.1856 62.489 37.5336C62.7591 36.8816 62.8981 36.1828 62.8981 35.477C62.8981 34.7713 62.7591 34.0724 62.489 33.4204C62.2188 32.7684 61.8229 32.176 61.3238 31.6771L61.3223 31.6785ZM55.5207 33.4761C56.0585 32.9797 56.7675 32.7107 57.4992 32.7254C58.2309 32.7401 58.9286 33.0373 59.4461 33.5548C59.9636 34.0723 60.2608 34.7699 60.2755 35.5016C60.2901 36.2333 60.0211 36.9423 59.5248 37.4802L37.4787 59.5262C36.9391 60.0407 36.2222 60.3277 35.4767 60.3277C34.7311 60.3277 34.0142 60.0407 33.4746 59.5262C32.9442 58.995 32.6463 58.2749 32.6463 57.5242C32.6463 56.7735 32.9442 56.0534 33.4746 55.5222L55.5207 33.4761ZM31.6785 61.3223C32.1775 61.8214 32.7699 62.2174 33.4219 62.4875C34.0739 62.7576 34.7727 62.8967 35.4785 62.8967C36.1842 62.8967 36.8831 62.7576 37.5351 62.4875C38.1871 62.2174 38.7794 61.8214 39.2784 61.3223L39.8248 60.7759L41.833 62.7841L22.8922 81.7256L11.2752 70.1086L30.2153 51.1693L32.2235 53.1775L31.6771 53.7239C31.178 54.2229 30.782 54.8153 30.5119 55.4673C30.2418 56.1193 30.1027 56.8181 30.1027 57.5238C30.1027 58.2296 30.2418 58.9284 30.5119 59.5804C30.782 60.2324 31.178 60.8248 31.6771 61.3238L31.6785 61.3223ZM48.5348 57.8813C49.8339 59.1829 50.5635 60.9467 50.5635 62.7856C50.5635 64.6245 49.8339 66.3883 48.5348 67.6899L27.7951 88.4267C26.4936 89.726 24.7298 90.4557 22.8908 90.4557C21.0518 90.4557 19.2879 89.726 17.9865 88.4267L4.57777 75.0115C3.2785 73.71 2.54876 71.9462 2.54876 70.1072C2.54876 68.2682 3.2785 66.5043 4.57777 65.2029L25.3117 44.4661C26.6134 43.1673 28.3772 42.4379 30.216 42.4379C32.0548 42.4379 33.8185 43.1673 35.1203 44.4661L38.0265 47.3723L34.0217 51.3764L31.1155 48.4701C30.9975 48.352 30.8574 48.2583 30.7032 48.1943C30.549 48.1304 30.3837 48.0974 30.2167 48.0974C30.0498 48.0974 29.8844 48.1304 29.7302 48.1943C29.576 48.2583 29.4359 48.352 29.318 48.4701L8.57822 69.2099C8.46008 69.3278 8.36635 69.4679 8.3024 69.6221C8.23845 69.7764 8.20553 69.9417 8.20553 70.1086C8.20553 70.2756 8.23845 70.4409 8.3024 70.5951C8.36635 70.7493 8.46008 70.8894 8.57822 71.0074L21.9935 84.4226C22.2363 84.6524 22.5579 84.7804 22.8922 84.7804C23.2265 84.7804 23.5481 84.6524 23.791 84.4226L44.5285 63.6844C44.6467 63.5664 44.7404 63.4263 44.8044 63.2721C44.8683 63.1179 44.9012 62.9525 44.9012 62.7856C44.9012 62.6186 44.8683 62.4533 44.8044 62.2991C44.7404 62.1449 44.6467 62.0048 44.5285 61.8868L41.6223 58.9806L45.6286 54.9751L48.5348 57.8813ZM88.4282 27.7936L67.6892 48.5348C66.3876 49.8339 64.6238 50.5635 62.7849 50.5635C60.9459 50.5635 59.1821 49.8339 57.8806 48.5348L54.9743 45.6286L58.9791 41.6245L61.8854 44.5307C62.0033 44.6489 62.1434 44.7426 62.2977 44.8065C62.4519 44.8705 62.6172 44.9034 62.7841 44.9034C62.9511 44.9034 63.1164 44.8705 63.2706 44.8065C63.4248 44.7426 63.5649 44.6489 63.6829 44.5307L84.4212 23.7932C84.5393 23.6752 84.633 23.5351 84.697 23.3809C84.761 23.2267 84.7939 23.0614 84.7939 22.8944C84.7939 22.7275 84.761 22.5621 84.697 22.4079C84.633 22.2537 84.5393 22.1136 84.4212 21.9957L71.0074 8.57822C70.7645 8.34848 70.4429 8.22047 70.1086 8.22047C69.7743 8.22047 69.4527 8.34848 69.2099 8.57822L48.4723 29.3165C48.3542 29.4345 48.2604 29.5746 48.1965 29.7288C48.1325 29.883 48.0996 30.0483 48.0996 30.2153C48.0996 30.3822 48.1325 30.5475 48.1965 30.7017C48.2604 30.856 48.3542 30.9961 48.4723 31.114L51.3786 34.0203L47.3723 38.0258L44.4661 35.1195C43.167 33.818 42.4373 32.0542 42.4373 30.2153C42.4373 28.3763 43.167 26.6125 44.4661 25.311L65.2058 4.57777C66.5072 3.2785 68.2711 2.54876 70.1101 2.54876C71.9491 2.54876 73.7129 3.2785 75.0144 4.57777L88.4296 17.993C89.7265 19.2946 90.4545 21.0573 90.4539 22.8946C90.4534 24.732 89.7244 26.4943 88.4267 27.7951L88.4282 27.7936Z" fill="white" stroke="#513CDC" mask="url(#path-1-inside-1)"/>
</svg>
