<svg width="85" height="85" viewBox="0 0 85 85" fill="none" xmlns="http://www.w3.org/2000/svg">
<path d="M76.5345 67.4276C78.4457 65.9706 79.6875 63.677 79.6875 61.0938C79.6875 57.1532 76.8095 53.8807 73.0469 53.2445V51.7969C73.0469 48.1352 70.0679 45.1562 66.4062 45.1562H43.8281V40.3166C44.5453 40.8624 45.4073 41.1719 46.3237 41.1719C48.5602 41.1719 50.3758 39.3895 50.4541 37.1729C52.6216 37.0959 54.3615 35.356 54.4385 33.1885C56.606 33.1115 58.3459 31.3716 58.4229 29.2041C60.6395 29.1258 62.4219 27.3089 62.4219 25.0737C62.4219 23.966 61.9902 22.9248 61.208 22.1425L60.9317 21.8663C62.7566 19.627 63.75 16.8539 63.75 13.9254C63.75 6.9793 58.0988 1.32812 51.1527 1.32812C47.9028 1.32812 44.8495 2.56063 42.5 4.78656C40.1505 2.56063 37.0972 1.32812 33.8473 1.32812C26.9012 1.32812 21.25 6.9793 21.25 13.9254C21.25 17.1886 22.4918 20.2552 24.7363 22.6087C24.2064 23.3205 23.9062 24.1705 23.9062 25.0737C23.9062 27.3102 25.6886 29.1258 27.9052 29.2041C27.9823 31.3716 29.7221 33.1115 31.8896 33.1885C31.9666 35.356 33.7065 37.0959 35.874 37.1729C35.9523 39.3895 37.7692 41.1719 40.0045 41.1719C40.4082 41.1719 40.796 41.0962 41.1719 40.9859V45.1562H18.5938C14.9321 45.1562 11.9531 48.1352 11.9531 51.7969V53.2445C8.19055 53.8807 5.3125 57.1532 5.3125 61.0938C5.3125 63.677 6.5543 65.9706 8.46547 67.4276C4.26859 69.2843 1.32812 73.4825 1.32812 78.3594V83.6719H25.2344V78.3594C25.2344 73.4825 22.2939 69.2843 18.097 67.4276C20.0082 65.9706 21.25 63.677 21.25 61.0938C21.25 57.1532 18.372 53.8807 14.6094 53.2445V51.7969C14.6094 49.6002 16.397 47.8125 18.5938 47.8125H41.1719V53.2445C37.4093 53.8794 34.5312 57.1519 34.5312 61.0938C34.5312 63.677 35.773 65.9706 37.6842 67.4276C33.4873 69.2843 30.5469 73.4825 30.5469 78.3594V83.6719H54.4531V78.3594C54.4531 73.4825 51.5127 69.2843 47.3158 67.4276C49.227 65.9706 50.4688 63.677 50.4688 61.0938C50.4688 57.1532 47.5907 53.8807 43.8281 53.2445V47.8125H66.4062C68.603 47.8125 70.3906 49.6002 70.3906 51.7969V53.2445C66.628 53.8794 63.75 57.1519 63.75 61.0938C63.75 63.677 64.9918 65.9706 66.903 67.4276C62.7061 69.2843 59.7656 73.4825 59.7656 78.3594V83.6719H83.6719V78.3594C83.6719 73.4825 80.7314 69.2843 76.5345 67.4276ZM51.1527 3.98438C56.6339 3.98438 61.0938 8.44422 61.0938 13.9254C61.0938 16.142 60.3646 18.2418 59.0352 19.9684L52.9284 13.8616C53.3242 13.5641 53.708 13.248 54.0653 12.8921L52.1873 11.0141C50.7237 12.4764 48.7807 13.2812 46.7115 13.2812H44.6064L42.3393 15.5484C42.0883 15.7994 41.7536 15.9375 41.399 15.9375H36.4092C36.1064 15.9375 35.8594 15.6905 35.8594 15.3877C35.8594 15.2429 35.9178 15.1008 36.0201 14.9985L44.123 6.89563C46.0009 5.01898 48.4965 3.98438 51.1527 3.98438ZM33.8473 3.98438C36.3813 3.98438 38.764 4.93531 40.6087 6.65258L34.1408 13.1205C33.5365 13.7248 33.2031 14.531 33.2031 15.3877C33.2031 17.1554 34.6415 18.5938 36.4092 18.5938H41.399C42.4628 18.5938 43.4642 18.1794 44.2173 17.4263L45.7061 15.9375H46.7115C48.0383 15.9375 49.3239 15.6838 50.5219 15.2123L59.33 24.0205C59.6102 24.302 59.7656 24.6752 59.7656 25.0737C59.7656 25.8945 59.0976 26.5625 58.2768 26.5625C57.8784 26.5625 57.5052 26.4071 57.2236 26.1269L54.064 22.9673L52.186 24.8452L55.3456 28.0048C55.6259 28.2864 55.7812 28.6596 55.7812 29.058C55.7812 29.8788 55.1132 30.5469 54.2924 30.5469C53.894 30.5469 53.5208 30.3915 53.2392 30.1113L50.0796 26.9516L48.2016 28.8296L51.3613 31.9892C51.6415 32.2708 51.7969 32.644 51.7969 33.0424C51.7969 33.8632 51.1288 34.5312 50.308 34.5312C49.9096 34.5312 49.5364 34.3759 49.2548 34.0956L46.0952 30.936L44.2173 32.814L47.3769 35.9736C47.6571 36.2552 47.8125 36.6284 47.8125 37.0268C47.8125 37.8476 47.1445 38.5156 46.3237 38.5156C45.9252 38.5156 45.552 38.3602 45.2705 38.08L44.8269 37.6364C45.0407 37.1317 45.1562 36.5859 45.1562 36.0201C45.1562 33.7835 43.3739 31.968 41.1573 31.8896C41.0802 29.7221 39.3404 27.9823 37.1729 27.9052C37.0959 25.7377 35.356 23.9979 33.1885 23.9209C33.1102 21.7042 31.2933 19.9219 29.058 19.9219C28.1642 19.9219 27.3222 20.2141 26.617 20.7334C24.8718 18.882 23.9062 16.4807 23.9062 13.9254C23.9062 8.44422 28.3661 3.98438 33.8473 3.98438ZM26.5625 25.0737C26.5625 24.6752 26.7179 24.302 26.9981 24.0205L28.0048 23.0137C28.2864 22.7335 28.6596 22.5781 29.058 22.5781C29.8788 22.5781 30.5469 23.2462 30.5469 24.067C30.5469 24.4654 30.3915 24.8386 30.1113 25.1202L29.1045 26.1269C28.823 26.4071 28.4498 26.5625 28.0513 26.5625C27.2305 26.5625 26.5625 25.8945 26.5625 25.0737ZM30.5469 29.058C30.5469 28.6596 30.7023 28.2864 30.9825 28.0048L31.9892 26.9981C32.2708 26.7179 32.644 26.5625 33.0424 26.5625C33.8632 26.5625 34.5312 27.2305 34.5312 28.0513C34.5312 28.4498 34.3759 28.823 34.0956 29.1045L33.0889 30.1113C32.8073 30.3915 32.4341 30.5469 32.0357 30.5469C31.2149 30.5469 30.5469 29.8788 30.5469 29.058ZM34.5312 33.0424C34.5312 32.644 34.6866 32.2708 34.9669 31.9892L35.9736 30.9825C36.2552 30.7023 36.6284 30.5469 37.0268 30.5469C37.8476 30.5469 38.5156 31.2149 38.5156 32.0357C38.5156 32.4341 38.3602 32.8073 38.08 33.0889L37.0733 34.0956C36.7917 34.3759 36.4185 34.5312 36.0201 34.5312C35.1993 34.5312 34.5312 33.8632 34.5312 33.0424ZM40.0045 38.5156C39.1837 38.5156 38.5156 37.8476 38.5156 37.0268C38.5156 36.6284 38.671 36.2552 38.9512 35.9736L39.958 34.9669C40.2395 34.6866 40.6127 34.5312 41.0112 34.5312C41.832 34.5312 42.5 35.1993 42.5 36.0201C42.5 36.4185 42.3446 36.7917 42.0644 37.0733L41.0577 38.08C40.7761 38.3602 40.4029 38.5156 40.0045 38.5156ZM22.5781 78.3594V81.0156H19.9219V75.7031H17.2656V81.0156H9.29688V75.7031H6.64062V81.0156H3.98438V78.3594C3.98438 73.2328 8.15469 69.0625 13.2812 69.0625C18.4078 69.0625 22.5781 73.2328 22.5781 78.3594ZM18.5938 61.0938C18.5938 64.0236 16.2111 66.4062 13.2812 66.4062C10.3514 66.4062 7.96875 64.0236 7.96875 61.0938C7.96875 58.1639 10.3514 55.7812 13.2812 55.7812C16.2111 55.7812 18.5938 58.1639 18.5938 61.0938ZM51.7969 78.3594V81.0156H49.1406V75.7031H46.4844V81.0156H38.5156V75.7031H35.8594V81.0156H33.2031V78.3594C33.2031 73.2328 37.3734 69.0625 42.5 69.0625C47.6266 69.0625 51.7969 73.2328 51.7969 78.3594ZM47.8125 61.0938C47.8125 64.0236 45.4298 66.4062 42.5 66.4062C39.5702 66.4062 37.1875 64.0236 37.1875 61.0938C37.1875 58.1639 39.5702 55.7812 42.5 55.7812C45.4298 55.7812 47.8125 58.1639 47.8125 61.0938ZM66.4062 61.0938C66.4062 58.1639 68.7889 55.7812 71.7188 55.7812C74.6486 55.7812 77.0312 58.1639 77.0312 61.0938C77.0312 64.0236 74.6486 66.4062 71.7188 66.4062C68.7889 66.4062 66.4062 64.0236 66.4062 61.0938ZM81.0156 81.0156H78.3594V75.7031H75.7031V81.0156H67.7344V75.7031H65.0781V81.0156H62.4219V78.3594C62.4219 73.2328 66.5922 69.0625 71.7188 69.0625C76.8453 69.0625 81.0156 73.2328 81.0156 78.3594V81.0156Z" fill="#513CDC"/>
<path d="M50.4688 50.4688H53.125V53.125H50.4688V50.4688Z" fill="#513CDC"/>
<path d="M55.7812 50.4688H58.4375V53.125H55.7812V50.4688Z" fill="#513CDC"/>
<path d="M61.0938 50.4688H63.75V53.125H61.0938V50.4688Z" fill="#513CDC"/>
<path d="M21.25 50.4688H23.9062V53.125H21.25V50.4688Z" fill="#513CDC"/>
<path d="M26.5625 50.4688H29.2188V53.125H26.5625V50.4688Z" fill="#513CDC"/>
<path d="M31.875 50.4688H34.5312V53.125H31.875V50.4688Z" fill="#513CDC"/>
</svg>
