<svg width="84" height="84" viewBox="0 0 84 84" fill="none" xmlns="http://www.w3.org/2000/svg">
<g clip-path="url(#clip0)">
<path d="M64.751 0H5.25098C2.3515 0 0.000976562 2.35052 0.000976562 5.25V47.25C0.000976562 50.1495 2.3515 52.5 5.25098 52.5H28.001V49.0001H5.25098C4.28448 49.0001 3.50092 48.2165 3.50092 47.25V5.25C3.50092 4.28351 4.28448 3.49995 5.25098 3.49995H64.751C65.7175 3.49995 66.5011 4.28351 66.5011 5.25V36.75H70.001V5.25C70.001 2.35052 67.6505 0 64.751 0Z" fill="#513CDC"/>
<path d="M24.5002 50.75H21.0002V61.25H24.5002V50.75Z" fill="#513CDC"/>
<path d="M12.2502 42C11.2838 42 10.5002 41.2164 10.5002 40.2499V36.75H7.00024V40.2499C7.00024 43.1494 9.35077 45.4999 12.2502 45.4999H15.7502V42H12.2502Z" fill="#513CDC"/>
<path d="M10.5002 29.75H7.00024V33.25H10.5002V29.75Z" fill="#513CDC"/>
<path d="M63.9573 37.0683C60.3913 33.5016 55.5542 31.4979 50.5106 31.498C40.0096 31.4985 31.4972 40.0116 31.4976 50.5126C31.4981 61.0136 40.0111 69.5259 50.5121 69.5256C55.5541 69.5254 60.3893 67.5227 63.9549 63.9578C71.3808 56.5332 71.382 44.4944 63.9573 37.0683ZM50.5016 66.0273C41.9336 66.0244 34.9901 59.0763 34.9931 50.5083C34.996 41.9403 41.9441 34.9968 50.5121 34.9998C54.6302 34.9886 58.5813 36.6273 61.4828 39.5497C64.3896 42.4599 66.0219 46.4054 66.0206 50.5188C66.0176 59.0868 59.0696 66.0303 50.5016 66.0273Z" fill="#513CDC"/>
<path d="M83.4874 76.125L72.5026 65.1438C72.1744 64.8157 71.7293 64.6311 71.2654 64.6311C70.8012 64.6313 70.3563 64.8157 70.0282 65.1438L65.1457 70.0263C64.4625 70.7096 64.4625 71.8174 65.1457 72.5009L76.1305 83.4873C76.4586 83.8156 76.9037 84 77.3677 84C77.8325 83.9985 78.2777 83.8121 78.6049 83.482L83.4874 78.5996C84.1705 77.9161 84.1705 76.8083 83.4874 76.125ZM77.3675 79.7755L68.8573 71.2635L71.2652 68.8556L79.7755 77.3676L77.3675 79.7755Z" fill="#513CDC"/>
<path d="M63.9572 61.4812L61.4824 63.9561L67.5854 70.059L70.0602 67.5842L63.9572 61.4812Z" fill="#513CDC"/>
<path d="M50.7502 38.5V41.9999C55.5804 42.0057 59.4944 45.9199 59.5002 50.7499H63.0001C62.9926 43.9877 57.5126 38.5077 50.7502 38.5Z" fill="#513CDC"/>
<path d="M31.5002 59.5H17.5002V62.9999H31.5002V59.5Z" fill="#513CDC"/>
<path d="M26.2502 7C23.3508 7 21.0002 9.35052 21.0002 12.25C21.0002 15.1495 23.3508 17.5 26.2502 17.5C29.1497 17.5 31.5002 15.1495 31.5002 12.25C31.5002 9.35052 29.1497 7 26.2502 7ZM26.2502 13.9999C25.2838 13.9999 24.5002 13.2163 24.5002 12.2498C24.5002 11.2833 25.2838 10.4998 26.2502 10.4998C27.2167 10.4998 28.0003 11.2833 28.0003 12.2498C28.0003 13.2165 27.2167 13.9999 26.2502 13.9999Z" fill="#513CDC"/>
<path d="M38.5002 19.25C35.6008 19.25 33.2502 21.6005 33.2502 24.5C33.2502 27.3995 35.6008 29.75 38.5002 29.75C41.3997 29.75 43.7502 27.3995 43.7502 24.5C43.7502 21.6005 41.3997 19.25 38.5002 19.25ZM38.5002 26.2501C37.5338 26.2501 36.7502 25.4665 36.7502 24.5C36.7502 23.5335 37.5338 22.7499 38.5002 22.7499C39.4667 22.7499 40.2503 23.5335 40.2503 24.5C40.2501 25.4665 39.4667 26.2501 38.5002 26.2501Z" fill="#513CDC"/>
<path d="M23.2625 12.7631L14.5127 21.5129L16.9875 23.9878L25.7373 15.2379L23.2625 12.7631Z" fill="#513CDC"/>
<path d="M29.2299 12.7676L26.7551 15.2424L35.505 23.9923L37.9798 21.5175L29.2299 12.7676Z" fill="#513CDC"/>
<path d="M50.7502 7C47.8508 7 45.5002 9.35052 45.5002 12.25C45.5002 15.1495 47.8508 17.5 50.7502 17.5C53.6497 17.5 56.0002 15.1495 56.0002 12.25C56.0004 9.35052 53.6499 7 50.7502 7ZM50.7502 13.9999C49.7838 13.9999 49.0002 13.2163 49.0002 12.2498C49.0002 11.2833 49.7838 10.4998 50.7502 10.4998C51.7167 10.4998 52.5003 11.2833 52.5003 12.2498C52.5003 13.2165 51.7167 13.9999 50.7502 13.9999Z" fill="#513CDC"/>
<path d="M47.7616 12.7692L39.0117 21.519L41.4865 23.9939L50.2364 15.244L47.7616 12.7692Z" fill="#513CDC"/>
</g>
<defs>
<clipPath id="clip0">
<rect width="84" height="84" fill="white"/>
</clipPath>
</defs>
</svg>
