<svg width="84" height="84" viewBox="0 0 84 84" fill="none" xmlns="http://www.w3.org/2000/svg">
<path d="M20.6664 54.8499C17.41 54.8499 14.7617 57.4988 14.7617 60.7545C14.7617 64.0102 17.41 66.6592 20.6664 66.6592C23.9228 66.6592 26.571 64.0102 26.571 60.7545C26.571 57.4988 23.9232 54.8499 20.6664 54.8499ZM20.6664 63.7068C19.0389 63.7068 17.714 62.3827 17.714 60.7545C17.714 59.1263 19.0389 57.8022 20.6664 57.8022C22.2938 57.8022 23.6187 59.1263 23.6187 60.7545C23.6187 62.3827 22.2938 63.7068 20.6664 63.7068Z" fill="#513CDC"/>
<path d="M36.9085 56.3261H36.293C35.9498 55.1093 35.4656 53.9424 34.8456 52.8368L35.2825 52.4006C37.0082 50.6757 37.0067 47.8676 35.2796 46.1413C34.4404 45.3021 33.3292 44.8404 32.1486 44.8404C32.1472 44.8404 32.1457 44.8404 32.1457 44.8404C30.9651 44.8411 29.855 45.3024 29.0203 46.1379L28.5833 46.5749C27.4792 45.9556 26.3115 45.4715 25.0948 45.1282V44.5127C25.0948 42.073 23.1082 40.0886 20.6663 40.0886C18.2243 40.0886 16.2378 42.073 16.2378 44.5127V45.1282C15.0211 45.4715 13.8534 45.9556 12.7493 46.5749L12.3123 46.1387C10.5867 44.4138 7.77865 44.4153 6.05301 46.1416C5.21381 46.9812 4.7514 48.095 4.75251 49.2755C4.75251 50.4554 5.21381 51.5654 6.05006 52.4002L6.48553 52.8371C5.86701 53.9428 5.38283 55.1104 5.03962 56.3264H4.42406C1.98507 56.3264 0 58.313 0 60.7549C0 63.1969 1.98507 65.1834 4.42406 65.1834H5.03962C5.38283 66.3994 5.86701 67.567 6.48553 68.6727L6.05006 69.1089C4.32442 70.8338 4.3259 73.6418 6.05301 75.3682C6.89221 76.2074 8.00339 76.6691 9.18395 76.6691C9.18543 76.6691 9.18543 76.6691 9.18691 76.6691C10.366 76.6683 11.4761 76.2078 12.3123 75.3715L12.7493 74.9346C13.8534 75.5538 15.0211 76.038 16.2378 76.3812V76.9968C16.2378 79.4365 18.2243 81.4208 20.6663 81.4208C23.1082 81.4208 25.0948 79.4365 25.0948 76.9968V76.3812C26.3115 76.038 27.4792 75.5538 28.5833 74.9346L29.0203 75.3708C30.7459 77.0964 33.5539 77.0935 35.2796 75.3678C36.1188 74.5283 36.5812 73.4145 36.5801 72.2339C36.5801 71.0541 36.1188 69.944 35.2825 69.1085L34.8456 68.6723C35.4656 67.5667 35.9498 66.3998 36.293 65.183H36.9085C39.3475 65.183 41.3326 63.1965 41.3326 60.7546C41.3326 58.3126 39.3475 56.3261 36.9085 56.3261ZM36.9085 62.2307H35.1323C34.4304 62.2307 33.8248 62.7252 33.685 63.4135C33.3476 65.083 32.6959 66.6526 31.7504 68.0796C31.3626 68.6649 31.4419 69.4421 31.9379 69.9385L33.1949 71.1962C33.4746 71.4744 33.6274 71.8435 33.6274 72.2347C33.6289 72.6266 33.4731 72.9978 33.1919 73.2798C32.6169 73.8544 31.6825 73.8577 31.1076 73.282L29.8506 72.0258C29.3531 71.5298 28.5748 71.4527 27.9925 71.8398C26.5654 72.7838 24.9955 73.4348 23.3263 73.7736C22.637 73.9123 22.1425 74.5179 22.1425 75.2202V76.996C22.1425 77.8212 21.4937 78.4678 20.6663 78.4678C19.8518 78.4678 19.1901 77.8076 19.1901 76.996V75.2202C19.1901 74.5183 18.6956 73.9127 18.0066 73.7736C16.3371 73.4348 14.7675 72.7838 13.3405 71.8398C13.0925 71.6748 12.8083 71.594 12.526 71.594C12.1455 71.594 11.7676 71.7409 11.4823 72.0258L10.2254 73.2828C9.94565 73.5617 9.57661 73.716 9.18617 73.716C9.18469 73.716 9.18469 73.716 9.18469 73.716C8.79277 73.716 8.42225 73.5617 8.14104 73.2798C7.56608 72.7048 7.5646 71.7689 8.13809 71.1947L9.39357 69.9378C9.88956 69.4418 9.96743 68.6649 9.58104 68.0804C8.63703 66.6526 7.98531 65.0819 7.64801 63.4135C7.50814 62.7252 6.90254 62.2307 6.20063 62.2307H4.42443C3.61291 62.2307 2.9527 61.5683 2.9527 60.7546C2.9527 59.9408 3.61291 59.2784 4.42443 59.2784H6.20026C6.90217 59.2784 7.50777 58.7839 7.64764 58.0956C7.98494 56.4268 8.63667 54.8565 9.58067 53.4287C9.96706 52.8442 9.88919 52.067 9.3932 51.5713L8.13772 50.3129C7.85799 50.0346 7.70521 49.6656 7.70521 49.2744C7.70373 48.8825 7.85947 48.5112 8.14067 48.2293C8.71453 47.6543 9.64858 47.6506 10.225 48.2271L11.482 49.4833C11.9794 49.98 12.7577 50.0579 13.3401 49.6693C14.7672 48.7253 16.3371 48.0743 18.0062 47.7355C18.6952 47.5964 19.1898 46.9908 19.1898 46.2889V44.5131C19.1898 43.6879 19.8385 43.0413 20.6659 43.0413C21.4804 43.0413 22.1421 43.7015 22.1421 44.5131V46.2889C22.1421 46.9908 22.6366 47.5964 23.3256 47.7355C24.9951 48.0743 26.5647 48.7253 27.9918 49.6693C28.5741 50.0579 29.3528 49.98 29.8499 49.4833L31.1083 48.2256C31.3866 47.9466 31.7556 47.7931 32.1461 47.7931C32.1461 47.7931 32.1461 47.7931 32.1475 47.7931C32.5394 47.7931 32.91 47.9474 33.1912 48.2293C33.7661 48.8043 33.7676 49.7402 33.1941 50.3136L31.9372 51.5706C31.4412 52.0673 31.3622 52.8442 31.7497 53.4295C32.6952 54.8565 33.3469 56.4264 33.6842 58.0956C33.8241 58.7839 34.4297 59.2784 35.1316 59.2784H36.9074C37.7189 59.2784 38.3792 59.9408 38.3792 60.7546C38.3792 61.5683 37.72 62.2307 36.9085 62.2307Z" fill="#513CDC"/>
<path d="M66.0007 39.0446C64.5994 38.2013 62.9502 37.9526 61.3574 38.3504C59.7676 38.7468 58.4265 39.7387 57.5836 41.1433C56.7389 42.5483 56.4924 44.1971 56.8887 45.7873C57.5851 48.5732 60.092 50.4387 62.8424 50.4387C63.3311 50.4387 63.83 50.3797 64.326 50.2557C67.6082 49.4368 69.6121 46.101 68.7947 42.8188C68.3965 41.2286 67.4049 39.8886 66.0007 39.0446ZM65.5697 45.9423C65.1312 46.6704 64.4367 47.1849 63.6108 47.3912C61.911 47.8163 60.1798 46.7756 59.7547 45.0725C59.5488 44.2481 59.6768 43.393 60.1138 42.6645C60.5522 41.9356 61.2467 41.4212 62.0726 41.2149C62.3291 41.1507 62.59 41.119 62.8483 41.119C63.4178 41.119 63.9784 41.2732 64.4802 41.5744C65.2095 42.0128 65.7243 42.708 65.9291 43.5332C66.1347 44.358 66.0077 45.2135 65.5697 45.9423Z" fill="#513CDC"/>
<path d="M80.5302 44.6156C82.9795 44.0038 84.4745 41.5127 83.863 39.0619C83.2518 36.61 80.7593 35.115 78.3115 35.7239L77.628 35.8948C76.9549 34.7083 76.1445 33.6141 75.2049 32.6225L75.5695 32.0166C76.198 30.9692 76.381 29.7381 76.0854 28.5509C75.7884 27.3637 75.0477 26.3632 73.9996 25.734C72.9456 25.0996 71.7175 24.9129 70.5269 25.2114C69.3434 25.507 68.3444 26.2477 67.713 27.2965L67.3499 27.9025C66.0339 27.5394 64.6872 27.3375 63.3251 27.2998L63.1535 26.6138C62.5424 24.1667 60.0558 22.6676 57.6006 23.2825C55.1498 23.8936 53.6507 26.3832 54.2618 28.8325L54.432 29.5174C53.247 30.1898 52.1528 31.0002 51.1612 31.9391L50.5556 31.5756C49.5075 30.9456 48.2778 30.7596 47.0888 31.0589C45.9023 31.3552 44.9004 32.0959 44.2704 33.1447C43.6375 34.1987 43.453 35.4317 43.7501 36.6174C44.0457 37.8009 44.7863 38.7999 45.8359 39.4306L46.4415 39.7937C46.0769 41.109 45.875 42.4564 45.8389 43.8192L45.1528 43.9908C43.9678 44.2864 42.9673 45.0267 42.3374 46.0759C41.7074 47.1247 41.5244 48.3566 41.82 49.5434C42.4311 51.9946 44.9251 53.4925 47.3715 52.8821L48.0564 52.7113C48.7281 53.897 49.5385 54.9912 50.4781 55.9828L50.1135 56.5888C49.485 57.6361 49.3019 58.8672 49.5975 60.0545C49.8946 61.2417 50.6353 62.2421 51.6834 62.8713C52.7373 63.505 53.967 63.691 55.156 63.3939C56.3395 63.0983 57.3385 62.3576 57.97 61.3074L58.3331 60.7025C59.6491 61.0656 60.9957 61.2675 62.3593 61.3051L62.5295 61.9901C62.8251 63.1765 63.5657 64.1763 64.6153 64.8062C65.336 65.2395 66.1446 65.4613 66.965 65.4613C67.337 65.4613 67.7119 65.4151 68.082 65.3229C69.274 65.0258 70.2775 64.2851 70.9059 63.2371C71.5344 62.1905 71.716 60.9601 71.4204 59.7736L71.2488 59.0887C72.4353 58.4163 73.5295 57.6051 74.5211 56.6663L75.1278 57.0309C76.1744 57.6601 77.404 57.8409 78.5934 57.5461C79.7799 57.249 80.7804 56.5083 81.4088 55.461C82.0432 54.4078 82.2292 53.174 81.9322 51.9876C81.6366 50.8041 80.8959 49.8051 79.8463 49.1744L79.2407 48.8112C79.6053 47.496 79.8072 46.1494 79.8434 44.7858L80.5302 44.6156ZM78.0015 42.2028C77.321 42.3722 76.8527 42.9985 76.8844 43.7C76.9638 45.5035 76.6984 47.2816 76.0932 48.9847C75.8581 49.6464 76.122 50.3823 76.7246 50.7443L78.3277 51.7067C78.7012 51.9311 78.9647 52.2854 79.0688 52.7043C79.1739 53.1246 79.1079 53.5634 78.8798 53.9413C78.6562 54.314 78.3004 54.5779 77.8779 54.6831C77.4542 54.7897 77.0202 54.7248 76.6482 54.5008L75.0451 53.5379C74.4454 53.1781 73.6726 53.2892 73.197 53.8066C71.9747 55.1414 70.5288 56.2113 68.9024 56.9859C68.268 57.2878 67.9352 57.9941 68.1038 58.6753L68.5563 60.4888C68.6614 60.9117 68.5965 61.3479 68.3747 61.7185C68.1511 62.0897 67.7938 62.3528 67.3672 62.4595C66.9476 62.5661 66.5081 62.4997 66.1346 62.2757C65.7626 62.0521 65.4988 61.6978 65.3936 61.2767L64.9422 59.464C64.7765 58.8045 64.1839 58.3454 63.5093 58.3454C63.4879 58.3454 63.4661 58.3462 63.4443 58.3469C61.6438 58.4292 59.8635 58.1594 58.1582 57.5557C57.4994 57.3213 56.7613 57.5845 56.3993 58.1878L55.4376 59.7895C55.214 60.163 54.8597 60.4264 54.4401 60.5312C54.022 60.6379 53.5824 60.5696 53.2031 60.3423C52.8296 60.1179 52.5672 59.7629 52.4606 59.3404C52.3554 58.9189 52.4203 58.482 52.6436 58.1107L53.6064 56.5083C53.9681 55.9064 53.8559 55.1337 53.3385 54.6594C52.0037 53.4372 50.9338 51.992 50.157 50.3634C49.8559 49.7298 49.1565 49.3977 48.4675 49.5663L46.657 50.0188C45.7647 50.2394 44.9041 49.7154 44.6849 48.8293C44.5782 48.4071 44.6446 47.9687 44.8679 47.596C45.0912 47.2233 45.4458 46.9609 45.8669 46.8557L47.6804 46.4033C48.3609 46.2331 48.8292 45.6069 48.7975 44.9061C48.7181 43.1026 48.9834 41.3253 49.5887 39.6229C49.8238 38.9604 49.5599 38.2246 48.9572 37.8625L47.3541 36.8997C46.9807 36.6753 46.7172 36.3211 46.6116 35.9015C46.5064 35.4811 46.574 35.0423 46.8006 34.6659C47.0242 34.2924 47.38 34.0289 47.804 33.9234C48.2262 33.8175 48.6631 33.8843 49.0336 34.1064L50.6368 35.0689C51.2394 35.4313 52.0107 35.3184 52.4849 34.8002C53.7072 33.4654 55.1531 32.3956 56.7794 31.6209C57.4138 31.3191 57.7482 30.612 57.5766 29.9307L57.1252 28.1188C56.9075 27.2493 57.4422 26.3651 58.3146 26.1473C59.1852 25.9281 60.072 26.461 60.2883 27.3294L60.7396 29.1421C60.9097 29.8234 61.5456 30.2765 62.2372 30.2599C64.0433 30.1784 65.8195 30.4474 67.5218 31.0512C68.1821 31.287 68.9172 31.0224 69.2807 30.4205L70.2435 28.8173C70.4672 28.4439 70.8214 28.1804 71.241 28.0756C71.6621 27.9711 72.1016 28.0379 72.4781 28.2645C72.8515 28.4889 73.1139 28.8439 73.2206 29.2665C73.3258 29.6879 73.2608 30.1249 73.0375 30.4961L72.0747 32.0985C71.713 32.7004 71.8252 33.4732 72.3426 33.9474C73.6774 35.1696 74.7473 36.6148 75.5241 38.2434C75.8267 38.8778 76.5301 39.2099 77.2136 39.0405L79.0256 38.5884C79.9105 38.3714 80.7756 38.8888 80.9963 39.7771C81.214 40.6484 80.6833 41.5345 79.8142 41.7515L78.0015 42.2028Z" fill="#513CDC"/>
<path d="M30.4141 15.8994C28.0818 14.2055 24.8091 14.7259 23.1182 17.0549C22.2978 18.1834 21.9664 19.5647 22.1841 20.942C22.4019 22.32 23.1444 23.5312 24.2729 24.3512C25.1985 25.0229 26.2709 25.3465 27.3363 25.3465C28.9523 25.3465 30.5481 24.5996 31.5688 23.195L31.5703 23.1943C33.2613 20.8641 32.7439 17.5918 30.4141 15.8994ZM29.1819 21.4594C28.4467 22.4713 27.0237 22.699 26.0089 21.9624C25.5173 21.6055 25.1944 21.0796 25.1007 20.4803C25.0054 19.8814 25.1497 19.2809 25.5059 18.7901C25.9498 18.179 26.6432 17.8546 27.3466 17.8546C27.8094 17.8546 28.2766 17.9959 28.6785 18.2879C29.6904 19.0234 29.917 20.446 29.1819 21.4594Z" fill="#513CDC"/>
<path d="M42.3866 27.5762C42.2209 26.5318 41.6574 25.6121 40.7979 24.9877L40.5152 24.7822C40.8396 23.8647 41.0658 22.9196 41.1928 21.9553L41.5389 21.9007C42.587 21.7342 43.5067 21.17 44.1311 20.3112C44.754 19.4521 45.0061 18.4018 44.8389 17.3537C44.4957 15.1886 42.4475 13.7058 40.2967 14.0497L39.9506 14.1043C39.531 13.2249 39.0236 12.396 38.4312 11.6247L38.6361 11.3428C39.2605 10.4859 39.5125 9.43632 39.3454 8.38825C39.1797 7.33869 38.6147 6.41757 37.7555 5.79426C36.892 5.16652 35.8384 4.91004 34.7973 5.08053C33.7507 5.24623 32.831 5.81123 32.2081 6.66999L32.0022 6.95342C31.0855 6.62829 30.1396 6.40207 29.1738 6.27586L29.1192 5.92785C28.776 3.76601 26.7278 2.28505 24.5741 2.62863C23.5216 2.7958 22.599 3.36006 21.9764 4.21845C21.3535 5.07463 21.1029 6.12418 21.2701 7.17152L21.3247 7.51842C20.4453 7.93728 19.6164 8.44471 18.8451 9.03702L18.561 8.8311C16.7918 7.54462 14.3022 7.94023 13.0135 9.71163C12.3865 10.5737 12.133 11.6255 12.2998 12.6735C12.4655 13.7187 13.0305 14.6383 13.8885 15.262L14.1727 15.4679C13.8483 16.3839 13.6206 17.3283 13.4951 18.294L13.1475 18.3487C10.9864 18.6911 9.50618 20.7308 9.84754 22.896C10.1908 25.0604 12.2375 26.5425 14.3897 26.2L14.7373 26.1447C15.1555 27.0233 15.6629 27.8522 16.2552 28.6235L16.0493 28.9077C14.7635 30.6787 15.1599 33.1675 16.9317 34.4555C18.706 35.7434 21.193 35.35 22.4802 33.5797L22.6861 33.2956C23.6028 33.6207 24.5487 33.8476 25.513 33.9739L25.5691 34.3193C25.7333 35.3674 26.2983 36.2877 27.1578 36.9118C27.8427 37.4093 28.6513 37.6702 29.4831 37.6702C29.692 37.6702 29.9042 37.6536 30.1145 37.6203C32.2782 37.2779 33.7603 35.2404 33.4186 33.0775L33.3639 32.7306C34.2434 32.3117 35.0722 31.8043 35.8435 31.2127L36.1262 31.4175C36.9824 32.0404 38.0305 32.2903 39.08 32.1268C40.1296 31.9604 41.0507 31.3961 41.6733 30.5373C42.2999 29.6756 42.5538 28.6239 42.3866 27.5762ZM37.847 26.4934L39.0623 27.3758C39.283 27.5374 39.4284 27.7729 39.4716 28.0397C39.5133 28.3076 39.4472 28.5781 39.2841 28.8021C39.1239 29.0235 38.8877 29.1682 38.6169 29.2114C38.3501 29.2498 38.0792 29.1885 37.8614 29.0298L36.6462 28.1471C36.0812 27.7356 35.2999 27.778 34.7807 28.2537C33.74 29.2081 32.5377 29.9439 31.2084 30.4414C30.5511 30.6872 30.1588 31.3618 30.2684 32.0545L30.5035 33.5388C30.5913 34.103 30.2179 34.6156 29.6529 34.7049C29.3776 34.7488 29.1107 34.6828 28.8919 34.5234C28.6712 34.3632 28.5273 34.1277 28.4837 33.858L28.2472 32.373C28.1376 31.6803 27.5552 31.1607 26.8544 31.1304C25.4373 31.0684 24.0678 30.7399 22.7821 30.1539C22.5846 30.0639 22.3754 30.0207 22.1695 30.0207C21.7096 30.0207 21.2598 30.2369 20.976 30.6289L20.0925 31.8449C19.7567 32.3069 19.1322 32.4051 18.6669 32.0678C18.2115 31.7371 18.1089 31.0975 18.4377 30.6436L19.3212 29.4284C19.7349 28.8604 19.6902 28.0806 19.216 27.5629C18.2587 26.5192 17.5221 25.3176 17.0276 23.992C16.7826 23.3333 16.1035 22.9432 15.4145 23.0491L13.9284 23.285C13.359 23.3794 12.8515 23.0001 12.7637 22.4358C12.6759 21.8785 13.0549 21.3538 13.6084 21.2659L15.0946 21.0309C15.788 20.9212 16.3083 20.3382 16.3386 19.6362C16.3991 18.2191 16.7279 16.8496 17.3143 15.5654C17.607 14.9269 17.4081 14.1707 16.8401 13.7578L15.6238 12.8736C15.4016 12.7127 15.2577 12.4772 15.2145 12.2104C15.1728 11.9425 15.2389 11.672 15.4005 11.4494C15.7319 10.9926 16.3751 10.8929 16.8246 11.2203L18.0414 12.1038C18.6093 12.5174 19.3891 12.4728 19.9069 11.9971C20.949 11.0413 22.1514 10.3054 23.4777 9.81016C24.135 9.56438 24.5302 8.88977 24.4191 8.19635L24.184 6.70948C24.1423 6.44082 24.2055 6.17179 24.3641 5.95331C24.5243 5.73337 24.762 5.5887 25.0343 5.54516C25.5908 5.45142 26.1141 5.8378 26.2034 6.39063L26.4385 7.87602C26.5481 8.56945 27.1305 9.08979 27.8324 9.12005C29.248 9.18132 30.619 9.50939 31.9048 10.0958C32.5447 10.3884 33.2986 10.1895 33.7108 9.62084L34.5958 8.40412C34.756 8.18343 34.9907 8.03876 35.2575 7.99596C35.5298 7.9513 35.7967 8.01958 36.0199 8.18195C36.2406 8.34285 36.386 8.57978 36.4292 8.84992C36.4709 9.11784 36.4063 9.38613 36.2462 9.60682L35.3641 10.8232C34.9519 11.3911 34.9966 12.1709 35.4708 12.6879C36.4266 13.7294 37.1617 14.931 37.6592 16.2595C37.9057 16.9183 38.5918 17.3128 39.2723 17.2009L40.7573 16.9659C41.3223 16.8677 41.8342 17.2493 41.9235 17.8165C41.9652 18.0859 41.9006 18.3557 41.7404 18.5767C41.5803 18.7967 41.3456 18.9413 41.0773 18.9842L39.5922 19.2192C38.8988 19.3288 38.3785 19.9119 38.3482 20.6138C38.2877 22.0273 37.9589 23.3982 37.371 24.6869C37.0802 25.3257 37.2791 26.0812 37.847 26.4934Z" fill="#513CDC"/>
</svg>
