<svg width="1920" height="423" viewBox="0 0 1920 423" fill="none" xmlns="http://www.w3.org/2000/svg">
<g opacity="0.1">
<g style="mix-blend-mode:overlay" opacity="0.5">
<g style="mix-blend-mode:overlay" opacity="0.5">
<path d="M897.827 231.996C915.111 237.533 932.414 243.604 949.737 250.208C935.321 246.056 920.845 242.318 906.37 239.293C905.519 238.066 904.588 236.896 903.582 235.793C883.253 229.07 862.904 222.564 842.536 216.276C841.62 215.225 840.562 214.306 839.392 213.547C859.721 219.756 880.03 226.262 900.319 233.064C899.561 232.558 898.716 232.196 897.827 231.996Z" fill="#5E5E5E"/>
</g>
<g style="mix-blend-mode:overlay" opacity="0.5">
<path d="M1310.32 406.875C1325.58 414.785 1340.85 422.873 1356.11 431.138C1345.59 436.991 1335.05 442.923 1324.49 448.935L1320.04 435.053C1303.43 432.72 1286.76 429.892 1270.03 426.57C1268.21 420.994 1266.41 415.616 1264.64 410.435C1281.33 413.757 1297.98 416.604 1314.59 418.977C1313.16 415.062 1311.74 410.731 1310.32 406.875Z" fill="#5E5E5E"/>
</g>
<g style="mix-blend-mode:overlay" opacity="0.5">
<path d="M1389.45 191.064C1416.47 204.547 1444.52 215.854 1473.34 224.878C1457.55 252.096 1440.12 278.326 1421.13 303.419C1418.05 293.572 1415.2 283.369 1412 272.809C1383.39 282.152 1354.06 289.135 1324.32 293.691C1320.36 279.888 1316.41 265.513 1312.45 250.564C1342.18 246.059 1371.49 239.115 1400.07 229.801C1396.48 217.225 1392.94 204.313 1389.45 191.064Z" fill="#5E5E5E"/>
</g>
<g style="mix-blend-mode:overlay" opacity="0.5">
<path d="M1725.29 256.911C1784.09 208.03 1841.93 156.064 1902.38 107.42C1855.66 139.541 1810.87 174.383 1768.25 211.767C1765.87 210.78 1763.29 210.373 1760.72 210.579C1758.15 210.785 1755.67 211.599 1753.47 212.953C1687.21 256.614 1619.16 293.512 1548.57 317.063C1542.36 321.812 1537.5 328.086 1534.45 335.275C1604.39 311.961 1671.66 275.419 1737.28 232.233C1732.85 240.242 1728.85 248.48 1725.29 256.911Z" fill="#5E5E5E"/>
</g>
<g style="mix-blend-mode:overlay" opacity="0.5">
<path d="M269.989 385.045C331.665 395.212 391.238 415.497 446.303 445.079C403.875 515.506 366.868 589.059 335.603 665.102C327.93 631.408 320.435 598.702 313.118 566.984C250.979 602.78 191.357 642.777 134.668 686.695C125.967 648.453 117.681 612.267 109.811 578.137C166.333 534.199 225.797 494.182 287.786 458.367C281.577 432.265 275.645 407.825 269.989 385.045Z" fill="#5E5E5E"/>
</g>
<g style="mix-blend-mode:overlay" opacity="0.5">
<path d="M700.037 208.92C757.701 250.445 815.187 289.538 873.089 323.589C827.255 322.407 781.605 317.307 736.641 308.343C733.11 303.847 730.234 298.874 728.098 293.572C666.136 276.571 602.453 266.621 538.258 263.911C534.105 253.886 529.952 241.31 525.325 226.301C589.285 229.021 652.732 238.971 714.453 255.962C709.351 241.962 704.665 226.242 700.037 208.92Z" fill="#5E5E5E"/>
</g>
<g style="mix-blend-mode:overlay" opacity="0.5">
<path d="M984.027 74.6748C1053.02 145.861 1121.54 209.097 1191.37 259.699C1153.17 297.713 1106.36 325.957 1054.92 342.037C1048.83 323.094 1042.58 302.133 1036.17 279.156C962.255 259.105 888.513 232.351 813.704 207.436C805.102 175.699 796.263 140.996 787.067 103.564C861.698 128.657 935.38 155.589 1008.94 175.759C1000.76 143.488 992.451 109.793 984.027 74.6748Z" fill="#5E5E5E"/>
</g>
<g style="mix-blend-mode:overlay" opacity="0.5">
<path d="M1045.84 390.8C1109.5 422.003 1174.22 442.944 1237.35 449.528C1185.32 443.596 1131.51 423.367 1077.17 396.495C1075.69 401.612 1073.19 406.375 1069.81 410.495C994.112 388.486 918.65 360.961 842.121 336.521C841.576 337.316 840.846 337.967 839.993 338.416C839.14 338.866 838.191 339.1 837.227 339.1C836.263 339.1 835.313 338.866 834.46 338.416C833.607 337.967 832.877 337.316 832.332 336.521C908.209 360.724 983.018 388.012 1058.06 409.842C1052.92 404.246 1048.79 397.804 1045.84 390.8Z" fill="#5E5E5E"/>
</g>
<g style="mix-blend-mode:overlay" opacity="0.5">
<path d="M698.732 240.836C738.618 239.398 778.555 240.329 818.331 243.624C781.998 223.543 744.338 205.963 705.614 191.005C704.548 195.111 703.696 199.269 703.063 203.463C654.91 193.034 605.897 187.076 556.648 185.667C555.995 191.895 555.58 198.599 555.224 205.539C604.137 206.989 652.812 212.947 700.63 223.336C700.037 228.971 699.266 234.903 698.732 240.836Z" fill="#5E5E5E"/>
</g>
<g style="mix-blend-mode:overlay" opacity="0.5">
<path d="M1703.46 344.233C1723.1 344.589 1742.8 345.063 1762.79 345.835C1750.21 365.411 1737.67 385.185 1725.18 405.156C1722.88 398.117 1720.63 391.295 1718.41 384.69C1697.77 395.131 1676.89 404.682 1655.88 413.105C1653.16 404.978 1650.49 397.207 1647.76 389.732C1668.82 381.309 1689.58 371.936 1710.23 361.377C1707.79 355.326 1705.66 349.809 1703.46 344.233Z" fill="#5E5E5E"/>
</g>
<g style="mix-blend-mode:overlay" opacity="0.5">
<path d="M1671.43 303.182C1687.27 297.25 1702.99 290.784 1718.59 283.488C1707.56 295.035 1696.3 305.931 1684.84 316.174C1683.45 315.427 1682.14 314.553 1680.92 313.564C1663.89 324.953 1646.75 335.987 1629.43 346.428C1627.61 344.909 1625.92 343.242 1624.38 341.445C1641.65 331.063 1658.73 320.03 1675.76 308.64C1674.21 306.907 1672.76 305.085 1671.43 303.182Z" fill="#5E5E5E"/>
</g>
<g style="mix-blend-mode:overlay" opacity="0.5">
<path d="M56.4184 106.947C69.9445 111.515 83.4706 116.142 97.0561 120.591C88.9088 139.415 80.6823 158.161 72.3768 176.828C70.775 170.065 69.2326 163.243 67.6901 156.302C53.9662 165.952 40.3215 175.839 26.7558 185.963L20.8232 159.209C34.3889 149.085 48.0337 139.198 61.7576 129.548C59.9185 122.074 58.1388 114.54 56.4184 106.947Z" fill="#5E5E5E"/>
</g>
<g style="mix-blend-mode:overlay" opacity="0.5">
<path d="M302.558 305.734C335.602 301.522 368.706 297.013 401.987 292.742C372.325 302.768 343.137 313.03 313.652 323.827C313.549 324.02 313.406 324.19 313.232 324.324C313.059 324.457 312.859 324.553 312.646 324.603C312.432 324.654 312.211 324.658 311.995 324.616C311.78 324.575 311.576 324.487 311.398 324.361C271.949 340.697 233.878 360.177 197.553 382.614C195.935 380.561 194.709 378.229 193.934 375.733C230.063 353.397 267.936 334.015 307.185 317.776C305.603 314.493 304.061 310.479 302.558 305.734Z" fill="#5E5E5E"/>
</g>
<g style="mix-blend-mode:overlay" opacity="0.5">
<path d="M1005.27 339.131C1022.51 340.674 1039.77 342.058 1057.06 343.284C1041.39 334.267 1025.67 325.072 1009.89 315.877C1009.42 318.191 1008.94 320.504 1008.47 322.818C987.349 315.877 966.229 308.699 945.05 301.521L943.448 310.598C964.568 317.776 985.628 324.894 1006.69 331.835L1005.27 339.131Z" fill="#5E5E5E"/>
</g>
<g style="mix-blend-mode:overlay" opacity="0.5">
<path d="M317.864 234.784C336.314 222.978 355.451 212.281 375.172 202.75C356.093 204.775 337.207 208.325 318.695 213.369C318.695 215.03 318.339 216.81 318.22 218.708C293.934 228.527 270.173 239.596 247.03 251.869C247.03 254.42 247.03 257.208 247.03 260.114C270.167 247.865 293.929 236.836 318.22 227.072C317.864 229.386 317.864 232.055 317.864 234.784Z" fill="#5E5E5E"/>
</g>
<g style="mix-blend-mode:overlay" opacity="0.5">
<path d="M90.2335 341.979C103.819 331.775 117.642 322.165 131.761 313.208C118.67 323.253 105.796 333.99 93.1405 345.419C92.8063 344.648 92.43 343.895 92.0133 343.165C74.9276 355.801 57.9606 368.673 40.9936 381.724C40.771 381.211 40.4483 380.747 40.0444 380.36C56.8928 367.368 73.8598 354.496 90.9454 341.919C90.6488 341.682 90.2335 341.979 90.2335 341.979Z" fill="#5E5E5E"/>
</g>
<g style="mix-blend-mode:overlay" opacity="0.5">
<path d="M403.115 271.505C414.109 266.443 425.184 261.598 436.337 256.971C425.342 256.299 414.347 255.864 403.352 255.666C403.352 257.386 403.352 259.047 403.352 260.708C389.391 264.07 375.548 268.025 361.824 272.573C361.824 274.649 361.824 276.666 361.824 278.505C375.509 274.155 389.351 270.2 403.352 266.64C403.411 268.361 403.411 269.962 403.115 271.505Z" fill="#5E5E5E"/>
</g>
<g style="mix-blend-mode:overlay" opacity="0.5">
<path d="M1248.91 358.944C1283.86 357.402 1318.74 354.792 1353.68 351.292C1324.73 347.436 1295.54 342.69 1266.12 337.885C1263.95 337.931 1261.86 338.704 1260.19 340.08C1217.43 333.568 1175.11 324.435 1133.47 312.733C1130.96 315.172 1128.94 318.072 1127.53 321.275C1168.96 332.896 1211.06 341.97 1253.6 348.444C1251.8 351.834 1250.24 355.342 1248.91 358.944Z" fill="#5E5E5E"/>
</g>
<g style="mix-blend-mode:overlay" opacity="0.5">
<path d="M107.319 382.673C121.637 379.588 135.894 376.187 150.093 372.47C138.584 385.817 127.015 398.987 115.328 411.859C114.676 409.487 113.905 406.995 113.193 404.385C96.9375 415.953 80.8011 428.114 64.7239 439.978C63.7747 436.478 62.7069 432.741 61.7577 428.766C77.7755 416.664 93.8922 404.8 110.108 393.173C109.198 389.851 108.269 386.351 107.319 382.673Z" fill="#5E5E5E"/>
</g>
<g style="mix-blend-mode:overlay" opacity="0.5">
<path d="M1531.36 407.113C1583.92 382.296 1633.43 351.481 1678.9 315.283C1640.73 331.721 1600.65 343.32 1559.6 349.808C1556.81 356.986 1554.14 364.224 1551.35 371.223C1495.43 393.971 1436.35 407.976 1376.17 412.749C1373.61 420.637 1370.58 428.363 1367.09 435.884C1426.77 431.017 1485.36 417.012 1540.79 394.359C1538.39 399.114 1535.2 403.427 1531.36 407.113Z" fill="#5E5E5E"/>
</g>
<g style="mix-blend-mode:overlay" opacity="0.5">
<path d="M171.45 388.486C215.469 351.588 259.844 315.164 306.415 282.656C258.551 290.076 211.656 302.769 166.585 320.503C167.06 327.622 167.712 335.037 168.306 342.571C110.641 380.24 55.5877 423.13 0 466.197C1.30515 475.273 2.55098 483.994 3.73749 492.595C58.6726 449.943 113.37 407.469 170.501 370.215C171.034 376.978 171.331 383.088 171.45 388.486Z" fill="#5E5E5E"/>
</g>
<g style="mix-blend-mode:overlay" opacity="0.5">
<path d="M1574.31 417.672C1609.31 443.003 1644.26 468.036 1679.38 492.299C1659.21 527.14 1638.76 561.27 1618.03 594.688C1613.49 575.586 1608.94 556.702 1604.39 538.036C1568.08 539.875 1531.68 538.843 1495.53 534.951C1489.91 511.737 1484.34 488.997 1478.8 466.731C1514.9 470.675 1551.27 471.746 1587.54 469.935C1583.11 452.138 1578.7 434.717 1574.31 417.672Z" fill="#5E5E5E"/>
</g>
<g style="mix-blend-mode:overlay" opacity="0.5">
<path d="M934.727 314.987C969.848 340.198 1004.79 367.546 1039.79 396.435C1014.74 405.751 990.415 416.894 967 429.774C963.401 416.011 959.861 402.723 956.381 389.91C918.235 377.452 880.089 365.647 841.883 355.385C837.731 339.843 833.657 325.091 829.662 311.131C867.808 321.393 905.895 333.258 943.982 345.715C940.857 334.919 937.773 324.676 934.727 314.987Z" fill="#5E5E5E"/>
</g>
<g style="mix-blend-mode:overlay" opacity="0.5">
<path d="M1534.62 327.564L1590.92 318.962L1549.87 346.309C1548.27 343.58 1546.61 341.089 1544.95 338.775C1524.16 344.573 1503.06 349.227 1481.77 352.716C1479.97 350.16 1477.99 347.741 1475.83 345.479C1497.07 341.982 1518.1 337.328 1538.84 331.538C1537.54 330.099 1536.14 328.77 1534.62 327.564Z" fill="#5E5E5E"/>
</g>
<g style="mix-blend-mode:overlay" opacity="0.5">
<path d="M630.33 259.344C694.757 293.928 759.065 341.089 823.374 396.198C774.981 430.3 731.831 471.289 695.291 517.867C687.697 485.477 680.242 454.314 672.925 424.376C605.428 420.177 537.692 426.684 472.228 443.656C463.686 407.746 455.518 374.249 447.727 343.165C512.997 326.252 580.542 319.824 647.831 324.123C641.74 300.71 635.906 279.117 630.33 259.344Z" fill="#5E5E5E"/>
</g>
<g style="mix-blend-mode:overlay" opacity="0.5">
<path d="M397.953 77.7017C446.896 107.362 495.721 137.972 544.783 168.048C509.9 190.828 474.601 213.37 439.006 235.497C435.684 224.424 432.203 212.203 428.565 198.836C376.605 205.392 325.787 219.024 277.523 239.353C272.737 220.884 267.655 200.655 262.276 178.667C310.364 158.389 361.005 144.796 412.784 138.269C408.038 119.167 403.095 98.9783 397.953 77.7017Z" fill="#5E5E5E"/>
</g>
<g style="mix-blend-mode:overlay" opacity="0.5">
<path d="M655.899 291.852C692.562 296.637 729.344 301.383 766.244 306.089C732.31 291.318 698.257 276.428 663.849 262.488C663.315 267.055 662.781 271.386 662.069 275.36C618.488 267.573 574.281 263.82 530.011 264.149C529.635 268.161 528.9 272.132 527.816 276.013C571.826 275.666 615.775 279.38 659.103 287.106C658.532 288.972 657.416 290.624 655.899 291.852Z" fill="#5E5E5E"/>
</g>
<g style="mix-blend-mode:overlay" opacity="0.5">
<path d="M428.565 174.395C480.592 161.779 534.71 160.384 587.319 170.302C538.647 176.672 492.369 195.219 452.769 224.225C449.151 212.361 445.769 202.099 442.506 193.556C378.95 206.966 317.639 229.399 260.437 260.174C258.558 253.522 255.91 247.112 252.547 241.073C309.259 210.527 370.051 188.253 433.074 174.929C431.709 173.15 429.573 172.972 428.565 174.395Z" fill="#5E5E5E"/>
</g>
<g style="mix-blend-mode:overlay" opacity="0.5">
<path d="M217.249 -279C282.863 -232.788 347.764 -180.17 413.556 -123.874C372.918 -65.3234 333.823 -3.51035 294.906 60.023C287.826 29.9668 280.529 -1.37469 273.015 -34.0015C207.757 -14.1288 145.881 18.2607 86.3778 57.1756C76.7671 14.6421 66.8598 -29.3151 56.7152 -74.3995C116.04 -113.433 178.095 -145.585 242.996 -165.695L217.249 -279Z" fill="#5E5E5E"/>
</g>
</g>
<path d="M1369.76 348.028C1394.17 347.63 1418.49 344.869 1442.37 339.782C1424.12 347.061 1405.09 352.236 1385.66 355.206C1384.23 355.708 1382.71 355.87 1381.21 355.681C1353.62 360.469 1325.73 363.343 1297.74 364.282C1295.57 363.9 1293.53 362.982 1291.81 361.613C1319.66 360.691 1347.41 357.837 1374.86 353.07C1372.98 351.581 1371.27 349.89 1369.76 348.028Z" fill="#2C2C2C"/>
<path d="M906.192 171.843C923.634 176.154 941.115 180.998 958.635 186.377C944.042 183.233 929.448 180.445 914.854 178.487C913.986 177.312 913.034 176.202 912.006 175.165C891.479 169.866 870.933 164.784 850.367 159.919C849.43 158.933 848.35 158.093 847.164 157.428C867.69 162.233 888.157 167.335 908.684 172.614C907.908 172.205 907.063 171.943 906.192 171.843Z" fill="#2C2C2C"/>
<path d="M1322.95 317.004C1338.38 323.925 1353.8 330.905 1369.23 337.944C1358.59 344.47 1347.97 351.074 1337.37 357.758L1332.86 344.292C1316.09 343.105 1299.26 341.425 1282.37 339.249C1280.55 333.871 1278.73 328.651 1276.92 323.589C1293.76 325.724 1310.57 327.405 1327.34 328.631C1325.68 324.656 1324.2 320.741 1322.95 317.004Z" fill="#2C2C2C"/>
<path d="M1402.39 97.8691C1429.82 109.446 1458.15 118.751 1487.1 125.691C1471.15 153.795 1453.58 180.95 1434.48 207.021C1431.4 197.47 1428.55 187.563 1425.23 177.36C1396.48 188.528 1366.91 197.434 1336.77 203.995C1332.82 190.589 1328.86 176.628 1324.91 162.114C1355 155.576 1384.54 146.69 1413.24 135.538C1409.53 123.318 1405.91 110.762 1402.39 97.8691Z" fill="#2C2C2C"/>
<path d="M1741.49 140.463C1800.82 88.0819 1859.07 32.8536 1920 -19.7053C1872.89 15.265 1827.74 52.7928 1784.74 92.709C1782.25 91.9092 1779.62 91.6912 1777.04 92.0717C1774.46 92.4523 1772 93.4213 1769.85 94.9038C1702.99 142.361 1634.41 183.886 1563.16 211.886C1556.94 216.982 1552.05 223.518 1548.92 230.928C1619.46 203.106 1687.33 162.352 1753.53 115.192C1749.1 123.408 1745.08 131.842 1741.49 140.463Z" fill="#2C2C2C"/>
<path d="M272.896 365.528C334.466 371.239 394.633 387.282 450.872 412.986C408.277 485.313 371.02 560.654 339.4 638.407C331.489 605.543 323.896 573.648 316.619 542.722C253.905 582.35 193.785 625.941 136.626 673.229C127.806 635.896 119.402 600.6 111.413 567.34C168.336 520.123 228.218 476.591 290.694 437.011C284.405 411.542 278.473 387.715 272.896 365.528Z" fill="#2C2C2C"/>
<path d="M706.266 162.115C764.524 199.428 822.603 234.25 881.098 264.029C835.095 265.949 789.012 263.965 743.345 258.097C739.762 253.876 736.841 249.136 734.683 244.038C671.517 231.323 607.118 225.771 542.707 227.487C538.495 217.818 534.283 205.657 529.596 191.064C593.654 189.401 657.696 194.973 720.504 207.674C715.936 194.208 711.25 178.962 706.266 162.115Z" fill="#2C2C2C"/>
<path d="M993.044 9.896C1062.81 75.4463 1132.04 133.759 1202.58 179.2C1164.05 219.424 1116.94 250.447 1064.77 269.962C1058.84 251.631 1052.31 231.225 1045.78 208.92C971.153 194.03 896.641 172.496 821.12 152.861C812.399 122.014 803.322 88.2005 794.067 52.0143C869.41 71.8277 943.685 93.5394 1018.14 108.548C1009.91 77.0282 1001.55 44.1443 993.044 9.896Z" fill="#2C2C2C"/>
<path d="M701.283 162.115C741.388 157.998 781.698 156.215 822.01 156.776C785.078 139.277 746.956 124.41 707.927 112.285C706.865 116.411 706.014 120.589 705.376 124.802C656.481 117.661 607.034 115.02 557.657 116.912C557.004 122.844 556.589 129.785 556.233 136.726C605.311 134.824 654.46 137.425 703.063 144.497C702.351 150.31 701.817 156.242 701.283 162.115Z" fill="#2C2C2C"/>
<path d="M1719.54 228.436C1739.35 227.428 1759.29 226.597 1779.22 226.004C1766.53 246.252 1753.89 266.659 1741.31 287.224C1738.98 280.421 1736.68 273.817 1734.43 267.41C1713.61 279.275 1692.9 290.012 1671.37 299.8C1668.58 291.969 1665.91 284.376 1663.12 277.198C1684.36 267.41 1705.36 256.614 1726.13 244.868C1723.93 239.173 1721.74 233.656 1719.54 228.436Z" fill="#2C2C2C"/>
<path d="M1687.21 189.937C1703.17 183.174 1719.07 175.581 1734.67 167.217C1723.55 179.397 1712.22 190.945 1700.67 201.861C1699.27 201.227 1697.94 200.452 1696.7 199.547C1679.5 212.005 1662.23 224.047 1644.79 235.555C1642.96 234.165 1641.25 232.616 1639.69 230.928C1657.07 219.479 1674.33 207.199 1691.48 194.979C1689.95 193.39 1688.52 191.706 1687.21 189.937Z" fill="#2C2C2C"/>
<path d="M56.7742 104.514C70.419 108.132 84.1231 111.751 97.7679 115.251C89.581 134.432 81.315 153.553 72.9699 172.615C71.3484 166.05 69.7466 159.386 68.1646 152.623C54.3221 163.104 40.4795 173.821 26.637 184.776L20.7045 158.674C34.3888 147.759 48.2313 137.042 62.2321 126.522C60.2744 119.225 58.4946 111.929 56.7742 104.514Z" fill="#2C2C2C"/>
<path d="M305.287 284.555C338.628 278.148 372.028 271.445 405.606 264.979C375.944 276.843 346.281 289.103 316.618 301.758C316.518 301.954 316.38 302.128 316.212 302.27C316.044 302.412 315.85 302.519 315.64 302.585C315.43 302.651 315.21 302.675 314.991 302.655C314.771 302.635 314.559 302.572 314.364 302.47C274.517 321.312 236.144 343.125 199.57 367.724C197.942 365.958 196.654 363.907 195.773 361.673C232.161 337.073 270.356 315.259 310.033 296.419C308.491 293.275 306.889 289.419 305.287 284.555Z" fill="#2C2C2C"/>
<path d="M1014.82 270.495C1032.22 270.851 1049.64 271.049 1067.08 271.088C1051.24 263.198 1035.4 255.19 1019.62 247.36L1018.2 254.36C996.901 248.902 975.544 243.207 954.186 237.512C953.653 240.538 953.119 243.444 952.585 246.588C973.882 252.521 995.18 257.919 1016.42 263.317L1014.82 270.495Z" fill="#2C2C2C"/>
<path d="M320.831 213.369C339.414 200.439 358.705 188.556 378.613 177.776C359.298 181.001 340.258 185.701 321.661 191.836C321.661 193.497 321.305 195.276 321.187 197.175C296.804 208.386 272.837 220.903 249.284 234.844C249.284 237.414 249.284 240.143 249.284 243.03C273.014 229.267 296.745 216.691 320.949 205.539C320.831 208.149 320.831 210.759 320.831 213.369Z" fill="#2C2C2C"/>
<path d="M91.1826 335.038C104.887 324.004 118.828 313.563 133.066 303.716C119.856 314.671 106.864 326.08 94.0896 337.944C93.7572 337.191 93.3808 336.458 92.9624 335.75C75.6988 349.393 58.6131 363.334 41.5274 377.275C41.2847 376.775 40.9414 376.33 40.5189 375.97C57.5452 361.97 74.5716 348.029 91.8352 334.444C91.6572 334.741 91.1826 335.038 91.1826 335.038Z" fill="#2C2C2C"/>
<path d="M406.912 244.097C417.986 238.323 429.139 232.767 440.371 227.428C429.258 227.428 418.164 227.744 407.09 228.377C407.09 230.038 407.09 231.699 407.09 233.36C392.97 237.631 378.989 242.416 365.147 247.716C365.147 249.733 365.147 251.75 365.147 253.648C378.989 248.388 392.95 243.623 407.03 239.351C406.971 241.012 406.912 242.555 406.912 244.097Z" fill="#2C2C2C"/>
<path d="M1260.78 273.639C1296.02 269.783 1331.26 264.8 1366.56 259.046C1337.31 257.147 1307.82 254.419 1278.16 251.69C1275.96 251.92 1273.89 252.833 1272.23 254.3C1229.23 250.77 1186.5 244.589 1144.26 235.792C1141.77 238.356 1139.76 241.351 1138.33 244.63C1180.33 253.365 1222.83 259.507 1265.58 263.02C1263.75 266.45 1262.14 269.997 1260.78 273.639Z" fill="#2C2C2C"/>
<path d="M108.506 374.189C122.942 370.235 137.338 365.904 151.695 361.198C139.83 375.198 128.439 389.02 116.633 402.723C115.981 400.41 115.21 398.037 114.438 395.486C98.0054 408.003 81.7503 420.935 65.5545 433.986C64.546 430.545 63.5375 426.926 62.5289 423.07C78.6654 410.02 94.9205 397.206 111.294 384.63C110.404 381.189 109.455 377.749 108.506 374.189Z" fill="#2C2C2C"/>
<path d="M1545.95 302.352C1598.87 274.162 1648.6 240.351 1694.27 201.505C1656.02 220.198 1615.7 234.296 1574.13 243.505C1571.35 250.801 1568.62 258.157 1565.83 265.276C1509.81 291.495 1450.24 309.362 1389.04 318.309C1386.46 326.39 1383.41 334.313 1379.9 342.038C1440.57 333.147 1499.61 315.44 1555.15 289.479C1552.77 294.22 1549.67 298.563 1545.95 302.352Z" fill="#2C2C2C"/>
<path d="M173.289 375.673C217.723 336.164 262.277 297.071 309.381 261.716C260.841 272.371 213.557 288.099 168.306 308.639C168.78 315.639 169.492 322.936 170.085 330.351C111.887 371.579 56.2403 417.791 0 464.24C1.36448 473.138 2.61031 482.036 3.79681 490.163C59.3252 444.13 114.676 398.393 172.043 357.639C172.755 364.283 173.111 370.274 173.289 375.673Z" fill="#2C2C2C"/>
<path d="M1589.26 309.884C1624.86 332.664 1659.92 355.028 1695.39 376.74C1675.07 412.609 1654.48 447.807 1633.64 482.332C1629.01 463.705 1624.38 445.315 1619.76 427.163C1583.3 431.437 1546.57 432.884 1509.89 431.493C1504.19 408.872 1498.53 386.725 1492.92 365.053C1529.58 366.5 1566.29 365.092 1602.73 360.841C1598.14 343.48 1593.65 326.494 1589.26 309.884Z" fill="#2C2C2C"/>
<path d="M943.567 251.275C979.162 273.877 1014.4 298.732 1049.7 324.834C1024.41 335.79 999.914 348.475 976.373 362.8C972.735 349.393 969.136 336.461 965.576 324.003C927.074 314.275 888.454 305.139 849.952 297.546C845.72 282.439 841.587 268.103 837.552 254.538C876.055 262.131 914.675 271.326 952.999 281.055C949.796 270.614 946.651 260.687 943.567 251.275Z" fill="#2C2C2C"/>
<path d="M1549.1 223.275L1605.93 210.936L1564.4 240.597C1562.8 237.987 1561.14 235.614 1559.48 233.478C1538.57 240.52 1517.3 246.46 1495.77 251.275C1493.97 248.87 1491.98 246.609 1489.83 244.512C1511.33 239.687 1532.55 233.747 1553.43 226.716C1552.09 225.448 1550.64 224.296 1549.1 223.275Z" fill="#2C2C2C"/>
<path d="M636.262 216.75C701.52 246.41 766.303 289.003 831.264 339.308C782.533 376.273 739.081 419.722 702.113 468.451C694.203 436.813 686.649 406.44 679.451 377.333C610.672 377.835 542.372 388.837 476.915 409.96C468.253 374.96 459.968 342.313 452.058 312.02C517.24 290.969 585.267 280.045 653.763 279.63C647.712 256.93 641.878 235.97 636.262 216.75Z" fill="#2C2C2C"/>
<path d="M401.453 52.4885C450.871 78.8273 500.17 105.878 549.766 132.039C514.586 157.013 478.991 181.513 442.981 205.953C439.58 195.236 436.06 183.372 432.421 170.36C379.654 180.484 328.423 197.413 280.015 220.724C275.15 202.73 269.989 182.956 264.531 161.403C312.763 138.156 363.816 121.285 416.403 111.217C411.697 92.7876 406.713 73.2115 401.453 52.4885Z" fill="#2C2C2C"/>
<path d="M218.613 -288.67C287.027 -245.295 353.219 -198.51 416.938 -148.493C376.003 -87.7477 336.611 -23.9177 297.279 41.336C290.081 12.0312 282.685 -18.5194 275.091 -50.3157C209.477 -25.6973 146.83 10.5481 86.7929 53.2003C77.0043 11.6753 66.9783 -31.1549 56.6558 -75.1122C116.574 -117.764 179.103 -154.01 244.598 -178.094L218.613 -288.67Z" fill="#2C2C2C"/>
</g>
</svg>
