<svg width="73" height="73" viewBox="0 0 73 73" fill="none" xmlns="http://www.w3.org/2000/svg">
<path d="M17.2806 20.5592C16.4933 20.5592 15.8548 21.1975 15.8548 21.985V27.4055H14.8193C12.9501 27.4055 11.4294 28.9281 11.4294 30.7996V45.9915C11.4294 47.8607 12.9501 49.3814 14.8193 49.3814H30.9449C32.8141 49.3814 34.3348 47.8607 34.3348 45.9915V30.7995C34.3348 28.928 32.8141 27.4054 30.9449 27.4054H29.9095V21.9849C29.9095 21.1974 29.271 20.5591 28.4837 20.5591C27.6964 20.5591 27.0579 21.1974 27.0579 21.9849V27.4054H18.7064V21.9849C18.7064 21.1975 18.0681 20.5592 17.2806 20.5592ZM31.4832 30.7995V45.9915C31.4832 46.2833 31.2367 46.5298 30.9449 46.5298H14.8193C14.5274 46.5298 14.2809 46.2833 14.2809 45.9915V30.7995C14.2809 30.5053 14.5274 30.257 14.8193 30.257H30.9449C31.2367 30.257 31.4832 30.5055 31.4832 30.7995Z" fill="#4F38DA"/>
<path d="M18.9861 33.9527C18.1988 33.9527 17.5603 34.591 17.5603 35.3785C17.5603 36.1659 18.1988 36.8043 18.9861 36.8043H18.9943C19.7816 36.8043 20.416 36.1659 20.416 35.3785C20.416 34.591 19.7736 33.9527 18.9861 33.9527Z" fill="#4F38DA"/>
<path d="M26.77 33.9527C25.9827 33.9527 25.3443 34.591 25.3443 35.3785C25.3443 36.1659 25.9827 36.8043 26.77 36.8043H26.7782C27.5655 36.8043 28.2 36.1659 28.2 35.3785C28.2 34.591 27.5574 33.9527 26.77 33.9527Z" fill="#4F38DA"/>
<path d="M70.4952 8.88732H45.7643V5.84314C45.7643 2.62116 43.1431 0 39.9212 0H5.84314C2.6213 0 0 2.62116 0 5.84314V43.1624C0 43.9498 0.638465 44.5882 1.42578 44.5882C2.2131 44.5882 2.85156 43.9498 2.85156 43.1624V5.84314C2.85156 4.19365 4.19365 2.85156 5.84314 2.85156H10.9767V7.26578C10.9767 8.48425 11.9699 9.4756 13.1905 9.4756H32.5735C33.7943 9.4756 34.7873 8.48425 34.7873 7.26578V2.85156H39.921C41.5705 2.85156 42.9124 4.19365 42.9124 5.84314V8.88732H42.1114C40.7301 8.88732 39.6066 10.0093 39.6066 11.3881V26.8589L38.1285 37.6503C37.9784 38.7452 39.1373 39.6048 40.1432 39.1361L42.9126 37.8459V60.465H2.85156V55.9659C2.85156 55.1784 2.2131 54.5401 1.42578 54.5401C0.638465 54.5401 0 55.1784 0 55.9659V67.1527C0 70.377 2.6213 73 5.84314 73H39.9212C43.1431 73 45.7642 70.377 45.7642 67.1529V36.5175L48.3239 35.325H70.495C71.8763 35.325 72.9998 34.2014 72.9998 32.8202V11.3881C73 10.0091 71.8763 8.88732 70.4952 8.88732ZM31.9359 6.62404H13.8282V2.85156H31.9359V6.62404ZM39.9212 70.1484H5.84314C4.19365 70.1484 2.85156 68.8046 2.85156 67.1529V63.3165H42.9127V67.1529C42.9127 68.8046 41.5706 70.1484 39.9212 70.1484ZM70.1484 32.4734H48.0082C47.8002 32.4734 47.5947 32.5189 47.4061 32.6069L41.3084 35.4475L42.4451 27.1494C42.4539 27.0853 42.4583 27.0207 42.4583 26.956V11.7389H70.1484V32.4734Z" fill="#4F38DA"/>
<path d="M61.9069 17.8618H65.2048C65.9921 17.8618 66.6306 17.2234 66.6306 16.436C66.6306 15.6485 65.9921 15.0102 65.2048 15.0102H61.9069C61.1195 15.0102 60.4811 15.6485 60.4811 16.436C60.4811 17.2234 61.1195 17.8618 61.9069 17.8618Z" fill="#4F38DA"/>
<path d="M47.402 17.8618H56.4792C57.2665 17.8618 57.905 17.2234 57.905 16.436C57.905 15.6485 57.2665 15.0102 56.4792 15.0102H47.402C46.6146 15.0102 45.9762 15.6485 45.9762 16.436C45.9762 17.2234 46.6145 17.8618 47.402 17.8618Z" fill="#4F38DA"/>
<path d="M47.402 23.5319H49.5641C50.3515 23.5319 50.9899 22.8936 50.9899 22.1061C50.9899 21.3187 50.3515 20.6804 49.5641 20.6804H47.402C46.6146 20.6804 45.9762 21.3187 45.9762 22.1061C45.9762 22.8936 46.6145 23.5319 47.402 23.5319Z" fill="#4F38DA"/>
<path d="M65.2048 20.6804H55.0041C54.2168 20.6804 53.5783 21.3187 53.5783 22.1061C53.5783 22.8936 54.2168 23.5319 55.0041 23.5319H65.2048C65.9921 23.5319 66.6306 22.8936 66.6306 22.1061C66.6306 21.3187 65.9923 20.6804 65.2048 20.6804Z" fill="#4F38DA"/>
<path d="M47.402 29.1982H54.7655C55.5529 29.1982 56.1913 28.5599 56.1913 27.7724C56.1913 26.9849 55.5529 26.3466 54.7655 26.3466H47.402C46.6146 26.3466 45.9762 26.9849 45.9762 27.7724C45.9762 28.5599 46.6145 29.1982 47.402 29.1982Z" fill="#4F38DA"/>
<path d="M65.2048 26.3466H60.1933C59.406 26.3466 58.7676 26.9849 58.7676 27.7724C58.7676 28.5599 59.406 29.1982 60.1933 29.1982H65.2048C65.9921 29.1982 66.6306 28.5599 66.6306 27.7724C66.6306 26.9849 65.9923 26.3466 65.2048 26.3466Z" fill="#4F38DA"/>
<path d="M1.42578 50.9941C2.2131 50.9941 2.85156 50.3517 2.85156 49.5642C2.85156 48.7768 2.2131 48.1384 1.42578 48.1384C0.638465 48.1384 0 48.7768 0 49.5642V49.5723C0 50.3598 0.638465 50.9941 1.42578 50.9941Z" fill="#4F38DA"/>
</svg>
