<svg width="74" height="60" viewBox="0 0 74 60" fill="none" xmlns="http://www.w3.org/2000/svg">
<path d="M67.1348 0.154297H15.7539C15.1553 0.154297 14.6699 0.639488 14.6699 1.23828C14.6699 1.83707 15.1553 2.32227 15.7539 2.32227H67.1348C69.7248 2.32227 71.832 4.42939 71.832 7.01953V13.1621H55.0664C54.4678 13.1621 53.9824 13.6473 53.9824 14.2461C53.9824 14.8449 54.4678 15.3301 55.0664 15.3301H71.832V45.3926C71.832 45.9914 72.3174 46.4766 72.916 46.4766C73.5147 46.4766 74 45.9914 74 45.3926V7.01953C74 3.23411 70.9202 0.154297 67.1348 0.154297Z" fill="#4F38DA"/>
<path d="M72.916 49.3672C72.3174 49.3672 71.832 49.8524 71.832 50.4512V52.9805C71.832 55.5706 69.7248 57.6777 67.1348 57.6777H6.86523C4.27523 57.6777 2.16797 55.5706 2.16797 52.9805V15.3301H50.0078C50.6065 15.3301 51.0918 14.8449 51.0918 14.2461C51.0918 13.6473 50.6065 13.1621 50.0078 13.1621H2.16797V7.01953C2.16797 4.42939 4.27523 2.32227 6.86523 2.32227H10.6953C11.294 2.32227 11.7793 1.83707 11.7793 1.23828C11.7793 0.639488 11.294 0.154297 10.6953 0.154297H6.86523C3.07982 0.154297 0 3.23411 0 7.01953V52.9805C0 56.7659 3.07982 59.8457 6.86523 59.8457H67.1348C70.9202 59.8457 74 56.7659 74 52.9805V50.4512C74 49.8524 73.5147 49.3672 72.916 49.3672Z" fill="#4F38DA"/>
<path d="M7.69629 4.4541C5.90309 4.4541 4.44434 5.913 4.44434 7.70605C4.44434 9.49911 5.90309 10.958 7.69629 10.958C9.48949 10.958 10.9482 9.49911 10.9482 7.70605C10.9482 5.913 9.48949 4.4541 7.69629 4.4541ZM7.69629 8.79004C7.09851 8.79004 6.6123 8.30384 6.6123 7.70605C6.6123 7.10827 7.09851 6.62207 7.69629 6.62207C8.29407 6.62207 8.78027 7.10827 8.78027 7.70605C8.78027 8.30384 8.29407 8.79004 7.69629 8.79004Z" fill="#4F38DA"/>
<path d="M20.2344 7.74219C20.2344 5.94913 18.7756 4.49023 16.9824 4.49023C15.1892 4.49023 13.7305 5.94913 13.7305 7.74219C13.7305 9.53524 15.1892 10.9941 16.9824 10.9941C18.7756 10.9941 20.2344 9.53524 20.2344 7.74219ZM15.8984 7.74219C15.8984 7.14441 16.3846 6.6582 16.9824 6.6582C17.5802 6.6582 18.0664 7.14441 18.0664 7.74219C18.0664 8.33997 17.5802 8.82617 16.9824 8.82617C16.3846 8.82617 15.8984 8.33997 15.8984 7.74219Z" fill="#4F38DA"/>
<path d="M29.4844 7.74219C29.4844 5.94913 28.0256 4.49023 26.2324 4.49023C24.4392 4.49023 22.9805 5.94913 22.9805 7.74219C22.9805 9.53524 24.4392 10.9941 26.2324 10.9941C28.0256 10.9941 29.4844 9.53524 29.4844 7.74219ZM25.1484 7.74219C25.1484 7.14441 25.6346 6.6582 26.2324 6.6582C26.8302 6.6582 27.3164 7.14441 27.3164 7.74219C27.3164 8.33997 26.8302 8.82617 26.2324 8.82617C25.6346 8.82617 25.1484 8.33997 25.1484 7.74219Z" fill="#4F38DA"/>
<path d="M66.4121 10.9941C68.2053 10.9941 69.6641 9.53524 69.6641 7.74219C69.6641 5.94913 68.2053 4.49023 66.4121 4.49023H35.627C33.8338 4.49023 32.375 5.94913 32.375 7.74219C32.375 9.53524 33.8338 10.9941 35.627 10.9941H66.4121ZM34.543 7.74219C34.543 7.14441 35.0292 6.6582 35.627 6.6582H66.4121C67.0099 6.6582 67.4961 7.14441 67.4961 7.74219C67.4961 8.33997 67.0099 8.82617 66.4121 8.82617H35.627C35.0292 8.82617 34.543 8.33997 34.543 7.74219Z" fill="#4F38DA"/>
<path d="M25.1484 39.196C24.5498 39.196 24.0645 39.6812 24.0645 40.28C24.0645 40.8788 24.5498 41.364 25.1484 41.364H55.7168C58.7054 41.364 61.1367 38.9327 61.1367 35.9441C61.1367 32.9555 58.7054 30.5242 55.7168 30.5242H18.2832C15.2946 30.5242 12.8633 32.9555 12.8633 35.9441C12.8633 38.9327 15.2946 41.364 18.2832 41.364H20.0898C20.6885 41.364 21.1738 40.8788 21.1738 40.28C21.1738 39.6812 20.6885 39.196 20.0898 39.196H18.2832C16.49 39.196 15.0312 37.7371 15.0312 35.9441C15.0312 34.151 16.49 32.6921 18.2832 32.6921H50.2969V39.196H25.1484ZM52.4648 32.6921H55.7168C57.51 32.6921 58.9688 34.151 58.9688 35.9441C58.9688 37.7371 57.51 39.196 55.7168 39.196H52.4648V32.6921Z" fill="#4F38DA"/>
</svg>
