<svg width="55" height="63" viewBox="0 0 55 63" fill="none" xmlns="http://www.w3.org/2000/svg">
<path d="M28.7526 61.7598C28.7526 62.4432 28.1957 63 27.5112 63C26.8278 63 26.271 62.4432 26.271 61.7598C26.271 61.0765 26.8278 60.5197 27.5112 60.5197C28.1957 60.5197 28.7526 61.0765 28.7526 61.7598ZM1.45669 61.7598V60.191C1.45669 51.9227 7.06468 47.4137 9.52019 45.9416C12.8551 43.9437 16.4372 42.4332 20.1831 41.4407V39.444C19.5585 38.8927 18.9876 38.2658 18.4831 37.5671C16.9976 35.5098 15.7852 33.2793 14.8715 30.9242C14.0352 30.81 13.2707 30.2778 12.8775 29.4453C12.5026 28.6517 9.90216 23.8412 9.5037 22.9851C8.49359 20.8147 9.81374 18.6704 11.4873 17.9802C11.766 17.8652 12.0525 17.7803 12.3439 17.7318C12.0729 16.6232 11.936 15.4831 11.936 14.3239C11.936 6.42563 18.3616 0 26.2598 0C27.6478 0 28.9624 0.530911 29.9612 1.49489C29.9719 1.50518 29.9886 1.50518 29.9993 1.49489C30.9984 0.530911 32.3128 0 33.7008 0C39.0688 0 43.436 4.36721 43.436 9.73524V11.9937C43.436 13.9384 43.169 15.8527 42.6421 17.7082C42.9398 17.7565 43.2371 17.8342 43.5191 17.9618C45.5783 18.8943 46.3824 21.1986 45.5026 22.9667C45.0821 23.8119 42.5038 28.633 42.1288 29.427C41.7358 30.259 40.9715 30.7911 40.1358 30.9057C39.2216 33.2665 38.0073 35.5022 36.5189 37.5641C36.0138 38.2637 35.4422 38.8915 34.8169 39.4433V41.4406C38.5627 42.4331 42.1449 43.9436 45.4798 45.9415C47.9353 47.4136 53.5433 51.9225 53.5433 60.1909V61.7598C53.5433 62.4448 52.9881 63 52.3031 63H33.0943C33.0931 63 33.0931 63 33.0919 63C32.3811 63 31.8072 62.3989 31.8544 61.6769C31.8976 61.0177 32.4749 60.5197 33.1354 60.5197H51.063C51.063 55.283 48.4351 50.6046 44.2037 48.0697C41.2165 46.2797 38.0174 44.904 34.6749 43.9714C34.0065 47.3216 31.0439 49.8543 27.5 49.8543C23.9562 49.8543 20.9935 47.3217 20.3251 43.9714C16.9833 44.904 13.7834 46.2797 10.7963 48.0697C6.5649 50.6046 3.937 55.139 3.937 60.5197H21.9317C22.6435 60.5197 23.2167 61.1239 23.1677 61.846C23.123 62.5039 22.5461 63 21.8867 63H2.69684C2.01191 63 1.45669 62.4448 1.45669 61.7598ZM14.4208 14.5139C14.5353 14.3794 16.2466 12.2776 19.1918 12.2776C20.6609 12.2776 22.0719 12.7895 23.1893 13.7023C24.2187 14.543 25.5293 15.0059 26.8799 15.0059C30.0762 15.0059 32.6366 12.4352 32.7089 9.15348C32.7238 8.47945 33.2743 7.94073 33.9486 7.9406C34.6227 7.94048 35.1735 8.47896 35.1887 9.15298C35.2243 10.7367 36.0767 12.1099 37.4134 12.7368C38.7281 13.3534 39.8283 14.2869 40.6351 15.429C40.8484 14.3014 40.9558 13.1537 40.9558 11.9938V9.73524C40.9558 5.73486 37.7013 2.48031 33.7009 2.48031C32.9588 2.48031 32.256 2.76419 31.7219 3.2796C30.7454 4.22236 29.2154 4.22224 28.2388 3.2796C27.7047 2.76419 27.0019 2.48031 26.2598 2.48031C19.7293 2.48031 14.3583 7.72494 14.4208 14.5139ZM32.3366 41.0955C29.4003 42.4815 26.0078 42.6415 22.6634 41.096V42.5374C22.6634 45.2044 24.833 47.374 27.5 47.374C30.167 47.374 32.3366 45.2044 32.3366 42.5374V41.0955ZM34.5079 36.1124C36.0462 33.9816 37.2657 31.6487 38.1298 29.1774C38.2814 28.7437 38.8575 28.0876 39.8336 28.4717C40.2937 27.4916 42.8845 22.701 43.26 21.9073C43.5461 21.3027 43.2001 20.5153 42.5499 20.2449C42.1827 20.0923 41.7764 20.1189 41.4194 20.3014C40.6496 20.6946 39.6976 20.2306 39.5993 19.3798C39.3762 17.4485 38.1243 15.8098 36.3602 14.9825C35.4685 14.5643 34.708 13.9509 34.1156 13.2002C33.7424 13.8717 33.258 14.4757 32.7261 15.0489C30.3723 17.5863 25.4516 18.7145 21.6203 15.6234C20.1256 14.4174 17.9028 14.49 16.5313 15.8813C15.7852 16.6382 15.3464 17.6598 15.3464 18.7037V19.1919C15.3504 20.1028 14.3824 20.7109 13.55 20.3004C13.2052 20.1304 12.8111 20.1228 12.4564 20.2637C11.894 20.4869 11.4139 21.215 11.7463 21.9259C12.1183 22.7215 14.7663 27.5838 15.1584 28.4719C16.2505 28.0918 16.7631 28.8719 16.8766 29.1953C17.7414 31.6606 18.9585 33.9889 20.494 36.1154C22.1452 38.4022 24.6988 39.7138 27.4996 39.7136C30.3015 39.7131 32.856 38.4006 34.5079 36.1124ZM54.1634 7.44094V1.24016C54.1634 0.555219 53.6082 0 52.9232 0H46.7224C46.0375 0 45.4823 0.555219 45.4823 1.24016C45.4823 1.9251 46.0375 2.48031 46.7224 2.48031H51.6831V7.44094C51.6831 8.12588 52.2383 8.6811 52.9232 8.6811C53.6082 8.6811 54.1634 8.12588 54.1634 7.44094ZM54.1634 41.2972V35.0965C54.1634 34.4115 53.6082 33.8563 52.9232 33.8563C52.2383 33.8563 51.6831 34.4115 51.6831 35.0965V40.0571H46.7224C46.0375 40.0571 45.4823 40.6123 45.4823 41.2972C45.4823 41.9822 46.0375 42.5374 46.7224 42.5374H52.9232C53.6082 42.5374 54.1634 41.9822 54.1634 41.2972ZM3.31692 7.44094V2.48031H8.27755C8.96249 2.48031 9.51771 1.9251 9.51771 1.24016C9.51771 0.555219 8.96249 0 8.27755 0H2.07677C1.39183 0 0.836609 0.555219 0.836609 1.24016V7.44094C0.836609 8.12588 1.39183 8.6811 2.07677 8.6811C2.76171 8.6811 3.31692 8.12588 3.31692 7.44094ZM9.51771 41.2972C9.51771 40.6123 8.96249 40.0571 8.27755 40.0571H3.31692V35.0965C3.31692 34.4115 2.76171 33.8563 2.07677 33.8563C1.39183 33.8563 0.836609 34.4115 0.836609 35.0965V41.2972C0.836609 41.9822 1.39183 42.5374 2.07677 42.5374H8.27755C8.96249 42.5374 9.51771 41.9822 9.51771 41.2972Z" fill="#4F38DA"/>
</svg>
