<svg width="70" height="70" viewBox="0 0 70 70" fill="none" xmlns="http://www.w3.org/2000/svg">
<g clip-path="url(#clip0)">
<path d="M63 6.52087H7.00686C3.14327 6.52087 0 9.66401 0 13.5277V13.5281V56.4793C0 60.3391 3.14012 63.4793 7 63.4793H63C66.8597 63.4793 70 60.3391 70 56.4793C70 55.2232 70 14.2714 70 13.521C70 9.66113 66.8597 6.52087 63 6.52087ZM4.11765 13.5277C4.11765 11.9348 5.41375 10.6385 7.00686 10.6385H63C64.5893 10.6385 65.8824 11.9316 65.8824 13.5209V17.0409C65.0027 16.6416 64.0274 16.4174 63 16.4174H7.00686C5.41045 16.4174 4.11765 15.1247 4.11765 13.5281V13.5277ZM63 59.3615H7C5.41059 59.3615 4.11765 58.0685 4.11765 56.4792C4.11765 54.8367 4.11765 21.4078 4.11765 19.9154C5.01365 20.3213 5.99378 20.5349 7.00686 20.5349H63C64.5893 20.5349 65.8824 21.828 65.8824 23.4172V23.6146V32.2273H51.229C51.2198 32.2273 51.211 32.2286 51.202 32.2287C46.9581 32.2435 43.5098 35.7003 43.5098 39.9477C43.5098 44.188 46.9465 47.6396 51.1807 47.666C51.1969 47.6663 51.2128 47.6685 51.2292 47.6685H65.8824V56.4792C65.8824 58.0685 64.5893 59.3615 63 59.3615ZM65.8824 43.5509H58.0536C59.223 41.3451 59.2723 38.6437 58.0539 36.345H65.8824V43.5509ZM51.2294 36.3457C53.2157 36.3457 54.8314 37.9614 54.8314 39.9477C54.8314 41.9339 53.2157 43.5496 51.2294 43.5496C49.2432 43.5496 47.6275 41.9339 47.6275 39.9477C47.6275 37.9614 49.2432 36.3457 51.2294 36.3457Z" fill="#4F38DA"/>
</g>
<defs>
<clipPath id="clip0">
<rect width="70" height="70" fill="white"/>
</clipPath>
</defs>
</svg>
