<svg width="73" height="73" viewBox="0 0 73 73" fill="none" xmlns="http://www.w3.org/2000/svg">
<rect width="73" height="73" fill="#F2F2F2"/>
<path d="M36.5 31.0338C39.4976 31.0338 41.9662 33.5025 41.9662 36.5C41.9662 39.4976 39.4976 41.9662 36.5 41.9662C33.5025 41.9662 31.0338 39.4976 31.0338 36.5C31.0338 33.5025 33.5025 31.0338 36.5 31.0338Z" fill="#F2F2F2"/>
<path d="M36.5 44.1111C32.2798 44.1111 28.8889 40.7203 28.8889 36.5C28.8889 32.2798 32.2798 28.889 36.5 28.889C40.7202 28.889 44.1111 32.2798 44.1111 36.5C44.1111 40.7203 40.7202 44.1111 36.5 44.1111ZM36.5 33.1787C34.725 33.1787 33.1788 34.7251 33.1788 36.4999C33.1788 38.2747 34.7252 39.8211 36.5 39.8211C38.2748 39.8211 39.8212 38.2747 39.8212 36.4999C39.8212 34.7251 38.275 33.1787 36.5 33.1787Z" fill="#4F38DA" stroke="white"/>
<path d="M48.9322 50.9581L48.9321 50.958C48.0606 50.0864 48.0836 48.7407 48.9165 47.9772L48.9245 47.9699L48.9321 47.9622C52.0245 44.8698 53.6631 40.8629 53.6631 36.4999C53.6631 32.1368 52.0245 28.1301 48.9321 25.0376L48.9321 25.0376C48.0606 24.166 48.0836 22.8202 48.9165 22.0568L48.9245 22.0494L48.9321 22.0418C49.8037 21.1702 51.1495 21.1933 51.9129 22.0261L51.9203 22.0341L51.928 22.0418C55.8026 25.9164 57.9529 31.0795 57.9529 36.4997C57.9529 41.9199 55.8026 47.083 51.928 50.9577L51.9278 50.9578C51.4863 51.3996 50.9939 51.605 50.43 51.605C49.8658 51.605 49.3736 51.3996 48.9322 50.9581ZM48.5786 25.3911L48.5791 25.3906L48.5786 25.3911Z" fill="#4F38DA" stroke="white"/>
<path d="M21.0723 50.958L21.0722 50.958C13.0671 42.9529 13.0699 29.9581 21.0703 22.0438L21.0722 22.0419C21.9438 21.1703 23.2896 21.1934 24.053 22.0262L24.0604 22.0342L24.068 22.0419C24.9396 22.9134 24.9165 24.2592 24.0837 25.0227L24.0757 25.03L24.068 25.0377C17.788 31.3177 17.7917 41.5949 24.0655 47.9596L24.068 47.9622C24.9396 48.8337 24.9165 50.1795 24.0837 50.943L24.0757 50.9503L24.068 50.958C23.6265 51.3995 23.1342 51.605 22.57 51.605C22.0059 51.605 21.5136 51.3995 21.0723 50.958Z" fill="#4F38DA" stroke="white"/>
<path d="M59.9527 59.5981L59.9526 59.5981C59.0811 58.7265 59.1042 57.3807 59.937 56.6173L59.9457 56.6093L59.9541 56.6008C70.9916 45.4735 70.9916 27.5264 59.9541 16.3991L59.9541 16.3991L59.9526 16.3976C59.0811 15.526 59.1042 14.1803 59.937 13.4168L59.945 13.4095L59.9526 13.4018C60.8242 12.5302 62.17 12.5533 62.9334 13.3861L62.9408 13.3941L62.9485 13.4018C69.1142 19.5676 72.5 27.7277 72.5 36.4999C72.5 45.272 69.1141 53.4323 62.9485 59.5979L62.9484 59.598C62.5069 60.0397 62.0146 60.2451 61.4505 60.2451C60.8863 60.2451 60.3941 60.0396 59.9527 59.5981Z" fill="#4F38DA" stroke="white"/>
<path d="M10.0518 59.5981L10.0517 59.5981C3.88595 53.4323 0.5 45.2721 0.5 36.5C0.5 27.7279 3.88595 19.5676 10.0516 13.4018C10.9231 12.5302 12.2689 12.5533 13.0324 13.3861L13.0397 13.3941L13.0474 13.4018C13.9189 14.2734 13.8959 15.6191 13.063 16.3826L13.0543 16.3906L13.0459 16.3991C2.00842 27.5264 2.00842 45.4735 13.0459 56.6008L13.0474 56.6023C13.9189 57.4738 13.8959 58.8196 13.063 59.5831L13.055 59.5904L13.0473 59.5981C12.606 60.0396 12.1135 60.2451 11.5495 60.2451C10.9854 60.2451 10.4931 60.0396 10.0518 59.5981Z" fill="#4F38DA" stroke="white"/>
</svg>
