<svg width="73" height="49" viewBox="0 0 73 49" fill="none" xmlns="http://www.w3.org/2000/svg">
<path d="M36.5 19.0338C39.4976 19.0338 41.9662 21.5025 41.9662 24.5C41.9662 27.4976 39.4976 29.9662 36.5 29.9662C33.5025 29.9662 31.0338 27.4976 31.0338 24.5C31.0338 21.5025 33.5025 19.0338 36.5 19.0338Z" fill="#F2F2F2"/>
<path d="M36.5 32.1111C32.2798 32.1111 28.8889 28.7203 28.8889 24.5C28.8889 20.2798 32.2798 16.889 36.5 16.889C40.7202 16.889 44.1111 20.2798 44.1111 24.5C44.1111 28.7203 40.7202 32.1111 36.5 32.1111ZM36.5 21.1787C34.725 21.1787 33.1788 22.7251 33.1788 24.4999C33.1788 26.2747 34.7252 27.8211 36.5 27.8211C38.2748 27.8211 39.8212 26.2747 39.8212 24.4999C39.8212 22.7251 38.275 21.1787 36.5 21.1787Z" fill="#4F38DA" stroke="white"/>
<path d="M48.9322 38.9581L48.9321 38.958C48.0606 38.0864 48.0836 36.7407 48.9165 35.9772L48.9245 35.9699L48.9321 35.9622C52.0245 32.8698 53.6631 28.8629 53.6631 24.4999C53.6631 20.1368 52.0245 16.1301 48.9321 13.0376L48.9321 13.0376C48.0606 12.166 48.0836 10.8202 48.9165 10.0568L48.9245 10.0494L48.9321 10.0418C49.8037 9.17019 51.1495 9.19327 51.9129 10.0261L51.9203 10.0341L51.928 10.0418C55.8026 13.9164 57.9529 19.0795 57.9529 24.4997C57.9529 29.9199 55.8026 35.083 51.928 38.9577L51.9278 38.9578C51.4863 39.3996 50.9939 39.605 50.43 39.605C49.8658 39.605 49.3736 39.3996 48.9322 38.9581ZM48.5786 13.3911L48.5791 13.3906L48.5786 13.3911Z" fill="#4F38DA" stroke="white"/>
<path d="M21.0723 38.958L21.0722 38.958C13.0671 30.9529 13.0699 17.9581 21.0703 10.0438L21.0722 10.0419C21.9438 9.17031 23.2896 9.19339 24.053 10.0262L24.0604 10.0342L24.068 10.0419C24.9396 10.9134 24.9165 12.2592 24.0837 13.0227L24.0757 13.03L24.068 13.0377C17.788 19.3177 17.7917 29.5949 24.0655 35.9596L24.068 35.9622C24.9396 36.8337 24.9165 38.1795 24.0837 38.943L24.0757 38.9503L24.068 38.958C23.6265 39.3995 23.1342 39.605 22.57 39.605C22.0059 39.605 21.5136 39.3995 21.0723 38.958Z" fill="#4F38DA" stroke="white"/>
<path d="M59.9527 47.5981L59.9526 47.5981C59.0811 46.7265 59.1042 45.3807 59.937 44.6173L59.9457 44.6093L59.9541 44.6008C70.9916 33.4735 70.9916 15.5264 59.9541 4.39905L59.9541 4.39905L59.9526 4.39762C59.0811 3.52605 59.1042 2.18028 59.937 1.41682L59.945 1.40948L59.9526 1.4018C60.8242 0.530234 62.17 0.553314 62.9334 1.38613L62.9408 1.39413L62.9485 1.4018C69.1142 7.56757 72.5 15.7277 72.5 24.4999C72.5 33.272 69.1141 41.4323 62.9485 47.5979L62.9484 47.598C62.5069 48.0397 62.0146 48.2451 61.4505 48.2451C60.8863 48.2451 60.3941 48.0396 59.9527 47.5981Z" fill="#4F38DA" stroke="white"/>
<path d="M10.0518 47.5981L10.0517 47.5981C3.88595 41.4323 0.5 33.2721 0.5 24.5C0.5 15.7279 3.88595 7.56757 10.0516 1.4018C10.9231 0.530234 12.2689 0.553314 13.0324 1.38613L13.0397 1.39413L13.0474 1.4018C13.9189 2.27337 13.8959 3.61914 13.063 4.38261L13.0543 4.39063L13.0459 4.39905C2.00842 15.5264 2.00842 33.4735 13.0459 44.6008L13.0474 44.6023C13.9189 45.4738 13.8959 46.8196 13.063 47.5831L13.055 47.5904L13.0473 47.5981C12.606 48.0396 12.1135 48.2451 11.5495 48.2451C10.9854 48.2451 10.4931 48.0396 10.0518 47.5981Z" fill="#4F38DA" stroke="white"/>
</svg>
