<svg width="99" height="99" viewBox="0 0 99 99" fill="none" xmlns="http://www.w3.org/2000/svg">
<path d="M49.8248 12.9458C29.4512 12.9458 12.9412 29.4558 12.9412 49.8294C12.9412 70.1956 29.4512 86.7007 49.8248 86.7007C70.1935 86.7007 86.7059 70.1932 86.7059 49.8294C86.7084 29.4558 70.1935 12.9458 49.8248 12.9458Z" fill="white"/>
<circle cx="49.5" cy="49.5" r="48.5" stroke="white" stroke-width="2"/>
<path d="M61.99 48.3809L46.673 37.2466C46.1109 36.8391 45.3647 36.7778 44.7485 37.0944C44.1275 37.4086 43.7397 38.0468 43.7397 38.7366V60.9978C43.7397 61.6949 44.1275 62.3307 44.7485 62.6449C45.0112 62.7774 45.2984 62.8437 45.588 62.8437C45.9661 62.8437 46.349 62.7234 46.673 62.4853L61.99 51.3608C62.4736 51.0049 62.7559 50.4551 62.7559 49.8709C62.7583 49.2768 62.4687 48.7295 61.99 48.3809Z" fill="#181818"/>
</svg>
